<?xml version="1.0" encoding="UTF-8" standalone="no"?>
<svg
   width="251.54283"
   zoomAndPan="magnify"
   viewBox="0 0 188.65712 177.38669"
   height="236.51559"
   preserveAspectRatio="xMidYMid"
   version="1.0"
   id="svg221"
   sodipodi:docname="BugTrail.svg"
   inkscape:version="1.2.2 (732a01da63, 2022-12-09)"
   xmlns:inkscape="http://www.inkscape.org/namespaces/inkscape"
   xmlns:sodipodi="http://sodipodi.sourceforge.net/DTD/sodipodi-0.dtd"
   xmlns="http://www.w3.org/2000/svg"
   xmlns:svg="http://www.w3.org/2000/svg">
  <sodipodi:namedview
     id="namedview223"
     pagecolor="#ffffff"
     bordercolor="#000000"
     borderopacity="0.25"
     inkscape:showpageshadow="2"
     inkscape:pageopacity="0.0"
     inkscape:pagecheckerboard="0"
     inkscape:deskcolor="#d1d1d1"
     showgrid="false"
     inkscape:zoom="1.674"
     inkscape:cx="46.893668"
     inkscape:cy="139.18757"
     inkscape:window-width="1920"
     inkscape:window-height="1017"
     inkscape:window-x="1912"
     inkscape:window-y="-8"
     inkscape:window-maximized="1"
     inkscape:current-layer="svg221" />
  <defs
     id="defs19">
    <g
       id="g2" />
    <clipPath
       id="728d0fd462">
      <path
         d="m 161,107 h 118 v 42 H 161 Z m 0,0"
         clip-rule="nonzero"
         id="path4" />
    </clipPath>
    <clipPath
       id="2e8d1562e1">
      <path
         d="m 192.20703,177.16406 -36.19141,-61.375 89.79688,-52.957029 36.19141,61.371099 z m 0,0"
         clip-rule="nonzero"
         id="path7" />
    </clipPath>
    <clipPath
       id="d2ed1d468b">
      <path
         d="m 192.20703,177.16406 -36.19141,-61.375 89.79688,-52.957029 36.19141,61.371099 z m 0,0"
         clip-rule="nonzero"
         id="path10" />
    </clipPath>
    <clipPath
       id="65120523ef">
      <path
         d="M 89.460938,105 H 181 v 60 H 89.460938 Z m 0,0"
         clip-rule="nonzero"
         id="path13" />
    </clipPath>
    <clipPath
       id="bdc43cf1e2">
      <path
         d="m 141,103 h 7 v 63.58203 h -7 z m 0,0"
         clip-rule="nonzero"
         id="path16" />
    </clipPath>
  </defs>
  <g
     fill="#80481a"
     fill-opacity="1"
     id="g27"
     transform="translate(-89.492188,-82.708286)">
    <g
       transform="translate(98.720482,238.02724)"
       id="g25">
      <g
         id="g23">
        <path
           d="M 18.242188,-20.511719 C 18.0625,-23.507812 17.878906,-26.5 17.699219,-29.40625 c -0.09375,-1.542969 -0.183594,-2.996094 -0.546875,-4.445312 -0.269532,-0.726563 -0.542969,-1.453126 -0.90625,-2.179688 -0.183594,-0.542969 -0.542969,-1.179688 -0.90625,-1.632812 -0.363282,-0.636719 -0.820313,-1.179688 -1.453125,-1.726563 -0.183594,-0.179687 -0.363281,-0.363281 -0.636719,-0.542969 0.183594,-0.183594 0.453125,-0.363281 0.636719,-0.542968 0.363281,-0.363282 0.632812,-0.726563 0.90625,-1.089844 1.089843,-1.363282 1.632812,-3.085938 1.632812,-4.71875 0,-0.546875 -0.08984,-1.089844 -0.179687,-1.542969 -0.183594,-0.546875 -0.363282,-0.910156 -0.542969,-1.363281 -0.273437,-0.636719 -0.726563,-1.269532 -1.273437,-1.816406 -0.90625,-0.90625 -2.175782,-1.359376 -3.449219,-1.632813 -0.726563,-0.08984 -1.449219,-0.08984 -2.085938,-0.08984 -0.183593,0 -0.363281,0 -0.542969,0 -0.457031,0 -0.910156,0 -1.363281,0.08984 -0.089843,0 -0.273437,0 -0.453125,0.08984 -0.183594,0 -0.363281,0.09375 -0.453125,0.183593 -0.183593,0 -0.273437,0 -0.453125,0 -0.457031,0 -0.910156,0.179688 -1.273437,0.453126 -0.363281,0.363281 -0.453125,0.816406 -0.542969,1.363281 -0.273438,2.992187 -0.546875,6.078125 -0.910156,9.074219 -0.269532,3.175781 -0.632813,6.261718 -0.632813,9.347656 -0.089843,2.996094 -0.089843,5.992187 -0.089843,9.078125 0,2.992187 0.179687,6.078125 0.179687,9.074219 0.089844,1 0.089844,1.996093 0.089844,2.996093 0,3.355469 0.183593,6.535157 0.636719,9.4375 0,0.453125 0.179687,1 0.542968,1.269531 0.273438,0.3632818 0.816406,0.546876 1.273438,0.546876 0.363281,0 0.632812,-0.09375 0.90625,-0.273438 0.453125,0.363281 1.089844,0.636719 1.632812,0.542969 1.363282,0 2.453125,-0.179688 3.449219,-0.363281 0.816406,-0.179688 1.632813,-0.542969 2.269531,-0.90625 0.726563,-0.363282 1.359375,-0.90625 2.085938,-1.453126 0.816406,-0.632812 1.453125,-1.542968 1.90625,-2.539062 1.179687,-2.089844 1.273437,-4.628906 1.363281,-6.898438 0,-2.996093 -0.08984,-5.988281 -0.273437,-8.894531 z m -8.167969,-28.589843 c 0.453125,0.09375 0.90625,0.183593 1.363281,0.363281 0.08984,0.08984 0.179688,0.08984 0.359375,0.183593 0.09375,0.179688 0.273437,0.363282 0.457031,0.542969 0.08984,0.183594 0.179688,0.363281 0.363282,0.546875 0.08984,0.269532 0.08984,0.542969 0.179687,0.816406 0,0.363282 0,0.632813 0,0.90625 -0.08984,0.363282 -0.179687,0.726563 -0.363281,1.089844 -0.179688,0.363282 -0.363282,0.726563 -0.636719,1.089844 -0.269531,0.363281 -0.632813,0.722656 -0.996094,0.996094 -0.273437,0.183594 -0.546875,0.273437 -0.816406,0.453125 -0.636719,0.273437 -1.363281,0.457031 -2.089844,0.726562 -0.363281,0.08984 -0.726562,0.183594 -1.085937,0.273438 -0.09375,0 -0.183594,0 -0.273438,0.08984 0.089844,-1.089843 0.179688,-2.085937 0.273438,-3.085937 0.179687,-1.632813 0.359375,-3.265625 0.542968,-4.898437 0.90625,-0.09375 1.816407,-0.183594 2.722657,-0.09375 z M 14.25,-6.808594 c -0.273438,0.910156 -1.273438,1.542969 -1.816406,2.269532 -1.089844,1.273437 -3.359375,1.453124 -4.175782,1.453124 -0.632812,0 -1.089843,-0.363281 -1.722656,-0.363281 0,-0.089843 0,-0.089843 0,-0.179687 C 6.445312,-4.355469 6.445312,-5.171875 6.351562,-5.898438 6.261719,-7.351562 6.082031,-8.894531 6.082031,-10.4375 c -0.09375,-1.453125 -0.09375,-2.996094 -0.09375,-4.539062 0,-1.542969 -0.089843,-2.992188 -0.089843,-4.535157 -0.089844,-2.996093 -0.089844,-6.082031 -0.089844,-9.078125 0,-1.542968 0,-3.085937 0.089844,-4.535156 0,-1.453125 0.089843,-2.816406 0.273437,-4.175781 0.996094,0.08984 0.816406,0.08984 2.179687,0.08984 0.632813,-0.08984 1.359376,-0.08984 1.996094,0 0.726563,0.08984 1.542969,0.90625 1.8125,1.269532 0.457032,0.726562 1.363282,2.542968 1.453125,2.996094 0.183594,0.453124 0.273438,0.816406 0.273438,1.269531 0.179687,1.363281 0.179687,2.632812 0.273437,3.996093 0.08984,1.542969 0.179688,2.992188 0.269532,4.535157 0.183593,2.996093 0.453124,6.082031 0.453124,9.078125 0,4.355468 -0.08984,5.988281 -0.632812,7.257812 z m 0,0"
           id="path21" />
      </g>
    </g>
  </g>
  <g
     fill="#80481a"
     fill-opacity="1"
     id="g35"
     transform="translate(-89.492188,-82.708286)">
    <g
       transform="translate(118.86835,238.02724)"
       id="g33">
      <g
         id="g31">
        <path
           d="m 3.902344,-53.09375 c -0.089844,0.08984 -0.179688,0.273438 -0.273438,0.363281 -0.179687,0.273438 -0.269531,0.542969 -0.269531,0.90625 -0.183594,1.542969 -0.363281,3.175781 -0.457031,4.71875 -0.089844,0.820313 -0.089844,1.542969 -0.179688,2.363281 0,0.816407 -0.089844,1.542969 -0.179687,2.359376 -0.09375,1.449218 -0.09375,2.902343 -0.183594,4.445312 -0.089844,1.453125 -0.089844,2.8125 -0.089844,4.265625 0,1.542969 0,2.996094 0,4.449219 0,1.542968 -0.089843,2.992187 0,4.535156 0,1.453125 0.089844,2.996094 0.273438,4.449219 0.089843,1.542969 0.269531,3.085937 0.542969,4.628906 0.273437,1.449219 0.636718,2.902344 1,4.265625 0.359374,1.359375 0.816406,2.539062 1.269531,3.8125 0.363281,0.722656 0.632812,1.542969 1.089843,2.265625 0.632813,0.910156 1.359376,1.726563 2.265626,2.179687 0.726562,0.453126 1.453124,0.726563 2.269531,0.90625 0.183593,0 0.363281,0.09375 0.457031,0.09375 0.359375,0.089844 0.722656,0.089844 1.085938,0.089844 0.273437,0 0.546874,-0.089844 0.816406,-0.089844 0.546875,-0.09375 1.089844,-0.273437 1.636718,-0.546874 1.542969,-0.632813 2.8125,-1.8125 3.539063,-3.355469 0.726563,-1.453125 1.089844,-2.996094 1.269531,-4.539063 0.183594,-0.816406 0.273438,-1.726562 0.363282,-2.542968 0.08984,-0.632813 0.179687,-1.359376 0.179687,-2.085938 0.09375,-1.363281 0.09375,-2.8125 0.183594,-4.175781 0,-1.453125 0.08984,-2.902344 0.179687,-4.445313 0,-1.453125 0.09375,-2.90625 0.09375,-4.359375 0.08984,-1.449219 0.08984,-2.902343 0.08984,-4.355469 0.08984,-1.542968 0.179688,-2.996093 0.179688,-4.445312 0.09375,-2.542969 0.09375,-4.992188 0.183593,-7.535156 0,-1.179688 0,-2.359375 0,-3.628906 0,-1.089844 -0.183593,-2.179688 -0.08984,-3.269532 0,-0.08984 0,-0.08984 0,-0.08984 0,-0.542968 0,-0.816406 -0.183594,-0.996093 -0.273438,-0.457031 -0.636719,-0.726563 -1.089844,-0.910157 -0.453125,-0.08984 -0.996094,0 -1.449219,0.183594 -0.363281,0.269532 -0.726562,0.632813 -0.820312,1.089844 -0.08984,0.816406 -0.08984,1.632812 0,2.359375 0,0.726563 0,1.449219 0,2.085937 0,1.453126 0,2.8125 0,4.265626 -0.08984,2.90625 -0.08984,5.898437 -0.269531,8.804687 0,1.542969 -0.09375,2.996094 -0.09375,4.535156 -0.08984,1.453125 0,2.90625 -0.08984,4.359375 -0.179688,2.8125 -0.269532,5.714844 -0.363282,8.621094 0,1 -0.08984,1.996094 -0.179687,2.996094 -0.08984,0.90625 -0.183594,1.8125 -0.273437,2.722656 -0.179688,1.179688 -0.453126,2.359375 -0.90625,3.449219 -0.183594,0.363281 -0.363282,0.632812 -0.546876,0.996093 -0.179687,0.183594 -0.363281,0.363282 -0.542968,0.546876 -0.363282,0.179687 -0.636719,0.363281 -0.90625,0.542968 -0.273438,0.089844 -0.636719,0.089844 -0.910156,0.179688 -0.08984,0 -0.269532,0 -0.363282,0 C 11.796875,-5.71875 11.34375,-5.808594 10.980469,-5.898438 10.710938,-6.082031 10.4375,-6.171875 10.253906,-6.351562 10.074219,-6.535156 9.984375,-6.625 9.800781,-6.808594 9.4375,-7.351562 9.167969,-7.894531 8.894531,-8.441406 8.351562,-9.800781 7.804688,-11.164062 7.441406,-12.523438 7.078125,-14.25 6.625,-15.882812 6.351562,-17.515625 6.171875,-18.878906 6.082031,-20.238281 5.988281,-21.601562 5.898438,-23.050781 5.808594,-24.59375 5.808594,-26.046875 c 0,-1.453125 0,-2.90625 0,-4.449219 0,-1.449218 0,-2.902344 0.089844,-4.355468 0,-1.359376 0.089843,-2.722657 0.089843,-4.082032 0.09375,-1.363281 0.09375,-2.722656 0.273438,-4.085937 0.089843,-1.453125 0.089843,-2.8125 0.273437,-4.265625 0.089844,-1.542969 0.273438,-2.996094 0.453125,-4.539063 0,-0.453125 -0.273437,-0.996093 -0.542969,-1.269531 -0.363281,-0.363281 -0.816406,-0.542969 -1.273437,-0.542969 -0.453125,0 -0.996094,0.179688 -1.269531,0.542969 z m 0,0"
           id="path29" />
      </g>
    </g>
  </g>
  <g
     fill="#80481a"
     fill-opacity="1"
     id="g43"
     transform="translate(-89.492188,-82.708286)">
    <g
       transform="translate(142.10192,238.02724)"
       id="g41">
      <g
         id="g39">
        <path
           d="m 11.074219,-52.640625 c -0.820313,0.08984 -1.542969,0.183594 -2.269531,0.453125 -0.453126,0.183594 -0.910157,0.363281 -1.363282,0.726562 -0.453125,0.273438 -0.816406,0.636719 -1.179687,1 -0.273438,0.363282 -0.632813,0.816407 -0.90625,1.179688 -0.453125,0.632812 -0.816407,1.269531 -1.179688,1.996094 -0.636719,1.453125 -1,3.902344 -1.273437,5.535156 -0.269532,1.632812 -0.453125,3.269531 -0.542969,4.902344 -0.179687,1.453125 -0.179687,2.902344 -0.273437,4.265625 -0.089844,2.996093 -0.089844,5.988281 0.09375,8.894531 0.089843,1.542969 0.179687,3.085938 0.363281,4.628906 0.089843,1.359375 0.269531,2.8125 0.453125,4.265625 0.179687,1.542969 0.363281,3.085938 0.726562,4.628907 0.269532,1.179687 0.542969,2.359374 0.996094,3.539062 0.273438,0.726562 0.636719,1.453125 1.089844,2.179688 0.273437,0.359374 0.542968,0.722656 0.90625,1.085937 0.273437,0.273437 0.636718,0.546875 1,0.816406 0.273437,0.183594 0.542968,0.363281 0.90625,0.457031 0.363281,0.269532 0.816406,0.453126 1.273437,0.632813 0.632813,0.273437 1.359375,0.363281 2.085938,0.453125 0.636719,0.09375 1.269531,0.09375 1.90625,0 0.453125,0 0.90625,-0.089844 1.359375,-0.269531 0.457031,-0.183594 0.910156,-0.363281 1.363281,-0.546875 0.726563,-0.269532 1.269531,-0.816406 1.816406,-1.359375 0.632813,-0.636719 1.085938,-1.453125 1.359375,-2.269531 0.363282,-0.816407 0.453125,-1.722657 0.542969,-2.542969 0,-0.722657 0,-1.449219 0,-2.085938 -0.08984,-1.542969 -0.179687,-2.996093 -0.269531,-4.539062 -0.08984,-1.449219 -0.08984,-2.902344 -0.183594,-4.355469 -0.08984,-1.453125 -0.179688,-2.902344 -0.269531,-4.355469 0,-1.089843 0,-2.179687 -0.09375,-3.175781 0,-1.089844 -0.08984,-2.179688 -0.179688,-3.179688 0,-1.085937 0,-2.085937 -0.08984,-3.175781 -0.09375,-1.179687 -0.183594,-2.269531 -0.363282,-3.355469 0,0.08984 0,0.269532 0.08984,0.453126 -0.08984,-0.636719 -0.183594,-1.363282 -0.273438,-1.996094 -0.08984,-0.726563 -0.726562,-1.363282 -1.359374,-1.636719 -0.453126,-0.179687 -0.816407,-0.269531 -1.363282,-0.363281 -0.363281,0 -0.632812,0 -0.90625,0 -0.816406,0.09375 -1.542968,0.273437 -2.359375,0.457031 -0.273437,0.08984 -0.546875,0.179687 -0.910156,0.269531 -0.359375,0.09375 -0.816406,0.273438 -1.269531,0.453125 -0.816406,0.546875 -1.089844,1.636719 -0.632813,2.453125 0.542969,0.90625 1.632813,1.179688 2.449219,0.726563 0.363281,-0.183594 0.816406,-0.273438 1.179688,-0.363281 0.453124,-0.183594 0.996093,-0.273438 1.453124,-0.363282 0.08984,0 0.179688,0 0.269532,0 0,0 0.09375,0.90625 0.183594,1.269532 0.179687,1.363281 0.273437,2.632812 0.273437,3.992187 0.08984,1.542969 0.179687,2.996094 0.179687,4.539063 0.08984,1.453124 0.08984,2.996093 0.179688,4.449218 0.09375,1.449219 0.183594,2.902344 0.273438,4.355469 0,1.632813 0.08984,3.355469 0.273437,5.082031 0.08984,1.632813 0.179687,3.175782 0,4.808594 0,0.457031 -0.08984,0.816406 -0.273437,1.179688 -0.08984,0.183593 -0.179688,0.363281 -0.363282,0.546874 -0.179687,0.269532 -0.363281,0.453126 -0.542968,0.632813 -0.183594,0.09375 -0.363282,0.183594 -0.546876,0.273437 -0.453124,0.183594 -0.816406,0.363282 -1.269531,0.363282 -0.453125,0.089844 -0.90625,0.089844 -1.359375,0 -0.457031,-0.089844 -1,-0.179688 -1.363281,-0.363282 C 10.4375,-5.171875 9.984375,-5.355469 9.621094,-5.628906 9.347656,-5.808594 9.167969,-6.082031 8.894531,-6.351562 8.621094,-6.714844 8.441406,-7.167969 8.167969,-7.625 7.804688,-8.621094 7.53125,-9.710938 7.261719,-10.800781 6.988281,-11.980469 6.808594,-13.25 6.625,-14.519531 6.445312,-15.882812 6.261719,-17.242188 6.171875,-18.605469 5.988281,-20.058594 5.898438,-21.601562 5.808594,-23.050781 5.628906,-26.046875 5.628906,-29.042969 5.71875,-32.039062 c 0.089844,-2.8125 0.269531,-5.535157 0.632812,-8.257813 0.183594,-1.453125 0.457032,-3.902344 1,-5.265625 0.179688,-0.359375 0.363282,-0.722656 0.636719,-1.085938 0.179688,-0.363281 0.363281,-0.636718 0.632813,-1 0.273437,-0.273437 0.546875,-0.542968 0.816406,-0.816406 0.183594,-0.183594 0.363281,-0.273437 0.546875,-0.363281 0.269531,-0.08984 0.542969,-0.08984 0.816406,-0.179687 0.636719,-0.09375 1.179688,0 1.816407,0 0.359374,0.08984 0.722656,0.179687 1.179687,0.269531 0.269531,0.183593 0.542969,0.363281 0.816406,0.546875 0.816407,0.726562 1.449219,1.542968 2.175781,2.359375 0.273438,0.363281 0.816407,0.542969 1.273438,0.542969 0.453125,0 0.90625,-0.179688 1.269531,-0.542969 0.273438,-0.273438 0.542969,-0.816407 0.542969,-1.273438 -0.08984,-0.179687 -0.08984,-0.269531 -0.08984,-0.453125 -0.08984,-0.269531 -0.273437,-0.542968 -0.453125,-0.816406 -0.453125,-0.542969 -0.90625,-1.179688 -1.453125,-1.722656 -0.273437,-0.273438 -0.636718,-0.546875 -0.90625,-0.816406 -0.453125,-0.363282 -0.910156,-0.636719 -1.363281,-0.910157 -0.363281,-0.179687 -0.726563,-0.269531 -1.179687,-0.453125 -0.269532,-0.08984 -0.542969,-0.179687 -0.816407,-0.179687 -0.542969,-0.09375 -0.996093,-0.183594 -1.542969,-0.183594 -0.179687,0 -0.363281,0 -0.542968,0 -0.183594,0 -0.273438,0 -0.453125,0 z m 0,0"
           id="path37" />
      </g>
    </g>
  </g>
  <g
     fill="#80481a"
     fill-opacity="1"
     id="g49"
     transform="translate(-89.492188,-82.708286)">
    <g
       transform="translate(164.42794,238.02724)"
       id="g47">
      <g
         id="g45" />
    </g>
  </g>
  <g
     fill="#80481a"
     fill-opacity="1"
     id="g57"
     transform="translate(-89.492188,-82.708286)">
    <g
       transform="translate(183.1237,238.02724)"
       id="g55">
      <g
         id="g53">
        <path
           d="m 18.332031,-50.734375 c -0.08984,-0.453125 -0.363281,-0.816406 -0.816406,-0.996094 -0.363281,-0.273437 -0.996094,-0.363281 -1.359375,-0.183593 -0.09375,0 -0.09375,0 -0.183594,0 -0.363281,0.08984 -0.726562,0.08984 -1.089844,0.08984 -0.542968,0 -0.996093,0 -1.542968,0 -0.996094,0 -1.996094,0 -2.992188,0 -0.183594,0 -0.363281,0 -0.453125,0 -0.273437,-0.08984 -0.457031,-0.179687 -0.636719,-0.179687 -0.273437,0 -0.546874,0.08984 -0.726562,0.179687 -0.453125,0 -1,0 -1.453125,0 -0.996094,0 -2.085937,0 -3.085937,-0.08984 -0.363282,-0.08984 -0.726563,-0.08984 -1.089844,-0.179688 -0.179688,0 -0.359375,-0.09375 -0.453125,-0.09375 -0.363281,0 -0.632813,0.09375 -0.90625,0.273438 -0.453125,0.183593 -0.726563,0.636718 -0.816407,1.089843 -0.183593,0.453125 -0.089843,0.996094 0.179688,1.359375 0.183594,0.363282 0.636719,0.726563 1.089844,0.816406 0.726562,0.183594 1.453125,0.273438 2.269531,0.363282 0.542969,0.09375 1.179687,0.09375 1.816406,0.09375 0.453125,0 0.816407,0 1.269531,0 0,0.996094 0,1.90625 0,2.902344 -0.089843,1.542968 -0.089843,3.175781 -0.183593,4.71875 0,2.996093 -0.089844,5.992187 -0.089844,9.078124 0,1.542969 0,3.085938 0,4.628907 0,1.449219 0,2.992187 0.089844,4.445312 0,1.542969 0.09375,3.085938 0.183593,4.539063 0.089844,1.542968 0.179688,2.996094 0.179688,4.445312 0.09375,1.726563 0.09375,4.8125 0.09375,6.535156 0,1.542969 0,3.085938 0.089844,4.628907 0,1 0.726562,1.816406 1.722656,1.816406 1,0 1.90625,-0.816406 1.816406,-1.816406 0,-1.359375 0,-2.632813 0,-3.902344 0,-1.453125 0,-2.902344 -0.08984,-4.355469 0,-1.453125 -0.08984,-4.355468 -0.08984,-5.898437 -0.09375,-1.542969 -0.183594,-2.996094 -0.273438,-4.539063 -0.08984,-2.996094 -0.08984,-5.992187 -0.08984,-9.078125 0,-2.992187 0,-6.078125 0.08984,-9.074219 0.08984,-3.085937 0.08984,-6.082031 0.179688,-9.074218 0.726562,0 1.453125,0 2.179687,0 0.542969,0 1.179688,0 1.722656,0 0.273438,0 0.546876,0 0.910157,-0.09375 0.08984,0 0.269531,0 0.363281,0 0.363281,-0.08984 0.632812,-0.08984 0.90625,-0.179688 0.179688,-0.08984 0.363281,-0.08984 0.453125,-0.183594 0.273437,-0.179687 0.453125,-0.359374 0.636719,-0.632812 0.273437,-0.453125 0.363281,-0.90625 0.179687,-1.453125 z m 0,0"
           id="path51" />
      </g>
    </g>
  </g>
  <g
     fill="#80481a"
     fill-opacity="1"
     id="g65"
     transform="translate(-89.492188,-82.708286)">
    <g
       transform="translate(202.36401,238.02724)"
       id="g63">
      <g
         id="g61">
        <path
           d="m 16.699219,-6.171875 c -0.08984,-1.453125 -0.179688,-3.8125 -0.273438,-5.171875 -0.08984,-2.996094 -0.363281,-5.992188 -0.542969,-8.984375 -0.273437,-2.90625 -0.542968,-5.808594 -1.269531,-8.714844 -0.363281,-1.359375 -0.726562,-2.8125 -1.273437,-4.082031 -0.269532,-0.726562 -0.632813,-1.453125 -0.996094,-2.179688 -0.183594,-0.183593 -0.273438,-0.453124 -0.453125,-0.636718 0.269531,-0.269532 0.453125,-0.453125 0.632813,-0.726563 0.546874,-0.632812 0.910156,-1.269531 1.273437,-1.996093 0.453125,-0.726563 0.632813,-1.453126 0.816406,-2.269532 0.08984,-0.816406 0.08984,-1.632812 0.08984,-2.449218 0,-0.90625 -0.08984,-1.722657 -0.273437,-2.539063 0,-0.363281 -0.08984,-0.726563 -0.179688,-1.089844 -0.273438,-0.726562 -0.546875,-1.453125 -1.089844,-2.089843 -0.273437,-0.363282 -0.453125,-0.632813 -0.816406,-0.90625 -0.183594,-0.273438 -0.453125,-0.363282 -0.636719,-0.542969 -0.363281,-0.273438 -0.726562,-0.546875 -1.179687,-0.726563 -0.816406,-0.453125 -1.722656,-0.726562 -2.632813,-1 -0.90625,-0.273437 -1.8125,-0.363281 -2.8125,-0.542968 -0.089843,0 -0.273437,-0.09375 -0.453125,-0.09375 -0.273437,0 -0.636718,0.09375 -0.90625,0.273437 -0.09375,0.08984 -0.273437,0.183594 -0.363281,0.273437 -0.363281,0.08984 -0.726563,0.273438 -1,0.542969 -0.363281,0.363281 -0.542969,0.726563 -0.542969,1.273438 -0.09375,1.722656 -0.183594,3.539062 -0.183594,5.261719 -0.089843,1.542968 0,2.996093 -0.089843,4.449218 0,3.085938 0,6.078125 0.089843,9.164063 0.089844,1.453125 0.183594,2.996093 0.273438,4.449219 0.089844,1.542968 0.179688,3.085937 0.273438,4.628906 0.089843,2.992187 0.269531,5.988281 0.453124,8.984375 0.089844,1.816406 0.269532,3.628906 0.363282,5.445312 0,0.90625 0.089844,2.722657 0.089844,3.628907 0,0.363281 0.089843,0.816406 0.089843,1.179687 0,0.457031 0,0.816406 0,1.179687 0,0.183594 0.089844,0.363282 0.089844,0.546876 0.09375,0.269531 0.273437,0.542968 0.457031,0.816406 0.363282,0.273437 0.816406,0.453125 1.269532,0.453125 0.453124,0 0.996093,-0.179688 1.269531,-0.453125 0.363281,-0.363282 0.636719,-0.90625 0.546875,-1.363282 0,-0.269531 0,-0.542968 0,-0.90625 0,-0.363281 -0.09375,-0.726562 -0.09375,-1 0,-0.816406 -0.089844,-2.449218 -0.089844,-3.175781 0,-1.449219 -0.179688,-2.902343 -0.273438,-4.355469 -0.269531,-3.085937 -0.363281,-6.082031 -0.542968,-9.167968 0,-1.449219 -0.089844,-2.992188 -0.179688,-4.445313 -0.09375,-1.542969 -0.273437,-3.085937 -0.273437,-4.628906 -0.089844,-1.089844 -0.089844,-2.269531 -0.089844,-3.359375 0.363281,-0.08984 0.722656,-0.08984 1.085937,-0.179688 0.636719,-0.08984 1.273438,-0.363281 1.90625,-0.546874 0.183594,0 0.363282,-0.08984 0.546876,-0.179688 0.089843,0.179688 0.179687,0.273438 0.269531,0.453125 0.273437,0.453125 0.546875,1 0.820312,1.453125 0.453125,1.179688 0.816407,2.449219 1.085938,3.71875 0.363281,1.363281 0.636719,2.722656 0.910156,4.085938 0.363281,2.90625 0.453125,5.808593 0.726563,8.710937 0.08984,1.453125 0.179687,2.996094 0.179687,4.449219 0.08984,1.453125 0.179687,3.722656 0.273437,5.171875 0,1.363281 0.08984,2.722656 -0.09375,3.996093 0,0.453126 0.273438,0.996094 0.546876,1.269532 0.363281,0.363281 0.816406,0.542968 1.269531,0.542968 0.546875,0 1,-0.179687 1.269531,-0.542968 C 16.15625,-0.90625 16.246094,-1 16.425781,-1.179688 c 0.09375,-0.273437 0.183594,-0.542968 0.183594,-0.90625 0.179687,-1.363281 0.08984,-2.722656 0.08984,-4.085937 z M 5.171875,-36.847656 c 0,-0.726563 0,-1.363282 0,-2.085938 0,-1.816406 0,-3.632812 0.09375,-5.449218 0,-1.539063 0,-3.175782 0.089844,-4.71875 1.089843,0.183593 2.085937,0.453124 3.085937,0.816406 0.453125,0.183594 0.816406,0.457031 1.269532,0.726562 0.183593,0.183594 0.363281,0.273438 0.542968,0.546875 0.09375,0.179688 0.183594,0.363281 0.363282,0.542969 0.183593,0.546875 0.273437,1.089844 0.363281,1.542969 0.09375,1.089843 0.183593,2.085937 0.09375,3.175781 -0.09375,0.363281 -0.183594,0.726562 -0.273438,1.089844 -0.273437,0.636718 -0.636719,1.089844 -1,1.632812 -0.269531,0.363282 -0.632812,0.636719 -0.90625,1 -0.273437,0.08984 -0.453125,0.273438 -0.726562,0.363282 -0.542969,0.179687 -1.089844,0.363281 -1.632813,0.453124 -0.453125,0.179688 -0.90625,0.273438 -1.363281,0.363282 z m 0,0"
           id="path59" />
      </g>
    </g>
  </g>
  <g
     fill="#80481a"
     fill-opacity="1"
     id="g73"
     transform="translate(-89.492188,-82.708286)">
    <g
       transform="translate(221.05977,238.02724)"
       id="g71">
      <g
         id="g69">
        <path
           d="m 23.597656,-1.90625 c -0.546875,-3.359375 -1,-5.535156 -1.542968,-8.710938 -0.816407,-4.8125 -1.726563,-9.257812 -2.449219,-14.070312 -1,-7.714844 -0.910157,-15.15625 -2.632813,-22.144531 -0.273437,-1.90625 -1,-3.71875 -1.996094,-5.445313 -0.816406,-1.453125 -2.90625,-0.996094 -3.269531,0.363282 -0.632812,0.816406 -0.726562,1.179687 -0.726562,1.453124 -0.179688,1.179688 -0.363281,2.269532 -0.453125,3.449219 -0.179688,1.449219 -0.542969,2.8125 -0.726563,4.265625 -0.816406,4.355469 -1.632812,9.257813 -2.632812,13.339844 -0.996094,6.445312 -2.265625,12.070312 -3.355469,17.789062 -0.546875,2.90625 -1.089844,5.808594 -1.542969,8.714844 0,1.902344 1.453125,2.722656 2.632813,2.085938 C 5.355469,-1 5.71875,-1.453125 5.808594,-1.90625 6.535156,-6.625 7.167969,-10.800781 8.078125,-14.882812 c 0.816406,-4.539063 1.722656,-8.988282 2.632813,-13.433594 0.269531,-1.363282 0.542968,-2.632813 0.816406,-3.992188 1.359375,0.179688 2.539062,0.179688 3.71875,0.269532 0.816406,7.261718 1.363281,13.976562 3.085937,20.875 0.273438,1.632812 1.179688,9.710937 2.089844,10.890624 C 20.964844,0.453125 22.054688,1 22.871094,0.363281 23.6875,-0.0898438 24.050781,-1.179688 23.597656,-1.90625 Z m -8.714844,-33.761719 c -0.90625,-0.08984 -1.8125,-0.08984 -2.722656,-0.179687 0.457032,-2.996094 1.179688,-5.902344 1.636719,-8.804688 0.542969,3.265625 0.90625,6.171875 1.085937,8.984375 z m 0,0"
           id="path67" />
      </g>
    </g>
  </g>
  <g
     fill="#80481a"
     fill-opacity="1"
     id="g81"
     transform="translate(-89.492188,-82.708286)">
    <g
       transform="translate(247.28831,238.02724)"
       id="g79">
      <g
         id="g77">
        <path
           d="M 10.164062,-3.449219 C 9.894531,-3.8125 9.53125,-4.175781 9.074219,-4.265625 8.710938,-4.355469 8.351562,-4.355469 7.988281,-4.445312 7.894531,-5.265625 7.804688,-6.082031 7.804688,-6.988281 7.714844,-8.441406 7.625,-9.894531 7.625,-11.34375 c 0,-1.453125 -0.09375,-2.996094 -0.09375,-4.539062 -0.089844,-1.453126 -0.089844,-2.902344 -0.089844,-4.445313 -0.089844,-2.90625 -0.179687,-5.902344 -0.273437,-8.894531 -0.089844,-1.542969 -0.089844,-2.996094 -0.179688,-4.449219 -0.089843,-1.542969 -0.089843,-2.996094 -0.089843,-4.539063 0,-1.90625 0.363281,-7.621093 0.269531,-8.53125 0.09375,-0.90625 0,-1.8125 -0.179688,-2.628906 0.179688,0 0.363281,0 0.542969,0 -0.179688,0 -0.269531,-0.09375 -0.453125,-0.09375 0,0 0,0 0.089844,0 0.09375,0 0.273437,0.09375 0.457031,0.09375 0.363281,0 0.632812,-0.09375 0.90625,-0.273437 0.363281,-0.183594 0.726562,-0.636719 0.816406,-1.089844 0.183594,-0.453125 0.089844,-0.90625 -0.179687,-1.359375 -0.183594,-0.363281 -0.636719,-0.820312 -1.089844,-0.820312 -0.363281,-0.08984 -0.726563,-0.08984 -1.089844,-0.08984 -0.089843,0 -0.089843,0 -0.179687,0 -0.457032,0 -0.820313,0.08984 -1.273438,0.08984 -0.90625,0.09375 -1.90625,0.09375 -2.8125,0 -1,-0.08984 -1.816406,0.910156 -1.816406,1.816406 0,0.453125 0.183594,0.910156 0.546875,1.269531 0.363281,0.363281 0.726563,0.546875 1.269531,0.546875 0.179688,0 0.453125,0 0.726563,0 0,0.179688 0,0.363281 0,0.453125 0.089843,0.726563 0.179687,1.363281 0.179687,2.085937 -0.542968,3.085938 -0.363281,8.714844 -0.363281,10.257813 0,1.453125 0.09375,2.902344 0.183594,4.355469 0.089843,3.085937 0.179687,6.082031 0.273437,9.078125 0,1.542969 0.089844,2.992187 0.089844,4.535156 0,1.453125 0.089844,2.90625 0.089844,4.355469 0.089844,1.90625 0.089844,3.90625 0.183594,5.808594 0.089843,0.910156 0.089843,1.90625 0.179687,2.816406 0,0.363281 0,0.726562 0.089844,0.996094 -0.269531,0.09375 -0.453125,0.09375 -0.726563,0.09375 -0.996094,0 -1.8125,0.816406 -1.8125,1.8125 0,0.910156 0.816406,1.816406 1.8125,1.816406 C 4.445312,-0.90625 5.171875,-0.90625 5.988281,-1 c 0.636719,0 1.273438,0.09375 1.816407,0.183594 0.089843,0 0.183593,0 0.273437,0 C 8.621094,-0.726562 9.074219,-0.726562 9.53125,-1 c 0.363281,-0.179688 0.632812,-0.542969 0.816406,-0.996094 0.08984,-0.546875 0,-1 -0.183594,-1.453125 z m 0,0"
           id="path75" />
      </g>
    </g>
  </g>
  <g
     fill="#80481a"
     fill-opacity="1"
     id="g89"
     transform="translate(-89.492188,-82.708286)">
    <g
       transform="translate(258.72359,238.02724)"
       id="g87">
      <g
         id="g85">
        <path
           d="m 2.996094,-51.460938 c 0,0.816407 0,1.542969 0,2.359376 0,0.816406 -0.09375,1.542968 -0.183594,2.269531 -0.179688,1.453125 -0.269531,2.90625 -0.363281,4.355469 -0.089844,2.996093 -0.089844,5.992187 -0.089844,8.988281 -0.089844,3.085937 -0.179687,6.261719 -0.273437,9.347656 -0.089844,1.449219 -0.179688,2.902344 -0.179688,4.445313 0,1.363281 0,2.8125 0,4.265624 -0.089844,1.453126 -0.089844,2.996094 0,4.449219 0,1.359375 0.089844,2.722657 0.089844,3.992188 0,0.816406 0,1.632812 0.183594,2.359375 0,0.363281 0.089843,0.636718 0.179687,0.90625 0.089844,0.273437 0.183594,0.546875 0.363281,0.726562 0.179688,0.453125 0.542969,0.816406 0.90625,1.089844 0.363282,0.273438 0.816406,0.363281 1.273438,0.542969 0.363281,0 0.632812,0.09375 0.996094,0.183593 C 6.714844,-1 7.53125,-1 8.441406,-1 c 0.089844,0 0.179688,0 0.363282,0 0.363281,0 0.726562,0 1.089843,0 0.542969,0.09375 0.996094,0.183594 1.542969,0.183594 0.542969,0.089844 1.085938,0.089844 1.539062,0.089844 0.546876,-0.089844 1.089844,-0.089844 1.542969,-0.179688 0.546875,0 0.910157,-0.183594 1.273438,-0.457031 0.363281,-0.359375 0.542969,-0.816407 0.542969,-1.359375 0,-0.453125 -0.179688,-0.90625 -0.542969,-1.269532 -0.273438,-0.273437 -0.816407,-0.546874 -1.273438,-0.453124 -0.632812,0 -1.269531,0.089843 -1.902343,0.089843 -0.636719,0 -1.363282,-0.089843 -2,-0.089843 -0.269532,-0.09375 -0.632813,-0.09375 -0.90625,-0.183594 -0.363282,0 -0.636719,0 -1,0 -0.632813,0 -1.179688,0 -1.8125,0 C 6.535156,-4.71875 6.171875,-4.808594 5.808594,-4.902344 5.71875,-5.082031 5.71875,-5.171875 5.628906,-5.355469 c 0,-0.542969 0,-1.089843 0,-1.632812 0,-0.636719 0,-1.269531 -0.09375,-1.90625 0,-1.453125 -0.089844,-2.902344 -0.089844,-4.355469 0,-1.453125 0,-2.996094 0.089844,-4.449219 0,-1.449219 0,-2.8125 0,-4.265625 0.09375,-1.542968 0.183594,-3.085937 0.273438,-4.71875 0,-1.542968 0.089844,-3.085937 0.089844,-4.628906 0.089843,-2.996094 0.089843,-5.988281 0.089843,-9.074219 0.09375,-1.726562 0.09375,-3.539062 0.273438,-5.355469 0.089843,-0.90625 0.273437,-1.816406 0.273437,-2.722656 0.089844,-1 0.089844,-1.996094 0,-2.996094 0,-0.453124 -0.183594,-0.90625 -0.453125,-1.269531 -0.363281,-0.363281 -0.816406,-0.542969 -1.273437,-0.542969 -0.996094,0 -1.90625,0.816407 -1.8125,1.8125 z m 0,0"
           id="path83" />
      </g>
    </g>
  </g>
  <g
     clip-path="url(#728d0fd462)"
     id="g97"
     transform="translate(-89.492188,-82.708286)">
    <g
       clip-path="url(#2e8d1562e1)"
       id="g95">
      <g
         clip-path="url(#d2ed1d468b)"
         id="g93">
        <path
           fill="#694f00"
           d="m 277.98437,117.50391 c 0.19532,0.33203 0.22657,0.75 0.043,1.12109 -0.8164,1.65234 -1.75781,3.27344 -2.80468,4.82031 -0.35938,0.53516 -1.09766,0.67578 -1.63282,0.3125 -0.53906,-0.35937 -0.67968,-1.09765 -0.3164,-1.63672 0.98828,-1.46093 1.875,-2.98828 2.64062,-4.53906 0.28906,-0.58594 1,-0.82031 1.56641,-0.53906 0.23437,0.10937 0.39453,0.27734 0.5039,0.46094 z m -6.04296,8.95703 c 0.25,0.42578 0.21484,0.98828 -0.14063,1.38281 -1.22656,1.37109 -2.56641,2.6875 -3.96484,3.89844 -0.48828,0.42578 -1.23047,0.37109 -1.66016,-0.1211 -0.41406,-0.49609 -0.37109,-1.23047 0.11719,-1.66015 1.32812,-1.15235 2.58594,-2.39063 3.74609,-3.69141 0.42578,-0.48437 1.17578,-0.52344 1.65625,-0.0977 0.11328,0.0898 0.1875,0.1875 0.2461,0.28906 z m -8.16797,7.07422 c 0.3164,0.53906 0.15625,1.23437 -0.36719,1.57421 -0.62109,0.41407 -1.25391,0.80469 -1.89453,1.1836 -0.96485,0.5664 -1.94531,1.09765 -2.92969,1.57031 -0.58984,0.28516 -1.27734,0.0586 -1.57031,-0.54297 -0.28516,-0.58594 -0.0469,-1.28515 0.53906,-1.57031 0.93359,-0.45703 1.87109,-0.96094 2.77344,-1.49609 0.60547,-0.35547 1.20703,-0.72657 1.79297,-1.11719 0.54297,-0.36719 1.26562,-0.20703 1.63281,0.33594 -0.004,0.0156 0.008,0.0391 0.0234,0.0625 z m -9.70313,4.73437 c 0.0391,0.0703 0.0664,0.14453 0.10547,0.23047 0.20703,0.61719 -0.125,1.28125 -0.74219,1.48828 -1.64843,0.55469 -3.33593,0.99219 -5.02343,1.32422 l -0.375,0.0664 c -0.64063,0.11718 -1.25391,-0.29297 -1.3711,-0.9375 -0.11719,-0.64063 0.30078,-1.24219 0.9336,-1.3711 L 247.95703,139 c 1.58594,-0.32031 3.17969,-0.73047 4.73047,-1.24219 0.52344,-0.1875 1.10547,0.043 1.38281,0.51172 z m -20.5664,-20.61719 c 0.32421,0.55079 0.58593,1.07813 0.83203,1.59766 0.27343,0.59375 0,1.28125 -0.59375,1.55469 -0.59766,0.27344 -1.30078,-0.008 -1.5586,-0.59766 -0.68359,-1.52734 -1.63672,-2.91015 -2.80468,-4.15625 -0.44922,-0.47265 -0.42579,-1.21484 0.0586,-1.65625 0.47266,-0.44922 1.21484,-0.42187 1.65234,0.0625 0.94922,1 1.75,2.07422 2.41407,3.19531 z m 2.02343,6.73438 c 0.0977,0.16016 0.16407,0.35156 0.16016,0.55469 0.0508,1.3164 -0.082,2.58203 -0.39453,3.80468 -0.16797,0.65625 -0.39063,1.32422 -0.65625,1.97657 -0.24219,0.60546 -0.92578,0.88671 -1.53516,0.64062 -0.60547,-0.24219 -0.88672,-0.92969 -0.64062,-1.53516 0.22656,-0.55468 0.41015,-1.10937 0.55468,-1.67187 0.25782,-1.00391 0.36329,-2.05469 0.31641,-3.125 -0.0273,-0.64844 0.48438,-1.19531 1.13281,-1.22266 0.46094,-0.0234 0.85547,0.22266 1.0625,0.57813 z m -8.46875,-13.13281 c 0.21875,0.36718 0.23438,0.83984 -0.008,1.21093 -0.33984,0.55469 -1.07031,0.72657 -1.61328,0.38282 -0.36328,-0.22266 -0.71484,-0.42969 -1.08203,-0.63282 -1.15625,-0.6289 -2.34766,-1.13281 -3.54688,-1.49218 -0.62109,-0.1875 -0.98437,-0.82422 -0.80078,-1.45703 0.1875,-0.6211 0.82422,-0.98438 1.45703,-0.80079 1.36328,0.40235 2.71485,0.96485 4.01563,1.6836 0.41015,0.22265 0.80469,0.44922 1.19922,0.69922 0.15625,0.10547 0.28515,0.24609 0.3789,0.40625 z m 16.38672,28.98437 c 0.0937,0.16016 0.15235,0.34375 0.16016,0.53906 0.0273,0.64844 -0.46485,1.19922 -1.10938,1.22657 -1.84765,0.0859 -3.72265,0.0469 -5.57031,-0.10157 -0.64453,-0.0508 -1.12109,-0.62109 -1.07031,-1.26562 0.0508,-0.64844 0.61719,-1.125 1.26562,-1.07422 1.75,0.14453 3.51563,0.18359 5.25782,0.10156 0.44921,-0.0195 0.84765,0.20703 1.0664,0.57422 z m -26.66015,-31.80859 c 0.082,0.13672 0.13281,0.30859 0.16015,0.47656 0.0547,0.64844 -0.41015,1.21484 -1.05078,1.28516 -1.13672,0.11328 -2.19531,0.41406 -3.15625,0.90234 -0.21094,0.10938 -0.42187,0.21875 -0.61719,0.33594 -0.24218,0.14062 -0.46484,0.28515 -0.67968,0.44531 -0.53125,0.375 -1.25782,0.24609 -1.63282,-0.28906 -0.3789,-0.53516 -0.25,-1.25781 0.28125,-1.63672 0.27344,-0.19141 0.55469,-0.37109 0.85157,-0.54688 0.24218,-0.14062 0.48828,-0.26953 0.74609,-0.40625 1.21484,-0.60937 2.54687,-0.99218 3.98437,-1.14453 0.45704,-0.0391 0.88282,0.1875 1.11329,0.57813 z m 14.98437,25.85156 c 0.24219,0.41406 0.22266,0.95312 -0.11328,1.35156 -0.70313,0.84766 -1.49219,1.6836 -2.37891,2.48438 0.8711,0.24218 1.7461,0.46875 2.62891,0.66015 0.63281,0.13672 1.03516,0.76172 0.90234,1.39844 -0.13672,0.63672 -0.76172,1.03906 -1.39843,0.90234 -1.54297,-0.34375 -3.07422,-0.76953 -4.5625,-1.28125 -0.25391,-0.004 -0.50391,-0.0898 -0.70313,-0.25 -0.0391,-0.008 -0.0625,-0.0234 -0.0937,-0.0234 -0.60937,-0.22657 -0.92578,-0.89063 -0.69922,-1.5 0.19922,-0.55078 0.77344,-0.85938 1.32813,-0.75391 1.21093,-1.00781 2.26953,-2.06641 3.17968,-3.14062 0.41797,-0.4961 1.14454,-0.57032 1.65235,-0.15625 0.10156,0.0937 0.1914,0.19531 0.25781,0.30859 z m -9.26172,1.35547 c 0.20313,0.34375 0.22266,0.76562 0.0273,1.14062 -0.29297,0.57422 -1.01172,0.79688 -1.59375,0.49219 -1.65625,-0.875 -3.25782,-1.86328 -4.7461,-2.94922 -0.52344,-0.38672 -0.64453,-1.11719 -0.25781,-1.64062 0.38672,-0.51953 1.11719,-0.64453 1.63672,-0.25391 1.40234,1.01172 2.89844,1.95313 4.45703,2.76563 0.21094,0.12109 0.375,0.26953 0.47656,0.44531 z m -13.91406,-21.0625 c 0.16016,0.27734 0.20703,0.61719 0.10547,0.94141 -0.42578,1.39453 -0.45703,2.98828 -0.0664,4.7539 0.14063,0.62891 -0.25781,1.26172 -0.88672,1.40235 -0.625,0.13671 -1.26172,-0.26172 -1.40234,-0.88672 -0.48047,-2.17578 -0.44141,-4.17578 0.10937,-5.96875 0.1875,-0.6211 0.84766,-0.96485 1.46875,-0.77344 0.30469,0.0977 0.52735,0.29297 0.67188,0.53125 z m 14.78125,26.48437 c 0,0 0.008,0.008 0.008,0.008 0.32031,0.57031 0.125,1.28906 -0.4414,1.60546 -1.57032,0.89454 -3.25782,1.72266 -4.9961,2.4375 -0.59765,0.24219 -1.28515,-0.0312 -1.53515,-0.64062 -0.24219,-0.59766 0.0312,-1.28516 0.63671,-1.53516 1.65235,-0.67968 3.24219,-1.46093 4.73047,-2.30859 0.57032,-0.32031 1.27344,-0.11719 1.59766,0.43359 z m -9.60156,-11.78515 c 0.26953,0.45703 0.20703,1.05468 -0.1836,1.4375 -0.45703,0.45703 -1.20312,0.44922 -1.66015,-0.0117 -1.23047,-1.25 -2.3711,-2.74219 -3.30469,-4.32422 0,0 -0.008,-0.0117 -0.008,-0.0117 l -0.13282,-0.22656 c -0.33203,-0.5625 -0.13671,-1.28125 0.42969,-1.59766 0.55078,-0.32422 1.26563,-0.1289 1.58985,0.42188 0,0 0.008,0.008 0.008,0.008 l 0.12109,0.20703 c 0,0 0.008,0.0117 0.008,0.0117 0.83204,1.41016 1.85547,2.75391 2.95704,3.86719 0.0703,0.0664 0.1289,0.14062 0.17578,0.21875 z m -0.375,15.92187 c 0.0469,0.082 0.0898,0.17969 0.12109,0.28516 0.17969,0.61719 -0.19141,1.26953 -0.80859,1.44922 -1.86719,0.52734 -3.71094,0.90625 -5.46875,1.14062 -0.64453,0.0859 -1.23828,-0.37109 -1.32422,-1.01172 -0.0859,-0.64453 0.36719,-1.23828 1.01172,-1.32422 1.64453,-0.21484 3.37109,-0.58203 5.13672,-1.0664 0.52343,-0.14063 1.0664,0.082 1.33203,0.52734 z m -10.71485,1.34375 c 0.10547,0.1836 0.17578,0.40625 0.15625,0.63281 -0.0195,0.64454 -0.57031,1.15625 -1.21484,1.13282 -1.76953,-0.0664 -3.62891,-0.23828 -5.52734,-0.50782 -0.64454,-0.0977 -1.08594,-0.6875 -1,-1.32812 0.0977,-0.64453 0.6875,-1.08594 1.32421,-0.99609 1.80469,0.26171 3.58204,0.42187 5.27344,0.49218 0.4336,0.004 0.78906,0.24219 0.98828,0.57422 z m -10.71484,-1.53125 c 0.14844,0.25391 0.20312,0.5586 0.125,0.86719 -0.15234,0.63281 -0.78516,1.02344 -1.41797,0.86719 -1.79297,-0.42578 -3.58203,-0.94532 -5.31641,-1.53125 -0.61328,-0.20703 -0.94921,-0.875 -0.74218,-1.49219 0.20703,-0.61719 0.875,-0.94922 1.49218,-0.74219 1.67188,0.5586 3.39063,1.0625 5.10938,1.46875 0.33594,0.0977 0.59375,0.30078 0.75,0.5625 z m -10.26172,-3.48047 c 0.1875,0.32032 0.22266,0.71875 0.0625,1.07422 -0.26953,0.58985 -0.95703,0.85938 -1.55078,0.58985 -1.73828,-0.78125 -3.41016,-1.65235 -4.93359,-2.5625 -0.55469,-0.33594 -0.73047,-1.05079 -0.41016,-1.60938 0.33594,-0.55469 1.04297,-0.74219 1.60937,-0.41016 1.45704,0.8711 3.03125,1.6875 4.69532,2.44141 0.23437,0.10938 0.40625,0.26953 0.52734,0.47656 z m -17.51562,-29.04687 c 0.16406,0.27734 0.21875,0.62891 0.10156,0.96094 -0.4336,1.35547 -0.67969,2.76562 -0.7461,4.22656 -0.0312,0.65234 -0.57421,1.14453 -1.21875,1.12109 -0.65234,-0.0312 -1.14453,-0.57812 -1.125,-1.22265 0.0703,-1.66407 0.35938,-3.28907 0.85938,-4.84766 0.19531,-0.60937 0.85547,-0.95312 1.47656,-0.76562 0.27735,0.10156 0.51172,0.28906 0.65235,0.52734 z m 8.27734,23.42969 c 0.24609,0.41015 0.22266,0.94921 -0.10156,1.34375 -0.41016,0.5039 -1.14453,0.5664 -1.65235,0.15234 -0.64062,-0.53516 -1.25,-1.07031 -1.82031,-1.64453 -0.76172,-0.74219 -1.48437,-1.55078 -2.15234,-2.39453 -0.40235,-0.50391 -0.31641,-1.2461 0.18359,-1.65235 0.50391,-0.40234 1.24609,-0.3164 1.65234,0.1836 0.60938,0.76953 1.26563,1.49609 1.95704,2.16797 0.52343,0.52734 1.08593,1.03125 1.67968,1.51562 0.0977,0.10938 0.1875,0.21094 0.25391,0.32813 z m -8.56641,-13.50782 c 0.0625,0.10547 0.10938,0.21485 0.12891,0.32422 0.37891,1.63282 0.96875,3.26172 1.75781,4.83594 0.28516,0.58984 0.0469,1.28516 -0.51953,1.57812 -0.58984,0.28125 -1.27734,0.0547 -1.57422,-0.52734 -0.86719,-1.73047 -1.51953,-3.53906 -1.9375,-5.34765 -0.14453,-0.64063 0.2461,-1.25782 0.87891,-1.41407 0.49609,-0.125 1.00781,0.11719 1.26562,0.55078 z m 0,0"
           fill-opacity="1"
           fill-rule="nonzero"
           id="path91" />
      </g>
    </g>
  </g>
  <path
     fill="#ffffff"
     d="m 47.953122,30.612024 c 0,0 -27.63672,-18.13281 -13.47265,-28.7851539 14.15625,-10.65625 13.47265,28.7851539 13.47265,28.7851539 z m 0,0"
     fill-opacity="1"
     fill-rule="nonzero"
     id="path99" />
  <path
     fill="#ffffff"
     d="m 46.843752,30.256554 c 0,0 28.86718,-16.113278 15.50781,-27.7499959 -13.35547,-11.636719 -15.50781,27.7499959 -15.50781,27.7499959 z m 0,0"
     fill-opacity="1"
     fill-rule="nonzero"
     id="path101" />
  <g
     clip-path="url(#65120523ef)"
     id="g105"
     transform="translate(-89.492188,-82.708286)">
    <path
       fill="#ffca3a"
       d="m 136.37109,105.27734 c -13.30468,-0.90625 -46.878902,0 -46.878902,28.52735 0,30.51562 41.281252,30.50781 50.886722,30.50781 9.60156,0 39.28125,-1.85938 40.28515,-29.43359 1.00781,-27.57422 -38.42969,-29.20313 -44.29297,-29.60157 z m 0,0"
       fill-opacity="1"
       fill-rule="nonzero"
       id="path103" />
  </g>
  <path
     fill="#231f20"
     d="m 40.398432,82.799524 c -0.082,0 -0.16406,-0.008 -0.25,-0.0234 -0.64843,-0.13671 -1.0625,-0.77343 -0.92578,-1.42187 6.25391,-29.52734 -0.375,-59.32422 -0.4414,-59.62109 -0.14844,-0.64453 0.25781,-1.28907 0.90625,-1.4336 0.64453,-0.14453 1.28906,0.25782 1.4375,0.90235 0.0664,0.30468 6.8164,30.59375 0.44922,60.64843 -0.1211,0.5625 -0.61719,0.94922 -1.17579,0.94922 z m 0,0"
     fill-opacity="1"
     fill-rule="nonzero"
     id="path107" />
  <g
     clip-path="url(#bdc43cf1e2)"
     id="g111"
     transform="translate(-89.492188,-82.708286)">
    <path
       fill="#231f20"
       d="m 143.19922,166.58203 c -0.082,0 -0.16406,-0.0117 -0.25,-0.0273 -0.64844,-0.13672 -1.0625,-0.77344 -0.92578,-1.41797 6.26172,-29.5586 0.0156,-59.51563 -0.0469,-59.81641 -0.13672,-0.64843 0.27735,-1.28125 0.92578,-1.41797 0.65235,-0.14062 1.28516,0.27344 1.42578,0.91797 0.0625,0.30469 6.41016,30.76172 0.0469,60.8086 -0.12109,0.5625 -0.62109,0.94921 -1.17578,0.94921 z m 0,0"
       fill-opacity="1"
       fill-rule="nonzero"
       id="path109" />
  </g>
  <path
     fill="#231f20"
     d="m 66.976562,81.932334 c -0.0781,0 -0.16406,-0.008 -0.24609,-0.0273 -0.64844,-0.13281 -1.06641,-0.76953 -0.92969,-1.41797 6.2539,-29.52344 0.64844,-55.10156 0.58984,-55.35547 -0.14453,-0.64453 0.26172,-1.28515 0.91016,-1.42968 0.64844,-0.14453 1.28906,0.26172 1.43359,0.90625 0.0586,0.26172 5.78516,26.32031 -0.58203,56.375 -0.11719,0.5625 -0.61719,0.94921 -1.17187,0.94921 z m 0,0"
     fill-opacity="1"
     fill-rule="nonzero"
     id="path113" />
  <path
     fill="#231f20"
     d="m 80.394532,76.662804 c -0.082,0 -0.16797,-0.008 -0.25,-0.0234 -0.64844,-0.13672 -1.06641,-0.77344 -0.92969,-1.41797 6.22266,-29.375 1.64453,-43.21875 1.59766,-43.35547 -0.21485,-0.625 0.11718,-1.30469 0.74218,-1.51953 0.625,-0.21485 1.3086,0.11328 1.52735,0.73828 0.19922,0.57812 4.86719,14.5039 -1.51563,44.6289 -0.11718,0.5625 -0.61718,0.94922 -1.17187,0.94922 z m 0,0"
     fill-opacity="1"
     fill-rule="nonzero"
     id="path115" />
  <path
     fill="#231f20"
     d="m 11.828122,49.029994 c 1.25391,0 2.46094,-1.10156 2.40235,-2.39062 -0.0586,-1.29688 -1.05469,-2.39453 -2.40235,-2.39453 -1.25781,0 -2.460935,1.10156 -2.402341,2.39453 0.05859,1.29687 1.054687,2.39062 2.402341,2.39062 z m 0,0"
     fill-opacity="1"
     fill-rule="nonzero"
     id="path117" />
  <path
     fill="#231f20"
     d="m 24.042972,49.029994 c 1.25781,0 2.46093,-1.10156 2.40234,-2.39062 -0.0586,-1.29688 -1.05469,-2.39453 -2.40234,-2.39453 -1.25782,0 -2.46094,1.10156 -2.40235,2.39453 0.0586,1.29687 1.05469,2.39062 2.40235,2.39062 z m 0,0"
     fill-opacity="1"
     fill-rule="nonzero"
     id="path119" />
  <g
     fill="#000000"
     fill-opacity="1"
     id="g127"
     transform="translate(-89.492188,-82.708286)">
    <g
       transform="translate(135.16007,259.9856)"
       id="g125">
      <g
         id="g123">
        <path
           d="m 6.796875,-0.4375 c 0.00781,0.054688 0.015625,0.09375 0.015625,0.125 0,0.09375 -0.03125,0.171875 -0.09375,0.234375 -0.0625,0.0625 -0.140625,0.09375 -0.234375,0.09375 -0.074219,0 -0.140625,-0.01953125 -0.203125,-0.0625 -0.054688,-0.0390625 -0.089844,-0.09375 -0.109375,-0.15625 L 5.34375,-2.234375 H 1.75 l -0.8125,2.03125 C 0.875,-0.0546875 0.773438,0.015625 0.640625,0.015625 0.535156,0.015625 0.457031,-0.0078125 0.40625,-0.0625 0.351562,-0.113281 0.320312,-0.1875 0.3125,-0.28125 V -0.3125 c 0,-0.039062 0.003906,-0.070312 0.015625,-0.09375 L 3.25,-7.53125 C 3.300781,-7.675781 3.410156,-7.75 3.578125,-7.75 c 0.070313,0 0.132813,0.023438 0.1875,0.0625 0.050781,0.03125 0.09375,0.085938 0.125,0.15625 z M 2,-2.875 H 5.078125 L 3.53125,-6.65625 Z m 0,0"
           id="path121" />
      </g>
    </g>
  </g>
  <g
     fill="#000000"
     fill-opacity="1"
     id="g133"
     transform="translate(-89.492188,-82.708286)">
    <g
       transform="translate(143.90554,259.9856)"
       id="g131">
      <g
         id="g129" />
    </g>
  </g>
  <g
     fill="#000000"
     fill-opacity="1"
     id="g141"
     transform="translate(-89.492188,-82.708286)">
    <g
       transform="translate(148.52671,259.9856)"
       id="g139">
      <g
         id="g137">
        <path
           d="m 5.15625,-4.109375 c 0.445312,0.117187 0.804688,0.339844 1.078125,0.671875 0.28125,0.324219 0.421875,0.75 0.421875,1.28125 0,0.730469 -0.226562,1.273438 -0.671875,1.625 C 5.546875,-0.175781 4.992188,0 4.328125,0 H 1.375 C 1.269531,0 1.1875,-0.03125 1.125,-0.09375 1.0625,-0.15625 1.03125,-0.234375 1.03125,-0.328125 v -7.0625 c 0,-0.09375 0.03125,-0.171875 0.09375,-0.234375 0.0625,-0.0625 0.144531,-0.09375 0.25,-0.09375 h 2.921875 c 0.613281,0 1.09375,0.171875 1.4375,0.515625 0.351563,0.335937 0.53125,0.792969 0.53125,1.375 0,0.398437 -0.101563,0.75 -0.296875,1.0625 -0.1875,0.304687 -0.460938,0.523437 -0.8125,0.65625 z m 0.40625,-1.65625 c 0,-0.40625 -0.121094,-0.722656 -0.359375,-0.953125 -0.242187,-0.238281 -0.574219,-0.359375 -1,-0.359375 H 1.75 V -4.3125 h 2.453125 c 0.394531,-0.00781 0.71875,-0.140625 0.96875,-0.390625 0.257813,-0.25 0.390625,-0.601563 0.390625,-1.0625 z M 4.296875,-0.65625 c 0.5,0 0.898437,-0.125 1.203125,-0.375 0.300781,-0.25 0.453125,-0.625 0.453125,-1.125 0,-0.507812 -0.15625,-0.882812 -0.46875,-1.125 -0.3125,-0.25 -0.714844,-0.375 -1.203125,-0.375 H 1.75 v 3 z m 0,0"
           id="path135" />
      </g>
    </g>
  </g>
  <g
     fill="#000000"
     fill-opacity="1"
     id="g149"
     transform="translate(-89.492188,-82.708286)">
    <g
       transform="translate(157.31629,259.9856)"
       id="g147">
      <g
         id="g145">
        <path
           d="m 6.5,-7.71875 c 0.09375,0 0.171875,0.03125 0.234375,0.09375 0.0625,0.0625 0.09375,0.140625 0.09375,0.234375 v 4.5625 c 0,0.542969 -0.132813,1.039063 -0.390625,1.484375 -0.25,0.449219 -0.601562,0.804688 -1.046875,1.0625 -0.4375,0.25 -0.921875,0.375 -1.453125,0.375 -0.53125,0 -1.023438,-0.125 -1.46875,-0.375 C 2.03125,-0.539062 1.679688,-0.894531 1.421875,-1.34375 1.160156,-1.789062 1.03125,-2.285156 1.03125,-2.828125 v -4.5625 c 0,-0.09375 0.03125,-0.171875 0.09375,-0.234375 0.0625,-0.0625 0.148438,-0.09375 0.265625,-0.09375 0.082031,0 0.15625,0.03125 0.21875,0.09375 0.070313,0.0625 0.109375,0.140625 0.109375,0.234375 v 4.5625 c 0,0.417969 0.097656,0.796875 0.296875,1.140625 0.195313,0.34375 0.46875,0.621094 0.8125,0.828125 0.34375,0.199219 0.710937,0.296875 1.109375,0.296875 0.40625,0 0.78125,-0.097656 1.125,-0.296875 C 5.40625,-1.066406 5.675781,-1.34375 5.875,-1.6875 6.070312,-2.03125 6.171875,-2.410156 6.171875,-2.828125 v -4.5625 c 0,-0.09375 0.03125,-0.171875 0.09375,-0.234375 C 6.328125,-7.6875 6.40625,-7.71875 6.5,-7.71875 Z m 0,0"
           id="path143" />
      </g>
    </g>
  </g>
  <g
     fill="#000000"
     fill-opacity="1"
     id="g157"
     transform="translate(-89.492188,-82.708286)">
    <g
       transform="translate(166.78957,259.9856)"
       id="g155">
      <g
         id="g153">
        <path
           d="m 6.671875,-3.890625 c 0.09375,0 0.171875,0.03125 0.234375,0.09375 C 6.96875,-3.734375 7,-3.65625 7,-3.5625 v 2.65625 c 0,0.125 -0.054688,0.226562 -0.15625,0.296875 -0.335938,0.230469 -0.703125,0.40625 -1.109375,0.53125 -0.40625,0.125 -0.820313,0.1875 -1.234375,0.1875 -0.75,0 -1.429688,-0.171875 -2.03125,-0.515625 C 1.863281,-0.75 1.390625,-1.222656 1.046875,-1.828125 0.703125,-2.429688 0.53125,-3.109375 0.53125,-3.859375 c 0,-0.75 0.171875,-1.425781 0.515625,-2.03125 C 1.390625,-6.492188 1.863281,-6.96875 2.46875,-7.3125 3.070312,-7.65625 3.75,-7.828125 4.5,-7.828125 c 0.382812,0 0.757812,0.046875 1.125,0.140625 0.363281,0.09375 0.691406,0.230469 0.984375,0.40625 0.101563,0.0625 0.15625,0.15625 0.15625,0.28125 0,0.09375 -0.03125,0.179688 -0.09375,0.25 -0.0625,0.0625 -0.136719,0.09375 -0.21875,0.09375 C 6.378906,-6.65625 6.3125,-6.675781 6.25,-6.71875 5.695312,-7.019531 5.113281,-7.171875 4.5,-7.171875 c -0.625,0 -1.1875,0.148437 -1.6875,0.4375 -0.492188,0.28125 -0.875,0.679687 -1.15625,1.1875 -0.28125,0.5 -0.421875,1.0625 -0.421875,1.6875 0,0.625 0.140625,1.195313 0.421875,1.703125 0.28125,0.5 0.664062,0.898438 1.15625,1.1875 0.5,0.28125 1.0625,0.421875 1.6875,0.421875 0.3125,0 0.628906,-0.039063 0.953125,-0.125 0.320313,-0.09375 0.609375,-0.21875 0.859375,-0.375 v -2.1875 h -1.75 c -0.09375,0 -0.179688,-0.03125 -0.25,-0.09375 C 4.25,-3.390625 4.21875,-3.46875 4.21875,-3.5625 c 0,-0.09375 0.03125,-0.171875 0.09375,-0.234375 0.070312,-0.0625 0.15625,-0.09375 0.25,-0.09375 z m 0,0"
           id="path151" />
      </g>
    </g>
  </g>
  <g
     fill="#000000"
     fill-opacity="1"
     id="g163"
     transform="translate(-89.492188,-82.708286)">
    <g
       transform="translate(176.06437,259.9856)"
       id="g161">
      <g
         id="g159" />
    </g>
  </g>
  <g
     fill="#000000"
     fill-opacity="1"
     id="g171"
     transform="translate(-89.492188,-82.708286)">
    <g
       transform="translate(180.68554,259.9856)"
       id="g169">
      <g
         id="g167">
        <path
           d="m 5.953125,-7.71875 c 0.09375,0 0.171875,0.03125 0.234375,0.09375 0.0625,0.054688 0.09375,0.125 0.09375,0.21875 0,0.09375 -0.03125,0.171875 -0.09375,0.234375 C 6.125,-7.117188 6.046875,-7.09375 5.953125,-7.09375 h -2.28125 v 6.765625 c 0,0.09375 -0.039063,0.171875 -0.109375,0.234375 C 3.5,-0.03125 3.421875,0 3.328125,0 c -0.105469,0 -0.1875,-0.03125 -0.25,-0.09375 -0.0625,-0.0625 -0.09375,-0.140625 -0.09375,-0.234375 V -7.09375 h -2.28125 c -0.09375,0 -0.171875,-0.023438 -0.234375,-0.078125 C 0.40625,-7.234375 0.375,-7.3125 0.375,-7.40625 0.375,-7.5 0.40625,-7.570312 0.46875,-7.625 0.53125,-7.6875 0.609375,-7.71875 0.703125,-7.71875 Z m 0,0"
           id="path165" />
      </g>
    </g>
  </g>
  <g
     fill="#000000"
     fill-opacity="1"
     id="g179"
     transform="translate(-89.492188,-82.708286)">
    <g
       transform="translate(188.95683,259.9856)"
       id="g177">
      <g
         id="g175">
        <path
           d="m 6.671875,-0.59375 c 0.113281,0.074219 0.171875,0.167969 0.171875,0.28125 0,0.03125 -0.015625,0.078125 -0.046875,0.140625 -0.03125,0.054687 -0.074219,0.09375 -0.125,0.125 -0.054687,0.0234375 -0.105469,0.03125 -0.15625,0.03125 -0.085937,0 -0.148437,-0.015625 -0.1875,-0.046875 -0.210937,-0.113281 -0.375,-0.300781 -0.5,-0.5625 -0.125,-0.269531 -0.1875,-0.691406 -0.1875,-1.265625 0,-0.519531 -0.148437,-0.882813 -0.4375,-1.09375 -0.28125,-0.207031 -0.621094,-0.3125 -1.015625,-0.3125 H 1.734375 v 2.96875 c 0,0.09375 -0.03125,0.171875 -0.09375,0.234375 C 1.585938,-0.03125 1.507812,0 1.40625,0 1.300781,0 1.210938,-0.03125 1.140625,-0.09375 1.066406,-0.15625 1.03125,-0.234375 1.03125,-0.328125 v -7.0625 c 0,-0.09375 0.03125,-0.171875 0.09375,-0.234375 0.0625,-0.0625 0.144531,-0.09375 0.25,-0.09375 h 2.96875 c 0.414062,0 0.789062,0.089844 1.125,0.265625 0.332031,0.179687 0.59375,0.429687 0.78125,0.75 0.1875,0.3125 0.28125,0.667969 0.28125,1.0625 0,0.46875 -0.125,0.886719 -0.375,1.25 -0.242188,0.355469 -0.558594,0.601563 -0.953125,0.734375 0.320313,0.125 0.582031,0.339844 0.78125,0.640625 0.207031,0.292969 0.316406,0.652344 0.328125,1.078125 0.00781,0.460938 0.039062,0.78125 0.09375,0.96875 0.050781,0.179688 0.140625,0.304688 0.265625,0.375 z M 4.375,-3.90625 c 0.257812,-0.019531 0.5,-0.101562 0.71875,-0.25 C 5.3125,-4.300781 5.488281,-4.5 5.625,-4.75 5.757812,-5 5.828125,-5.285156 5.828125,-5.609375 c 0,-0.425781 -0.148437,-0.773437 -0.4375,-1.046875 -0.28125,-0.28125 -0.648437,-0.421875 -1.09375,-0.421875 h -2.5625 v 3.171875 z m 0,0"
           id="path173" />
      </g>
    </g>
  </g>
  <g
     fill="#000000"
     fill-opacity="1"
     id="g187"
     transform="translate(-89.492188,-82.708286)">
    <g
       transform="translate(197.95593,259.9856)"
       id="g185">
      <g
         id="g183">
        <path
           d="m 6.796875,-0.4375 c 0.00781,0.054688 0.015625,0.09375 0.015625,0.125 0,0.09375 -0.03125,0.171875 -0.09375,0.234375 -0.0625,0.0625 -0.140625,0.09375 -0.234375,0.09375 -0.074219,0 -0.140625,-0.01953125 -0.203125,-0.0625 -0.054688,-0.0390625 -0.089844,-0.09375 -0.109375,-0.15625 L 5.34375,-2.234375 H 1.75 l -0.8125,2.03125 C 0.875,-0.0546875 0.773438,0.015625 0.640625,0.015625 0.535156,0.015625 0.457031,-0.0078125 0.40625,-0.0625 0.351562,-0.113281 0.320312,-0.1875 0.3125,-0.28125 V -0.3125 c 0,-0.039062 0.003906,-0.070312 0.015625,-0.09375 L 3.25,-7.53125 C 3.300781,-7.675781 3.410156,-7.75 3.578125,-7.75 c 0.070313,0 0.132813,0.023438 0.1875,0.0625 0.050781,0.03125 0.09375,0.085938 0.125,0.15625 z M 2,-2.875 H 5.078125 L 3.53125,-6.65625 Z m 0,0"
           id="path181" />
      </g>
    </g>
  </g>
  <g
     fill="#000000"
     fill-opacity="1"
     id="g195"
     transform="translate(-89.492188,-82.708286)">
    <g
       transform="translate(206.7014,259.9856)"
       id="g193">
      <g
         id="g191">
        <path
           d="m 6.671875,-7.140625 c 0.113281,0.0625 0.171875,0.152344 0.171875,0.265625 0,0.074219 -0.027344,0.148438 -0.078125,0.21875 -0.074219,0.085938 -0.15625,0.125 -0.25,0.125 -0.0625,0 -0.125,-0.015625 -0.1875,-0.046875 -0.585937,-0.394531 -1.226563,-0.59375 -1.921875,-0.59375 -0.59375,0 -1.136719,0.140625 -1.625,0.421875 -0.480469,0.28125 -0.859375,0.671875 -1.140625,1.171875 -0.273437,0.5 -0.40625,1.074219 -0.40625,1.71875 0,0.65625 0.140625,1.234375 0.421875,1.734375 0.28125,0.5 0.660156,0.890625 1.140625,1.171875 0.476563,0.273437 1.015625,0.40625 1.609375,0.40625 0.695312,0 1.335938,-0.1875 1.921875,-0.5625 0.050781,-0.039063 0.113281,-0.0625 0.1875,-0.0625 0.09375,0 0.175781,0.046875 0.25,0.140625 0.050781,0.054688 0.078125,0.121094 0.078125,0.203125 0,0.117187 -0.054688,0.203125 -0.15625,0.265625 -0.292969,0.1875 -0.648438,0.351562 -1.0625,0.484375 -0.417969,0.125 -0.824219,0.1875 -1.21875,0.1875 -0.699219,0 -1.34375,-0.1640625 -1.9375,-0.5 C 1.875,-0.722656 1.398438,-1.191406 1.046875,-1.796875 0.703125,-2.398438 0.53125,-3.085938 0.53125,-3.859375 c 0,-0.738281 0.171875,-1.410156 0.515625,-2.015625 0.34375,-0.613281 0.804687,-1.09375 1.390625,-1.4375 0.59375,-0.34375 1.25,-0.515625 1.96875,-0.515625 0.40625,0 0.804688,0.0625 1.203125,0.1875 0.394531,0.117187 0.75,0.28125 1.0625,0.5 z m 0,0"
           id="path189" />
      </g>
    </g>
  </g>
  <g
     fill="#000000"
     fill-opacity="1"
     id="g203"
     transform="translate(-89.492188,-82.708286)">
    <g
       transform="translate(215.51303,259.9856)"
       id="g201">
      <g
         id="g199">
        <path
           d="m 6.84375,-0.546875 c 0.050781,0.074219 0.078125,0.152344 0.078125,0.234375 0,0.117188 -0.039063,0.203125 -0.109375,0.265625 -0.074219,0.0625 -0.164062,0.09375 -0.265625,0.09375 -0.09375,0 -0.171875,-0.04296875 -0.234375,-0.125 l -3.078125,-3.875 -1.5,1.421875 v 2.1875 c -0.011719,0.105469 -0.054687,0.1875 -0.125,0.25 C 1.546875,-0.03125 1.46875,0 1.375,0 1.269531,0 1.1875,-0.03125 1.125,-0.09375 1.0625,-0.15625 1.03125,-0.238281 1.03125,-0.34375 V -7.375 c 0,-0.101562 0.03125,-0.1875 0.09375,-0.25 0.070312,-0.0625 0.160156,-0.09375 0.265625,-0.09375 0.101563,0 0.1875,0.03125 0.25,0.09375 0.0625,0.0625 0.09375,0.148438 0.09375,0.25 v 4 L 6.1875,-7.59375 c 0.0625,-0.070312 0.144531,-0.109375 0.25,-0.109375 0.082031,0 0.15625,0.039063 0.21875,0.109375 0.0625,0.0625 0.09375,0.136719 0.09375,0.21875 0,0.085938 -0.03125,0.164062 -0.09375,0.234375 l -2.890625,2.6875 z m 0,0"
           id="path197" />
      </g>
    </g>
  </g>
  <g
     fill="#000000"
     fill-opacity="1"
     id="g211"
     transform="translate(-89.492188,-82.708286)">
    <g
       transform="translate(224.56727,259.9856)"
       id="g209">
      <g
         id="g207">
        <path
           d="m 5.421875,-0.65625 c 0.09375,0 0.171875,0.039062 0.234375,0.109375 0.0625,0.0625 0.09375,0.140625 0.09375,0.234375 0,0.09375 -0.03125,0.171875 -0.09375,0.234375 C 5.59375,-0.0234375 5.515625,0 5.421875,0 H 1.375 C 1.269531,0 1.1875,-0.03125 1.125,-0.09375 1.0625,-0.15625 1.03125,-0.234375 1.03125,-0.328125 v -7.0625 c 0,-0.09375 0.03125,-0.171875 0.09375,-0.234375 0.0625,-0.0625 0.144531,-0.09375 0.25,-0.09375 h 4.046875 c 0.09375,0 0.171875,0.03125 0.234375,0.09375 0.0625,0.0625 0.09375,0.140625 0.09375,0.234375 0,0.09375 -0.03125,0.171875 -0.09375,0.234375 -0.0625,0.054688 -0.140625,0.078125 -0.234375,0.078125 h -3.6875 v 2.78125 h 3.1875 c 0.09375,0 0.171875,0.03125 0.234375,0.09375 0.0625,0.0625 0.09375,0.140625 0.09375,0.234375 0,0.09375 -0.03125,0.171875 -0.09375,0.234375 -0.0625,0.054687 -0.140625,0.078125 -0.234375,0.078125 h -3.1875 v 3 z m 0,0"
           id="path205" />
      </g>
    </g>
  </g>
  <g
     fill="#000000"
     fill-opacity="1"
     id="g219"
     transform="translate(-89.492188,-82.708286)">
    <g
       transform="translate(232.44156,259.9856)"
       id="g217">
      <g
         id="g215">
        <path
           d="m 6.671875,-0.59375 c 0.113281,0.074219 0.171875,0.167969 0.171875,0.28125 0,0.03125 -0.015625,0.078125 -0.046875,0.140625 -0.03125,0.054687 -0.074219,0.09375 -0.125,0.125 -0.054687,0.0234375 -0.105469,0.03125 -0.15625,0.03125 -0.085937,0 -0.148437,-0.015625 -0.1875,-0.046875 -0.210937,-0.113281 -0.375,-0.300781 -0.5,-0.5625 -0.125,-0.269531 -0.1875,-0.691406 -0.1875,-1.265625 0,-0.519531 -0.148437,-0.882813 -0.4375,-1.09375 -0.28125,-0.207031 -0.621094,-0.3125 -1.015625,-0.3125 H 1.734375 v 2.96875 c 0,0.09375 -0.03125,0.171875 -0.09375,0.234375 C 1.585938,-0.03125 1.507812,0 1.40625,0 1.300781,0 1.210938,-0.03125 1.140625,-0.09375 1.066406,-0.15625 1.03125,-0.234375 1.03125,-0.328125 v -7.0625 c 0,-0.09375 0.03125,-0.171875 0.09375,-0.234375 0.0625,-0.0625 0.144531,-0.09375 0.25,-0.09375 h 2.96875 c 0.414062,0 0.789062,0.089844 1.125,0.265625 0.332031,0.179687 0.59375,0.429687 0.78125,0.75 0.1875,0.3125 0.28125,0.667969 0.28125,1.0625 0,0.46875 -0.125,0.886719 -0.375,1.25 -0.242188,0.355469 -0.558594,0.601563 -0.953125,0.734375 0.320313,0.125 0.582031,0.339844 0.78125,0.640625 0.207031,0.292969 0.316406,0.652344 0.328125,1.078125 0.00781,0.460938 0.039062,0.78125 0.09375,0.96875 0.050781,0.179688 0.140625,0.304688 0.265625,0.375 z M 4.375,-3.90625 c 0.257812,-0.019531 0.5,-0.101562 0.71875,-0.25 C 5.3125,-4.300781 5.488281,-4.5 5.625,-4.75 5.757812,-5 5.828125,-5.285156 5.828125,-5.609375 c 0,-0.425781 -0.148437,-0.773437 -0.4375,-1.046875 -0.28125,-0.28125 -0.648437,-0.421875 -1.09375,-0.421875 h -2.5625 v 3.171875 z m 0,0"
           id="path213" />
      </g>
    </g>
  </g>
</svg>
