<?xml version="1.0" encoding="UTF-8" standalone="no"?>
<svg
   width="500"
   zoomAndPan="magnify"
   viewBox="0 0 375 374.999991"
   height="500"
   preserveAspectRatio="xMidYMid meet"
   version="1.0"
   id="svg220"
   sodipodi:docname="BytesAndBranchesLogo_500.svg"
   inkscape:version="1.2.2 (732a01da63, 2022-12-09)"
   xmlns:inkscape="http://www.inkscape.org/namespaces/inkscape"
   xmlns:sodipodi="http://sodipodi.sourceforge.net/DTD/sodipodi-0.dtd"
   xmlns="http://www.w3.org/2000/svg"
   xmlns:svg="http://www.w3.org/2000/svg">
  <sodipodi:namedview
     id="namedview222"
     pagecolor="#ffffff"
     bordercolor="#000000"
     borderopacity="0.25"
     inkscape:showpageshadow="2"
     inkscape:pageopacity="0.0"
     inkscape:pagecheckerboard="0"
     inkscape:deskcolor="#d1d1d1"
     showgrid="false"
     inkscape:zoom="0.837"
     inkscape:cx="289.72521"
     inkscape:cy="285.54361"
     inkscape:window-width="1920"
     inkscape:window-height="1017"
     inkscape:window-x="1912"
     inkscape:window-y="-8"
     inkscape:window-maximized="1"
     inkscape:current-layer="svg220" />
  <defs
     id="defs16">
    <g
       id="g2" />
    <clipPath
       id="5cd22b70ed">
      <path
         d="M 194 63.019531 L 209 63.019531 L 209 109 L 194 109 Z M 194 63.019531 "
         clip-rule="nonzero"
         id="path4" />
    </clipPath>
    <clipPath
       id="8954bf21ac">
      <path
         d="M 181 171 L 190 171 L 190 257.269531 L 181 257.269531 Z M 181 171 "
         clip-rule="nonzero"
         id="path7" />
    </clipPath>
    <clipPath
       id="3dd4c0bef8">
      <path
         d="M 183 180 L 240 180 L 240 257.269531 L 183 257.269531 Z M 183 180 "
         clip-rule="nonzero"
         id="path10" />
    </clipPath>
    <clipPath
       id="24b01b0a9c">
      <path
         d="M 101.539062 135 L 173 135 L 173 201 L 101.539062 201 Z M 101.539062 135 "
         clip-rule="nonzero"
         id="path13" />
    </clipPath>
  </defs>
  <g
     fill="#0b3b36"
     fill-opacity="1"
     id="g62"
     transform="translate(-0.35260725,11.994814)">
    <g
       transform="translate(169.52897,307.58096)"
       id="g60">
      <g
         id="g58" />
    </g>
  </g>
  <g
     fill="#0b3b36"
     fill-opacity="1"
     id="g140"
     transform="translate(-0.35260725,11.994814)">
    <g
       transform="translate(144.48463,287.58092)"
       id="g138">
      <g
         id="g136" />
    </g>
  </g>
  <g
     fill="#0b3b36"
     fill-opacity="1"
     id="g154"
     transform="translate(-0.35260725,11.994814)">
    <g
       transform="translate(169.80469,287.58092)"
       id="g152">
      <g
         id="g150" />
    </g>
  </g>
  <g
     id="g772"
     transform="matrix(1.2539873,0,0,1.2539873,-47.622618,-47.622618)">
    <path
       fill="#8bc349"
       d="m 264.7138,169.46747 -2.39844,1.17187 c -6.40235,3.23438 -12.78125,6.04297 -19.14453,8.42969 -3.96875,1.33203 -6.34766,2.0664 -7.13672,2.19531 l -11.59375,2.60156 c -3.64063,1.11328 -5.76563,1.90625 -6.37891,2.37891 -4.09375,1.91406 -7.47265,5.65625 -10.13672,11.22656 -0.85937,1.85547 -1.57422,3.8125 -2.14843,5.87891 l -0.72657,3.11328 c -0.40234,2.10156 -0.60156,4.17969 -0.60547,6.23047 -0.004,2.05078 0.23438,3.98437 0.70704,5.80078 l 0.91796,2.57031 1.33594,2.26563 1.78125,1.88672 c 2.82422,2.23828 6.5586,3.34375 11.19922,3.32031 3.01953,-0.004 6.16406,-0.45703 9.4375,-1.35156 4.04688,-1.29688 6.45703,-2.19922 7.22656,-2.70313 3.8711,-2.0625 6.125,-3.41016 6.76172,-4.05469 1.41406,-1.04297 2.74219,-2.17578 3.98047,-3.40234 l 2.62109,-2.91016 c 1.62891,-2.03906 3.07032,-4.24609 4.32032,-6.61718 2.46093,-4.78125 4.38672,-10.02344 5.77343,-15.73829 1.14844,-4.1914 2.55079,-11.625 4.20704,-22.29296"
       fill-opacity="1"
       fill-rule="nonzero"
       id="path18" />
    <path
       fill="#8bc349"
       d="m 112.57317,160.25653 1.3711,1.03515 c 4.99609,3.88282 9.3125,6.39454 12.95312,7.53516 1.03906,0.33594 2.10547,0.58984 3.19531,0.76563 l 1.66406,0.20312 c 5.80469,0.17188 9.40235,0.39844 10.79297,0.68359 2.53907,0.34375 5.14453,1.27735 7.82032,2.79688 5.98046,3.80859 10.59765,9.54297 13.85546,17.20312 1.3711,3.55469 1.6211,6.76563 0.75391,9.625 -1.02734,2.79688 -3.34375,4.82422 -6.95312,6.07813 -1.22657,0.58203 -3.69922,1.03906 -7.41407,1.36719 -2.17968,0.10937 -4.41797,0 -6.71875,-0.32422 -4.00781,-0.71875 -6.80468,-1.47656 -8.39453,-2.26563 -2.16015,-0.88672 -4.15234,-2.00781 -5.98047,-3.35937 -1.80078,-1.35938 -3.40234,-2.9336 -4.80468,-4.72656 l -1.98438,-2.82032 c -1.23047,-1.97656 -2.32031,-4.11328 -3.26562,-6.40625 -2.4336,-5.65625 -4.73047,-14.78515 -6.89063,-27.39062"
       fill-opacity="1"
       fill-rule="nonzero"
       id="path20" />
    <path
       fill="#000000"
       d="m 154.00676,121.54559 0.0508,18.91406 -0.78907,-1.6289 c 3.38282,2.6914 7.00391,5.63672 8.53125,14.21484 0.30469,1.71484 0.52344,3.64844 0.75,5.62109 v 0.004 c 0.25782,2.27344 0.53125,4.64063 0.94922,6.99219 0.98828,5.5664 2.73047,10.57422 6.53516,13.66015 3.375,2.73438 8.67578,4.21485 14.24219,4.16016 5.90625,-0.0547 11.62109,-1.83203 15.14843,-5.0625 5.4336,-4.98047 6.35157,-13.91406 7.08985,-22.02734 0.1914,-2.11719 0.3789,-4.1836 0.66015,-5.97657 1.38672,-8.82031 5.11328,-11.24218 8.61719,-13.40234 l -0.99219,1.69531 0.79297,-18.80468 2.14063,2.17968 -65.76953,1.55469 2.04296,-2.09375 m -4.18359,0.0117 c -0.004,-1.14062 0.90234,-2.07031 2.04297,-2.09766 l 65.76953,-1.55468 c 0.57813,-0.0156 1.13672,0.21093 1.54297,0.625 0.40625,0.41406 0.62109,0.97265 0.59766,1.55078 v 0.004 l -0.79297,18.80079 c -0.0312,0.6914 -0.40235,1.32812 -0.9961,1.6914 -2.88281,1.77734 -5.54687,3.28906 -6.67968,10.48828 -0.25391,1.62891 -0.42969,3.54688 -0.625,5.70703 -0.69141,7.61328 -1.56641,18.44532 -8.42969,24.73047 -4.52735,4.14844 -11.375,6.09766 -17.9336,6.16406 -6.1914,0.0586 -12.55859,-1.55859 -16.92187,-5.09375 -5.03516,-4.08593 -6.99219,-10.40234 -8.01953,-16.17968 -0.44531,-2.5 -0.73047,-4.99219 -0.98828,-7.25 -0.23047,-2.00782 -0.4336,-3.80469 -0.71094,-5.36719 -1.27344,-7.16406 -4.02734,-9.29297 -7.01953,-11.67578 -0.4961,-0.39453 -0.78516,-0.99219 -0.78906,-1.62891 z m 0,0"
       fill-opacity="1"
       fill-rule="nonzero"
       id="path22" />
    <g
       clip-path="url(#5cd22b70ed)"
       id="g26"
       transform="translate(-0.35260725,11.994814)">
      <path
         fill="#000000"
         d="m 194.71094,105.75781 c -0.0664,-14.246091 -0.15625,-29.042966 1.74609,-36.296872 0.6875,-2.628907 1.80078,-4.953126 3.60938,-5.941407 0.52734,-0.289062 1.1289,-0.46875 1.77343,-0.472656 0.67578,-0.0078 1.30469,0.175781 1.85157,0.476563 2.01953,1.113281 3.18359,3.90625 3.8164,7.039062 1.53516,7.628906 0.74219,21.984375 0,35.82813 -0.0625,1.15234 -1.05078,2.03906 -2.20312,1.97656 -1.15625,-0.0625 -2.03907,-1.04688 -1.97657,-2.19922 0.76172,-14.164064 1.47657,-27.812501 0.0742,-34.781251 -0.62109,-3.089844 -1.51562,-4.082031 -1.73047,-4.199219 0.008,0.0039 0.0859,0.04297 0.20704,0.03906 0.11718,0 0.1875,-0.03516 0.1914,-0.03906 -0.15234,0.08594 -0.91015,0.824219 -1.5664,3.332031 -1.72266,6.574219 -1.67579,20.621094 -1.60547,35.218749 0.004,1.15625 -0.92969,2.09375 -2.08594,2.10156 -1.15625,0.004 -2.09766,-0.92578 -2.10156,-2.08203 z m 0,0"
         fill-opacity="1"
         fill-rule="nonzero"
         id="path24" />
    </g>
    <path
       fill="#000000"
       d="m 179.7763,137.92059 33.8164,0.28516 c 1.15625,0.0117 2.08594,0.95703 2.07813,2.10937 -0.0117,1.15625 -0.95703,2.08203 -2.11328,2.07422 l -33.81641,-0.28906 c -1.15625,-0.008 -2.08594,-0.95313 -2.07422,-2.10938 0.008,-1.15234 0.95313,-2.08203 2.10938,-2.07031 z m 0,0"
       fill-opacity="1"
       fill-rule="nonzero"
       id="path28" />
    <path
       fill="#000000"
       d="m 153.62005,138.78778 10.75781,-0.10547 c 1.15234,-0.0117 2.10156,0.91797 2.10937,2.07031 0.0117,1.15625 -0.91406,2.10156 -2.07031,2.11328 l -10.75781,0.10157 c -1.15625,0.0117 -2.10156,-0.91407 -2.11328,-2.07032 -0.0117,-1.15625 0.91797,-2.10156 2.07422,-2.10937 z m 0,0"
       fill-opacity="1"
       fill-rule="nonzero"
       id="path30" />
    <path
       fill="#000000"
       d="m 161.5888,120.40106 v 0.004 c -1.21094,-14.19922 -2.48829,-28.941406 -1.17579,-36.324218 v 0.0039 c 0.47657,-2.679688 1.39844,-5.085938 3.1211,-6.214844 0.5039,-0.328125 1.08984,-0.554688 1.73047,-0.613281 0.67578,-0.0625 1.3125,0.07031 1.88672,0.328125 2.10156,0.945312 3.48828,3.636718 4.36718,6.710937 2.14453,7.480469 2.50782,21.855471 2.875,35.710931 0.0312,1.15625 -0.8789,2.11719 -2.03515,2.14844 -1.15625,0.0312 -2.11719,-0.88282 -2.14844,-2.03516 -0.375,-14.17577 -0.75781,-27.839836 -2.71484,-34.675773 -0.86719,-3.027344 -1.83985,-3.945313 -2.0625,-4.046875 0.008,0.0039 0.0859,0.03516 0.20703,0.02344 0.11718,-0.0078 0.18359,-0.05078 0.1914,-0.05469 -0.14843,0.09766 -0.84375,0.894531 -1.29687,3.449218 -1.1875,6.6875 -0.0156,20.6875 1.22656,35.23046 0.0977,1.15235 -0.75391,2.16406 -1.90625,2.26172 -1.15234,0.0977 -2.16406,-0.75391 -2.26562,-1.90625 z m 0,0"
       fill-opacity="1"
       fill-rule="nonzero"
       id="path32" />
    <g
       clip-path="url(#8954bf21ac)"
       id="g36"
       transform="translate(-0.35260725,11.994814)">
      <path
         fill="#000000"
         d="m 186.94531,173.88672 c -0.91015,11.25781 -1.80859,22.40625 -1.42578,35.83594 0.38672,13.46093 2.05859,29.23437 3.74219,45.11328 0.125,1.14843 -0.71094,2.17968 -1.85938,2.30078 -1.14843,0.12109 -2.17968,-0.71094 -2.30078,-1.85938 -1.67969,-15.83593 -3.375,-31.78125 -3.76562,-45.43359 -0.39063,-13.68359 0.52734,-25.04297 1.4375,-36.29297 0.0898,-1.15234 1.10156,-2.01172 2.2539,-1.91797 1.15235,0.0937 2.00782,1.10156 1.91797,2.25391 z m 0,0"
         fill-opacity="1"
         fill-rule="nonzero"
         id="path34" />
    </g>
    <g
       clip-path="url(#3dd4c0bef8)"
       id="g40"
       transform="translate(-0.35260725,11.994814)">
      <path
         fill="#000000"
         d="m 184.49219,255.34375 c -1.28125,-9.50391 -2.65625,-19.60938 6.32422,-32.30469 v 0.004 c 8.70312,-12.3086 27.2539,-27.12891 45.39062,-41.64063 0.90234,-0.72265 2.21875,-0.57812 2.94141,0.32422 0.72265,0.90235 0.57812,2.21875 -0.32422,2.9375 -18.36719,14.69922 -36.3125,29.08594 -44.58985,40.78906 -8.00781,11.32032 -6.84765,20.01954 -5.59375,29.33204 0.15625,1.14453 -0.64843,2.19531 -1.79296,2.35156 -1.14844,0.15234 -2.19922,-0.64844 -2.35547,-1.79297 z m 0,0"
         fill-opacity="1"
         fill-rule="nonzero"
         id="path38" />
    </g>
    <path
       fill="#000000"
       d="m 197.47942,217.35418 c -0.25781,-3.27343 -0.51562,-6.64453 0.89063,-13.32031 1.3789,-6.53515 4.48828,-16.98047 14.6875,-23.07812 6.08984,-3.64453 14.61718,-5.62891 22.38281,-7.46094 5.03125,-1.18359 9.77734,-2.30469 13.70312,-3.74609 9.91797,-3.63672 14.71875,-9.35547 19.79688,-15.4375 0.61328,-0.73438 1.64453,-0.96094 2.50781,-0.55079 0.86328,0.41016 1.33594,1.35547 1.15234,2.28907 v 0.004 c -5.22265,26.59766 -10.58203,54.34375 -22.30859,66.73828 -6.39844,6.76172 -14.53516,8.91407 -23.15234,9 -7.75,0.0742 -16.10157,-1.52734 -24.1875,-3.0664 -1.13282,-0.21485 -1.87891,-1.3125 -1.66016,-2.44531 0.21484,-1.13282 1.30859,-1.87891 2.44531,-1.66407 v 0.004 c 8.1875,1.55859 16.10938,3.05859 23.35938,2.98828 7.93359,-0.0742 14.80078,-2.03125 20.15234,-7.6875 10.67578,-11.28516 15.89063,-37.40625 21.24219,-64.67578 l 3.66406,1.74219 c -5.125,6.14062 -10.53125,12.64062 -21.5664,16.6875 -4.21094,1.54297 -9.22266,2.72265 -14.1875,3.89062 -7.97657,1.87891 -15.78125,3.74219 -21.19532,6.98047 -8.61328,5.14844 -11.41015,14.05469 -12.73828,20.34766 v 0.004 c -1.29687,6.15235 -1.05469,9.08985 -0.8164,12.12891 0.0898,1.15234 -0.76954,2.15625 -1.92188,2.25 -1.15234,0.0898 -2.16016,-0.76953 -2.25,-1.92188 z m 0,0"
       fill-opacity="1"
       fill-rule="nonzero"
       id="path42" />
    <path
       fill="#000000"
       d="m 182.04973,243.35028 c 0.32422,-7.78906 0.625,-15.04688 -6.96484,-24.4336 -7.875,-9.73828 -24.09766,-21.64062 -40.71484,-33.80859 -0.9336,-0.68359 -1.13672,-1.99219 -0.45313,-2.92187 0.68359,-0.9336 1.99219,-1.13282 2.92578,-0.45313 16.39844,12.01172 33.19531,24.28906 41.4961,34.55469 8.58984,10.62109 8.23046,19.19531 7.89453,27.23437 -0.0508,1.15625 -1.02344,2.05078 -2.17969,2.00391 -1.15234,-0.0469 -2.05078,-1.02344 -2.00391,-2.17578 z m 0,0"
       fill-opacity="1"
       fill-rule="nonzero"
       id="path44" />
    <g
       clip-path="url(#24b01b0a9c)"
       id="g48"
       transform="translate(-0.35260725,11.994814)">
      <path
         fill="#000000"
         d="m 167.01562,200.23437 h -0.0117 0.004 c -2.67578,0.0742 -5.375,0.14844 -8.04687,0.17188 -13.40625,0.13281 -27.01563,-0.88672 -36.46094,-9.98828 -11.05469,-10.65625 -15.89844,-32.1211 -20.58203,-52.51172 -0.21875,-0.95703 0.25781,-1.93359 1.14062,-2.35547 0.88672,-0.42187 1.94532,-0.17187 2.55079,0.60156 3.04687,3.90235 5.84765,7.48828 13.41406,9.76953 2.65234,0.80079 5.89844,1.44141 9.51562,2.15625 4.09375,0.80469 8.61328,1.69141 12.91797,2.99219 3.03125,0.91406 6.01172,2.04688 8.71875,3.53125 9.89844,5.4336 15.47266,15.21485 18.31641,21.15625 2.91406,6.08985 3.23047,8.75391 3.51562,11.39063 0.125,1.14453 -0.70703,2.17578 -1.85547,2.30078 -1.15234,0.125 -2.18359,-0.70703 -2.30468,-1.85547 -0.24219,-2.22656 -0.44532,-4.42188 -3.13282,-10.03125 -2.75781,-5.76172 -7.85547,-14.52344 -16.55468,-19.29688 -2.36719,-1.30078 -5.05469,-2.33203 -7.91016,-3.1914 -4.07813,-1.23047 -8.39063,-2.08203 -12.52344,-2.89453 -3.55468,-0.69922 -7.01953,-1.38282 -9.91406,-2.25391 -8.82422,-2.66016 -12.28906,-7.08594 -15.50391,-11.19922 L 106,136.97266 c 4.8125,20.96484 9.46484,40.85546 19.40625,50.43359 v 0.004 c 8.09375,7.79296 20.03906,8.94531 33.51172,8.8164 2.6289,-0.0273 5.29297,-0.0977 7.97265,-0.17187 h 0.0117 c 1.15235,-0.0312 2.11719,0.8789 2.14844,2.03515 0.0312,1.15235 -0.88281,2.11328 -2.03516,2.14453 z m 0,0"
         fill-opacity="1"
         fill-rule="nonzero"
         id="path46" />
    </g>
    <g
       fill="#0b3b36"
       fill-opacity="1"
       id="g56"
       transform="translate(86.491839,-29.243537)">
      <g
         transform="translate(159.30735,307.58096)"
         id="g54">
        <g
           id="g52">
          <path
             d="M 2.960938,-4 4.941406,-9.007812 6.910156,-4 Z m 6.75,4 L 4.941406,-11.628906 0.160156,0 H 1.375 L 2.542969,-2.960938 H 7.328125 L 8.496094,0 Z m 0,0"
             id="path50" />
        </g>
      </g>
    </g>
    <g
       fill="#0b3b36"
       fill-opacity="1"
       id="g70"
       transform="translate(89.491839,-29.243537)">
      <g
         transform="translate(174.19994,307.58096)"
         id="g68">
        <g
           id="g66">
          <path
             d="m 8.300781,-3.023438 c 0,-0.769531 -0.191406,-1.425781 -0.558593,-1.9375 C 7.359375,-5.472656 6.847656,-5.824219 6.222656,-6 c 0.367188,-0.160156 0.6875,-0.445312 0.929688,-0.878906 0.109375,-0.191406 0.191406,-0.382813 0.253906,-0.59375 0.066406,-0.207032 0.097656,-0.492188 0.097656,-0.863282 0,-0.351562 -0.097656,-0.71875 -0.257812,-1.070312 -0.480469,-0.976562 -1.519532,-1.472656 -3.101563,-1.472656 H 1.199219 V 0 H 4.527344 C 5.632812,0 6.511719,-0.238281 7.183594,-0.75 7.519531,-1.007812 7.789062,-1.34375 8,-1.757812 8.191406,-2.160156 8.300781,-2.574219 8.300781,-3.023438 Z M 6.382812,-8.160156 c 0,0.59375 -0.175781,1.023437 -0.527343,1.3125 -0.351563,0.289062 -0.816407,0.433594 -1.390625,0.433594 H 2.320312 v -3.390626 h 1.824219 c 1.488281,0 2.238281,0.558594 2.238281,1.644532 z m 0.800782,4.914062 c 0,0.65625 -0.226563,1.183594 -0.671875,1.582032 -0.433594,0.398437 -0.992188,0.59375 -1.664063,0.59375 H 2.320312 v -4.226563 h 2.703126 c 0.558593,0 1.054687,0.195313 1.488281,0.578125 0.191406,0.175781 0.351562,0.382812 0.480469,0.625 0.125,0.253906 0.191406,0.527344 0.191406,0.847656 z m 0,0"
             id="path64" />
        </g>
      </g>
    </g>
    <g
       fill="#0b3b36"
       fill-opacity="1"
       id="g78"
       transform="translate(90.303432,-29.243537)">
      <g
         transform="translate(183.17387,307.58096)"
         id="g76">
        <g
           id="g74">
          <path
             d="m 2.320312,-1.121094 v -9.757812 H 1.199219 V 0 h 5.007812 v -1.121094 z m 0,0"
             id="path72" />
        </g>
      </g>
    </g>
    <g
       fill="#0b3b36"
       fill-opacity="1"
       id="g86"
       transform="translate(91.597244,-29.243537)">
      <g
         transform="translate(190.0523,307.58096)"
         id="g84">
        <g
           id="g82">
          <path
             d="m 10.78125,-5.472656 c 0,1.25 -0.445312,2.304687 -1.3125,3.167968 -0.878906,0.882813 -1.933594,1.3125 -3.164062,1.3125 -1.234376,0 -2.289063,-0.429687 -3.152344,-1.3125 -0.878906,-0.863281 -1.3125,-1.917968 -1.3125,-3.167968 0,-1.214844 0.433594,-2.269532 1.3125,-3.148438 0.863281,-0.867187 1.917968,-1.3125 3.152344,-1.3125 1.230468,0 2.285156,0.445313 3.164062,1.3125 0.867188,0.878906 1.3125,1.933594 1.3125,3.148438 z m 1.121094,0 c 0,-0.765625 -0.160156,-1.484375 -0.449219,-2.175782 -0.285156,-0.671874 -0.6875,-1.261718 -1.199219,-1.773437 -0.511718,-0.496094 -1.101562,-0.898437 -1.773437,-1.183594 -0.691407,-0.289062 -1.410157,-0.449219 -2.175781,-0.449219 -0.769532,0 -1.503907,0.160157 -2.175782,0.449219 -0.671875,0.285157 -1.265625,0.6875 -1.777344,1.183594 -0.511718,0.511719 -0.910156,1.101563 -1.199218,1.773437 -0.289063,0.691407 -0.433594,1.410157 -0.433594,2.175782 0,0.769531 0.144531,1.503906 0.433594,2.175781 0.289062,0.6875 0.6875,1.28125 1.199218,1.792969 0.511719,0.511718 1.105469,0.910156 1.777344,1.199218 0.671875,0.289063 1.40625,0.433594 2.175782,0.433594 0.765624,0 1.484374,-0.144531 2.175781,-0.433594 0.671875,-0.289062 1.261719,-0.6875 1.773437,-1.199218 0.511719,-0.511719 0.914063,-1.105469 1.199219,-1.792969 0.289063,-0.671875 0.449219,-1.40625 0.449219,-2.175781 z m 0,0"
             id="path80" />
        </g>
      </g>
    </g>
    <g
       fill="#0b3b36"
       fill-opacity="1"
       id="g94"
       transform="translate(92.491839,-29.243537)">
      <g
         transform="translate(203.02526,307.58096)"
         id="g92">
        <g
           id="g90">
          <path
             d="M 11.933594,-5.085938 H 6.269531 v 0.972657 H 10.6875 c -0.335938,0.945312 -0.898438,1.714843 -1.695312,2.273437 -0.800782,0.574219 -1.699219,0.847656 -2.671876,0.847656 -1.25,0 -2.304687,-0.429687 -3.183593,-1.3125 -0.863281,-0.878906 -1.296875,-1.949218 -1.296875,-3.183593 0,-1.230469 0.433594,-2.285157 1.3125,-3.167969 0.863281,-0.863281 1.917968,-1.308594 3.167968,-1.308594 0.925782,0 1.773438,0.269532 2.527344,0.796875 0.765625,0.53125 1.3125,1.21875 1.664063,2.097657 h 1.183593 c -0.367187,-1.199219 -1.058593,-2.160157 -2.046874,-2.894532 -0.992188,-0.738281 -2.144532,-1.121094 -3.441407,-1.121094 -0.703125,0 -1.390625,0.160157 -2.0625,0.449219 -0.6875,0.285157 -1.28125,0.6875 -1.792969,1.199219 -0.511718,0.511719 -0.910156,1.101562 -1.199218,1.773438 -0.289063,0.6875 -0.433594,1.425781 -0.433594,2.191406 0,0.769531 0.144531,1.503906 0.433594,2.175781 0.289062,0.6875 0.6875,1.28125 1.199218,1.792969 0.511719,0.511718 1.105469,0.910156 1.792969,1.199218 0.671875,0.289063 1.40625,0.433594 2.175781,0.433594 1.308594,0 2.496094,-0.417968 3.550782,-1.265625 C 10.925781,-2 11.582031,-3.085938 11.820312,-4.414062 Z m 0,0"
             id="path88" />
        </g>
      </g>
    </g>
    <g
       fill="#0b3b36"
       fill-opacity="1"
       id="g102"
       transform="translate(-0.35260725,11.994814)">
      <g
         transform="translate(66.460504,287.58092)"
         id="g100">
        <g
           id="g98">
          <path
             d="m 9.3125,-4.777344 c 0,1.082032 -0.914062,1.96875 -1.992188,1.96875 h -2.28125 v -3.933594 h 2.28125 c 1.078126,0 1.992188,0.910157 1.992188,1.964844 z M 8.183594,-11.59375 c 0,1.035156 -0.863282,1.898438 -1.894532,1.898438 h -1.25 v -3.792969 h 1.25 c 1.03125,0 1.894532,0.839843 1.894532,1.894531 z m 4.800781,6.914062 c 0,-2.207031 -1.488281,-3.671874 -3.3125,-4.105468 1.222656,-0.550782 1.945313,-1.800782 1.945313,-3.453125 0,-2.234375 -1.777344,-4.082031 -4.5625,-4.082031 H 1.441406 V 0 h 6.597656 c 3.121094,0 4.945313,-1.871094 4.945313,-4.679688 z m 0,0"
             id="path96" />
        </g>
      </g>
    </g>
    <g
       fill="#0b3b36"
       fill-opacity="1"
       id="g110"
       transform="translate(-0.35260725,11.994814)">
      <g
         transform="translate(81.316529,287.58092)"
         id="g108">
        <g
           id="g106">
          <path
             d="m 6.214844,0 h 3.601562 v -7.800781 l 6.023438,-8.519531 h -4.296875 l -3.527344,5.640624 -3.527344,-5.640624 H 0.191406 l 6.023438,8.519531 z m 0,0"
             id="path104" />
        </g>
      </g>
    </g>
    <g
       fill="#0b3b36"
       fill-opacity="1"
       id="g118"
       transform="translate(-0.35260725,11.994814)">
      <g
         transform="translate(98.980556,287.58092)"
         id="g116">
        <g
           id="g114">
          <path
             d="m 8.375,-13.054688 h 4.65625 v -3.265624 H 0.121094 v 3.265624 h 4.65625 V 0 H 8.375 Z m 0,0"
             id="path112" />
        </g>
      </g>
    </g>
    <g
       fill="#0b3b36"
       fill-opacity="1"
       id="g126"
       transform="translate(-0.35260725,11.994814)">
      <g
         transform="translate(113.76458,287.58092)"
         id="g124">
        <g
           id="g122">
          <path
             d="M 10.894531,-3.265625 H 5.039062 V -6.550781 H 10.65625 V -9.816406 H 5.039062 v -3.238282 h 5.855469 v -3.265624 H 1.441406 V 0 h 9.453125 z m 0,0"
             id="path120" />
        </g>
      </g>
    </g>
    <g
       fill="#0b3b36"
       fill-opacity="1"
       id="g134"
       transform="translate(-0.35260725,11.994814)">
      <g
         transform="translate(127.73261,287.58092)"
         id="g132">
        <g
           id="g130">
          <path
             d="M 7.777344,-2.542969 C 6,-2.542969 4.464844,-3.433594 4.367188,-5.375 H 0.71875 c 0.023438,3.984375 3.3125,5.757812 6.914062,5.757812 3.335938,0 6.765626,-1.414062 6.765626,-5.253906 0,-6.21875 -9.429688,-4.128906 -9.429688,-7.03125 0,-1.226562 1.414062,-1.707031 2.421875,-1.707031 1.800781,0 2.785156,0.554687 2.976563,2.257813 h 3.480468 c -0.121094,-3.71875 -3.144531,-5.207032 -6.503906,-5.207032 -2.976562,0 -6.097656,1.582032 -6.097656,4.941406 0,6.023438 9.433594,3.984376 9.433594,7.152344 0,1.464844 -1.777344,1.921875 -2.902344,1.921875 z m 0,0"
             id="path128" />
        </g>
      </g>
    </g>
    <g
       fill="#0b3b36"
       fill-opacity="1"
       id="g148"
       transform="translate(-0.35260725,11.994814)">
      <g
         transform="translate(152.11665,287.58092)"
         id="g146">
        <g
           id="g144">
          <path
             d="m 8.59375,-4.105469 c -0.648438,0.625 -1.609375,1.417969 -2.570312,1.417969 -1.128907,0 -2.136719,-1.03125 -2.136719,-2.136719 0,-1.007812 1.371093,-1.945312 2.113281,-2.449219 z m -1.753906,-9.671875 c 0.648437,0 1.152344,0.363282 1.152344,1.082032 0,0.742187 -0.816407,1.246093 -1.34375,1.605468 -0.382813,-0.476562 -0.9375,-0.957031 -0.9375,-1.652344 0,-0.648437 0.578124,-1.035156 1.128906,-1.035156 z M 15.9375,0.0234375 12.671875,-4.007812 c 0.648437,-0.71875 1.273437,-1.441407 1.824219,-2.230469 L 12.40625,-8.375 c -0.527344,0.695312 -1.078125,1.367188 -1.652344,2.015625 L 8.519531,-9.070312 c 1.25,-0.9375 2.425781,-1.992188 2.425781,-3.699219 0,-2.328125 -1.847656,-3.789063 -4.082031,-3.789063 -2.351562,0 -4.101562,1.558594 -4.101562,3.957032 0,1.175781 0.574219,2.160156 1.34375,3.027343 -0.289063,0.214844 -0.578125,0.382813 -0.867188,0.597657 -1.460937,1.03125 -2.398437,2.351562 -2.398437,4.199218 0,2.976563 2.398437,5.015625 5.304687,5.015625 1.703125,0 3.191407,-0.863281 4.390625,-2.015625 l 1.441406,1.8007815 z m 0,0"
             id="path142" />
        </g>
      </g>
    </g>
    <g
       fill="#0b3b36"
       fill-opacity="1"
       id="g162"
       transform="translate(-0.35260725,11.994814)">
      <g
         transform="translate(177.43669,287.58092)"
         id="g160">
        <g
           id="g158">
          <path
             d="m 9.3125,-4.777344 c 0,1.082032 -0.914062,1.96875 -1.992188,1.96875 h -2.28125 v -3.933594 h 2.28125 c 1.078126,0 1.992188,0.910157 1.992188,1.964844 z M 8.183594,-11.59375 c 0,1.035156 -0.863282,1.898438 -1.894532,1.898438 h -1.25 v -3.792969 h 1.25 c 1.03125,0 1.894532,0.839843 1.894532,1.894531 z m 4.800781,6.914062 c 0,-2.207031 -1.488281,-3.671874 -3.3125,-4.105468 1.222656,-0.550782 1.945313,-1.800782 1.945313,-3.453125 0,-2.234375 -1.777344,-4.082031 -4.5625,-4.082031 H 1.441406 V 0 h 6.597656 c 3.121094,0 4.945313,-1.871094 4.945313,-4.679688 z m 0,0"
             id="path156" />
        </g>
      </g>
    </g>
    <g
       fill="#0b3b36"
       fill-opacity="1"
       id="g170"
       transform="translate(-0.35260725,11.994814)">
      <g
         transform="translate(192.29271,287.58092)"
         id="g168">
        <g
           id="g166">
          <path
             d="M 5.039062,-5.832031 H 5.0625 L 8.953125,0 h 4.558594 L 8.832031,-6 c 2.0625,-0.503906 3.71875,-2.328125 3.71875,-5.089844 0,-3.09375 -2.351562,-5.230468 -4.992187,-5.230468 H 1.441406 V 0 h 3.597656 z m 1.921876,-7.65625 c 1.054687,0 2.160156,0.914062 2.160156,2.398437 0,1.5625 -1.105469,2.425782 -2.160156,2.425782 H 5.039062 v -4.824219 z m 0,0"
             id="path164" />
        </g>
      </g>
    </g>
    <g
       fill="#0b3b36"
       fill-opacity="1"
       id="g178"
       transform="translate(-0.35260725,11.994814)">
      <g
         transform="translate(207.14873,287.58092)"
         id="g176">
        <g
           id="g174">
          <path
             d="M 10.320312,-6.238281 H 6.191406 l 2.066406,-5.808594 z M 16.414062,0 9.792969,-16.320312 H 6.742188 L 0.121094,0 H 3.984375 L 5.160156,-3.289062 H 11.375 L 12.550781,0 Z m 0,0"
             id="path172" />
        </g>
      </g>
    </g>
    <g
       fill="#0b3b36"
       fill-opacity="1"
       id="g186"
       transform="translate(-0.35260725,11.994814)">
      <g
         transform="translate(225.31677,287.58092)"
         id="g184">
        <g
           id="g182">
          <path
             d="M 14.257812,0 V -16.320312 H 10.65625 V -6.144531 L 5.039062,-16.320312 H 1.441406 V 0 H 5.039062 V -10.175781 L 10.65625,0 Z m 0,0"
             id="path180" />
        </g>
      </g>
    </g>
    <g
       fill="#0b3b36"
       fill-opacity="1"
       id="g194"
       transform="translate(-0.35260725,11.994814)">
      <g
         transform="translate(242.64479,287.58092)"
         id="g192">
        <g
           id="g190">
          <path
             d="m 13.222656,-5.542969 c -0.671875,1.4375 -2.300781,2.421875 -3.984375,2.421875 -2.636719,0 -4.75,-2.253906 -4.75,-5.039062 0,-2.761719 2.113281,-5.039063 4.75,-5.039063 1.65625,0 3.289063,0.910157 3.960938,2.375 h 4.007812 c -1.101562,-3.335937 -4.246093,-5.734375 -7.96875,-5.734375 -4.628906,0 -8.398437,3.765625 -8.398437,8.398438 0,4.632812 3.769531,8.398437 8.398437,8.398437 3.722657,0 6.890625,-2.421875 7.992188,-5.78125 z m 0,0"
             id="path188" />
        </g>
      </g>
    </g>
    <g
       fill="#0b3b36"
       fill-opacity="1"
       id="g202"
       transform="translate(-0.35260725,11.994814)">
      <g
         transform="translate(262.10882,287.58092)"
         id="g200">
        <g
           id="g198">
          <path
             d="m 10.414062,-16.320312 v 6.503906 h -5.375 v -6.503906 H 1.441406 V 0 h 3.597656 v -6.550781 h 5.375 V 0 h 3.84375 v -16.320312 z m 0,0"
             id="path196" />
        </g>
      </g>
    </g>
    <g
       fill="#0b3b36"
       fill-opacity="1"
       id="g210"
       transform="translate(-0.35260725,11.994814)">
      <g
         transform="translate(279.43685,287.58092)"
         id="g208">
        <g
           id="g206">
          <path
             d="M 10.894531,-3.265625 H 5.039062 V -6.550781 H 10.65625 V -9.816406 H 5.039062 v -3.238282 h 5.855469 v -3.265624 H 1.441406 V 0 h 9.453125 z m 0,0"
             id="path204" />
        </g>
      </g>
    </g>
    <g
       fill="#0b3b36"
       fill-opacity="1"
       id="g218"
       transform="translate(-0.35260725,11.994814)">
      <g
         transform="translate(293.40486,287.58092)"
         id="g216">
        <g
           id="g214">
          <path
             d="M 7.777344,-2.542969 C 6,-2.542969 4.464844,-3.433594 4.367188,-5.375 H 0.71875 c 0.023438,3.984375 3.3125,5.757812 6.914062,5.757812 3.335938,0 6.765626,-1.414062 6.765626,-5.253906 0,-6.21875 -9.429688,-4.128906 -9.429688,-7.03125 0,-1.226562 1.414062,-1.707031 2.421875,-1.707031 1.800781,0 2.785156,0.554687 2.976563,2.257813 h 3.480468 c -0.121094,-3.71875 -3.144531,-5.207032 -6.503906,-5.207032 -2.976562,0 -6.097656,1.582032 -6.097656,4.941406 0,6.023438 9.433594,3.984376 9.433594,7.152344 0,1.464844 -1.777344,1.921875 -2.902344,1.921875 z m 0,0"
             id="path212" />
        </g>
      </g>
    </g>
  </g>
</svg>
