<?xml version="1.0" encoding="UTF-8" standalone="no"?>
<svg
   width="377.96875"
   zoomAndPan="magnify"
   viewBox="0 0 283.47656 259.86229"
   height="346.48306"
   preserveAspectRatio="xMidYMid"
   version="1.0"
   id="svg213"
   sodipodi:docname="BashBuddy.svg"
   inkscape:version="1.2.2 (732a01da63, 2022-12-09)"
   xmlns:inkscape="http://www.inkscape.org/namespaces/inkscape"
   xmlns:sodipodi="http://sodipodi.sourceforge.net/DTD/sodipodi-0.dtd"
   xmlns="http://www.w3.org/2000/svg"
   xmlns:svg="http://www.w3.org/2000/svg">
  <sodipodi:namedview
     id="namedview215"
     pagecolor="#ffffff"
     bordercolor="#000000"
     borderopacity="0.25"
     inkscape:showpageshadow="2"
     inkscape:pageopacity="0.0"
     inkscape:pagecheckerboard="0"
     inkscape:deskcolor="#d1d1d1"
     showgrid="false"
     inkscape:zoom="1.674"
     inkscape:cx="104.24134"
     inkscape:cy="173.23775"
     inkscape:window-width="1920"
     inkscape:window-height="1017"
     inkscape:window-x="1912"
     inkscape:window-y="-8"
     inkscape:window-maximized="1"
     inkscape:current-layer="svg213" />
  <defs
     id="defs67">
    <g
       id="g2" />
    <clipPath
       id="85dd99b69a">
      <path
         d="M 92.605469,57.242188 H 284.60547 V 249.24219 H 92.605469 Z m 0,0"
         clip-rule="nonzero"
         id="path4" />
    </clipPath>
    <clipPath
       id="f7e5d7de70">
      <path
         d="M 46.597656,270 H 330.09766 v 47.60156 H 46.597656 Z m 0,0"
         clip-rule="nonzero"
         id="path7" />
    </clipPath>
    <clipPath
       id="fe93ac8558">
      <path
         d="M 71,258.35156 H 305 V 315 H 71 Z m 0,0"
         clip-rule="nonzero"
         id="path10" />
    </clipPath>
    <clipPath
       id="16b3191f73">
      <path
         d="m 264,216 h 56 v 28 h -56 z m 0,0"
         clip-rule="nonzero"
         id="path13" />
    </clipPath>
    <clipPath
       id="330093efe7">
      <path
         d="m 314.15625,252.28516 -49.49219,-8.69532 9.08203,-51.70703 49.49219,8.69531 z m 0,0"
         clip-rule="nonzero"
         id="path16" />
    </clipPath>
    <clipPath
       id="632d937ef5">
      <path
         d="m 314.15625,252.28516 -49.49219,-8.69532 9.08203,-51.70703 49.49219,8.69531 z m 0,0"
         clip-rule="nonzero"
         id="path19" />
    </clipPath>
    <clipPath
       id="0b547bc110">
      <path
         d="m 270,197 h 13 v 29 h -13 z m 0,0"
         clip-rule="nonzero"
         id="path22" />
    </clipPath>
    <clipPath
       id="3860f13b80">
      <path
         d="m 314.15625,252.28516 -49.49219,-8.69532 9.08203,-51.70703 49.49219,8.69531 z m 0,0"
         clip-rule="nonzero"
         id="path25" />
    </clipPath>
    <clipPath
       id="221c7376a4">
      <path
         d="m 314.15625,252.28516 -49.49219,-8.69532 9.08203,-51.70703 49.49219,8.69531 z m 0,0"
         clip-rule="nonzero"
         id="path28" />
    </clipPath>
    <clipPath
       id="2c2d28c904">
      <path
         d="m 289,197 h 19 v 17 h -19 z m 0,0"
         clip-rule="nonzero"
         id="path31" />
    </clipPath>
    <clipPath
       id="eb19abce94">
      <path
         d="m 314.15625,252.28516 -49.49219,-8.69532 9.08203,-51.70703 49.49219,8.69531 z m 0,0"
         clip-rule="nonzero"
         id="path34" />
    </clipPath>
    <clipPath
       id="7fb5bfbfb6">
      <path
         d="m 314.15625,252.28516 -49.49219,-8.69532 9.08203,-51.70703 49.49219,8.69531 z m 0,0"
         clip-rule="nonzero"
         id="path37" />
    </clipPath>
    <clipPath
       id="9c878483f5">
      <path
         d="m 53,224 h 60 v 16 H 53 Z m 0,0"
         clip-rule="nonzero"
         id="path40" />
    </clipPath>
    <clipPath
       id="2468961bdd">
      <path
         d="M 112.35938,239.51172 66.769531,260.64844 44.6875,213.01562 90.277344,191.88281 Z m 0,0"
         clip-rule="nonzero"
         id="path43" />
    </clipPath>
    <clipPath
       id="8cefc5836f">
      <path
         d="M 66.886719,260.59375 112.47656,239.45703 90.394531,191.82812 44.804688,212.96094 Z m 0,0"
         clip-rule="nonzero"
         id="path46" />
    </clipPath>
    <clipPath
       id="54e55f2439">
      <path
         d="m 85,198 h 18 v 26 H 85 Z m 0,0"
         clip-rule="nonzero"
         id="path49" />
    </clipPath>
    <clipPath
       id="7b6869401d">
      <path
         d="M 112.35938,239.51172 66.769531,260.64844 44.6875,213.01562 90.277344,191.88281 Z m 0,0"
         clip-rule="nonzero"
         id="path52" />
    </clipPath>
    <clipPath
       id="926e561e2c">
      <path
         d="M 66.886719,260.59375 112.47656,239.45703 90.394531,191.82812 44.804688,212.96094 Z m 0,0"
         clip-rule="nonzero"
         id="path55" />
    </clipPath>
    <clipPath
       id="0403682a0b">
      <path
         d="m 59,204 h 23 v 14 H 59 Z m 0,0"
         clip-rule="nonzero"
         id="path58" />
    </clipPath>
    <clipPath
       id="1e3ee29dfb">
      <path
         d="M 112.35938,239.51172 66.769531,260.64844 44.6875,213.01562 90.277344,191.88281 Z m 0,0"
         clip-rule="nonzero"
         id="path61" />
    </clipPath>
    <clipPath
       id="3d11be2c59">
      <path
         d="M 66.886719,260.59375 112.47656,239.45703 90.394531,191.82812 44.804688,212.96094 Z m 0,0"
         clip-rule="nonzero"
         id="path64" />
    </clipPath>
  </defs>
  <path
     fill="#a53e48"
     d="m 141.98438,24 c 9.7539,0 18,10.992187 18,24.000002 0,0.39844 0.0742,0.78125 0.22656,1.14844 0.15234,0.36718 0.36719,0.6914 0.64844,0.97265 0.28515,0.28125 0.60937,0.5 0.97656,0.65235 0.36719,0.15234 0.75,0.22656 1.14844,0.22656 0.39453,0 0.77734,-0.0742 1.14453,-0.22656 0.37109,-0.15235 0.69531,-0.3711 0.97656,-0.65235 0.28125,-0.28125 0.4961,-0.60547 0.64844,-0.97265 0.15234,-0.36719 0.23047,-0.75 0.23047,-1.14844 0,-16.257815 -10.99219,-30.000002 -24,-30.000002 -0.39844,0 -0.78125,0.07812 -1.14844,0.230468 -0.36719,0.152344 -0.69141,0.367188 -0.97656,0.648438 -0.28125,0.28125 -0.4961,0.605468 -0.64844,0.972656 -0.15234,0.367188 -0.22656,0.75 -0.22656,1.148438 0,0.398437 0.0742,0.78125 0.22656,1.148437 0.15234,0.367187 0.36719,0.691406 0.64844,0.972656 0.28515,0.28125 0.60937,0.5 0.97656,0.652344 0.36719,0.152344 0.75,0.226563 1.14844,0.226563 z m 0,0"
     fill-opacity="1"
     fill-rule="nonzero"
     id="path69" />
  <g
     clip-path="url(#85dd99b69a)"
     id="g73"
     transform="translate(-46.621094,-57.242188)">
    <path
       fill="#a53e48"
       d="m 242.60547,87.242188 c -4.91406,0.01562 -9.63672,0.976562 -14.16797,2.878906 -0.26953,-1.121094 -0.58594,-2.230469 -0.94531,-3.328125 -0.35938,-1.097657 -0.76563,-2.179688 -1.21094,-3.242188 -0.44531,-1.066406 -0.9375,-2.113281 -1.46875,-3.136719 -0.53125,-1.027343 -1.10156,-2.027343 -1.71484,-3.007812 -0.60938,-0.980469 -1.26172,-1.933594 -1.94922,-2.859375 -0.69141,-0.925781 -1.41407,-1.824219 -2.17578,-2.691406 -0.76172,-0.871094 -1.5586,-1.707031 -2.38672,-2.511719 -0.82813,-0.804688 -1.6875,-1.574219 -2.57813,-2.308594 -0.89062,-0.734375 -1.80859,-1.433594 -2.75781,-2.09375 -0.94531,-0.664062 -1.91797,-1.285156 -2.91406,-1.867187 -0.9961,-0.582031 -2.01563,-1.125 -3.0586,-1.625 -1.03906,-0.5 -2.09765,-0.960938 -3.17578,-1.375 -1.07812,-0.414063 -2.17187,-0.785157 -3.27734,-1.113281 -1.10938,-0.328126 -2.22656,-0.609376 -3.35547,-0.847657 -1.13281,-0.238281 -2.26953,-0.429687 -3.41406,-0.574219 -1.14844,-0.144531 -2.29688,-0.242187 -3.44922,-0.296874 -1.1836,0.05859 -2.36328,0.160156 -3.53516,0.316406 -1.17578,0.152344 -2.33984,0.351562 -3.49609,0.601562 -1.15625,0.25 -2.30078,0.546875 -3.4336,0.890625 -1.13281,0.34375 -2.25,0.730469 -3.35156,1.164063 -1.10156,0.4375 -2.17969,0.917968 -3.24219,1.441406 -1.0625,0.523438 -2.10156,1.089844 -3.11328,1.699219 -1.01562,0.609375 -2.0039,1.257812 -2.96484,1.949219 -0.96094,0.6875 -1.89453,1.417968 -2.79688,2.183593 -0.89843,0.769531 -1.76953,1.570313 -2.60546,2.410157 -0.83204,0.835937 -1.63282,1.707031 -2.39844,2.613281 -0.76172,0.902343 -1.48828,1.835937 -2.17578,2.800781 -0.6875,0.964844 -1.33203,1.953125 -1.9375,2.972656 -0.60547,1.015625 -1.17188,2.054688 -1.69141,3.117188 -0.51953,1.0625 -0.99609,2.144531 -1.42578,3.25 -0.43359,1.101562 -0.81641,2.21875 -1.15625,3.351562 -0.33984,1.136719 -0.63281,2.28125 -0.87891,3.4375 -4.42578,-1.789062 -9.02343,-2.691406 -13.79687,-2.699218 -23.15625,0 -42.000001,21.535152 -42.000001,48.000002 0,23.63281 15.039061,43.28906 34.750001,47.23047 l -4.40234,8.37109 c -0.1211,0.23047 -0.21094,0.46875 -0.26954,0.72266 -0.0586,0.25 -0.082,0.5039 -0.0781,0.76171 0.008,0.25782 0.0508,0.51172 0.12109,0.76172 0.0742,0.2461 0.17578,0.48047 0.3086,0.70313 0.13672,0.21875 0.29297,0.42187 0.48047,0.60156 0.18359,0.17969 0.39062,0.33203 0.61328,0.46094 0.22656,0.125 0.46484,0.22265 0.71093,0.28906 0.25,0.0664 0.50391,0.0977 0.76563,0.0977 h 4.0664 c 1.95313,3.57812 3.29297,7.375 4.01172,11.38672 0.71875,4.01562 0.78125,8.03906 0.1875,12.07421 -0.76562,3.78125 -2.16406,7.3125 -4.19922,10.58985 -1.55468,2.66797 -2.86718,5.45312 -3.92968,8.35156 -0.75,2.15234 -1.31641,4.35156 -1.69922,6.60156 -0.0703,0.39453 -0.0664,0.78907 0.0195,1.17969 0.0859,0.39453 0.24219,0.75391 0.47266,1.08203 0.23047,0.33203 0.51562,0.60156 0.85547,0.81641 0.33984,0.21484 0.70703,0.35547 1.10546,0.42187 0.39454,0.0664 0.78907,0.0547 1.17969,-0.0352 0.39453,-0.0937 0.75,-0.25391 1.07813,-0.49219 0.32421,-0.23438 0.59375,-0.52344 0.80078,-0.86719 0.21093,-0.34375 0.34375,-0.71484 0.40625,-1.10937 0.32031,-1.91016 0.80468,-3.77735 1.44531,-5.60547 0.95312,-2.58594 2.12891,-5.06641 3.51953,-7.44531 2.34766,-3.85157 3.95703,-7.98829 4.83984,-12.41016 0.64844,-4.17578 0.66797,-8.35547 0.0625,-12.53516 -0.60937,-4.18359 -1.8164,-8.18359 -3.6289,-12.0039 h 7.40625 c 0.25781,0 0.51172,-0.0312 0.76172,-0.0977 0.25,-0.0664 0.48437,-0.16406 0.71093,-0.28906 0.22266,-0.12891 0.42969,-0.28125 0.61329,-0.46094 0.1875,-0.17969 0.34375,-0.38281 0.48046,-0.60156 0.13282,-0.22266 0.23438,-0.45703 0.3086,-0.70313 0.0703,-0.25 0.11328,-0.5039 0.12109,-0.76172 0.008,-0.25781 -0.0195,-0.51171 -0.0781,-0.76171 -0.0586,-0.25391 -0.14844,-0.49219 -0.26953,-0.72266 l -4.38282,-8.33203 c 2.00391,-0.49219 3.96485,-1.1211 5.87891,-1.88281 1.91797,-0.76563 3.77344,-1.65625 5.56641,-2.67579 1.79687,-1.02343 3.51171,-2.16015 5.14453,-3.41796 1.63672,-1.25782 3.17968,-2.6211 4.625,-4.09375 1.44922,-1.46875 2.78906,-3.03516 4.01953,-4.69141 1.23047,-1.65625 2.33984,-3.38672 3.33203,-5.19922 0.99219,-1.80859 1.85156,-3.67969 2.58594,-5.60937 0.73047,-1.92969 1.32812,-3.89844 1.78515,-5.91016 2.125,0.84766 4.30469,1.49219 6.54688,1.94141 l -4.40235,8.37109 c -0.12109,0.23047 -0.21093,0.46875 -0.26953,0.72266 -0.0586,0.25 -0.082,0.5039 -0.0781,0.76171 0.008,0.25782 0.0508,0.51172 0.12109,0.76172 0.0742,0.2461 0.17578,0.48047 0.3086,0.70313 0.13671,0.21875 0.29296,0.42187 0.48046,0.60156 0.1836,0.17969 0.39063,0.33203 0.61329,0.46094 0.22656,0.125 0.46484,0.22265 0.71093,0.28906 0.25,0.0664 0.50391,0.0977 0.76563,0.0977 h 4.0664 c 1.95313,3.57812 3.29297,7.375 4.01172,11.38672 0.71875,4.01562 0.78125,8.03906 0.1875,12.07421 -0.76562,3.78125 -2.16406,7.3125 -4.19922,10.58985 -1.55859,2.66797 -2.86718,5.45703 -3.92968,8.35937 -0.92969,3.16797 -1.56641,6.39844 -1.90625,9.6836 -0.33985,3.28515 -0.37891,6.57812 -0.11719,9.87109 0.26172,3.29297 0.81641,6.53516 1.66797,9.72656 0.85156,3.19141 1.98828,6.28125 3.40234,9.26563 0.23047,0.57031 0.59766,1.02344 1.10547,1.36719 0.50781,0.33984 1.06641,0.51171 1.67969,0.51171 0.38672,0 0.76172,-0.0742 1.12109,-0.21484 0.3711,-0.14844 0.69531,-0.36328 0.98047,-0.64062 0.28516,-0.28125 0.50391,-0.60157 0.66016,-0.96875 0.15625,-0.36719 0.23437,-0.75 0.23828,-1.14454 0.004,-0.39843 -0.0664,-0.78515 -0.21485,-1.15234 -1.27734,-2.65234 -2.30468,-5.39844 -3.07812,-8.23437 -0.77734,-2.83985 -1.29297,-5.72266 -1.54688,-8.65625 -0.25,-2.92969 -0.23437,-5.85938 0.043,-8.78907 0.28125,-2.92968 0.82422,-5.80859 1.62891,-8.64062 0.95312,-2.58594 2.12891,-5.06641 3.51953,-7.44531 2.34766,-3.85157 3.95703,-7.98829 4.83984,-12.41016 0.65235,-4.17188 0.67969,-8.35156 0.0781,-12.53516 -0.60547,-4.18359 -1.80859,-8.18359 -3.61328,-12.0039 h 7.375 c 0.25781,0 0.51172,-0.0312 0.76172,-0.0977 0.25,-0.0664 0.48437,-0.16406 0.71093,-0.28906 0.22266,-0.12891 0.42969,-0.28125 0.61329,-0.46094 0.1875,-0.17969 0.34375,-0.38281 0.48046,-0.60156 0.13282,-0.22266 0.23438,-0.45703 0.3086,-0.70313 0.0703,-0.25 0.11328,-0.5039 0.12109,-0.76172 0.008,-0.25781 -0.0195,-0.51171 -0.0781,-0.76171 -0.0586,-0.25391 -0.14844,-0.49219 -0.26953,-0.72266 l -4.40235,-8.37109 c 2.38281,-0.47657 4.69531,-1.17969 6.94141,-2.10938 0.48828,1.94531 1.10547,3.85156 1.85156,5.71484 0.75,1.86329 1.62109,3.66797 2.61328,5.41016 0.9961,1.74609 2.10156,3.41406 3.32422,5.00391 1.22266,1.59375 2.54688,3.09375 3.97656,4.5039 1.42578,1.41407 2.94532,2.71875 4.55078,3.92188 1.60547,1.20312 3.28907,2.29297 5.04297,3.26562 1.75782,0.97657 3.57032,1.82422 5.44141,2.55078 1.87109,0.72266 3.78516,1.32032 5.73828,1.78125 l -4.37891,8.32813 c -0.12109,0.23047 -0.21093,0.46875 -0.26953,0.72266 -0.0586,0.25 -0.082,0.5039 -0.0781,0.76171 0.008,0.25782 0.0508,0.51172 0.12109,0.76172 0.0742,0.2461 0.17578,0.48047 0.3086,0.70313 0.13671,0.21875 0.29296,0.42187 0.48046,0.60156 0.1836,0.17969 0.39063,0.33203 0.61329,0.46094 0.22656,0.125 0.46484,0.22265 0.71093,0.28906 0.25,0.0664 0.50391,0.0977 0.76563,0.0977 h 4.0664 c 1.95313,3.57812 3.29297,7.375 4.01172,11.38672 0.71875,4.01562 0.78125,8.03906 0.1875,12.07421 -0.76562,3.78125 -2.16406,7.3125 -4.19922,10.58985 -1.55468,2.66797 -2.86718,5.45312 -3.92968,8.35156 -0.92969,2.67188 -1.57813,5.41016 -1.9375,8.21484 -0.0508,0.39454 -0.0273,0.78516 0.0781,1.16797 0.10547,0.38282 0.27735,0.73438 0.51953,1.04688 0.2461,0.3164 0.53907,0.57422 0.88282,0.76953 0.34765,0.19922 0.71484,0.32422 1.10937,0.375 0.13281,0.008 0.26172,0.008 0.39063,0 0.36328,0 0.71875,-0.0664 1.05859,-0.19531 0.33984,-0.12891 0.64453,-0.3125 0.91797,-0.55469 0.27344,-0.23828 0.49609,-0.51953 0.66797,-0.84375 0.17187,-0.32031 0.28125,-0.66016 0.32422,-1.02344 0.30859,-2.38672 0.85546,-4.71484 1.65234,-6.98828 0.95312,-2.58594 2.12891,-5.06641 3.51953,-7.44531 2.34766,-3.85156 3.95703,-7.98828 4.83984,-12.41016 0.65235,-4.17187 0.67579,-8.34375 0.0742,-12.52344 -0.60156,-4.17578 -1.80468,-8.17578 -3.60937,-11.99218 h 7.375 c 0.25781,0 0.51172,-0.0312 0.76172,-0.0977 0.25,-0.0664 0.48437,-0.16406 0.71093,-0.28906 0.22266,-0.12891 0.42969,-0.28125 0.61329,-0.46094 0.1875,-0.17969 0.34375,-0.38281 0.48046,-0.60156 0.13282,-0.22266 0.23438,-0.45703 0.3086,-0.70313 0.0703,-0.25 0.11328,-0.5039 0.12109,-0.76172 0.008,-0.25781 -0.0195,-0.51171 -0.0781,-0.76171 -0.0586,-0.25391 -0.14844,-0.49219 -0.26953,-0.72266 l -4.40235,-8.37109 c 19.71094,-3.94141 34.75391,-23.59766 34.75391,-47.23047 0,-26.46485 -18.84766,-48.000002 -42,-48.000002 z m -54,-24 c 16.79687,0 30.9414,13.546874 34.87109,31.800781 0.35938,1.671875 0.63281,3.332031 0.81641,4.984371 v 0.24219 c 0.1914,1.65235 0.29687,3.3086 0.3125,4.97266 -0.0117,1.84375 -0.12891,3.68359 -0.35156,5.51562 -0.0469,0.40625 -0.10157,0.8086 -0.15235,1.19922 -0.23437,1.71485 -0.55859,3.41406 -0.97265,5.09375 l -0.0391,0.19141 c -0.46875,1.83594 -1.05078,3.63672 -1.74218,5.40234 -0.0547,0.14063 -0.11719,0.27344 -0.17579,0.41797 -0.67187,1.67969 -1.4414,3.3125 -2.30859,4.89453 l -0.043,0.0781 c -0.89844,1.62109 -1.89844,3.17578 -3,4.66406 l -0.14453,0.1914 c -1.05078,1.40235 -2.1875,2.72657 -3.41406,3.97657 l -0.16797,0.17968 c -1.26172,1.27735 -2.61328,2.45313 -4.04297,3.53516 l -0.0898,0.0664 c -1.42969,1.0625 -2.92969,2.01562 -4.5,2.85156 -1.1211,0.60937 -2.27735,1.15234 -3.46485,1.62109 -1.1914,0.46875 -2.40234,0.86328 -3.64062,1.1836 -1.23438,0.32031 -2.48828,0.5625 -3.75391,0.72656 -1.26953,0.16406 -2.53906,0.25391 -3.82031,0.26172 -1.27734,0.008 -2.55078,-0.0625 -3.81641,-0.21094 -1.26953,-0.15234 -2.52734,-0.37891 -3.76562,-0.67969 -1.24219,-0.30468 -2.46094,-0.68359 -3.65235,-1.14062 -1.19531,-0.45313 -2.35937,-0.98047 -3.48828,-1.57813 -1.54297,-0.80078 -3.01172,-1.71875 -4.41406,-2.74609 l -0.39844,-0.27734 c -1.39843,-1.04297 -2.71875,-2.17969 -3.95703,-3.40625 -0.0977,-0.0977 -0.17969,-0.19922 -0.27734,-0.29688 -1.13281,-1.15234 -2.19141,-2.37109 -3.17578,-3.65234 -0.14844,-0.19922 -0.3086,-0.39063 -0.46094,-0.60157 -1.05469,-1.41796 -2.01563,-2.89843 -2.88672,-4.4375 -0.0586,-0.10937 -0.11328,-0.23046 -0.17187,-0.33593 -0.80469,-1.47266 -1.52735,-2.98438 -2.16797,-4.53516 -0.10157,-0.26172 -0.20703,-0.51172 -0.3125,-0.76953 -0.67578,-1.71094 -1.2461,-3.45312 -1.70703,-5.23047 0,-0.0859 -0.0391,-0.17578 -0.0625,-0.26562 -0.41016,-1.66016 -0.73047,-3.33985 -0.96485,-5.03516 -0.0586,-0.41797 -0.12109,-0.84375 -0.16797,-1.26953 -0.21875,-1.85547 -0.32812,-3.71484 -0.32812,-5.58203 0.004,-3.00391 0.28515,-5.984378 0.83984,-8.941409 3.51953,-18.875 17.9375,-33.058593 35.16016,-33.058593 z m -58.03516,127.500002 2.84375,-5.39844 h 2.40235 l 2.84375,5.39844 z m 38.73828,-42.89844 c -4.24218,18 -18.55468,30.88672 -34.70312,30.88672 -19.85547,0 -36.000001,-18.83985 -36.000001,-42 0,-23.16016 16.144531,-42.000001 36.000001,-42.000001 4.39062,0.01563 8.58984,0.917969 12.59765,2.710937 -0.0312,0.199219 0,0.390625 -0.043,0.601563 -0.34375,2.386721 -0.53125,4.789061 -0.55469,7.199221 0.008,2.01953 0.13281,4.03125 0.37109,6.03515 0.0547,0.5 0.125,0.99219 0.19531,1.48438 0.23047,1.65625 0.53125,3.28125 0.90235,4.875 0.0781,0.33203 0.13672,0.66016 0.22265,0.99219 0.48829,1.95312 1.08594,3.875 1.80079,5.75781 0.0352,0.0937 0.0742,0.17578 0.11328,0.26562 0.66406,1.71094 1.42578,3.375 2.27734,5 0.17969,0.35157 0.36328,0.69532 0.55469,1.04297 0.86719,1.58985 1.8164,3.13281 2.85547,4.6211 0.0547,0.0703 0.0937,0.15234 0.14843,0.22656 1.08985,1.50781 2.26172,2.94531 3.51563,4.3125 0.30078,0.32422 0.60156,0.63672 0.91797,0.95703 1.05859,1.08203 2.15625,2.10547 3.29687,3.07031 0.28125,0.23828 0.54297,0.48438 0.83203,0.71485 1.4336,1.14843 2.9375,2.19531 4.51172,3.14453 0.0781,0.0273 0.125,0.10156 0.1875,0.10156 z m 15.26172,11.39844 2.84375,-5.39844 h 2.40235 l 2.84375,5.39844 z m 54,30 2.84375,-5.39844 h 2.40235 l 2.84375,5.39844 z m 4.03516,-12 c -1.01953,-0.0547 -2.03125,-0.14844 -3.03906,-0.28516 -1.00782,-0.13672 -2.00782,-0.31641 -3,-0.53516 -0.9961,-0.21875 -1.97657,-0.47656 -2.94922,-0.77734 -0.97266,-0.30078 -1.92969,-0.64062 -2.875,-1.01953 -0.94141,-0.37891 -1.8711,-0.79688 -2.78125,-1.25391 -0.90625,-0.45312 -1.79688,-0.94531 -2.66797,-1.47656 -0.86719,-0.52734 -1.71485,-1.08984 -2.53516,-1.69141 -0.82422,-0.59765 -1.62109,-1.22656 -2.39062,-1.89062 -0.76953,-0.66406 -1.51172,-1.35938 -2.22657,-2.08594 -0.71484,-0.72265 -1.39453,-1.47656 -2.04687,-2.25781 -0.65234,-0.78125 -1.26953,-1.58984 -1.85547,-2.42188 -0.58594,-0.83203 -1.13281,-1.6875 -1.64844,-2.5664 -0.51562,-0.875 -0.99218,-1.77344 -1.43359,-2.69141 -0.44141,-0.91797 -0.83984,-1.85156 -1.20703,-2.80078 -0.36328,-0.94922 -0.6875,-1.91406 -0.96875,-2.89062 -0.28516,-0.97657 -0.53125,-1.96094 -0.73438,-2.96094 1.60157,-0.98047 3.125,-2.06641 4.57813,-3.25781 0.2539,-0.20313 0.49219,-0.41797 0.74609,-0.62891 1.23438,-1.05078 2.40625,-2.16797 3.51953,-3.34766 0.19532,-0.19922 0.39063,-0.39062 0.60157,-0.60156 1.30468,-1.42969 2.51562,-2.9375 3.6289,-4.52344 l 0.0312,-0.0352 c 1.09375,-1.57422 2.09375,-3.20703 3,-4.89453 0.11328,-0.22266 0.23438,-0.4375 0.34766,-0.66797 1.85547,-3.56641 3.27344,-7.29688 4.2539,-11.19531 0.0664,-0.28125 0.1211,-0.5625 0.1875,-0.84766 0.38282,-1.625 0.6836,-3.28125 0.91797,-4.97266 0.0664,-0.46093 0.13282,-0.92187 0.1836,-1.39062 0.23047,-2.00391 0.35156,-4.01563 0.36328,-6.03125 -0.004,-3.09766 -0.26953,-6.171878 -0.80078,-9.222659 4.0664,-1.84375 8.33203,-2.769531 12.80078,-2.777343 19.85156,0 36,18.839842 36,42.000002 0,23.16015 -16.14844,42 -36,42 z m 0,0"
       fill-opacity="1"
       fill-rule="nonzero"
       id="path71" />
  </g>
  <path
     fill="#a53e48"
     d="m 199.46094,48.324222 c -0.39062,-0.0742 -0.77734,-0.0703 -1.16797,0.0117 -0.39062,0.082 -0.75,0.23828 -1.07812,0.46093 -0.32813,0.22657 -0.59766,0.50391 -0.81641,0.83594 -0.21875,0.33203 -0.36328,0.69531 -0.4375,1.08594 -0.0742,0.39062 -0.0703,0.78125 0.0117,1.17187 0.082,0.38672 0.23437,0.7461 0.46094,1.07422 0.22265,0.32813 0.5,0.60156 0.83203,0.82031 0.33594,0.21875 0.69531,0.36329 1.08594,0.4375 8.76171,1.64844 15.63281,12.08985 15.63281,23.77735 0,0.39843 0.0742,0.78125 0.22656,1.14843 0.15234,0.36719 0.36719,0.69141 0.64844,0.97266 0.28515,0.28125 0.60937,0.5 0.97656,0.65234 0.36719,0.15235 0.75,0.22657 1.14844,0.22657 0.39453,0 0.77734,-0.0742 1.14453,-0.22657 0.37109,-0.15234 0.69531,-0.37109 0.97656,-0.65234 0.28125,-0.28125 0.4961,-0.60547 0.64844,-0.97266 0.15234,-0.36718 0.23047,-0.75 0.23047,-1.14843 0,-14.71875 -8.82813,-27.47266 -20.52344,-29.67578 z m 0,0"
     fill-opacity="1"
     fill-rule="nonzero"
     id="path75" />
  <g
     clip-path="url(#f7e5d7de70)"
     id="g79"
     transform="translate(-46.621094,-57.242188)">
    <path
       fill="#a53e48"
       d="m 318.01562,294.46875 c 4.03907,7.21875 8.07032,14.26953 12.08594,21.15625 -13.89844,1.97266 -28.01172,1.97266 -41.90625,0 0,-14.91406 0,-29.82813 0,-44.73828 13.89453,1.97265 28.00781,1.97265 41.90625,0 -4.01562,8.02344 -8.04687,15.88672 -12.08594,23.58203 z M 46.621094,270.88672 c 4.011718,8.02344 8.042968,15.88672 12.082031,23.58203 -4.039063,7.21875 -8.070313,14.26953 -12.082031,21.15625 13.898437,1.97266 28.007812,1.97266 41.90625,0 0,-14.91406 0,-29.82813 0,-44.73828 -13.898438,1.97265 -28.007813,1.97265 -41.90625,0 z m 0,0"
       fill-opacity="1"
       fill-rule="nonzero"
       id="path77" />
  </g>
  <path
     fill="#762029"
     d="m 258.37891,229.18359 v 18.90625 L 241.57422,258.3789 V 229.18359 Z M 25.097656,248.08984 41.90625,258.38281 V 229.18359 H 25.097656 Z m 0,0"
     fill-opacity="1"
     fill-rule="nonzero"
     id="path81" />
  <g
     clip-path="url(#fe93ac8558)"
     id="g85"
     transform="translate(-46.621094,-57.242188)">
    <path
       fill="#a53e48"
       d="m 305,258.35547 c 0,15.66015 0,31.32031 0,46.97656 -77.27734,12.21875 -156.00391,12.21875 -233.28125,0 0,-15.65625 0,-31.31641 0,-46.97656 77.27734,12.21875 156.00391,12.21875 233.28125,0 z m 0,0"
       fill-opacity="1"
       fill-rule="nonzero"
       id="path83" />
  </g>
  <g
     clip-path="url(#16b3191f73)"
     id="g93"
     transform="translate(-46.621094,-57.242188)">
    <g
       clip-path="url(#330093efe7)"
       id="g91">
      <g
         clip-path="url(#632d937ef5)"
         id="g89">
        <path
           fill="#a53e48"
           d="m 319.20312,223.21875 c 0.23438,-0.92578 0.20704,-1.84766 -0.0859,-2.75781 -0.21485,-0.64844 -0.47657,-1.27735 -0.78516,-1.89063 -0.69531,-1.50781 -1.92187,-2.25781 -3.55469,-2.41406 -2.35937,-0.23047 -4.66015,0.13672 -6.9414,0.64453 -1.20313,0.26953 -2.37891,0.66016 -3.56641,1 -1.1875,0.33984 -2.36328,0.69922 -3.5625,1.00781 -1.39453,0.35547 -2.71484,0.96485 -4.15234,1.16797 -0.27735,0.043 -0.52344,0.15235 -0.7461,0.32422 -0.44531,0.33203 -0.9375,0.55859 -1.48047,0.68359 -0.26562,0.0781 -0.51171,0.1875 -0.74609,0.33204 -1.42578,0.8164 -2.84766,1.64062 -4.26172,2.47265 -0.29687,0.17188 -0.58203,0.36719 -0.89062,0.51563 -1.47266,0.73437 -2.89844,1.55468 -4.27344,2.45703 -1.01953,0.57031 -1.95313,1.26172 -2.79297,2.07031 -0.45703,0.41406 -0.94531,0.78906 -1.46875,1.11719 -1.16016,0.84765 -2.35547,1.65234 -3.48047,2.54297 -0.74609,0.59375 -1.3164,1.42968 -2.11328,1.91797 -0.8125,0.50781 -1.57812,1.07812 -2.29297,1.70703 -0.83203,0.71484 -1.58594,1.51953 -2.46094,2.16797 -0.88671,0.65234 -1.61718,1.46875 -2.45312,2.16406 -0.83984,0.69922 -1.34375,1.71094 -2.1875,2.41015 -0.12891,0.10938 -0.0859,0.51172 0.0469,0.5625 0.1211,0.0469 0.28125,0.11719 0.38672,0.0781 1.14844,-0.44141 2.3086,-0.86719 3.4336,-1.36328 1.32422,-0.5625 2.61718,-1.19531 3.875,-1.89453 0.60547,-0.32813 1.23437,-0.59375 1.89062,-0.80469 0.65235,-0.21875 1.26953,-0.50781 1.85547,-0.86719 1.17969,-0.71094 2.4375,-1.24609 3.76953,-1.60547 2.10938,-0.60937 4.22656,-1.16797 6.36328,-1.68359 2.33203,-0.5625 4.64844,-1.1875 7.05078,-1.44141 1.5,-0.16015 2.98047,-0.5039 4.47657,-0.71093 1.5625,-0.21485 3.1289,-0.41797 4.70312,-0.53907 2.46875,-0.23047 4.89453,-0.68359 7.27735,-1.35156 0.26953,-0.0664 0.52734,-0.15234 0.77734,-0.26172 1,-0.45312 1.99219,-0.92187 2.98437,-1.3789 1.00782,-0.46485 1.91797,-1.07032 2.73047,-1.81641 1.33203,-1.21875 2.36328,-2.64453 2.67578,-4.5625 z m 0,0"
           fill-opacity="1"
           fill-rule="nonzero"
           id="path87" />
      </g>
    </g>
  </g>
  <g
     clip-path="url(#0b547bc110)"
     id="g101"
     transform="translate(-46.621094,-57.242188)">
    <g
       clip-path="url(#3860f13b80)"
       id="g99">
      <g
         clip-path="url(#221c7376a4)"
         id="g97">
        <path
           fill="#a53e48"
           d="m 271.86328,203.98828 c -0.34766,2.96875 -0.5625,5.19141 -0.40625,7.45703 0.28906,3.75391 0.12109,7.48828 -0.50391,11.20313 -0.14062,0.80468 -0.26171,1.61328 -0.37109,2.42187 -0.004,0.20313 0.0234,0.40235 0.082,0.59766 0.0508,0.0469 0.10938,0.0664 0.17969,0.0547 0.17187,-0.0898 0.32031,-0.21094 0.44531,-0.35938 1.15625,-1.85156 2.37891,-3.66016 3.69141,-5.40234 1.375,-1.875 2.60547,-3.83594 3.6875,-5.88672 0.42578,-0.77735 0.88281,-1.53906 1.36328,-2.28125 1.15625,-1.8086 1.87109,-3.77344 2.13672,-5.90235 0.0703,-0.61328 0.0586,-1.22265 -0.0312,-1.83203 -0.20313,-1.70312 -1.04688,-3.08984 -2.10938,-4.36328 -0.72656,-0.875 -1.64062,-1.44922 -2.74609,-1.72265 -0.33594,-0.0937 -0.67188,-0.0977 -1.01172,-0.0117 -1.25781,0.32812 -2.21484,1.05468 -2.86719,2.17187 -0.80078,1.4375 -1.46875,2.92578 -1.53906,3.85547 z m 0,0"
           fill-opacity="1"
           fill-rule="nonzero"
           id="path95" />
      </g>
    </g>
  </g>
  <g
     clip-path="url(#2c2d28c904)"
     id="g109"
     transform="translate(-46.621094,-57.242188)">
    <g
       clip-path="url(#eb19abce94)"
       id="g107">
      <g
         clip-path="url(#7fb5bfbfb6)"
         id="g105">
        <path
           fill="#a53e48"
           d="m 305.41406,197.55859 c -0.41797,-0.0273 -0.6914,-0.0273 -0.96484,-0.0625 -1.55078,-0.21484 -2.9961,0.0781 -4.33594,0.88282 -1.375,0.78906 -2.57812,1.78125 -3.60937,2.98046 -1.14844,1.26172 -2.17969,2.61329 -3.09375,4.05079 -0.38672,0.63671 -0.8125,1.2539 -1.21094,1.88671 -1.17578,1.91797 -2.16406,3.92579 -2.96094,6.02735 -0.0469,0.1289 -0.0781,0.26172 -0.0937,0.39453 -0.008,0.0625 0.0195,0.16406 0.0625,0.18359 0.10938,0.0508 0.26563,0.12891 0.35156,0.082 1.90235,-0.92187 3.69922,-2.05078 5.62891,-2.92187 0.49609,-0.22266 0.96094,-0.51563 1.46094,-0.73828 1.75,-0.78906 3.23047,-2.03516 4.92968,-2.91797 0.16797,-0.11719 0.32032,-0.25391 0.45704,-0.40625 1.95703,-1.72266 3.625,-3.6875 5.0039,-5.89453 0.19141,-0.28125 0.35156,-0.58203 0.48438,-0.89453 0.0976,-0.25391 0.16015,-0.51563 0.19531,-0.78516 0.0586,-0.31641 0.004,-0.60937 -0.16016,-0.88672 -0.16015,-0.27344 -0.39843,-0.46484 -0.70312,-0.5664 -0.51563,-0.17969 -1.05078,-0.30079 -1.44141,-0.41407 z m 0,0"
           fill-opacity="1"
           fill-rule="nonzero"
           id="path103" />
      </g>
    </g>
  </g>
  <g
     clip-path="url(#9c878483f5)"
     id="g117"
     transform="translate(-46.621094,-57.242188)">
    <g
       clip-path="url(#2468961bdd)"
       id="g115">
      <g
         clip-path="url(#8cefc5836f)"
         id="g113">
        <path
           fill="#a53e48"
           d="m 54.53125,233.80078 c -0.464844,-0.83203 -0.675781,-1.73047 -0.625,-2.68359 0.03906,-0.6836 0.132812,-1.35938 0.269531,-2.02735 0.285157,-1.63672 1.277344,-2.67578 2.816407,-3.25 2.21875,-0.83203 4.539062,-1.0664 6.875,-1.16406 1.230468,-0.0508 2.46875,0.0273 3.699218,0.0508 1.234375,0.0195 2.46875,0.0664 3.703125,0.0547 1.4375,-0.0117 2.871094,0.23437 4.316407,0.0625 0.277343,-0.0312 0.542968,0.0117 0.800781,0.12109 0.515625,0.20313 1.050781,0.29688 1.605469,0.27735 0.277343,0.008 0.546874,0.0508 0.808593,0.1289 1.585938,0.42578 3.171875,0.85547 4.753907,1.29297 0.332031,0.0898 0.65625,0.20703 0.992187,0.26953 1.613281,0.33203 3.199219,0.75782 4.761719,1.27735 1.136718,0.28906 2.210937,0.71484 3.234375,1.28125 0.546875,0.28515 1.113281,0.51953 1.707031,0.69922 1.339844,0.51953 2.699219,0.99218 4.015625,1.5664 0.871094,0.37891 1.640625,1.04297 2.535155,1.3086 0.91406,0.28125 1.80078,0.63281 2.65625,1.05859 0.98438,0.47656 1.92188,1.0625 2.9375,1.46094 1.02344,0.40625 1.9375,1.0039 2.92578,1.46093 0.98828,0.46094 1.73828,1.3086 2.73047,1.76954 0.15625,0.0703 0.21875,0.46875 0.10156,0.55078 -0.10546,0.0781 -0.24218,0.1875 -0.35156,0.17578 -1.22656,-0.12891 -2.45312,-0.24219 -3.66797,-0.4336 -1.42578,-0.20312 -2.83984,-0.48046 -4.23437,-0.83203 -0.66797,-0.16015 -1.34375,-0.25781 -2.03125,-0.29297 -0.6875,-0.043 -1.35938,-0.16406 -2.015628,-0.36328 -1.324218,-0.38281 -2.679687,-0.57422 -4.058593,-0.57812 -2.195313,-0.0469 -4.386719,-0.043 -6.582031,0.0117 -2.398438,0.0508 -4.796876,0.0469 -7.1875,0.41797 -1.488282,0.23437 -3.007813,0.28125 -4.503907,0.46875 -1.570312,0.1914 -3.132812,0.39843 -4.6875,0.6875 -2.441406,0.41015 -4.902343,0.59765 -7.378906,0.5664 -0.273437,0.004 -0.546875,-0.0117 -0.816406,-0.0547 -1.082031,-0.17968 -2.160157,-0.375 -3.242188,-0.5664 -1.089843,-0.1875 -2.125,-0.53906 -3.105469,-1.05078 -1.597656,-0.83203 -2.964843,-1.94922 -3.757812,-3.72266 z m 0,0"
           fill-opacity="1"
           fill-rule="nonzero"
           id="path111" />
      </g>
    </g>
  </g>
  <g
     clip-path="url(#54e55f2439)"
     id="g125"
     transform="translate(-46.621094,-57.242188)">
    <g
       clip-path="url(#7b6869401d)"
       id="g123">
      <g
         clip-path="url(#926e561e2c)"
         id="g121">
        <path
           fill="#a53e48"
           d="m 95.328125,203.03906 c 1.101563,2.78125 1.882813,4.875 2.316406,7.10156 0.683594,3.70704 1.804688,7.26954 3.367189,10.69532 0.34375,0.74218 0.66797,1.49218 0.98047,2.24609 0.0586,0.19531 0.082,0.39453 0.0742,0.59766 -0.0352,0.0625 -0.0859,0.0937 -0.15625,0.10156 -0.19141,-0.043 -0.36719,-0.12109 -0.52735,-0.23438 -1.593748,-1.49218 -3.238279,-2.92578 -4.957029,-4.26953 -1.808593,-1.45703 -3.503906,-3.03515 -5.078125,-4.73828 -0.609375,-0.64062 -1.246094,-1.26172 -1.902344,-1.85547 -1.582031,-1.44922 -2.777343,-3.16797 -3.582031,-5.15625 -0.226562,-0.57031 -0.371093,-1.16406 -0.441406,-1.77343 -0.242187,-1.69922 0.214844,-3.25782 0.917969,-4.76172 0.472656,-1.03125 1.207031,-1.82422 2.207031,-2.3711 0.300781,-0.17578 0.625,-0.26562 0.972656,-0.26953 1.304688,-0.008 2.414063,0.44531 3.332031,1.35938 1.144532,1.18359 2.167969,2.44922 2.476563,3.32812 z m 0,0"
           fill-opacity="1"
           fill-rule="nonzero"
           id="path119" />
      </g>
    </g>
  </g>
  <g
     clip-path="url(#0403682a0b)"
     id="g133"
     transform="translate(-46.621094,-57.242188)">
    <g
       clip-path="url(#1e3ee29dfb)"
       id="g131">
      <g
         clip-path="url(#3d11be2c59)"
         id="g129">
        <path
           fill="#a53e48"
           d="m 61.253906,205.46094 c 0.398438,-0.13282 0.664063,-0.20313 0.914063,-0.3125 1.445312,-0.60547 2.917969,-0.69532 4.421875,-0.26172 1.53125,0.41015 2.949218,1.0625 4.253906,1.95312 1.433594,0.92578 2.773438,1.96485 4.027344,3.11719 0.539062,0.51953 1.113281,1.00391 1.660156,1.51172 1.628906,1.55078 3.097656,3.23828 4.410156,5.06641 0.07813,0.10937 0.144532,0.23046 0.191406,0.35546 0.02344,0.0547 0.02344,0.16407 -0.01172,0.19141 -0.09375,0.0781 -0.226563,0.19141 -0.320313,0.17188 -2.074219,-0.40235 -4.097656,-1.03125 -6.191406,-1.375 -0.535156,-0.0859 -1.0625,-0.25 -1.597656,-0.33985 -1.898438,-0.3125 -3.648438,-1.13281 -5.515625,-1.55078 -0.191406,-0.0703 -0.375,-0.16406 -0.546875,-0.27344 -2.335938,-1.16015 -4.453125,-2.63281 -6.351563,-4.40625 -0.257812,-0.22656 -0.492187,-0.47265 -0.699218,-0.74218 -0.160157,-0.22266 -0.289063,-0.45704 -0.390626,-0.71094 -0.136718,-0.28906 -0.164062,-0.58594 -0.07422,-0.89453 0.08594,-0.3086 0.265625,-0.55469 0.535156,-0.73047 0.449219,-0.3086 0.9375,-0.5625 1.285156,-0.76953 z m 0,0"
           fill-opacity="1"
           fill-rule="nonzero"
           id="path127" />
      </g>
    </g>
  </g>
  <g
     fill="#fffcf5"
     fill-opacity="1"
     id="g141"
     transform="translate(-46.621094,-57.242188)">
    <g
       transform="translate(99.070882,293.69903)"
       id="g139">
      <g
         id="g137">
        <path
           d="m 4.328125,-20.046875 c 0.425781,-0.03906 0.882813,-0.07031 1.375,-0.09375 0.5,-0.03125 1.015625,-0.04687 1.546875,-0.04687 0.53125,0 1.0625,0.01563 1.59375,0.04687 0.53125,0.03125 1.039062,0.07422 1.53125,0.125 1.46875,0.15625 2.660156,0.433594 3.578125,0.828125 0.925781,0.398438 1.644531,0.871094 2.15625,1.421875 0.519531,0.542969 0.851563,1.125 1,1.75 0.144531,0.617187 0.1875,1.214844 0.125,1.796875 -0.05469,0.523438 -0.183594,1.042969 -0.390625,1.5625 -0.210938,0.523438 -0.507812,0.992188 -0.890625,1.40625 -0.386719,0.40625 -0.867187,0.746094 -1.4375,1.015625 -0.5625,0.261719 -1.210937,0.414063 -1.9375,0.453125 0.882813,0.179688 1.640625,0.464844 2.265625,0.859375 0.632812,0.386719 1.140625,0.835937 1.515625,1.34375 0.375,0.5 0.628906,1.058594 0.765625,1.671875 0.132812,0.605469 0.171875,1.230469 0.109375,1.875 -0.09375,0.792969 -0.335937,1.542969 -0.71875,2.25 -0.386719,0.699219 -0.96875,1.292969 -1.75,1.78125 -0.78125,0.488281 -1.792969,0.84375 -3.03125,1.0625 C 10.492188,1.28125 8.976562,1.289062 7.1875,1.09375 6.84375,1.0625 6.445312,1.015625 6,0.953125 5.5625,0.898438 5.113281,0.832031 4.65625,0.75 4.207031,0.664062 3.753906,0.582031 3.296875,0.5 2.847656,0.414062 2.441406,0.320312 2.078125,0.21875 c 0.144531,-0.925781 0.269531,-1.742188 0.375,-2.453125 0.101563,-0.707031 0.207031,-1.453125 0.3125,-2.234375 0.101563,-0.789062 0.210937,-1.691406 0.328125,-2.703125 0.113281,-1.007813 0.253906,-2.300781 0.421875,-3.875 0.15625,-1.40625 0.300781,-2.859375 0.4375,-4.359375 0.144531,-1.5 0.269531,-3.046875 0.375,-4.640625 z m 2.8125,11.265625 c -0.148437,1.417969 -0.28125,2.6875 -0.40625,3.8125 -0.117187,1.117188 -0.214844,2.179688 -0.296875,3.1875 0.351562,0.15625 0.71875,0.292969 1.09375,0.40625 0.375,0.117188 0.757812,0.195312 1.15625,0.234375 1.226562,0.125 2.269531,-0.128906 3.125,-0.765625 0.851562,-0.644531 1.347656,-1.628906 1.484375,-2.953125 0.0625,-0.5 0.03906,-0.972656 -0.0625,-1.421875 -0.105469,-0.457031 -0.304687,-0.859375 -0.59375,-1.203125 -0.28125,-0.34375 -0.671875,-0.628906 -1.171875,-0.859375 -0.5,-0.226562 -1.121094,-0.378906 -1.859375,-0.453125 C 8.847656,-8.878906 8.023438,-8.875 7.140625,-8.78125 Z m 0.96875,-8.484375 c -0.125,0.792969 -0.242187,1.679687 -0.34375,2.65625 -0.105469,0.96875 -0.226563,2.101563 -0.359375,3.390625 0.300781,0.0625 0.578125,0.121094 0.828125,0.171875 C 8.492188,-11.003906 8.75,-10.96875 9,-10.9375 c 1.445312,0.15625 2.53125,-0.03125 3.25,-0.5625 0.71875,-0.539062 1.128906,-1.320312 1.234375,-2.34375 0.03906,-0.40625 0.03125,-0.804688 -0.03125,-1.203125 -0.0625,-0.394531 -0.210937,-0.753906 -0.4375,-1.078125 -0.230469,-0.320312 -0.542969,-0.59375 -0.9375,-0.8125 -0.398437,-0.21875 -0.917969,-0.363281 -1.5625,-0.4375 -0.398437,-0.03906 -0.792969,-0.04687 -1.1875,-0.01563 -0.386719,0.03125 -0.792969,0.07422 -1.21875,0.125 z m 0,0"
           id="path135" />
      </g>
    </g>
  </g>
  <g
     fill="#fffcf5"
     fill-opacity="1"
     id="g149"
     transform="translate(-46.621094,-57.242188)">
    <g
       transform="translate(116.80859,295.59825)"
       id="g147">
      <g
         id="g145">
        <path
           d="m 0.328125,0.390625 c 0.695313,-1.9375 1.382813,-3.789063 2.0625,-5.5625 0.6875,-1.769531 1.394531,-3.488281 2.125,-5.15625 0.726563,-1.664063 1.5,-3.296875 2.3125,-4.890625 0.820313,-1.59375 1.691406,-3.179688 2.609375,-4.765625 l 3.71875,-0.0625 c 0.644531,1.699219 1.234375,3.390625 1.765625,5.078125 0.53125,1.679688 1.023437,3.402344 1.484375,5.171875 0.457031,1.773437 0.882812,3.59375 1.28125,5.46875 0.394531,1.867187 0.773438,3.820313 1.140625,5.859375 l -4.03125,0.046875 C 14.597656,0.492188 14.40625,-0.578125 14.21875,-1.640625 14.03125,-2.710938 13.84375,-3.789062 13.65625,-4.875 L 6.375,-5.46875 c -0.34375,0.949219 -0.6875,1.902344 -1.03125,2.859375 -0.335938,0.960937 -0.652344,1.949219 -0.953125,2.96875 z m 10.703125,-16.90625 c -1.375,2.699219 -2.605469,5.5 -3.6875,8.40625 l 5.78125,0.46875 c -0.304688,-1.507813 -0.625,-3.007813 -0.96875,-4.5 -0.335938,-1.5 -0.710938,-2.957031 -1.125,-4.375 z m 0,0"
           id="path143" />
      </g>
    </g>
  </g>
  <g
     fill="#fffcf5"
     fill-opacity="1"
     id="g157"
     transform="translate(-46.621094,-57.242188)">
    <g
       transform="translate(136.23197,297.16701)"
       id="g155">
      <g
         id="g153">
        <path
           d="m 8.171875,-2.546875 c 1.238281,0.0625 2.171875,-0.101563 2.796875,-0.5 0.625,-0.394531 0.957031,-1.003906 1,-1.828125 0.03125,-0.507812 -0.05469,-0.945312 -0.25,-1.3125 -0.1875,-0.363281 -0.460938,-0.679688 -0.8125,-0.953125 -0.34375,-0.28125 -0.757812,-0.53125 -1.234375,-0.75 -0.46875,-0.21875 -0.953125,-0.429687 -1.453125,-0.640625 -0.929688,-0.363281 -1.761719,-0.722656 -2.5,-1.078125 -0.742188,-0.363281 -1.371094,-0.769531 -1.890625,-1.21875 -0.511719,-0.457031 -0.898437,-1.003906 -1.15625,-1.640625 -0.261719,-0.644531 -0.367187,-1.421875 -0.3125,-2.328125 0.070313,-1.28125 0.394531,-2.304687 0.96875,-3.078125 0.570313,-0.78125 1.257813,-1.367188 2.0625,-1.765625 0.8125,-0.394531 1.6875,-0.640625 2.625,-0.734375 0.945313,-0.09375 1.820313,-0.113281 2.625,-0.0625 1.03125,0.0625 2,0.199219 2.90625,0.40625 0.914063,0.210938 1.707031,0.40625 2.375,0.59375 L 15.71875,-16 c -0.917969,-0.332031 -1.875,-0.613281 -2.875,-0.84375 -0.992188,-0.238281 -1.898438,-0.378906 -2.71875,-0.421875 -1.417969,-0.08203 -2.46875,0.109375 -3.15625,0.578125 -0.679688,0.46875 -1.039062,1.058594 -1.078125,1.765625 -0.03125,0.53125 0.09375,0.980469 0.375,1.34375 0.28125,0.367187 0.632813,0.6875 1.0625,0.96875 0.4375,0.28125 0.898437,0.511719 1.390625,0.6875 0.5,0.167969 0.953125,0.328125 1.359375,0.484375 0.695313,0.242188 1.390625,0.523438 2.078125,0.84375 0.695312,0.324219 1.320312,0.742188 1.875,1.25 0.550781,0.5 0.984375,1.117188 1.296875,1.84375 0.3125,0.71875 0.4375,1.589844 0.375,2.609375 -0.05469,1.023437 -0.289063,1.90625 -0.703125,2.65625 -0.40625,0.742187 -0.953125,1.351563 -1.640625,1.828125 -0.6875,0.46875 -1.492187,0.800781 -2.40625,1 -0.917969,0.207031 -1.917969,0.28125 -3,0.21875 -0.949219,-0.054688 -2,-0.214844 -3.15625,-0.484375 C 3.640625,0.0664062 2.507812,-0.300781 1.40625,-0.78125 L 1.5,-4.421875 c 0.351562,0.199219 0.789062,0.398437 1.3125,0.59375 C 3.332031,-3.628906 3.894531,-3.4375 4.5,-3.25 c 0.601562,0.179688 1.222656,0.328125 1.859375,0.453125 0.632813,0.125 1.238281,0.210937 1.8125,0.25 z m 0,0"
           id="path151" />
      </g>
    </g>
  </g>
  <g
     fill="#fffcf5"
     fill-opacity="1"
     id="g165"
     transform="translate(-46.621094,-57.242188)">
    <g
       transform="translate(152.95287,298.15692)"
       id="g163">
      <g
         id="g161">
        <path
           d="m 19.609375,-20.0625 c -0.08594,0.625 -0.152344,1.273438 -0.203125,1.9375 -0.05469,0.65625 -0.09375,1.386719 -0.125,2.1875 -0.03125,0.792969 -0.07031,1.679688 -0.109375,2.65625 -0.04297,0.980469 -0.08594,2.101562 -0.125,3.359375 -0.04297,1.1875 -0.07813,2.261719 -0.109375,3.21875 -0.03125,0.949219 -0.05859,1.839844 -0.07813,2.671875 -0.01172,0.824219 -0.02734,1.609375 -0.04687,2.359375 -0.02344,0.75 -0.03125,1.511719 -0.03125,2.28125 L 14.625,0.46875 c 0.03906,-0.820312 0.08203,-1.550781 0.125,-2.1875 0.03906,-0.632812 0.08594,-1.285156 0.140625,-1.953125 0.05078,-0.675781 0.09766,-1.398437 0.140625,-2.171875 0.05078,-0.769531 0.09375,-1.707031 0.125,-2.8125 L 6.46875,-8.9375 C 6.4375,-7.988281 6.40625,-7.101562 6.375,-6.28125 6.351562,-5.46875 6.332031,-4.691406 6.3125,-3.953125 6.300781,-3.210938 6.289062,-2.5 6.28125,-1.8125 6.269531,-1.132812 6.265625,-0.460938 6.265625,0.203125 L 2.09375,0.0625 C 2.144531,-0.882812 2.195312,-1.710938 2.25,-2.421875 2.300781,-3.140625 2.347656,-3.882812 2.390625,-4.65625 2.441406,-5.4375 2.492188,-6.328125 2.546875,-7.328125 2.597656,-8.335938 2.644531,-9.601562 2.6875,-11.125 c 0.050781,-1.519531 0.09375,-3.03125 0.125,-4.53125 0.03125,-1.5 0.039062,-3.046875 0.03125,-4.640625 l 4.25,-0.171875 c -0.085938,0.5625 -0.152344,1.148438 -0.203125,1.75 -0.054687,0.605469 -0.09375,1.257812 -0.125,1.953125 -0.03125,0.699219 -0.070313,1.464844 -0.109375,2.296875 -0.03125,0.835938 -0.0625,1.773438 -0.09375,2.8125 L 15.25,-11.375 c 0.03906,-1.394531 0.06641,-2.796875 0.07813,-4.203125 0.01953,-1.40625 0.03125,-2.84375 0.03125,-4.3125 z m 0,0"
           id="path159" />
      </g>
    </g>
  </g>
  <g
     fill="#fffcf5"
     fill-opacity="1"
     id="g171"
     transform="translate(-46.621094,-57.242188)">
    <g
       transform="translate(174.12042,298.77532)"
       id="g169">
      <g
         id="g167" />
    </g>
  </g>
  <g
     fill="#fffcf5"
     fill-opacity="1"
     id="g179"
     transform="translate(-46.621094,-57.242188)">
    <g
       transform="translate(180.53129,298.91059)"
       id="g177">
      <g
         id="g175">
        <path
           d="m 2.15625,-20.390625 c 0.414062,-0.08203 0.867188,-0.160156 1.359375,-0.234375 0.488281,-0.08203 0.992187,-0.15625 1.515625,-0.21875 0.53125,-0.07031 1.0625,-0.117188 1.59375,-0.140625 0.53125,-0.03125 1.039062,-0.04687 1.53125,-0.04687 1.476562,0 2.695312,0.152344 3.65625,0.453125 0.96875,0.292969 1.734375,0.683594 2.296875,1.171875 0.5625,0.480469 0.953125,1.023438 1.171875,1.625 0.21875,0.605469 0.328125,1.199219 0.328125,1.78125 0,0.53125 -0.07813,1.070312 -0.234375,1.609375 -0.15625,0.53125 -0.402344,1.027344 -0.734375,1.484375 -0.335937,0.449219 -0.765625,0.839844 -1.296875,1.171875 -0.53125,0.324219 -1.164062,0.542969 -1.890625,0.65625 0.90625,0.08594 1.6875,0.28125 2.34375,0.59375 0.664063,0.3125 1.210937,0.703125 1.640625,1.171875 0.4375,0.46875 0.753906,1 0.953125,1.59375 0.195313,0.59375 0.296875,1.214844 0.296875,1.859375 0,0.792969 -0.152344,1.558594 -0.453125,2.296875 -0.304687,0.742188 -0.820313,1.398438 -1.546875,1.96875 -0.730469,0.574219 -1.699219,1.039062 -2.90625,1.390625 C 10.570312,0.140625 9.066406,0.3125 7.265625,0.3125 6.910156,0.3125 6.507812,0.304688 6.0625,0.296875 5.625,0.285156 5.171875,0.265625 4.703125,0.234375 4.242188,0.210938 3.785156,0.179688 3.328125,0.140625 2.878906,0.109375 2.46875,0.0625 2.09375,0 c 0.039062,-0.945312 0.078125,-1.773438 0.109375,-2.484375 0.03125,-0.707031 0.050781,-1.457031 0.0625,-2.25 0.019531,-0.800781 0.03125,-1.707031 0.03125,-2.71875 0.00781,-1.019531 0.015625,-2.320313 0.015625,-3.90625 -0.011719,-1.414063 -0.027344,-2.875 -0.046875,-4.375 -0.011719,-1.507813 -0.046875,-3.0625 -0.109375,-4.65625 z m 4,10.890625 c 0,1.417969 0,2.695312 0,3.828125 0.00781,1.125 0.023438,2.195313 0.046875,3.203125 0.375,0.117188 0.753906,0.210938 1.140625,0.28125 0.382812,0.074219 0.773438,0.109375 1.171875,0.109375 1.238281,0 2.25,-0.363281 3.03125,-1.09375 0.78125,-0.726563 1.164063,-1.753906 1.15625,-3.078125 0,-0.507812 -0.07813,-0.984375 -0.234375,-1.421875 -0.148438,-0.4375 -0.382812,-0.8125 -0.703125,-1.125 C 11.441406,-9.109375 11.019531,-9.351562 10.5,-9.53125 9.988281,-9.707031 9.359375,-9.796875 8.609375,-9.796875 7.847656,-9.796875 7.03125,-9.695312 6.15625,-9.5 Z m 0.046875,-8.546875 c -0.042969,0.804687 -0.0625,1.695313 -0.0625,2.671875 0,0.980469 0.00391,2.121094 0.015625,3.421875 0.300781,0.03125 0.582031,0.05859 0.84375,0.07813 0.269531,0.02344 0.53125,0.03125 0.78125,0.03125 1.457031,0 2.507812,-0.300781 3.15625,-0.90625 0.644531,-0.613281 0.96875,-1.429688 0.96875,-2.453125 0,-0.414063 -0.05469,-0.816406 -0.15625,-1.203125 -0.105469,-0.382812 -0.289062,-0.722656 -0.546875,-1.015625 -0.261719,-0.300781 -0.605469,-0.539063 -1.03125,-0.71875 -0.417969,-0.175781 -0.949219,-0.265625 -1.59375,-0.265625 -0.398437,0 -0.789063,0.03906 -1.171875,0.109375 -0.386719,0.0625 -0.789062,0.148437 -1.203125,0.25 z m 0,0"
           id="path173" />
      </g>
    </g>
  </g>
  <g
     fill="#fffcf5"
     fill-opacity="1"
     id="g187"
     transform="translate(-46.621094,-57.242188)">
    <g
       transform="translate(198.37527,298.89083)"
       id="g185">
      <g
         id="g183">
        <path
           d="m 5.734375,-7.40625 c 0.03125,0.855469 0.164063,1.578125 0.40625,2.171875 0.25,0.59375 0.570313,1.078125 0.96875,1.453125 0.394531,0.375 0.835937,0.648438 1.328125,0.8125 0.5,0.15625 1.003906,0.230469 1.515625,0.21875 0.4375,-0.00781 0.882813,-0.109375 1.34375,-0.296875 0.457031,-0.195313 0.878906,-0.492187 1.265625,-0.890625 0.382812,-0.394531 0.695312,-0.890625 0.9375,-1.484375 0.238281,-0.59375 0.359375,-1.304687 0.359375,-2.140625 0,-0.59375 -0.01172,-1.242188 -0.03125,-1.953125 -0.01172,-0.707031 -0.03125,-1.625 -0.0625,-2.75 -0.03125,-1.414063 -0.07422,-2.816406 -0.125,-4.203125 -0.05469,-1.394531 -0.132813,-2.828125 -0.234375,-4.296875 l 4.21875,-0.40625 c -0.04297,0.585937 -0.07422,1.1875 -0.09375,1.8125 -0.01172,0.625 -0.01172,1.308594 0,2.046875 0.0078,0.730469 0.01953,1.554688 0.03125,2.46875 0.01953,0.917969 0.04687,1.96875 0.07813,3.15625 l 0.09375,3.84375 c 0.03125,1.21875 -0.164063,2.3125 -0.578125,3.28125 -0.417969,0.96875 -0.984375,1.792969 -1.703125,2.46875 -0.71875,0.679688 -1.570313,1.203125 -2.546875,1.578125 C 11.9375,-0.140625 10.910156,0.0625 9.828125,0.09375 8.742188,0.125 7.722656,-0.0195312 6.765625,-0.34375 5.804688,-0.675781 4.96875,-1.164062 4.25,-1.8125 3.53125,-2.457031 2.957031,-3.253906 2.53125,-4.203125 2.101562,-5.148438 1.875,-6.222656 1.84375,-7.421875 1.832031,-7.992188 1.820312,-8.640625 1.8125,-9.359375 c 0,-0.71875 -0.015625,-1.582031 -0.046875,-2.59375 -0.03125,-1.414063 -0.074219,-2.816406 -0.125,-4.203125 -0.054687,-1.394531 -0.132813,-2.820312 -0.234375,-4.28125 l 4.203125,-0.421875 c -0.03125,0.585937 -0.058594,1.195313 -0.078125,1.828125 -0.011719,0.625 -0.015625,1.308594 -0.015625,2.046875 0,0.730469 0.00781,1.554687 0.03125,2.46875 0.03125,0.917969 0.0625,1.96875 0.09375,3.15625 z m 0,0"
           id="path181" />
      </g>
    </g>
  </g>
  <g
     fill="#fffcf5"
     fill-opacity="1"
     id="g195"
     transform="translate(-46.621094,-57.242188)">
    <g
       transform="translate(218.64827,298.33861)"
       id="g193">
      <g
         id="g191">
        <path
           d="m 1.09375,-20.484375 c 0.78125,-0.207031 1.738281,-0.40625 2.875,-0.59375 C 5.113281,-21.273438 6.375,-21.414062 7.75,-21.5 c 1.5625,-0.08203 2.960938,0.08984 4.203125,0.515625 1.238281,0.417969 2.300781,1.046875 3.1875,1.890625 0.882813,0.835938 1.582031,1.871094 2.09375,3.109375 0.519531,1.230469 0.820313,2.617187 0.90625,4.15625 0.08203,1.617187 -0.09375,3.121094 -0.53125,4.515625 -0.429687,1.386719 -1.074219,2.601562 -1.9375,3.640625 -0.855469,1.042969 -1.90625,1.882813 -3.15625,2.515625 -1.25,0.625 -2.664063,0.984375 -4.234375,1.078125 C 6.914062,-0.00390625 5.707031,0.0195312 4.65625,0 3.601562,-0.0195312 2.75,-0.0546875 2.09375,-0.109375 c -0.03125,-0.945313 -0.054688,-1.78125 -0.0625,-2.5 0,-0.726563 -0.011719,-1.476563 -0.03125,-2.25 C 1.976562,-5.628906 1.945312,-6.515625 1.90625,-7.515625 1.863281,-8.523438 1.804688,-9.789062 1.734375,-11.3125 c -0.085937,-1.519531 -0.179687,-3.03125 -0.28125,-4.53125 -0.09375,-1.5 -0.214844,-3.046875 -0.359375,-4.640625 z m 6.390625,1.671875 c -0.335937,0.02344 -0.695313,0.07813 -1.078125,0.171875 -0.375,0.08594 -0.761719,0.1875 -1.15625,0.3125 0.00781,0.949219 0.046875,2.011719 0.109375,3.1875 0.0625,1.179687 0.140625,2.609375 0.234375,4.296875 0.09375,1.761719 0.171875,3.28125 0.234375,4.5625 0.070313,1.273438 0.148437,2.46875 0.234375,3.59375 0.425781,0.179688 0.882812,0.25 1.375,0.21875 1.007812,-0.050781 1.941406,-0.257812 2.796875,-0.625 0.863281,-0.363281 1.601563,-0.90625 2.21875,-1.625 0.613281,-0.726562 1.078125,-1.640625 1.390625,-2.734375 0.3125,-1.09375 0.429688,-2.40625 0.359375,-3.9375 -0.08594,-1.5 -0.296875,-2.738281 -0.640625,-3.71875 -0.335938,-0.976563 -0.796875,-1.75 -1.390625,-2.3125 -0.585937,-0.570313 -1.273437,-0.957031 -2.0625,-1.15625 -0.78125,-0.207031 -1.65625,-0.285156 -2.625,-0.234375 z m 0,0"
           id="path189" />
      </g>
    </g>
  </g>
  <g
     fill="#fffcf5"
     fill-opacity="1"
     id="g203"
     transform="translate(-46.621094,-57.242188)">
    <g
       transform="translate(238.69161,297.25779)"
       id="g201">
      <g
         id="g199">
        <path
           d="m 0.546875,-20.5 c 0.769531,-0.226562 1.722656,-0.457031 2.859375,-0.6875 1.144531,-0.226562 2.398438,-0.398438 3.765625,-0.515625 1.5625,-0.125 2.960937,0.01172 4.203125,0.40625 1.25,0.386719 2.328125,0.992187 3.234375,1.8125 0.914063,0.8125 1.644531,1.828125 2.1875,3.046875 0.550781,1.21875 0.890625,2.59375 1.015625,4.125 0.132812,1.617188 0.0039,3.125 -0.390625,4.53125 -0.398437,1.40625 -1.011719,2.640625 -1.84375,3.703125 -0.835937,1.0625 -1.867187,1.929687 -3.09375,2.59375 -1.230469,0.65625 -2.632813,1.054687 -4.203125,1.1875 C 6.925781,-0.191406 5.71875,-0.132812 4.65625,-0.125 3.601562,-0.113281 2.75,-0.128906 2.09375,-0.171875 2.039062,-1.117188 2,-1.945312 1.96875,-2.65625 1.945312,-3.375 1.914062,-4.125 1.875,-4.90625 1.832031,-5.6875 1.773438,-6.578125 1.703125,-7.578125 c -0.0625,-1 -0.152344,-2.257813 -0.265625,-3.78125 C 1.3125,-12.867188 1.179688,-14.375 1.046875,-15.875 c -0.136719,-1.5 -0.304687,-3.039062 -0.5,-4.625 z m 6.4375,1.484375 c -0.335937,0.03125 -0.6875,0.101563 -1.0625,0.203125 -0.375,0.09375 -0.761719,0.210938 -1.15625,0.34375 0.039063,0.9375 0.109375,2 0.203125,3.1875 0.09375,1.179688 0.207031,2.605469 0.34375,4.28125 0.144531,1.761719 0.265625,3.28125 0.359375,4.5625 0.101563,1.273438 0.210937,2.464844 0.328125,3.578125 0.425781,0.167969 0.878906,0.230469 1.359375,0.1875 1.007813,-0.082031 1.941406,-0.3125 2.796875,-0.6875 0.851562,-0.382813 1.570312,-0.945313 2.15625,-1.6875 0.59375,-0.738281 1.03125,-1.660156 1.3125,-2.765625 0.289062,-1.101562 0.378906,-2.421875 0.265625,-3.953125 -0.125,-1.488281 -0.371094,-2.71875 -0.734375,-3.6875 -0.367188,-0.96875 -0.851562,-1.726563 -1.453125,-2.28125 -0.605469,-0.5625 -1.304687,-0.929687 -2.09375,-1.109375 -0.78125,-0.1875 -1.65625,-0.242188 -2.625,-0.171875 z m 0,0"
           id="path197" />
      </g>
    </g>
  </g>
  <g
     fill="#fffcf5"
     fill-opacity="1"
     id="g211"
     transform="translate(-46.621094,-57.242188)">
    <g
       transform="translate(258.6887,295.63673)"
       id="g209">
      <g
         id="g207">
        <path
           d="m 15.546875,-22.8125 c -0.34375,1.304688 -0.703125,2.558594 -1.078125,3.765625 -0.367188,1.210937 -0.765625,2.390625 -1.203125,3.546875 -0.429687,1.148438 -0.886719,2.28125 -1.375,3.40625 -0.492187,1.117188 -1.042969,2.230469 -1.65625,3.34375 0.164063,1.492188 0.316406,2.839844 0.453125,4.046875 0.132812,1.199219 0.285156,2.371094 0.453125,3.515625 L 6.984375,-0.75 C 6.929688,-1.457031 6.882812,-2.09375 6.84375,-2.65625 6.800781,-3.226562 6.757812,-3.789062 6.71875,-4.34375 6.6875,-4.894531 6.648438,-5.472656 6.609375,-6.078125 6.566406,-6.691406 6.503906,-7.378906 6.421875,-8.140625 4.785156,-9.992188 3.328125,-11.9375 2.046875,-13.96875 0.765625,-16 -0.476562,-18.21875 -1.6875,-20.625 l 3.953125,-0.78125 c 0.425781,0.78125 0.859375,1.601562 1.296875,2.453125 0.4375,0.84375 0.882812,1.6875 1.34375,2.53125 0.46875,0.835937 0.953125,1.667969 1.453125,2.5 0.507813,0.824219 1.054687,1.605469 1.640625,2.34375 0.820312,-1.632813 1.492188,-3.316406 2.015625,-5.046875 0.519531,-1.726562 1.03125,-3.53125 1.53125,-5.40625 z m 0,0"
           id="path205" />
      </g>
    </g>
  </g>
</svg>
