<svg xmlns="http://www.w3.org/2000/svg" xmlns:xlink="http://www.w3.org/1999/xlink" width="500" zoomAndPan="magnify" viewBox="0 0 375 374.999991" height="500" preserveAspectRatio="xMidYMid meet" version="1.0"><defs><g/><clipPath id="85dd99b69a"><path d="M 92.605469 57.242188 L 284.605469 57.242188 L 284.605469 249.242188 L 92.605469 249.242188 Z M 92.605469 57.242188 " clip-rule="nonzero"/></clipPath><clipPath id="f7e5d7de70"><path d="M 46.597656 270 L 330.097656 270 L 330.097656 317.601562 L 46.597656 317.601562 Z M 46.597656 270 " clip-rule="nonzero"/></clipPath><clipPath id="fe93ac8558"><path d="M 71 258.351562 L 305 258.351562 L 305 315 L 71 315 Z M 71 258.351562 " clip-rule="nonzero"/></clipPath><clipPath id="16b3191f73"><path d="M 264 216 L 320 216 L 320 244 L 264 244 Z M 264 216 " clip-rule="nonzero"/></clipPath><clipPath id="330093efe7"><path d="M 314.15625 252.285156 L 264.664062 243.589844 L 273.746094 191.882812 L 323.238281 200.578125 Z M 314.15625 252.285156 " clip-rule="nonzero"/></clipPath><clipPath id="632d937ef5"><path d="M 314.15625 252.285156 L 264.664062 243.589844 L 273.746094 191.882812 L 323.238281 200.578125 Z M 314.15625 252.285156 " clip-rule="nonzero"/></clipPath><clipPath id="0b547bc110"><path d="M 270 197 L 283 197 L 283 226 L 270 226 Z M 270 197 " clip-rule="nonzero"/></clipPath><clipPath id="3860f13b80"><path d="M 314.15625 252.285156 L 264.664062 243.589844 L 273.746094 191.882812 L 323.238281 200.578125 Z M 314.15625 252.285156 " clip-rule="nonzero"/></clipPath><clipPath id="221c7376a4"><path d="M 314.15625 252.285156 L 264.664062 243.589844 L 273.746094 191.882812 L 323.238281 200.578125 Z M 314.15625 252.285156 " clip-rule="nonzero"/></clipPath><clipPath id="2c2d28c904"><path d="M 289 197 L 308 197 L 308 214 L 289 214 Z M 289 197 " clip-rule="nonzero"/></clipPath><clipPath id="eb19abce94"><path d="M 314.15625 252.285156 L 264.664062 243.589844 L 273.746094 191.882812 L 323.238281 200.578125 Z M 314.15625 252.285156 " clip-rule="nonzero"/></clipPath><clipPath id="7fb5bfbfb6"><path d="M 314.15625 252.285156 L 264.664062 243.589844 L 273.746094 191.882812 L 323.238281 200.578125 Z M 314.15625 252.285156 " clip-rule="nonzero"/></clipPath><clipPath id="9c878483f5"><path d="M 53 224 L 113 224 L 113 240 L 53 240 Z M 53 224 " clip-rule="nonzero"/></clipPath><clipPath id="2468961bdd"><path d="M 112.359375 239.511719 L 66.769531 260.648438 L 44.6875 213.015625 L 90.277344 191.882812 Z M 112.359375 239.511719 " clip-rule="nonzero"/></clipPath><clipPath id="8cefc5836f"><path d="M 66.886719 260.59375 L 112.476562 239.457031 L 90.394531 191.828125 L 44.804688 212.960938 Z M 66.886719 260.59375 " clip-rule="nonzero"/></clipPath><clipPath id="54e55f2439"><path d="M 85 198 L 103 198 L 103 224 L 85 224 Z M 85 198 " clip-rule="nonzero"/></clipPath><clipPath id="7b6869401d"><path d="M 112.359375 239.511719 L 66.769531 260.648438 L 44.6875 213.015625 L 90.277344 191.882812 Z M 112.359375 239.511719 " clip-rule="nonzero"/></clipPath><clipPath id="926e561e2c"><path d="M 66.886719 260.59375 L 112.476562 239.457031 L 90.394531 191.828125 L 44.804688 212.960938 Z M 66.886719 260.59375 " clip-rule="nonzero"/></clipPath><clipPath id="0403682a0b"><path d="M 59 204 L 82 204 L 82 218 L 59 218 Z M 59 204 " clip-rule="nonzero"/></clipPath><clipPath id="1e3ee29dfb"><path d="M 112.359375 239.511719 L 66.769531 260.648438 L 44.6875 213.015625 L 90.277344 191.882812 Z M 112.359375 239.511719 " clip-rule="nonzero"/></clipPath><clipPath id="3d11be2c59"><path d="M 66.886719 260.59375 L 112.476562 239.457031 L 90.394531 191.828125 L 44.804688 212.960938 Z M 66.886719 260.59375 " clip-rule="nonzero"/></clipPath></defs><path fill="#a53e48" d="M 188.605469 81.242188 C 198.359375 81.242188 206.605469 92.234375 206.605469 105.242188 C 206.605469 105.640625 206.679688 106.023438 206.832031 106.390625 C 206.984375 106.757812 207.199219 107.082031 207.480469 107.363281 C 207.765625 107.644531 208.089844 107.863281 208.457031 108.015625 C 208.824219 108.167969 209.207031 108.242188 209.605469 108.242188 C 210 108.242188 210.382812 108.167969 210.75 108.015625 C 211.121094 107.863281 211.445312 107.644531 211.726562 107.363281 C 212.007812 107.082031 212.222656 106.757812 212.375 106.390625 C 212.527344 106.023438 212.605469 105.640625 212.605469 105.242188 C 212.605469 88.984375 201.613281 75.242188 188.605469 75.242188 C 188.207031 75.242188 187.824219 75.320312 187.457031 75.472656 C 187.089844 75.625 186.765625 75.839844 186.480469 76.121094 C 186.199219 76.402344 185.984375 76.726562 185.832031 77.09375 C 185.679688 77.460938 185.605469 77.84375 185.605469 78.242188 C 185.605469 78.640625 185.679688 79.023438 185.832031 79.390625 C 185.984375 79.757812 186.199219 80.082031 186.480469 80.363281 C 186.765625 80.644531 187.089844 80.863281 187.457031 81.015625 C 187.824219 81.167969 188.207031 81.242188 188.605469 81.242188 Z M 188.605469 81.242188 " fill-opacity="1" fill-rule="nonzero"/><g clip-path="url(#85dd99b69a)"><path fill="#a53e48" d="M 242.605469 87.242188 C 237.691406 87.257812 232.96875 88.21875 228.4375 90.121094 C 228.167969 89 227.851562 87.890625 227.492188 86.792969 C 227.132812 85.695312 226.726562 84.613281 226.28125 83.550781 C 225.835938 82.484375 225.34375 81.4375 224.8125 80.414062 C 224.28125 79.386719 223.710938 78.386719 223.097656 77.40625 C 222.488281 76.425781 221.835938 75.472656 221.148438 74.546875 C 220.457031 73.621094 219.734375 72.722656 218.972656 71.855469 C 218.210938 70.984375 217.414062 70.148438 216.585938 69.34375 C 215.757812 68.539062 214.898438 67.769531 214.007812 67.035156 C 213.117188 66.300781 212.199219 65.601562 211.25 64.941406 C 210.304688 64.277344 209.332031 63.65625 208.335938 63.074219 C 207.339844 62.492188 206.320312 61.949219 205.277344 61.449219 C 204.238281 60.949219 203.179688 60.488281 202.101562 60.074219 C 201.023438 59.660156 199.929688 59.289062 198.824219 58.960938 C 197.714844 58.632812 196.597656 58.351562 195.46875 58.113281 C 194.335938 57.875 193.199219 57.683594 192.054688 57.539062 C 190.90625 57.394531 189.757812 57.296875 188.605469 57.242188 C 187.421875 57.300781 186.242188 57.402344 185.070312 57.558594 C 183.894531 57.710938 182.730469 57.910156 181.574219 58.160156 C 180.417969 58.410156 179.273438 58.707031 178.140625 59.050781 C 177.007812 59.394531 175.890625 59.78125 174.789062 60.214844 C 173.6875 60.652344 172.609375 61.132812 171.546875 61.65625 C 170.484375 62.179688 169.445312 62.746094 168.433594 63.355469 C 167.417969 63.964844 166.429688 64.613281 165.46875 65.304688 C 164.507812 65.992188 163.574219 66.722656 162.671875 67.488281 C 161.773438 68.257812 160.902344 69.058594 160.066406 69.898438 C 159.234375 70.734375 158.433594 71.605469 157.667969 72.511719 C 156.90625 73.414062 156.179688 74.347656 155.492188 75.3125 C 154.804688 76.277344 154.160156 77.265625 153.554688 78.285156 C 152.949219 79.300781 152.382812 80.339844 151.863281 81.402344 C 151.34375 82.464844 150.867188 83.546875 150.4375 84.652344 C 150.003906 85.753906 149.621094 86.871094 149.28125 88.003906 C 148.941406 89.140625 148.648438 90.285156 148.402344 91.441406 C 143.976562 89.652344 139.378906 88.75 134.605469 88.742188 C 111.449219 88.742188 92.605469 110.277344 92.605469 136.742188 C 92.605469 160.375 107.644531 180.03125 127.355469 183.972656 L 122.953125 192.34375 C 122.832031 192.574219 122.742188 192.8125 122.683594 193.066406 C 122.625 193.316406 122.601562 193.570312 122.605469 193.828125 C 122.613281 194.085938 122.65625 194.339844 122.726562 194.589844 C 122.800781 194.835938 122.902344 195.070312 123.035156 195.292969 C 123.171875 195.511719 123.328125 195.714844 123.515625 195.894531 C 123.699219 196.074219 123.90625 196.226562 124.128906 196.355469 C 124.355469 196.480469 124.59375 196.578125 124.839844 196.644531 C 125.089844 196.710938 125.34375 196.742188 125.605469 196.742188 L 129.671875 196.742188 C 131.625 200.320312 132.964844 204.117188 133.683594 208.128906 C 134.402344 212.144531 134.464844 216.167969 133.871094 220.203125 C 133.105469 223.984375 131.707031 227.515625 129.671875 230.792969 C 128.117188 233.460938 126.804688 236.246094 125.742188 239.144531 C 124.992188 241.296875 124.425781 243.496094 124.042969 245.746094 C 123.972656 246.140625 123.976562 246.535156 124.0625 246.925781 C 124.148438 247.320312 124.304688 247.679688 124.535156 248.007812 C 124.765625 248.339844 125.050781 248.609375 125.390625 248.824219 C 125.730469 249.039062 126.097656 249.179688 126.496094 249.246094 C 126.890625 249.3125 127.285156 249.300781 127.675781 249.210938 C 128.070312 249.117188 128.425781 248.957031 128.753906 248.71875 C 129.078125 248.484375 129.347656 248.195312 129.554688 247.851562 C 129.765625 247.507812 129.898438 247.136719 129.960938 246.742188 C 130.28125 244.832031 130.765625 242.964844 131.40625 241.136719 C 132.359375 238.550781 133.535156 236.070312 134.925781 233.691406 C 137.273438 229.839844 138.882812 225.703125 139.765625 221.28125 C 140.414062 217.105469 140.433594 212.925781 139.828125 208.746094 C 139.21875 204.5625 138.011719 200.5625 136.199219 196.742188 L 143.605469 196.742188 C 143.863281 196.742188 144.117188 196.710938 144.367188 196.644531 C 144.617188 196.578125 144.851562 196.480469 145.078125 196.355469 C 145.300781 196.226562 145.507812 196.074219 145.691406 195.894531 C 145.878906 195.714844 146.035156 195.511719 146.171875 195.292969 C 146.304688 195.070312 146.40625 194.835938 146.480469 194.589844 C 146.550781 194.339844 146.59375 194.085938 146.601562 193.828125 C 146.609375 193.570312 146.582031 193.316406 146.523438 193.066406 C 146.464844 192.8125 146.375 192.574219 146.253906 192.34375 L 141.871094 184.011719 C 143.875 183.519531 145.835938 182.890625 147.75 182.128906 C 149.667969 181.363281 151.523438 180.472656 153.316406 179.453125 C 155.113281 178.429688 156.828125 177.292969 158.460938 176.035156 C 160.097656 174.777344 161.640625 173.414062 163.085938 171.941406 C 164.535156 170.472656 165.875 168.90625 167.105469 167.25 C 168.335938 165.59375 169.445312 163.863281 170.4375 162.050781 C 171.429688 160.242188 172.289062 158.371094 173.023438 156.441406 C 173.753906 154.511719 174.351562 152.542969 174.808594 150.53125 C 176.933594 151.378906 179.113281 152.023438 181.355469 152.472656 L 176.953125 160.84375 C 176.832031 161.074219 176.742188 161.3125 176.683594 161.566406 C 176.625 161.816406 176.601562 162.070312 176.605469 162.328125 C 176.613281 162.585938 176.65625 162.839844 176.726562 163.089844 C 176.800781 163.335938 176.902344 163.570312 177.035156 163.792969 C 177.171875 164.011719 177.328125 164.214844 177.515625 164.394531 C 177.699219 164.574219 177.90625 164.726562 178.128906 164.855469 C 178.355469 164.980469 178.59375 165.078125 178.839844 165.144531 C 179.089844 165.210938 179.34375 165.242188 179.605469 165.242188 L 183.671875 165.242188 C 185.625 168.820312 186.964844 172.617188 187.683594 176.628906 C 188.402344 180.644531 188.464844 184.667969 187.871094 188.703125 C 187.105469 192.484375 185.707031 196.015625 183.671875 199.292969 C 182.113281 201.960938 180.804688 204.75 179.742188 207.652344 C 178.8125 210.820312 178.175781 214.050781 177.835938 217.335938 C 177.496094 220.621094 177.457031 223.914062 177.71875 227.207031 C 177.980469 230.5 178.535156 233.742188 179.386719 236.933594 C 180.238281 240.125 181.375 243.214844 182.789062 246.199219 C 183.019531 246.769531 183.386719 247.222656 183.894531 247.566406 C 184.402344 247.90625 184.960938 248.078125 185.574219 248.078125 C 185.960938 248.078125 186.335938 248.003906 186.695312 247.863281 C 187.066406 247.714844 187.390625 247.5 187.675781 247.222656 C 187.960938 246.941406 188.179688 246.621094 188.335938 246.253906 C 188.492188 245.886719 188.570312 245.503906 188.574219 245.109375 C 188.578125 244.710938 188.507812 244.324219 188.359375 243.957031 C 187.082031 241.304688 186.054688 238.558594 185.28125 235.722656 C 184.503906 232.882812 183.988281 230 183.734375 227.066406 C 183.484375 224.136719 183.5 221.207031 183.777344 218.277344 C 184.058594 215.347656 184.601562 212.46875 185.40625 209.636719 C 186.359375 207.050781 187.535156 204.570312 188.925781 202.191406 C 191.273438 198.339844 192.882812 194.203125 193.765625 189.78125 C 194.417969 185.609375 194.445312 181.429688 193.84375 177.246094 C 193.238281 173.0625 192.035156 169.0625 190.230469 165.242188 L 197.605469 165.242188 C 197.863281 165.242188 198.117188 165.210938 198.367188 165.144531 C 198.617188 165.078125 198.851562 164.980469 199.078125 164.855469 C 199.300781 164.726562 199.507812 164.574219 199.691406 164.394531 C 199.878906 164.214844 200.035156 164.011719 200.171875 163.792969 C 200.304688 163.570312 200.40625 163.335938 200.480469 163.089844 C 200.550781 162.839844 200.59375 162.585938 200.601562 162.328125 C 200.609375 162.070312 200.582031 161.816406 200.523438 161.566406 C 200.464844 161.3125 200.375 161.074219 200.253906 160.84375 L 195.851562 152.472656 C 198.234375 151.996094 200.546875 151.292969 202.792969 150.363281 C 203.28125 152.308594 203.898438 154.214844 204.644531 156.078125 C 205.394531 157.941406 206.265625 159.746094 207.257812 161.488281 C 208.253906 163.234375 209.359375 164.902344 210.582031 166.492188 C 211.804688 168.085938 213.128906 169.585938 214.558594 170.996094 C 215.984375 172.410156 217.503906 173.714844 219.109375 174.917969 C 220.714844 176.121094 222.398438 177.210938 224.152344 178.183594 C 225.910156 179.160156 227.722656 180.007812 229.59375 180.734375 C 231.464844 181.457031 233.378906 182.054688 235.332031 182.515625 L 230.953125 190.84375 C 230.832031 191.074219 230.742188 191.3125 230.683594 191.566406 C 230.625 191.816406 230.601562 192.070312 230.605469 192.328125 C 230.613281 192.585938 230.65625 192.839844 230.726562 193.089844 C 230.800781 193.335938 230.902344 193.570312 231.035156 193.792969 C 231.171875 194.011719 231.328125 194.214844 231.515625 194.394531 C 231.699219 194.574219 231.90625 194.726562 232.128906 194.855469 C 232.355469 194.980469 232.59375 195.078125 232.839844 195.144531 C 233.089844 195.210938 233.34375 195.242188 233.605469 195.242188 L 237.671875 195.242188 C 239.625 198.820312 240.964844 202.617188 241.683594 206.628906 C 242.402344 210.644531 242.464844 214.667969 241.871094 218.703125 C 241.105469 222.484375 239.707031 226.015625 237.671875 229.292969 C 236.117188 231.960938 234.804688 234.746094 233.742188 237.644531 C 232.8125 240.316406 232.164062 243.054688 231.804688 245.859375 C 231.753906 246.253906 231.777344 246.644531 231.882812 247.027344 C 231.988281 247.410156 232.160156 247.761719 232.402344 248.074219 C 232.648438 248.390625 232.941406 248.648438 233.285156 248.84375 C 233.632812 249.042969 234 249.167969 234.394531 249.21875 C 234.527344 249.226562 234.65625 249.226562 234.785156 249.21875 C 235.148438 249.21875 235.503906 249.152344 235.84375 249.023438 C 236.183594 248.894531 236.488281 248.710938 236.761719 248.46875 C 237.035156 248.230469 237.257812 247.949219 237.429688 247.625 C 237.601562 247.304688 237.710938 246.964844 237.753906 246.601562 C 238.0625 244.214844 238.609375 241.886719 239.40625 239.613281 C 240.359375 237.027344 241.535156 234.546875 242.925781 232.167969 C 245.273438 228.316406 246.882812 224.179688 247.765625 219.757812 C 248.417969 215.585938 248.441406 211.414062 247.839844 207.234375 C 247.238281 203.058594 246.035156 199.058594 244.230469 195.242188 L 251.605469 195.242188 C 251.863281 195.242188 252.117188 195.210938 252.367188 195.144531 C 252.617188 195.078125 252.851562 194.980469 253.078125 194.855469 C 253.300781 194.726562 253.507812 194.574219 253.691406 194.394531 C 253.878906 194.214844 254.035156 194.011719 254.171875 193.792969 C 254.304688 193.570312 254.40625 193.335938 254.480469 193.089844 C 254.550781 192.839844 254.59375 192.585938 254.601562 192.328125 C 254.609375 192.070312 254.582031 191.816406 254.523438 191.566406 C 254.464844 191.3125 254.375 191.074219 254.253906 190.84375 L 249.851562 182.472656 C 269.5625 178.53125 284.605469 158.875 284.605469 135.242188 C 284.605469 108.777344 265.757812 87.242188 242.605469 87.242188 Z M 188.605469 63.242188 C 205.402344 63.242188 219.546875 76.789062 223.476562 95.042969 C 223.835938 96.714844 224.109375 98.375 224.292969 100.027344 L 224.292969 100.269531 C 224.484375 101.921875 224.589844 103.578125 224.605469 105.242188 C 224.59375 107.085938 224.476562 108.925781 224.253906 110.757812 C 224.207031 111.164062 224.152344 111.566406 224.101562 111.957031 C 223.867188 113.671875 223.542969 115.371094 223.128906 117.050781 L 223.089844 117.242188 C 222.621094 119.078125 222.039062 120.878906 221.347656 122.644531 C 221.292969 122.785156 221.230469 122.917969 221.171875 123.0625 C 220.5 124.742188 219.730469 126.375 218.863281 127.957031 L 218.820312 128.035156 C 217.921875 129.65625 216.921875 131.210938 215.820312 132.699219 L 215.675781 132.890625 C 214.625 134.292969 213.488281 135.617188 212.261719 136.867188 L 212.09375 137.046875 C 210.832031 138.324219 209.480469 139.5 208.050781 140.582031 L 207.960938 140.648438 C 206.53125 141.710938 205.03125 142.664062 203.460938 143.5 C 202.339844 144.109375 201.183594 144.652344 199.996094 145.121094 C 198.804688 145.589844 197.59375 145.984375 196.355469 146.304688 C 195.121094 146.625 193.867188 146.867188 192.601562 147.03125 C 191.332031 147.195312 190.0625 147.285156 188.78125 147.292969 C 187.503906 147.300781 186.230469 147.230469 184.964844 147.082031 C 183.695312 146.929688 182.4375 146.703125 181.199219 146.402344 C 179.957031 146.097656 178.738281 145.71875 177.546875 145.261719 C 176.351562 144.808594 175.1875 144.28125 174.058594 143.683594 C 172.515625 142.882812 171.046875 141.964844 169.644531 140.9375 L 169.246094 140.660156 C 167.847656 139.617188 166.527344 138.480469 165.289062 137.253906 C 165.191406 137.15625 165.109375 137.054688 165.011719 136.957031 C 163.878906 135.804688 162.820312 134.585938 161.835938 133.304688 C 161.6875 133.105469 161.527344 132.914062 161.375 132.703125 C 160.320312 131.285156 159.359375 129.804688 158.488281 128.265625 C 158.429688 128.15625 158.375 128.035156 158.316406 127.929688 C 157.511719 126.457031 156.789062 124.945312 156.148438 123.394531 C 156.046875 123.132812 155.941406 122.882812 155.835938 122.625 C 155.160156 120.914062 154.589844 119.171875 154.128906 117.394531 C 154.128906 117.308594 154.089844 117.21875 154.066406 117.128906 C 153.65625 115.46875 153.335938 113.789062 153.101562 112.09375 C 153.042969 111.675781 152.980469 111.25 152.933594 110.824219 C 152.714844 108.96875 152.605469 107.109375 152.605469 105.242188 C 152.609375 102.238281 152.890625 99.257812 153.445312 96.300781 C 156.964844 77.425781 171.382812 63.242188 188.605469 63.242188 Z M 130.570312 190.742188 L 133.414062 185.34375 L 135.816406 185.34375 L 138.660156 190.742188 Z M 169.308594 147.84375 C 165.066406 165.84375 150.753906 178.730469 134.605469 178.730469 C 114.75 178.730469 98.605469 159.890625 98.605469 136.730469 C 98.605469 113.570312 114.75 94.730469 134.605469 94.730469 C 138.996094 94.746094 143.195312 95.648438 147.203125 97.441406 C 147.171875 97.640625 147.203125 97.832031 147.160156 98.042969 C 146.816406 100.429688 146.628906 102.832031 146.605469 105.242188 C 146.613281 107.261719 146.738281 109.273438 146.976562 111.277344 C 147.03125 111.777344 147.101562 112.269531 147.171875 112.761719 C 147.402344 114.417969 147.703125 116.042969 148.074219 117.636719 C 148.152344 117.96875 148.210938 118.296875 148.296875 118.628906 C 148.785156 120.582031 149.382812 122.503906 150.097656 124.386719 C 150.132812 124.480469 150.171875 124.5625 150.210938 124.652344 C 150.875 126.363281 151.636719 128.027344 152.488281 129.652344 C 152.667969 130.003906 152.851562 130.347656 153.042969 130.695312 C 153.910156 132.285156 154.859375 133.828125 155.898438 135.316406 C 155.953125 135.386719 155.992188 135.46875 156.046875 135.542969 C 157.136719 137.050781 158.308594 138.488281 159.5625 139.855469 C 159.863281 140.179688 160.164062 140.492188 160.480469 140.8125 C 161.539062 141.894531 162.636719 142.917969 163.777344 143.882812 C 164.058594 144.121094 164.320312 144.367188 164.609375 144.597656 C 166.042969 145.746094 167.546875 146.792969 169.121094 147.742188 C 169.199219 147.769531 169.246094 147.84375 169.308594 147.84375 Z M 184.570312 159.242188 L 187.414062 153.84375 L 189.816406 153.84375 L 192.660156 159.242188 Z M 238.570312 189.242188 L 241.414062 183.84375 L 243.816406 183.84375 L 246.660156 189.242188 Z M 242.605469 177.242188 C 241.585938 177.1875 240.574219 177.09375 239.566406 176.957031 C 238.558594 176.820312 237.558594 176.640625 236.566406 176.421875 C 235.570312 176.203125 234.589844 175.945312 233.617188 175.644531 C 232.644531 175.34375 231.6875 175.003906 230.742188 174.625 C 229.800781 174.246094 228.871094 173.828125 227.960938 173.371094 C 227.054688 172.917969 226.164062 172.425781 225.292969 171.894531 C 224.425781 171.367188 223.578125 170.804688 222.757812 170.203125 C 221.933594 169.605469 221.136719 168.976562 220.367188 168.3125 C 219.597656 167.648438 218.855469 166.953125 218.140625 166.226562 C 217.425781 165.503906 216.746094 164.75 216.09375 163.96875 C 215.441406 163.1875 214.824219 162.378906 214.238281 161.546875 C 213.652344 160.714844 213.105469 159.859375 212.589844 158.980469 C 212.074219 158.105469 211.597656 157.207031 211.15625 156.289062 C 210.714844 155.371094 210.316406 154.4375 209.949219 153.488281 C 209.585938 152.539062 209.261719 151.574219 208.980469 150.597656 C 208.695312 149.621094 208.449219 148.636719 208.246094 147.636719 C 209.847656 146.65625 211.371094 145.570312 212.824219 144.378906 C 213.078125 144.175781 213.316406 143.960938 213.570312 143.75 C 214.804688 142.699219 215.976562 141.582031 217.089844 140.402344 C 217.285156 140.203125 217.480469 140.011719 217.691406 139.800781 C 218.996094 138.371094 220.207031 136.863281 221.320312 135.277344 L 221.351562 135.242188 C 222.445312 133.667969 223.445312 132.035156 224.351562 130.347656 C 224.464844 130.125 224.585938 129.910156 224.699219 129.679688 C 226.554688 126.113281 227.972656 122.382812 228.953125 118.484375 C 229.019531 118.203125 229.074219 117.921875 229.140625 117.636719 C 229.523438 116.011719 229.824219 114.355469 230.058594 112.664062 C 230.125 112.203125 230.191406 111.742188 230.242188 111.273438 C 230.472656 109.269531 230.59375 107.257812 230.605469 105.242188 C 230.601562 102.144531 230.335938 99.070312 229.804688 96.019531 C 233.871094 94.175781 238.136719 93.25 242.605469 93.242188 C 262.457031 93.242188 278.605469 112.082031 278.605469 135.242188 C 278.605469 158.402344 262.457031 177.242188 242.605469 177.242188 Z M 242.605469 177.242188 " fill-opacity="1" fill-rule="nonzero"/></g><path fill="#a53e48" d="M 246.082031 105.566406 C 245.691406 105.492188 245.304688 105.496094 244.914062 105.578125 C 244.523438 105.660156 244.164062 105.816406 243.835938 106.039062 C 243.507812 106.265625 243.238281 106.542969 243.019531 106.875 C 242.800781 107.207031 242.65625 107.570312 242.582031 107.960938 C 242.507812 108.351562 242.511719 108.742188 242.59375 109.132812 C 242.675781 109.519531 242.828125 109.878906 243.054688 110.207031 C 243.277344 110.535156 243.554688 110.808594 243.886719 111.027344 C 244.222656 111.246094 244.582031 111.390625 244.972656 111.464844 C 253.734375 113.113281 260.605469 123.554688 260.605469 135.242188 C 260.605469 135.640625 260.679688 136.023438 260.832031 136.390625 C 260.984375 136.757812 261.199219 137.082031 261.480469 137.363281 C 261.765625 137.644531 262.089844 137.863281 262.457031 138.015625 C 262.824219 138.167969 263.207031 138.242188 263.605469 138.242188 C 264 138.242188 264.382812 138.167969 264.75 138.015625 C 265.121094 137.863281 265.445312 137.644531 265.726562 137.363281 C 266.007812 137.082031 266.222656 136.757812 266.375 136.390625 C 266.527344 136.023438 266.605469 135.640625 266.605469 135.242188 C 266.605469 120.523438 257.777344 107.769531 246.082031 105.566406 Z M 246.082031 105.566406 " fill-opacity="1" fill-rule="nonzero"/><g clip-path="url(#f7e5d7de70)"><path fill="#a53e48" d="M 318.015625 294.46875 C 322.054688 301.6875 326.085938 308.738281 330.101562 315.625 C 316.203125 317.597656 302.089844 317.597656 288.195312 315.625 C 288.195312 300.710938 288.195312 285.796875 288.195312 270.886719 C 302.089844 272.859375 316.203125 272.859375 330.101562 270.886719 C 326.085938 278.910156 322.054688 286.773438 318.015625 294.46875 Z M 46.621094 270.886719 C 50.632812 278.910156 54.664062 286.773438 58.703125 294.46875 C 54.664062 301.6875 50.632812 308.738281 46.621094 315.625 C 60.519531 317.597656 74.628906 317.597656 88.527344 315.625 C 88.527344 300.710938 88.527344 285.796875 88.527344 270.886719 C 74.628906 272.859375 60.519531 272.859375 46.621094 270.886719 Z M 46.621094 270.886719 " fill-opacity="1" fill-rule="nonzero"/></g><path fill="#762029" d="M 305 286.425781 L 305 305.332031 L 288.195312 315.621094 L 288.195312 286.425781 Z M 71.71875 305.332031 L 88.527344 315.625 L 88.527344 286.425781 L 71.71875 286.425781 Z M 71.71875 305.332031 " fill-opacity="1" fill-rule="nonzero"/><g clip-path="url(#fe93ac8558)"><path fill="#a53e48" d="M 305 258.355469 C 305 274.015625 305 289.675781 305 305.332031 C 227.722656 317.550781 148.996094 317.550781 71.71875 305.332031 C 71.71875 289.675781 71.71875 274.015625 71.71875 258.355469 C 148.996094 270.574219 227.722656 270.574219 305 258.355469 Z M 305 258.355469 " fill-opacity="1" fill-rule="nonzero"/></g><g clip-path="url(#16b3191f73)"><g clip-path="url(#330093efe7)"><g clip-path="url(#632d937ef5)"><path fill="#a53e48" d="M 319.203125 223.21875 C 319.4375 222.292969 319.410156 221.371094 319.117188 220.460938 C 318.902344 219.8125 318.640625 219.183594 318.332031 218.570312 C 317.636719 217.0625 316.410156 216.3125 314.777344 216.15625 C 312.417969 215.925781 310.117188 216.292969 307.835938 216.800781 C 306.632812 217.070312 305.457031 217.460938 304.269531 217.800781 C 303.082031 218.140625 301.90625 218.5 300.707031 218.808594 C 299.3125 219.164062 297.992188 219.773438 296.554688 219.976562 C 296.277344 220.019531 296.03125 220.128906 295.808594 220.300781 C 295.363281 220.632812 294.871094 220.859375 294.328125 220.984375 C 294.0625 221.0625 293.816406 221.171875 293.582031 221.316406 C 292.15625 222.132812 290.734375 222.957031 289.320312 223.789062 C 289.023438 223.960938 288.738281 224.15625 288.429688 224.304688 C 286.957031 225.039062 285.53125 225.859375 284.15625 226.761719 C 283.136719 227.332031 282.203125 228.023438 281.363281 228.832031 C 280.90625 229.246094 280.417969 229.621094 279.894531 229.949219 C 278.734375 230.796875 277.539062 231.601562 276.414062 232.492188 C 275.667969 233.085938 275.097656 233.921875 274.300781 234.410156 C 273.488281 234.917969 272.722656 235.488281 272.007812 236.117188 C 271.175781 236.832031 270.421875 237.636719 269.546875 238.285156 C 268.660156 238.9375 267.929688 239.753906 267.09375 240.449219 C 266.253906 241.148438 265.75 242.160156 264.90625 242.859375 C 264.777344 242.96875 264.820312 243.371094 264.953125 243.421875 C 265.074219 243.46875 265.234375 243.539062 265.339844 243.5 C 266.488281 243.058594 267.648438 242.632812 268.773438 242.136719 C 270.097656 241.574219 271.390625 240.941406 272.648438 240.242188 C 273.253906 239.914062 273.882812 239.648438 274.539062 239.4375 C 275.191406 239.21875 275.808594 238.929688 276.394531 238.570312 C 277.574219 237.859375 278.832031 237.324219 280.164062 236.964844 C 282.273438 236.355469 284.390625 235.796875 286.527344 235.28125 C 288.859375 234.71875 291.175781 234.09375 293.578125 233.839844 C 295.078125 233.679688 296.558594 233.335938 298.054688 233.128906 C 299.617188 232.914062 301.183594 232.710938 302.757812 232.589844 C 305.226562 232.359375 307.652344 231.90625 310.035156 231.238281 C 310.304688 231.171875 310.5625 231.085938 310.8125 230.976562 C 311.8125 230.523438 312.804688 230.054688 313.796875 229.597656 C 314.804688 229.132812 315.714844 228.527344 316.527344 227.78125 C 317.859375 226.5625 318.890625 225.136719 319.203125 223.21875 Z M 319.203125 223.21875 " fill-opacity="1" fill-rule="nonzero"/></g></g></g><g clip-path="url(#0b547bc110)"><g clip-path="url(#3860f13b80)"><g clip-path="url(#221c7376a4)"><path fill="#a53e48" d="M 271.863281 203.988281 C 271.515625 206.957031 271.300781 209.179688 271.457031 211.445312 C 271.746094 215.199219 271.578125 218.933594 270.953125 222.648438 C 270.8125 223.453125 270.691406 224.261719 270.582031 225.070312 C 270.578125 225.273438 270.605469 225.472656 270.664062 225.667969 C 270.714844 225.714844 270.773438 225.734375 270.84375 225.722656 C 271.015625 225.632812 271.164062 225.511719 271.289062 225.363281 C 272.445312 223.511719 273.667969 221.703125 274.980469 219.960938 C 276.355469 218.085938 277.585938 216.125 278.667969 214.074219 C 279.09375 213.296875 279.550781 212.535156 280.03125 211.792969 C 281.1875 209.984375 281.902344 208.019531 282.167969 205.890625 C 282.238281 205.277344 282.226562 204.667969 282.136719 204.058594 C 281.933594 202.355469 281.089844 200.96875 280.027344 199.695312 C 279.300781 198.820312 278.386719 198.246094 277.28125 197.972656 C 276.945312 197.878906 276.609375 197.875 276.269531 197.960938 C 275.011719 198.289062 274.054688 199.015625 273.402344 200.132812 C 272.601562 201.570312 271.933594 203.058594 271.863281 203.988281 Z M 271.863281 203.988281 " fill-opacity="1" fill-rule="nonzero"/></g></g></g><g clip-path="url(#2c2d28c904)"><g clip-path="url(#eb19abce94)"><g clip-path="url(#7fb5bfbfb6)"><path fill="#a53e48" d="M 305.414062 197.558594 C 304.996094 197.53125 304.722656 197.53125 304.449219 197.496094 C 302.898438 197.28125 301.453125 197.574219 300.113281 198.378906 C 298.738281 199.167969 297.535156 200.160156 296.503906 201.359375 C 295.355469 202.621094 294.324219 203.972656 293.410156 205.410156 C 293.023438 206.046875 292.597656 206.664062 292.199219 207.296875 C 291.023438 209.214844 290.035156 211.222656 289.238281 213.324219 C 289.191406 213.453125 289.160156 213.585938 289.144531 213.71875 C 289.136719 213.78125 289.164062 213.882812 289.207031 213.902344 C 289.316406 213.953125 289.472656 214.03125 289.558594 213.984375 C 291.460938 213.0625 293.257812 211.933594 295.1875 211.0625 C 295.683594 210.839844 296.148438 210.546875 296.648438 210.324219 C 298.398438 209.535156 299.878906 208.289062 301.578125 207.40625 C 301.746094 207.289062 301.898438 207.152344 302.035156 207 C 303.992188 205.277344 305.660156 203.3125 307.039062 201.105469 C 307.230469 200.824219 307.390625 200.523438 307.523438 200.210938 C 307.621094 199.957031 307.683594 199.695312 307.71875 199.425781 C 307.777344 199.109375 307.722656 198.816406 307.558594 198.539062 C 307.398438 198.265625 307.160156 198.074219 306.855469 197.972656 C 306.339844 197.792969 305.804688 197.671875 305.414062 197.558594 Z M 305.414062 197.558594 " fill-opacity="1" fill-rule="nonzero"/></g></g></g><g clip-path="url(#9c878483f5)"><g clip-path="url(#2468961bdd)"><g clip-path="url(#8cefc5836f)"><path fill="#a53e48" d="M 54.53125 233.800781 C 54.066406 232.96875 53.855469 232.070312 53.90625 231.117188 C 53.945312 230.433594 54.039062 229.757812 54.175781 229.089844 C 54.460938 227.453125 55.453125 226.414062 56.992188 225.839844 C 59.210938 225.007812 61.53125 224.773438 63.867188 224.675781 C 65.097656 224.625 66.335938 224.703125 67.566406 224.726562 C 68.800781 224.746094 70.035156 224.792969 71.269531 224.78125 C 72.707031 224.769531 74.140625 225.015625 75.585938 224.84375 C 75.863281 224.8125 76.128906 224.855469 76.386719 224.964844 C 76.902344 225.167969 77.4375 225.261719 77.992188 225.242188 C 78.269531 225.25 78.539062 225.292969 78.800781 225.371094 C 80.386719 225.796875 81.972656 226.226562 83.554688 226.664062 C 83.886719 226.753906 84.210938 226.871094 84.546875 226.933594 C 86.160156 227.265625 87.746094 227.691406 89.308594 228.210938 C 90.445312 228.5 91.519531 228.925781 92.542969 229.492188 C 93.089844 229.777344 93.65625 230.011719 94.25 230.191406 C 95.589844 230.710938 96.949219 231.183594 98.265625 231.757812 C 99.136719 232.136719 99.90625 232.800781 100.800781 233.066406 C 101.714844 233.347656 102.601562 233.699219 103.457031 234.125 C 104.441406 234.601562 105.378906 235.1875 106.394531 235.585938 C 107.417969 235.992188 108.332031 236.589844 109.320312 237.046875 C 110.308594 237.507812 111.058594 238.355469 112.050781 238.816406 C 112.207031 238.886719 112.269531 239.285156 112.152344 239.367188 C 112.046875 239.445312 111.910156 239.554688 111.800781 239.542969 C 110.574219 239.414062 109.347656 239.300781 108.132812 239.109375 C 106.707031 238.90625 105.292969 238.628906 103.898438 238.277344 C 103.230469 238.117188 102.554688 238.019531 101.867188 237.984375 C 101.179688 237.941406 100.507812 237.820312 99.851562 237.621094 C 98.527344 237.238281 97.171875 237.046875 95.792969 237.042969 C 93.597656 236.996094 91.40625 237 89.210938 237.054688 C 86.8125 237.105469 84.414062 237.101562 82.023438 237.472656 C 80.535156 237.707031 79.015625 237.753906 77.519531 237.941406 C 75.949219 238.132812 74.386719 238.339844 72.832031 238.628906 C 70.390625 239.039062 67.929688 239.226562 65.453125 239.195312 C 65.179688 239.199219 64.90625 239.183594 64.636719 239.140625 C 63.554688 238.960938 62.476562 238.765625 61.394531 238.574219 C 60.304688 238.386719 59.269531 238.035156 58.289062 237.523438 C 56.691406 236.691406 55.324219 235.574219 54.53125 233.800781 Z M 54.53125 233.800781 " fill-opacity="1" fill-rule="nonzero"/></g></g></g><g clip-path="url(#54e55f2439)"><g clip-path="url(#7b6869401d)"><g clip-path="url(#926e561e2c)"><path fill="#a53e48" d="M 95.328125 203.039062 C 96.429688 205.820312 97.210938 207.914062 97.644531 210.140625 C 98.328125 213.847656 99.449219 217.410156 101.011719 220.835938 C 101.355469 221.578125 101.679688 222.328125 101.992188 223.082031 C 102.050781 223.277344 102.074219 223.476562 102.066406 223.679688 C 102.03125 223.742188 101.980469 223.773438 101.910156 223.78125 C 101.71875 223.738281 101.542969 223.660156 101.382812 223.546875 C 99.789062 222.054688 98.144531 220.621094 96.425781 219.277344 C 94.617188 217.820312 92.921875 216.242188 91.347656 214.539062 C 90.738281 213.898438 90.101562 213.277344 89.445312 212.683594 C 87.863281 211.234375 86.667969 209.515625 85.863281 207.527344 C 85.636719 206.957031 85.492188 206.363281 85.421875 205.753906 C 85.179688 204.054688 85.636719 202.496094 86.339844 200.992188 C 86.8125 199.960938 87.546875 199.167969 88.546875 198.621094 C 88.847656 198.445312 89.171875 198.355469 89.519531 198.351562 C 90.824219 198.34375 91.933594 198.796875 92.851562 199.710938 C 93.996094 200.894531 95.019531 202.160156 95.328125 203.039062 Z M 95.328125 203.039062 " fill-opacity="1" fill-rule="nonzero"/></g></g></g><g clip-path="url(#0403682a0b)"><g clip-path="url(#1e3ee29dfb)"><g clip-path="url(#3d11be2c59)"><path fill="#a53e48" d="M 61.253906 205.460938 C 61.652344 205.328125 61.917969 205.257812 62.167969 205.148438 C 63.613281 204.542969 65.085938 204.453125 66.589844 204.886719 C 68.121094 205.296875 69.539062 205.949219 70.84375 206.839844 C 72.277344 207.765625 73.617188 208.804688 74.871094 209.957031 C 75.410156 210.476562 75.984375 210.960938 76.53125 211.46875 C 78.160156 213.019531 79.628906 214.707031 80.941406 216.535156 C 81.019531 216.644531 81.085938 216.765625 81.132812 216.890625 C 81.15625 216.945312 81.15625 217.054688 81.121094 217.082031 C 81.027344 217.160156 80.894531 217.273438 80.800781 217.253906 C 78.726562 216.851562 76.703125 216.222656 74.609375 215.878906 C 74.074219 215.792969 73.546875 215.628906 73.011719 215.539062 C 71.113281 215.226562 69.363281 214.40625 67.496094 213.988281 C 67.304688 213.917969 67.121094 213.824219 66.949219 213.714844 C 64.613281 212.554688 62.496094 211.082031 60.597656 209.308594 C 60.339844 209.082031 60.105469 208.835938 59.898438 208.566406 C 59.738281 208.34375 59.609375 208.109375 59.507812 207.855469 C 59.371094 207.566406 59.34375 207.269531 59.433594 206.960938 C 59.519531 206.652344 59.699219 206.40625 59.96875 206.230469 C 60.417969 205.921875 60.90625 205.667969 61.253906 205.460938 Z M 61.253906 205.460938 " fill-opacity="1" fill-rule="nonzero"/></g></g></g><g fill="#fffcf5" fill-opacity="1"><g transform="translate(99.070882, 293.699027)"><g><path d="M 4.328125 -20.046875 C 4.753906 -20.085938 5.210938 -20.117188 5.703125 -20.140625 C 6.203125 -20.171875 6.71875 -20.1875 7.25 -20.1875 C 7.78125 -20.1875 8.3125 -20.171875 8.84375 -20.140625 C 9.375 -20.109375 9.882812 -20.066406 10.375 -20.015625 C 11.84375 -19.859375 13.035156 -19.582031 13.953125 -19.1875 C 14.878906 -18.789062 15.597656 -18.316406 16.109375 -17.765625 C 16.628906 -17.222656 16.960938 -16.640625 17.109375 -16.015625 C 17.253906 -15.398438 17.296875 -14.800781 17.234375 -14.21875 C 17.179688 -13.695312 17.050781 -13.175781 16.84375 -12.65625 C 16.632812 -12.132812 16.335938 -11.664062 15.953125 -11.25 C 15.566406 -10.84375 15.085938 -10.503906 14.515625 -10.234375 C 13.953125 -9.972656 13.304688 -9.820312 12.578125 -9.78125 C 13.460938 -9.601562 14.21875 -9.316406 14.84375 -8.921875 C 15.476562 -8.535156 15.984375 -8.085938 16.359375 -7.578125 C 16.734375 -7.078125 16.988281 -6.519531 17.125 -5.90625 C 17.257812 -5.300781 17.296875 -4.675781 17.234375 -4.03125 C 17.140625 -3.238281 16.898438 -2.488281 16.515625 -1.78125 C 16.128906 -1.082031 15.546875 -0.488281 14.765625 0 C 13.984375 0.488281 12.972656 0.84375 11.734375 1.0625 C 10.492188 1.28125 8.976562 1.289062 7.1875 1.09375 C 6.84375 1.0625 6.445312 1.015625 6 0.953125 C 5.5625 0.898438 5.113281 0.832031 4.65625 0.75 C 4.207031 0.664062 3.753906 0.582031 3.296875 0.5 C 2.847656 0.414062 2.441406 0.320312 2.078125 0.21875 C 2.222656 -0.707031 2.347656 -1.523438 2.453125 -2.234375 C 2.554688 -2.941406 2.660156 -3.6875 2.765625 -4.46875 C 2.867188 -5.257812 2.976562 -6.160156 3.09375 -7.171875 C 3.207031 -8.179688 3.347656 -9.472656 3.515625 -11.046875 C 3.671875 -12.453125 3.816406 -13.90625 3.953125 -15.40625 C 4.097656 -16.90625 4.222656 -18.453125 4.328125 -20.046875 Z M 7.140625 -8.78125 C 6.992188 -7.363281 6.859375 -6.09375 6.734375 -4.96875 C 6.617188 -3.851562 6.519531 -2.789062 6.4375 -1.78125 C 6.789062 -1.625 7.15625 -1.488281 7.53125 -1.375 C 7.90625 -1.257812 8.289062 -1.179688 8.6875 -1.140625 C 9.914062 -1.015625 10.957031 -1.269531 11.8125 -1.90625 C 12.664062 -2.550781 13.160156 -3.535156 13.296875 -4.859375 C 13.359375 -5.359375 13.335938 -5.832031 13.234375 -6.28125 C 13.128906 -6.738281 12.929688 -7.140625 12.640625 -7.484375 C 12.359375 -7.828125 11.96875 -8.113281 11.46875 -8.34375 C 10.96875 -8.570312 10.347656 -8.722656 9.609375 -8.796875 C 8.847656 -8.878906 8.023438 -8.875 7.140625 -8.78125 Z M 8.109375 -17.265625 C 7.984375 -16.472656 7.867188 -15.585938 7.765625 -14.609375 C 7.660156 -13.640625 7.539062 -12.507812 7.40625 -11.21875 C 7.707031 -11.15625 7.984375 -11.097656 8.234375 -11.046875 C 8.492188 -11.003906 8.75 -10.96875 9 -10.9375 C 10.445312 -10.78125 11.53125 -10.96875 12.25 -11.5 C 12.96875 -12.039062 13.378906 -12.820312 13.484375 -13.84375 C 13.523438 -14.25 13.515625 -14.648438 13.453125 -15.046875 C 13.390625 -15.441406 13.242188 -15.800781 13.015625 -16.125 C 12.785156 -16.445312 12.472656 -16.71875 12.078125 -16.9375 C 11.679688 -17.15625 11.160156 -17.300781 10.515625 -17.375 C 10.117188 -17.414062 9.722656 -17.421875 9.328125 -17.390625 C 8.941406 -17.359375 8.535156 -17.316406 8.109375 -17.265625 Z M 8.109375 -17.265625 "/></g></g></g><g fill="#fffcf5" fill-opacity="1"><g transform="translate(116.808593, 295.598252)"><g><path d="M 0.328125 0.390625 C 1.023438 -1.546875 1.710938 -3.398438 2.390625 -5.171875 C 3.078125 -6.941406 3.785156 -8.660156 4.515625 -10.328125 C 5.242188 -11.992188 6.015625 -13.625 6.828125 -15.21875 C 7.648438 -16.8125 8.519531 -18.398438 9.4375 -19.984375 L 13.15625 -20.046875 C 13.800781 -18.347656 14.390625 -16.65625 14.921875 -14.96875 C 15.453125 -13.289062 15.945312 -11.566406 16.40625 -9.796875 C 16.863281 -8.023438 17.289062 -6.203125 17.6875 -4.328125 C 18.082031 -2.460938 18.460938 -0.507812 18.828125 1.53125 L 14.796875 1.578125 C 14.597656 0.492188 14.40625 -0.578125 14.21875 -1.640625 C 14.03125 -2.710938 13.84375 -3.789062 13.65625 -4.875 L 6.375 -5.46875 C 6.03125 -4.519531 5.6875 -3.566406 5.34375 -2.609375 C 5.007812 -1.648438 4.691406 -0.660156 4.390625 0.359375 Z M 11.03125 -16.515625 C 9.65625 -13.816406 8.425781 -11.015625 7.34375 -8.109375 L 13.125 -7.640625 C 12.820312 -9.148438 12.5 -10.648438 12.15625 -12.140625 C 11.820312 -13.640625 11.445312 -15.097656 11.03125 -16.515625 Z M 11.03125 -16.515625 "/></g></g></g><g fill="#fffcf5" fill-opacity="1"><g transform="translate(136.231972, 297.167013)"><g><path d="M 8.171875 -2.546875 C 9.410156 -2.484375 10.34375 -2.648438 10.96875 -3.046875 C 11.59375 -3.441406 11.925781 -4.050781 11.96875 -4.875 C 12 -5.382812 11.914062 -5.820312 11.71875 -6.1875 C 11.53125 -6.550781 11.257812 -6.867188 10.90625 -7.140625 C 10.5625 -7.421875 10.148438 -7.671875 9.671875 -7.890625 C 9.203125 -8.109375 8.71875 -8.320312 8.21875 -8.53125 C 7.289062 -8.894531 6.457031 -9.253906 5.71875 -9.609375 C 4.976562 -9.972656 4.347656 -10.378906 3.828125 -10.828125 C 3.316406 -11.285156 2.929688 -11.832031 2.671875 -12.46875 C 2.410156 -13.113281 2.304688 -13.890625 2.359375 -14.796875 C 2.429688 -16.078125 2.753906 -17.101562 3.328125 -17.875 C 3.898438 -18.65625 4.585938 -19.242188 5.390625 -19.640625 C 6.203125 -20.035156 7.078125 -20.28125 8.015625 -20.375 C 8.960938 -20.46875 9.835938 -20.488281 10.640625 -20.4375 C 11.671875 -20.375 12.640625 -20.238281 13.546875 -20.03125 C 14.460938 -19.820312 15.253906 -19.625 15.921875 -19.4375 L 15.71875 -16 C 14.800781 -16.332031 13.84375 -16.613281 12.84375 -16.84375 C 11.851562 -17.082031 10.945312 -17.222656 10.125 -17.265625 C 8.707031 -17.347656 7.65625 -17.15625 6.96875 -16.6875 C 6.289062 -16.21875 5.929688 -15.628906 5.890625 -14.921875 C 5.859375 -14.390625 5.984375 -13.941406 6.265625 -13.578125 C 6.546875 -13.210938 6.898438 -12.890625 7.328125 -12.609375 C 7.765625 -12.328125 8.226562 -12.097656 8.71875 -11.921875 C 9.21875 -11.753906 9.671875 -11.59375 10.078125 -11.4375 C 10.773438 -11.195312 11.46875 -10.914062 12.15625 -10.59375 C 12.851562 -10.269531 13.476562 -9.851562 14.03125 -9.34375 C 14.582031 -8.84375 15.015625 -8.226562 15.328125 -7.5 C 15.640625 -6.78125 15.765625 -5.910156 15.703125 -4.890625 C 15.648438 -3.867188 15.414062 -2.984375 15 -2.234375 C 14.59375 -1.492188 14.046875 -0.882812 13.359375 -0.40625 C 12.671875 0.0625 11.867188 0.394531 10.953125 0.59375 C 10.035156 0.800781 9.035156 0.875 7.953125 0.8125 C 7.003906 0.757812 5.953125 0.597656 4.796875 0.328125 C 3.640625 0.0664062 2.507812 -0.300781 1.40625 -0.78125 L 1.5 -4.421875 C 1.851562 -4.222656 2.289062 -4.023438 2.8125 -3.828125 C 3.332031 -3.628906 3.894531 -3.4375 4.5 -3.25 C 5.101562 -3.070312 5.722656 -2.921875 6.359375 -2.796875 C 6.992188 -2.671875 7.597656 -2.585938 8.171875 -2.546875 Z M 8.171875 -2.546875 "/></g></g></g><g fill="#fffcf5" fill-opacity="1"><g transform="translate(152.952867, 298.156921)"><g><path d="M 19.609375 -20.0625 C 19.523438 -19.4375 19.457031 -18.789062 19.40625 -18.125 C 19.351562 -17.46875 19.3125 -16.738281 19.28125 -15.9375 C 19.25 -15.144531 19.210938 -14.257812 19.171875 -13.28125 C 19.128906 -12.300781 19.085938 -11.179688 19.046875 -9.921875 C 19.003906 -8.734375 18.96875 -7.660156 18.9375 -6.703125 C 18.90625 -5.753906 18.878906 -4.863281 18.859375 -4.03125 C 18.847656 -3.207031 18.832031 -2.421875 18.8125 -1.671875 C 18.789062 -0.921875 18.78125 -0.160156 18.78125 0.609375 L 14.625 0.46875 C 14.664062 -0.351562 14.707031 -1.082031 14.75 -1.71875 C 14.789062 -2.351562 14.835938 -3.003906 14.890625 -3.671875 C 14.941406 -4.347656 14.988281 -5.070312 15.03125 -5.84375 C 15.082031 -6.613281 15.125 -7.550781 15.15625 -8.65625 L 6.46875 -8.9375 C 6.4375 -7.988281 6.40625 -7.101562 6.375 -6.28125 C 6.351562 -5.46875 6.332031 -4.691406 6.3125 -3.953125 C 6.300781 -3.210938 6.289062 -2.5 6.28125 -1.8125 C 6.269531 -1.132812 6.265625 -0.460938 6.265625 0.203125 L 2.09375 0.0625 C 2.144531 -0.882812 2.195312 -1.710938 2.25 -2.421875 C 2.300781 -3.140625 2.347656 -3.882812 2.390625 -4.65625 C 2.441406 -5.4375 2.492188 -6.328125 2.546875 -7.328125 C 2.597656 -8.335938 2.644531 -9.601562 2.6875 -11.125 C 2.738281 -12.644531 2.78125 -14.15625 2.8125 -15.65625 C 2.84375 -17.15625 2.851562 -18.703125 2.84375 -20.296875 L 7.09375 -20.46875 C 7.007812 -19.90625 6.941406 -19.320312 6.890625 -18.71875 C 6.835938 -18.113281 6.796875 -17.460938 6.765625 -16.765625 C 6.734375 -16.066406 6.695312 -15.300781 6.65625 -14.46875 C 6.625 -13.632812 6.59375 -12.695312 6.5625 -11.65625 L 15.25 -11.375 C 15.289062 -12.769531 15.316406 -14.171875 15.328125 -15.578125 C 15.347656 -16.984375 15.359375 -18.421875 15.359375 -19.890625 Z M 19.609375 -20.0625 "/></g></g></g><g fill="#fffcf5" fill-opacity="1"><g transform="translate(174.12042, 298.77532)"><g/></g></g><g fill="#fffcf5" fill-opacity="1"><g transform="translate(180.531291, 298.910588)"><g><path d="M 2.15625 -20.390625 C 2.570312 -20.472656 3.023438 -20.550781 3.515625 -20.625 C 4.003906 -20.707031 4.507812 -20.78125 5.03125 -20.84375 C 5.5625 -20.914062 6.09375 -20.960938 6.625 -20.984375 C 7.15625 -21.015625 7.664062 -21.03125 8.15625 -21.03125 C 9.632812 -21.03125 10.851562 -20.878906 11.8125 -20.578125 C 12.78125 -20.285156 13.546875 -19.894531 14.109375 -19.40625 C 14.671875 -18.925781 15.0625 -18.382812 15.28125 -17.78125 C 15.5 -17.175781 15.609375 -16.582031 15.609375 -16 C 15.609375 -15.46875 15.53125 -14.929688 15.375 -14.390625 C 15.21875 -13.859375 14.972656 -13.363281 14.640625 -12.90625 C 14.304688 -12.457031 13.875 -12.066406 13.34375 -11.734375 C 12.8125 -11.410156 12.179688 -11.191406 11.453125 -11.078125 C 12.359375 -10.992188 13.140625 -10.796875 13.796875 -10.484375 C 14.460938 -10.171875 15.007812 -9.78125 15.4375 -9.3125 C 15.875 -8.84375 16.191406 -8.3125 16.390625 -7.71875 C 16.585938 -7.125 16.6875 -6.503906 16.6875 -5.859375 C 16.6875 -5.066406 16.535156 -4.300781 16.234375 -3.5625 C 15.929688 -2.820312 15.414062 -2.164062 14.6875 -1.59375 C 13.957031 -1.019531 12.988281 -0.554688 11.78125 -0.203125 C 10.570312 0.140625 9.066406 0.3125 7.265625 0.3125 C 6.910156 0.3125 6.507812 0.304688 6.0625 0.296875 C 5.625 0.285156 5.171875 0.265625 4.703125 0.234375 C 4.242188 0.210938 3.785156 0.179688 3.328125 0.140625 C 2.878906 0.109375 2.46875 0.0625 2.09375 0 C 2.132812 -0.945312 2.171875 -1.773438 2.203125 -2.484375 C 2.234375 -3.191406 2.253906 -3.941406 2.265625 -4.734375 C 2.285156 -5.535156 2.296875 -6.441406 2.296875 -7.453125 C 2.304688 -8.472656 2.3125 -9.773438 2.3125 -11.359375 C 2.300781 -12.773438 2.285156 -14.234375 2.265625 -15.734375 C 2.253906 -17.242188 2.21875 -18.796875 2.15625 -20.390625 Z M 6.15625 -9.5 C 6.15625 -8.082031 6.15625 -6.804688 6.15625 -5.671875 C 6.164062 -4.546875 6.179688 -3.476562 6.203125 -2.46875 C 6.578125 -2.351562 6.957031 -2.257812 7.34375 -2.1875 C 7.726562 -2.113281 8.117188 -2.078125 8.515625 -2.078125 C 9.753906 -2.078125 10.765625 -2.441406 11.546875 -3.171875 C 12.328125 -3.898438 12.710938 -4.925781 12.703125 -6.25 C 12.703125 -6.757812 12.625 -7.234375 12.46875 -7.671875 C 12.320312 -8.109375 12.085938 -8.484375 11.765625 -8.796875 C 11.441406 -9.109375 11.019531 -9.351562 10.5 -9.53125 C 9.988281 -9.707031 9.359375 -9.796875 8.609375 -9.796875 C 7.847656 -9.796875 7.03125 -9.695312 6.15625 -9.5 Z M 6.203125 -18.046875 C 6.160156 -17.242188 6.140625 -16.351562 6.140625 -15.375 C 6.140625 -14.394531 6.144531 -13.253906 6.15625 -11.953125 C 6.457031 -11.921875 6.738281 -11.894531 7 -11.875 C 7.269531 -11.851562 7.53125 -11.84375 7.78125 -11.84375 C 9.238281 -11.84375 10.289062 -12.144531 10.9375 -12.75 C 11.582031 -13.363281 11.90625 -14.179688 11.90625 -15.203125 C 11.90625 -15.617188 11.851562 -16.019531 11.75 -16.40625 C 11.644531 -16.789062 11.460938 -17.128906 11.203125 -17.421875 C 10.941406 -17.722656 10.597656 -17.960938 10.171875 -18.140625 C 9.753906 -18.316406 9.222656 -18.40625 8.578125 -18.40625 C 8.179688 -18.40625 7.789062 -18.367188 7.40625 -18.296875 C 7.019531 -18.234375 6.617188 -18.148438 6.203125 -18.046875 Z M 6.203125 -18.046875 "/></g></g></g><g fill="#fffcf5" fill-opacity="1"><g transform="translate(198.375265, 298.890832)"><g><path d="M 5.734375 -7.40625 C 5.765625 -6.550781 5.898438 -5.828125 6.140625 -5.234375 C 6.390625 -4.640625 6.710938 -4.15625 7.109375 -3.78125 C 7.503906 -3.40625 7.945312 -3.132812 8.4375 -2.96875 C 8.9375 -2.8125 9.441406 -2.738281 9.953125 -2.75 C 10.390625 -2.757812 10.835938 -2.859375 11.296875 -3.046875 C 11.753906 -3.242188 12.175781 -3.539062 12.5625 -3.9375 C 12.945312 -4.332031 13.257812 -4.828125 13.5 -5.421875 C 13.738281 -6.015625 13.859375 -6.726562 13.859375 -7.5625 C 13.859375 -8.15625 13.847656 -8.804688 13.828125 -9.515625 C 13.816406 -10.222656 13.796875 -11.140625 13.765625 -12.265625 C 13.734375 -13.679688 13.691406 -15.082031 13.640625 -16.46875 C 13.585938 -17.863281 13.507812 -19.296875 13.40625 -20.765625 L 17.625 -21.171875 C 17.582031 -20.585938 17.550781 -19.984375 17.53125 -19.359375 C 17.519531 -18.734375 17.519531 -18.050781 17.53125 -17.3125 C 17.539062 -16.582031 17.550781 -15.757812 17.5625 -14.84375 C 17.582031 -13.925781 17.609375 -12.875 17.640625 -11.6875 L 17.734375 -7.84375 C 17.765625 -6.625 17.570312 -5.53125 17.15625 -4.5625 C 16.738281 -3.59375 16.171875 -2.769531 15.453125 -2.09375 C 14.734375 -1.414062 13.882812 -0.890625 12.90625 -0.515625 C 11.9375 -0.140625 10.910156 0.0625 9.828125 0.09375 C 8.742188 0.125 7.722656 -0.0195312 6.765625 -0.34375 C 5.804688 -0.675781 4.96875 -1.164062 4.25 -1.8125 C 3.53125 -2.457031 2.957031 -3.253906 2.53125 -4.203125 C 2.101562 -5.148438 1.875 -6.222656 1.84375 -7.421875 C 1.832031 -7.992188 1.820312 -8.640625 1.8125 -9.359375 C 1.8125 -10.078125 1.796875 -10.941406 1.765625 -11.953125 C 1.734375 -13.367188 1.691406 -14.769531 1.640625 -16.15625 C 1.585938 -17.550781 1.507812 -18.976562 1.40625 -20.4375 L 5.609375 -20.859375 C 5.578125 -20.273438 5.550781 -19.664062 5.53125 -19.03125 C 5.519531 -18.40625 5.515625 -17.722656 5.515625 -16.984375 C 5.515625 -16.253906 5.523438 -15.429688 5.546875 -14.515625 C 5.578125 -13.597656 5.609375 -12.546875 5.640625 -11.359375 Z M 5.734375 -7.40625 "/></g></g></g><g fill="#fffcf5" fill-opacity="1"><g transform="translate(218.648269, 298.33861)"><g><path d="M 1.09375 -20.484375 C 1.875 -20.691406 2.832031 -20.890625 3.96875 -21.078125 C 5.113281 -21.273438 6.375 -21.414062 7.75 -21.5 C 9.3125 -21.582031 10.710938 -21.410156 11.953125 -20.984375 C 13.191406 -20.566406 14.253906 -19.9375 15.140625 -19.09375 C 16.023438 -18.257812 16.722656 -17.222656 17.234375 -15.984375 C 17.753906 -14.753906 18.054688 -13.367188 18.140625 -11.828125 C 18.222656 -10.210938 18.046875 -8.707031 17.609375 -7.3125 C 17.179688 -5.925781 16.535156 -4.710938 15.671875 -3.671875 C 14.816406 -2.628906 13.765625 -1.789062 12.515625 -1.15625 C 11.265625 -0.53125 9.851562 -0.171875 8.28125 -0.078125 C 6.914062 -0.00390625 5.707031 0.0195312 4.65625 0 C 3.601562 -0.0195312 2.75 -0.0546875 2.09375 -0.109375 C 2.0625 -1.054688 2.039062 -1.890625 2.03125 -2.609375 C 2.03125 -3.335938 2.019531 -4.085938 2 -4.859375 C 1.976562 -5.628906 1.945312 -6.515625 1.90625 -7.515625 C 1.863281 -8.523438 1.804688 -9.789062 1.734375 -11.3125 C 1.648438 -12.832031 1.554688 -14.34375 1.453125 -15.84375 C 1.359375 -17.34375 1.238281 -18.890625 1.09375 -20.484375 Z M 7.484375 -18.8125 C 7.148438 -18.789062 6.789062 -18.734375 6.40625 -18.640625 C 6.03125 -18.554688 5.644531 -18.453125 5.25 -18.328125 C 5.257812 -17.378906 5.296875 -16.316406 5.359375 -15.140625 C 5.421875 -13.960938 5.5 -12.53125 5.59375 -10.84375 C 5.6875 -9.082031 5.765625 -7.5625 5.828125 -6.28125 C 5.898438 -5.007812 5.976562 -3.8125 6.0625 -2.6875 C 6.488281 -2.507812 6.945312 -2.4375 7.4375 -2.46875 C 8.445312 -2.519531 9.378906 -2.726562 10.234375 -3.09375 C 11.097656 -3.457031 11.835938 -4 12.453125 -4.71875 C 13.066406 -5.445312 13.53125 -6.359375 13.84375 -7.453125 C 14.15625 -8.546875 14.273438 -9.859375 14.203125 -11.390625 C 14.117188 -12.890625 13.90625 -14.128906 13.5625 -15.109375 C 13.226562 -16.085938 12.765625 -16.859375 12.171875 -17.421875 C 11.585938 -17.992188 10.898438 -18.378906 10.109375 -18.578125 C 9.328125 -18.785156 8.453125 -18.863281 7.484375 -18.8125 Z M 7.484375 -18.8125 "/></g></g></g><g fill="#fffcf5" fill-opacity="1"><g transform="translate(238.691608, 297.257794)"><g><path d="M 0.546875 -20.5 C 1.316406 -20.726562 2.269531 -20.957031 3.40625 -21.1875 C 4.550781 -21.414062 5.804688 -21.585938 7.171875 -21.703125 C 8.734375 -21.828125 10.132812 -21.691406 11.375 -21.296875 C 12.625 -20.910156 13.703125 -20.304688 14.609375 -19.484375 C 15.523438 -18.671875 16.253906 -17.65625 16.796875 -16.4375 C 17.347656 -15.21875 17.6875 -13.84375 17.8125 -12.3125 C 17.945312 -10.695312 17.816406 -9.1875 17.421875 -7.78125 C 17.023438 -6.375 16.410156 -5.140625 15.578125 -4.078125 C 14.742188 -3.015625 13.710938 -2.148438 12.484375 -1.484375 C 11.253906 -0.828125 9.851562 -0.429688 8.28125 -0.296875 C 6.925781 -0.191406 5.71875 -0.132812 4.65625 -0.125 C 3.601562 -0.113281 2.75 -0.128906 2.09375 -0.171875 C 2.039062 -1.117188 2 -1.945312 1.96875 -2.65625 C 1.945312 -3.375 1.914062 -4.125 1.875 -4.90625 C 1.832031 -5.6875 1.773438 -6.578125 1.703125 -7.578125 C 1.640625 -8.578125 1.550781 -9.835938 1.4375 -11.359375 C 1.3125 -12.867188 1.179688 -14.375 1.046875 -15.875 C 0.910156 -17.375 0.742188 -18.914062 0.546875 -20.5 Z M 6.984375 -19.015625 C 6.648438 -18.984375 6.296875 -18.914062 5.921875 -18.8125 C 5.546875 -18.71875 5.160156 -18.601562 4.765625 -18.46875 C 4.804688 -17.53125 4.875 -16.46875 4.96875 -15.28125 C 5.0625 -14.101562 5.175781 -12.675781 5.3125 -11 C 5.457031 -9.238281 5.578125 -7.71875 5.671875 -6.4375 C 5.773438 -5.164062 5.882812 -3.972656 6 -2.859375 C 6.425781 -2.691406 6.878906 -2.628906 7.359375 -2.671875 C 8.367188 -2.753906 9.300781 -2.984375 10.15625 -3.359375 C 11.007812 -3.742188 11.726562 -4.304688 12.3125 -5.046875 C 12.90625 -5.785156 13.34375 -6.707031 13.625 -7.8125 C 13.914062 -8.914062 14.003906 -10.234375 13.890625 -11.765625 C 13.765625 -13.253906 13.519531 -14.484375 13.15625 -15.453125 C 12.789062 -16.421875 12.304688 -17.179688 11.703125 -17.734375 C 11.097656 -18.296875 10.398438 -18.664062 9.609375 -18.84375 C 8.828125 -19.03125 7.953125 -19.085938 6.984375 -19.015625 Z M 6.984375 -19.015625 "/></g></g></g><g fill="#fffcf5" fill-opacity="1"><g transform="translate(258.688699, 295.636729)"><g><path d="M 15.546875 -22.8125 C 15.203125 -21.507812 14.84375 -20.253906 14.46875 -19.046875 C 14.101562 -17.835938 13.703125 -16.65625 13.265625 -15.5 C 12.835938 -14.351562 12.378906 -13.21875 11.890625 -12.09375 C 11.398438 -10.976562 10.847656 -9.863281 10.234375 -8.75 C 10.398438 -7.257812 10.550781 -5.910156 10.6875 -4.703125 C 10.820312 -3.503906 10.972656 -2.332031 11.140625 -1.1875 L 6.984375 -0.75 C 6.929688 -1.457031 6.882812 -2.09375 6.84375 -2.65625 C 6.800781 -3.226562 6.757812 -3.789062 6.71875 -4.34375 C 6.6875 -4.894531 6.648438 -5.472656 6.609375 -6.078125 C 6.566406 -6.691406 6.503906 -7.378906 6.421875 -8.140625 C 4.785156 -9.992188 3.328125 -11.9375 2.046875 -13.96875 C 0.765625 -16 -0.476562 -18.21875 -1.6875 -20.625 L 2.265625 -21.40625 C 2.691406 -20.625 3.125 -19.804688 3.5625 -18.953125 C 4 -18.109375 4.445312 -17.265625 4.90625 -16.421875 C 5.375 -15.585938 5.859375 -14.753906 6.359375 -13.921875 C 6.867188 -13.097656 7.414062 -12.316406 8 -11.578125 C 8.820312 -13.210938 9.492188 -14.894531 10.015625 -16.625 C 10.535156 -18.351562 11.046875 -20.15625 11.546875 -22.03125 Z M 15.546875 -22.8125 "/></g></g></g></svg>