<?xml version="1.0" encoding="UTF-8" standalone="no"?>
<svg
   width="303.53714"
   zoomAndPan="magnify"
   viewBox="0 0 227.65285 278.32678"
   height="371.10239"
   preserveAspectRatio="xMidYMid"
   version="1.0"
   id="svg101"
   sodipodi:docname="BlossomBuds.svg"
   inkscape:version="1.2.2 (732a01da63, 2022-12-09)"
   xmlns:inkscape="http://www.inkscape.org/namespaces/inkscape"
   xmlns:sodipodi="http://sodipodi.sourceforge.net/DTD/sodipodi-0.dtd"
   xmlns="http://www.w3.org/2000/svg"
   xmlns:svg="http://www.w3.org/2000/svg">
  <sodipodi:namedview
     id="namedview103"
     pagecolor="#ffffff"
     bordercolor="#000000"
     borderopacity="0.25"
     inkscape:showpageshadow="2"
     inkscape:pageopacity="0.0"
     inkscape:pagecheckerboard="0"
     inkscape:deskcolor="#d1d1d1"
     showgrid="false"
     inkscape:zoom="1.674"
     inkscape:cx="67.801673"
     inkscape:cy="192.35364"
     inkscape:window-width="1920"
     inkscape:window-height="1017"
     inkscape:window-x="1912"
     inkscape:window-y="-8"
     inkscape:window-maximized="1"
     inkscape:current-layer="svg101" />
  <defs
     id="defs7">
    <g
       id="g2" />
    <clipPath
       id="6fb28ba060">
      <path
         d="M 73.660156,43.214844 H 301.66016 V 260.71484 H 73.660156 Z m 0,0"
         clip-rule="nonzero"
         id="path4" />
    </clipPath>
  </defs>
  <g
     clip-path="url(#6fb28ba060)"
     id="g11"
     transform="translate(-73.850097,-43.230469)">
    <path
       fill="#fb7ea2"
       d="m 217.08594,152.57812 c -2.30078,0.7461 -4.75391,-0.25781 -5.90625,-2.27343 l -12.73438,4.125 c 0.17188,0.76172 0.26172,1.55078 0.26172,2.36328 0,3.28125 -1.45703,6.23047 -3.75781,8.24219 l 7.875,10.8164 c 2.125,-0.95312 4.69922,-0.33203 6.11719,1.625 1.63281,2.23438 1.13281,5.36719 -1.10938,6.99219 -2.24219,1.625 -5.37891,1.12891 -7.00781,-1.10938 -1.42578,-1.94921 -1.22656,-4.58593 0.33984,-6.30468 l -7.8789,-10.82032 c -1.63282,0.96485 -3.53516,1.51954 -5.56641,1.51954 -2.05078,0 -3.96875,-0.56641 -5.61328,-1.54297 l -7.87891,10.8125 c 1.56641,1.71875 1.76563,4.35547 0.34375,6.30859 -1.6289,2.23438 -4.76953,2.73047 -7.01172,1.10547 -2.24218,-1.625 -2.73828,-4.75391 -1.10937,-6.99219 1.42187,-1.95312 3.99609,-2.57812 6.11719,-1.625 L 180.44531,165 c -2.27734,-2.01172 -3.71484,-4.94531 -3.71484,-8.20703 0,-0.82813 0.0937,-1.63672 0.27344,-2.41406 l -12.73047,-4.125 c -1.15625,2.01562 -3.60547,3.01953 -5.90625,2.27343 -2.63672,-0.85547 -4.08203,-3.67968 -3.22657,-6.30859 0.85938,-2.63281 3.69141,-4.07031 6.32422,-3.21484 2.30469,0.74609 3.69532,2.99218 3.44141,5.30078 l 12.73437,4.1289 c 1.5625,-3.58984 5,-6.1875 9.07422,-6.55468 v -13.34375 c -2.27734,-0.47266 -3.99218,-2.48829 -3.99218,-4.90235 0,-2.76172 2.24609,-5.0039 5.01953,-5.0039 2.77343,0 5.01953,2.24218 5.01953,5.0039 0,2.41406 -1.71485,4.42969 -3.99219,4.90235 v 13.34765 c 4.07031,0.38672 7.5,2.9961 9.05078,6.59766 l 12.72266,-4.125 c -0.25391,-2.3086 1.13672,-4.5586 3.4414,-5.30469 2.63672,-0.85156 5.46875,0.58594 6.32422,3.21875 0.85547,2.62891 -0.58593,5.45313 -3.22265,6.30859 z m 83.89453,-15.03906 c -0.36328,-1.32812 -0.91016,-2.60156 -1.6211,-3.78125 -0.28515,-0.46875 -0.59375,-0.92578 -0.92968,-1.36328 -0.66797,-0.875 -1.4375,-1.67969 -2.29688,-2.39453 -0.42578,-0.35547 -0.8789,-0.69141 -1.35156,-1 -1.64844,-1.08203 -3.55469,-1.85937 -5.66016,-2.21875 l -2.04297,-0.34766 c -0.36328,-0.0625 -0.67187,-0.22265 -0.91406,-0.4375 -0.125,-0.10937 -0.22656,-0.23437 -0.3164,-0.37109 -0.0859,-0.13281 -0.15625,-0.28125 -0.20313,-0.42969 -0.0508,-0.15234 -0.0781,-0.3125 -0.0898,-0.47265 -0.0195,-0.31641 0.0469,-0.64453 0.20703,-0.94532 0.082,-0.14843 0.18359,-0.29296 0.3125,-0.42578 l 1.57031,-1.60937 c 1.0625,-1.08985 1.91797,-2.28516 2.57422,-3.55078 0.65234,-1.26172 1.11328,-2.59375 1.375,-3.95313 0.0508,-0.26953 0.0977,-0.54297 0.13281,-0.8164 0.0742,-0.54688 0.1211,-1.09375 0.13281,-1.64454 0.0195,-0.82031 -0.0273,-1.64453 -0.14453,-2.45703 -0.11328,-0.8164 -0.29297,-1.62109 -0.54297,-2.40625 -0.24609,-0.78515 -0.55859,-1.55078 -0.9375,-2.28906 -0.25,-0.49609 -0.53125,-0.97266 -0.83984,-1.44141 -0.61719,-0.92968 -1.34766,-1.80078 -2.1875,-2.58984 -0.83984,-0.789062 -1.78906,-1.496094 -2.84375,-2.097656 -0.34766,-0.199219 -0.69922,-0.390625 -1.05078,-0.578125 -0.11719,-0.0625 -0.23438,-0.121094 -0.35156,-0.179688 -0.23828,-0.121093 -0.48047,-0.25 -0.72657,-0.367187 -0.14062,-0.07031 -0.28906,-0.132813 -0.42968,-0.203125 -0.22266,-0.105469 -0.44922,-0.210938 -0.67578,-0.3125 -0.15625,-0.07031 -0.3125,-0.132813 -0.46875,-0.203125 -0.21875,-0.09375 -0.44141,-0.1875 -0.66407,-0.277344 -0.16406,-0.06641 -0.32422,-0.132812 -0.48828,-0.195312 -0.22265,-0.08984 -0.44922,-0.171876 -0.67969,-0.257813 -0.16015,-0.0625 -0.32812,-0.121094 -0.49218,-0.179687 -0.23438,-0.08203 -0.46875,-0.164063 -0.70313,-0.242188 -0.16406,-0.05469 -0.32812,-0.109375 -0.49219,-0.164062 -0.25,-0.07813 -0.5039,-0.152344 -0.75781,-0.230469 -0.15234,-0.04687 -0.30469,-0.08984 -0.46094,-0.136719 -0.30859,-0.08594 -0.6289,-0.171875 -0.94531,-0.253906 -0.0976,-0.02344 -0.19531,-0.05469 -0.29297,-0.07813 -0.41406,-0.101563 -0.83203,-0.199219 -1.2539,-0.292969 -0.13672,-0.03125 -0.27344,-0.05469 -0.41407,-0.08203 -0.28906,-0.0625 -0.58203,-0.125 -0.875,-0.179688 -0.17187,-0.03125 -0.34765,-0.05859 -0.51953,-0.08984 -0.26562,-0.04688 -0.53125,-0.08984 -0.80078,-0.132813 -0.18359,-0.02734 -0.37109,-0.05469 -0.55859,-0.08203 -0.25781,-0.03906 -0.51953,-0.07422 -0.78516,-0.105469 -0.1914,-0.02344 -0.38672,-0.04687 -0.58203,-0.07031 -0.26172,-0.02734 -0.52344,-0.05469 -0.78906,-0.08203 -0.19531,-0.01953 -0.39453,-0.03516 -0.58985,-0.05469 -0.27343,-0.01953 -0.54296,-0.03906 -0.82031,-0.05859 -0.1914,-0.01172 -0.38281,-0.02734 -0.57812,-0.03516 -0.29297,-0.01563 -0.58594,-0.02734 -0.88672,-0.03906 -0.17578,-0.0078 -0.35547,-0.01563 -0.53516,-0.01953 -0.34765,-0.0078 -0.69922,-0.01563 -1.05078,-0.01563 -0.13281,0 -0.26562,-0.0039 -0.39844,-0.0039 -0.12109,0 -0.24218,0 -0.36328,0.0039 -0.3125,0 -0.625,0.0039 -0.9414,0.01172 -0.16407,0.0078 -0.32813,0.01172 -0.4961,0.01563 -0.27344,0.01172 -0.54687,0.02344 -0.82422,0.03516 -0.18359,0.0078 -0.36718,0.01953 -0.54687,0.03125 -0.26563,0.01563 -0.53125,0.03125 -0.79688,0.05078 -0.1875,0.01172 -0.3789,0.02734 -0.57031,0.04297 -0.26562,0.01953 -0.53516,0.04687 -0.80078,0.07031 -0.19141,0.01953 -0.37891,0.03516 -0.57031,0.05469 -0.28125,0.03125 -0.5625,0.0625 -0.83985,0.09375 -0.18359,0.02344 -0.36328,0.04297 -0.54687,0.06641 -0.31641,0.03906 -0.63672,0.08594 -0.95703,0.132813 -0.14844,0.01953 -0.29297,0.03906 -0.44532,0.05859 -0.46484,0.07031 -0.93359,0.144531 -1.40234,0.226562 -0.10937,0.01563 -0.21875,0.03906 -0.32422,0.05859 -0.37109,0.0625 -0.74219,0.128906 -1.11328,0.199218 -0.17969,0.03516 -0.35937,0.07422 -0.53906,0.109376 -0.30469,0.0625 -0.60938,0.121093 -0.91797,0.1875 -0.19922,0.04297 -0.39453,0.08594 -0.59766,0.128906 -0.29297,0.06641 -0.58593,0.132812 -0.88281,0.203125 -0.20312,0.04687 -0.41016,0.09766 -0.61719,0.144531 -0.29297,0.07422 -0.58984,0.148438 -0.88672,0.222656 -0.20703,0.05078 -0.41015,0.105469 -0.62109,0.160156 -0.30469,0.08203 -0.61328,0.164063 -0.92187,0.25 -0.19532,0.05469 -0.39454,0.109376 -0.59375,0.164063 -0.33985,0.09766 -0.6836,0.199219 -1.02735,0.300781 -0.16797,0.05078 -0.33594,0.09766 -0.5039,0.148438 -0.51172,0.15625 -1.02735,0.316406 -1.54688,0.484375 -0.44922,0.148437 -0.89844,0.300781 -1.34375,0.460937 -3.56641,1.292969 -7.01953,3.089848 -10.33984,5.253908 -0.0508,0.0312 -0.0977,0.0664 -0.14844,0.0977 -0.82813,2.73437 -1.85156,5.52734 -3.07422,8.375 -0.0156,0.0391 -0.0352,0.082 -0.0508,0.12109 -6.48828,14.99219 -17.31641,28.83203 -25.50391,38.03125 -0.78515,-1.4414 -1.79297,-2.74219 -2.97265,-3.86719 2.40234,-2.72656 5.03125,-5.85156 7.69531,-9.28906 0.57031,-0.73828 1.14062,-1.48828 1.71094,-2.25 2.0039,-2.67187 4.0039,-5.50781 5.92187,-8.46484 3.28516,-5.0625 6.33594,-10.48438 8.7461,-16.05469 v -0.004 c 0.19921,-0.45704 0.39062,-0.91407 0.58203,-1.375 1.11328,-2.71485 2.07031,-5.45704 2.82422,-8.203134 0.28515,-1.042969 0.54687,-2.085938 0.77343,-3.128906 0.20313,-0.945313 0.38282,-1.894532 0.53516,-2.839844 0.375,-2.363281 0.57812,-4.722656 0.57812,-7.058594 0,-18.28125 -5.5625,-31.414062 -14.32812,-39.472656 -0.20703,-0.1875 -0.41406,-0.367188 -0.62891,-0.542969 -0.0625,-0.05469 -0.13281,-0.105469 -0.19531,-0.160156 -0.15234,-0.117187 -0.30469,-0.234375 -0.45703,-0.347656 -0.0781,-0.05469 -0.15234,-0.113281 -0.23047,-0.167969 -0.15625,-0.105469 -0.30859,-0.210938 -0.46875,-0.316406 -0.0703,-0.04297 -0.13672,-0.08984 -0.21094,-0.136719 -0.21484,-0.132813 -0.42968,-0.261719 -0.64843,-0.382813 -0.0117,-0.0078 -0.0234,-0.01562 -0.0352,-0.01953 -0.23438,-0.132812 -0.46875,-0.25 -0.70703,-0.367187 -0.0664,-0.03125 -0.13672,-0.0625 -0.20313,-0.09375 -0.17187,-0.08203 -0.34375,-0.15625 -0.51953,-0.230469 -0.082,-0.03516 -0.16406,-0.06641 -0.24219,-0.09766 -0.17187,-0.07031 -0.34375,-0.132813 -0.51562,-0.195313 -0.0742,-0.02734 -0.14844,-0.05469 -0.22266,-0.07813 C 208.14844,44.070312 207.92578,44 207.70312,43.9375 c -0.0273,-0.0078 -0.0508,-0.01563 -0.0742,-0.02344 -0.2461,-0.07031 -0.5,-0.132812 -0.75,-0.1875 -0.0703,-0.01562 -0.13672,-0.02734 -0.20313,-0.04297 -0.1875,-0.03906 -0.37109,-0.07422 -0.55469,-0.105469 -0.0859,-0.01172 -0.17187,-0.02734 -0.2539,-0.03906 -0.17578,-0.02734 -0.35157,-0.05078 -0.52735,-0.07031 -0.082,-0.0078 -0.16406,-0.01953 -0.24609,-0.02734 -0.21094,-0.01953 -0.42188,-0.03516 -0.63281,-0.04687 -0.043,-0.0039 -0.0859,-0.0078 -0.12891,-0.0078 -0.24609,-0.01172 -0.49609,-0.01953 -0.74219,-0.01563 -0.30859,0 -0.61328,0.0078 -0.91797,0.02734 -0.0508,0.0039 -0.10546,0.01172 -0.15625,0.01562 -0.2539,0.01953 -0.5039,0.04297 -0.75781,0.07422 -0.10156,0.01563 -0.20312,0.03125 -0.30078,0.04687 -0.20703,0.02734 -0.41016,0.0625 -0.61328,0.101563 -0.10938,0.01953 -0.21875,0.04297 -0.32813,0.06641 -0.19531,0.03906 -0.39453,0.08594 -0.59375,0.136719 -0.10156,0.02734 -0.20703,0.05469 -0.30859,0.08203 -0.21484,0.05859 -0.42969,0.125 -0.64453,0.195313 -0.0742,0.02344 -0.15625,0.04687 -0.23438,0.07422 -0.29296,0.101563 -0.58203,0.210938 -0.86718,0.328125 -0.0273,0.01172 -0.0547,0.02344 -0.0781,0.03516 -0.25781,0.109374 -0.51172,0.222656 -0.76562,0.347656 -0.082,0.04297 -0.16797,0.08594 -0.25391,0.132812 -0.19141,0.09766 -0.37891,0.199219 -0.56641,0.304688 -0.0977,0.05469 -0.1914,0.109375 -0.28515,0.167968 -0.17578,0.105469 -0.35156,0.214844 -0.52344,0.328126 -0.0898,0.05859 -0.18359,0.121093 -0.26953,0.183593 -0.18359,0.125 -0.36328,0.257813 -0.54297,0.390625 -0.0703,0.05469 -0.14453,0.109375 -0.21484,0.164063 -0.25,0.195312 -0.49219,0.398437 -0.72657,0.609375 -0.0117,0.01172 -0.0234,0.02344 -0.0391,0.03516 -0.21875,0.199219 -0.43359,0.410156 -0.64453,0.625 -0.0703,0.07031 -0.14062,0.148438 -0.20703,0.222656 -0.15234,0.160156 -0.29688,0.320313 -0.44141,0.488282 -0.0781,0.08984 -0.15234,0.179687 -0.22656,0.273437 -0.13281,0.160156 -0.26172,0.328125 -0.38672,0.496094 -0.0742,0.09766 -0.14453,0.191406 -0.21484,0.289062 -0.12891,0.183594 -0.25391,0.371094 -0.375,0.5625 -0.0586,0.08984 -0.11719,0.175781 -0.17188,0.265625 -0.17578,0.285156 -0.34375,0.570313 -0.5,0.871094 l -0.96875,1.832031 c -0.0586,0.117188 -0.13281,0.21875 -0.21093,0.3125 -0.0742,0.09375 -0.15625,0.175781 -0.2461,0.25 -0.0742,0.0625 -0.15234,0.121094 -0.23437,0.167969 -0.004,0 -0.004,0.0039 -0.008,0.0039 -0.14062,0.08203 -0.28906,0.140625 -0.44531,0.183594 -0.0547,0.01172 -0.10937,0.01953 -0.16797,0.03125 -0.0234,0.0039 -0.0469,0.01172 -0.0703,0.01563 -0.0391,0.0039 -0.082,0.0039 -0.125,0.0039 -0.0352,0.0039 -0.0742,0.01172 -0.11328,0.01172 -0.0391,0 -0.0781,-0.0078 -0.11719,-0.01172 -0.0391,0 -0.082,0 -0.12109,-0.0039 -0.0742,-0.01172 -0.14844,-0.02734 -0.22266,-0.04297 -0.004,-0.0039 -0.0117,-0.0039 -0.0156,-0.0039 -0.0391,-0.01172 -0.0742,-0.02734 -0.11328,-0.03906 -0.11719,-0.03906 -0.22657,-0.08203 -0.33204,-0.144532 -0.004,0 -0.004,-0.0039 -0.008,-0.0039 -0.28125,-0.164062 -0.52344,-0.40625 -0.69531,-0.730469 l -1.04688,-1.988281 c -0.16015,-0.300781 -0.32812,-0.585938 -0.5,-0.867188 -0.0547,-0.09375 -0.11718,-0.179687 -0.17187,-0.269531 -0.12109,-0.1875 -0.24609,-0.375 -0.375,-0.554687 -0.0703,-0.101563 -0.14453,-0.199219 -0.21484,-0.296875 -0.125,-0.164063 -0.25391,-0.332031 -0.38282,-0.488281 -0.0781,-0.09375 -0.15234,-0.1875 -0.23437,-0.28125 -0.14063,-0.160157 -0.28125,-0.320313 -0.42969,-0.476563 -0.0703,-0.07813 -0.14062,-0.15625 -0.21484,-0.230469 -0.20703,-0.210937 -0.41797,-0.417968 -0.63672,-0.613281 -0.0156,-0.01563 -0.0273,-0.03125 -0.043,-0.04297 -0.23438,-0.210937 -0.47266,-0.410156 -0.71484,-0.601562 -0.082,-0.0625 -0.16407,-0.125 -0.2461,-0.1875 -0.16797,-0.125 -0.33594,-0.25 -0.50781,-0.367188 -0.0977,-0.06641 -0.19922,-0.132812 -0.29688,-0.195312 -0.16015,-0.109375 -0.32812,-0.210938 -0.49218,-0.3125 -0.10157,-0.0625 -0.20313,-0.121094 -0.3086,-0.183594 -0.17578,-0.09766 -0.35547,-0.191406 -0.53515,-0.285156 -0.0937,-0.05078 -0.1875,-0.101563 -0.28125,-0.144532 -0.2461,-0.121093 -0.4961,-0.234374 -0.75,-0.34375 -0.0273,-0.01172 -0.0547,-0.02344 -0.0859,-0.03906 -0.28125,-0.113281 -0.56641,-0.222656 -0.85156,-0.320312 -0.0937,-0.03125 -0.1875,-0.05859 -0.28125,-0.08984 -0.19922,-0.06641 -0.39844,-0.125 -0.59766,-0.183594 -0.10937,-0.02734 -0.22266,-0.05859 -0.33203,-0.08594 -0.19141,-0.04687 -0.37891,-0.09375 -0.56641,-0.132812 -0.11718,-0.02344 -0.23047,-0.04687 -0.33984,-0.06641 -0.20313,-0.03906 -0.40625,-0.07422 -0.60547,-0.101563 -0.10156,-0.01563 -0.20312,-0.03125 -0.30469,-0.04687 -0.26953,-0.03125 -0.54297,-0.05859 -0.8164,-0.07813 -0.0312,-0.0039 -0.0625,-0.0078 -0.0937,-0.0078 -0.30469,-0.01953 -0.60938,-0.03125 -0.91407,-0.03125 -0.24609,0 -0.49218,0 -0.73828,0.01172 -0.0234,0 -0.0469,0.0039 -0.0703,0.0039 -0.22656,0.01172 -0.45703,0.03125 -0.68359,0.05078 -0.082,0.0078 -0.16407,0.01953 -0.2461,0.03125 -0.17187,0.01563 -0.34375,0.03906 -0.51953,0.0625 -0.0859,0.01563 -0.17578,0.03125 -0.26562,0.04297 -0.17578,0.03125 -0.34766,0.0625 -0.51953,0.09766 -0.082,0.01563 -0.16016,0.03125 -0.23829,0.04687 -0.24609,0.05469 -0.49218,0.117187 -0.73828,0.183594 -0.0234,0.0078 -0.043,0.01172 -0.0664,0.01953 -0.22266,0.0625 -0.44532,0.132812 -0.66797,0.207031 -0.082,0.02344 -0.16016,0.05469 -0.24219,0.08203 -0.16406,0.05859 -0.33203,0.117188 -0.49219,0.183594 -0.0898,0.03516 -0.17578,0.07031 -0.26172,0.105469 -0.16796,0.06641 -0.32812,0.140625 -0.49218,0.214844 -0.0781,0.03516 -0.15235,0.06641 -0.23047,0.105469 -0.23438,0.113281 -0.46485,0.230468 -0.69531,0.355468 -0.0156,0.0078 -0.0273,0.01563 -0.043,0.02344 -0.21485,0.117187 -0.42969,0.246094 -0.64453,0.378906 -0.0703,0.04297 -0.14454,0.08984 -0.21875,0.136719 -0.15235,0.09766 -0.3086,0.203125 -0.45704,0.308593 -0.082,0.05469 -0.16015,0.109376 -0.23437,0.167969 -0.15234,0.109375 -0.30469,0.222657 -0.45313,0.339844 -0.0703,0.05078 -0.13671,0.105469 -0.20312,0.160156 -0.21484,0.171875 -0.42578,0.347657 -0.62891,0.535157 -8.89062,8.039062 -14.55078,21.234374 -14.55078,39.667968 0,2.828125 0.29688,5.6875 0.84375,8.554688 0.0898,0.476562 0.1875,0.953125 0.29297,1.433594 0.51953,2.386718 1.20703,4.773438 2.02734,7.148438 0.65625,1.89843 1.40235,3.78906 2.21485,5.66015 v 0.008 c 6.10547,14.00782 16.22265,27.05469 23.99219,35.86719 -1.17969,1.125 -2.1836,2.42578 -2.96875,3.86719 -8.17188,-9.1836 -18.92579,-22.93359 -25.41797,-37.82813 -0.0156,-0.043 -0.0312,-0.082 -0.0469,-0.12109 -1.26953,-2.91797 -2.32031,-5.77734 -3.16797,-8.57812 -0.33593,-0.22266 -0.67187,-0.4375 -1.00781,-0.64844 -0.57812,-0.35938 -1.15234,-0.71485 -1.73437,-1.05078 -1.26172,-0.73047 -2.53907,-1.40625 -3.83204,-2.019531 -1.72265,-0.816406 -3.48046,-1.519531 -5.26171,-2.097656 -0.51563,-0.167969 -1.03125,-0.328125 -1.53907,-0.484375 -0.16797,-0.05078 -0.33203,-0.09766 -0.49218,-0.144532 C 131,96.21875 130.65625,96.113281 130.3125,96.015625 c -0.19141,-0.05469 -0.38281,-0.105469 -0.57422,-0.15625 -0.31641,-0.08984 -0.62891,-0.175781 -0.94141,-0.257813 -0.19921,-0.05078 -0.39453,-0.101562 -0.59375,-0.152343 -0.30468,-0.07813 -0.60546,-0.152344 -0.90624,-0.226563 -0.19922,-0.04687 -0.39844,-0.09375 -0.59375,-0.140625 -0.30079,-0.07422 -0.60547,-0.140625 -0.90625,-0.207031 -0.1875,-0.04297 -0.375,-0.08594 -0.56641,-0.125 -0.3125,-0.06641 -0.62891,-0.132812 -0.94141,-0.191406 -0.16797,-0.03516 -0.33984,-0.07031 -0.50781,-0.101563 -0.35547,-0.07031 -0.71094,-0.132812 -1.0625,-0.195312 -0.125,-0.02344 -0.24609,-0.04687 -0.37109,-0.06641 -0.48047,-0.08203 -0.95703,-0.160156 -1.4336,-0.230468 0,0 -0.004,0 -0.004,0 -0.46485,-0.07031 -0.92969,-0.132813 -1.39063,-0.191406 -0.13672,-0.01953 -0.26953,-0.03516 -0.40625,-0.05078 -0.32422,-0.03906 -0.65234,-0.07422 -0.97265,-0.109375 -0.16407,-0.01563 -0.32813,-0.03125 -0.49219,-0.04687 -0.28906,-0.03125 -0.58203,-0.05859 -0.8711,-0.08203 -0.17578,-0.01172 -0.34765,-0.02734 -0.51953,-0.03906 -0.27734,-0.01953 -0.55468,-0.03906 -0.83203,-0.05469 -0.17187,-0.01172 -0.35156,-0.01953 -0.52344,-0.03125 -0.27343,-0.01172 -0.54296,-0.02344 -0.8125,-0.03125 -0.17187,-0.0078 -0.34375,-0.01172 -0.51562,-0.01953 -0.27734,-0.0039 -0.55078,-0.01172 -0.82422,-0.01172 -0.16016,-0.0039 -0.32031,-0.0078 -0.48047,-0.0078 -0.1875,0 -0.375,0.0039 -0.55859,0.0039 -0.30078,0.0039 -0.59766,0.0078 -0.89453,0.01172 -0.1875,0.0078 -0.375,0.01562 -0.56641,0.01953 -0.28125,0.01172 -0.56641,0.02344 -0.84766,0.03906 -0.1914,0.0078 -0.3789,0.01953 -0.5664,0.03516 -0.27735,0.01562 -0.55469,0.03516 -0.82813,0.05859 -0.18359,0.01563 -0.37109,0.03125 -0.55468,0.04687 -0.27735,0.02734 -0.55079,0.05469 -0.82813,0.08594 -0.17578,0.01953 -0.35156,0.03906 -0.52344,0.05859 -0.28515,0.03516 -0.57031,0.07422 -0.85156,0.113281 -0.16016,0.02344 -0.32031,0.04297 -0.47656,0.07031 -0.3125,0.04687 -0.6211,0.09766 -0.92969,0.152344 -0.125,0.01953 -0.25,0.03906 -0.375,0.0625 -0.86719,0.15625 -1.71875,0.339844 -2.55469,0.542969 -0.10156,0.02734 -0.20312,0.05859 -0.30859,0.08203 -0.30859,0.07813 -0.617189,0.160156 -0.91797,0.242187 -0.144531,0.04297 -0.285156,0.08203 -0.425781,0.125 -0.261719,0.07422 -0.523438,0.15625 -0.78125,0.234376 -0.15625,0.05078 -0.308594,0.101562 -0.460938,0.148437 -0.242187,0.08203 -0.484375,0.160156 -0.726562,0.246094 -0.15625,0.05469 -0.308594,0.109375 -0.464844,0.164062 -0.234375,0.08594 -0.464844,0.171875 -0.695313,0.261719 -0.15625,0.05859 -0.3125,0.121094 -0.464843,0.179688 -0.226563,0.09375 -0.453125,0.1875 -0.679688,0.28125 -0.152343,0.0625 -0.300781,0.125 -0.449219,0.191406 -0.226562,0.101562 -0.457031,0.207031 -0.679687,0.308594 -0.140625,0.06641 -0.28125,0.128906 -0.421875,0.195312 -0.246094,0.117188 -0.484375,0.238281 -0.726562,0.359375 -0.117188,0.05859 -0.230469,0.113281 -0.34375,0.171875 -0.351563,0.183594 -0.703126,0.371094 -1.046876,0.5625 -0.796874,0.449219 -1.535156,0.953125 -2.210937,1.511719 -0.675781,0.558592 -1.289063,1.164062 -1.839844,1.812502 -0.367187,0.42969 -0.707031,0.87891 -1.015625,1.34766 -0.3125,0.46484 -0.59375,0.94531 -0.847656,1.4375 -0.125,0.24609 -0.246094,0.49609 -0.359375,0.75 -0.226563,0.5039 -0.421875,1.02343 -0.585937,1.54687 -0.167969,0.52344 -0.304688,1.05859 -0.414063,1.59766 -0.105469,0.53906 -0.183594,1.08203 -0.230469,1.6289 -0.02344,0.27735 -0.04297,0.55078 -0.05078,0.82422 -0.03516,1.10156 0.05078,2.20703 0.265625,3.29688 0.101562,0.54297 0.238281,1.08593 0.40625,1.62109 0.253906,0.80078 0.574219,1.58594 0.96875,2.34766 0.660156,1.26953 1.519531,2.46875 2.582031,3.55859 l 1.445313,1.48438 c 0.257812,0.26171 0.417968,0.57031 0.484375,0.89062 0.03516,0.16016 0.04687,0.32031 0.03906,0.48047 -0.01953,0.32031 -0.121093,0.63281 -0.296875,0.90234 -0.257812,0.40235 -0.683594,0.71094 -1.230468,0.80469 l -2.21875,0.38281 c -2.097657,0.35938 -3.996094,1.12891 -5.640626,2.20703 -0.234374,0.15235 -0.464843,0.31641 -0.691406,0.48047 -0.449218,0.33203 -0.875,0.6875 -1.28125,1.06641 -0.40625,0.3789 -0.789062,0.77344 -1.144531,1.1914 -0.71875,0.83594 -1.339844,1.75 -1.855469,2.71485 -0.257812,0.48437 -0.488281,0.98437 -0.691406,1.49219 -0.203125,0.51171 -0.378906,1.03125 -0.523438,1.5625 -0.292968,1.05859 -0.46875,2.15625 -0.519531,3.27343 -0.01172,0.27735 -0.01563,0.5586 -0.01172,0.83985 0.02344,1.96093 0.445313,3.96484 1.316407,5.90234 2.152343,4.77734 5.4375,9.27344 9.921875,13.29297 1.601562,1.4375 3.355468,2.8125 5.265625,4.12109 0.765625,0.52344 1.554687,1.03516 2.371093,1.53516 4.480469,2.75 9.72657,5.15234 15.76563,7.11328 0.55859,0.17969 1.125,0.34375 1.69531,0.50391 0.16406,0.0469 0.32422,0.0859 0.48828,0.1289 0.45313,0.1211 0.90625,0.23438 1.36719,0.33985 0.13672,0.0312 0.26953,0.0664 0.40234,0.0937 0.57813,0.1289 1.16016,0.25 1.74219,0.35547 0.13281,0.0234 0.26172,0.043 0.39453,0.0664 0.47266,0.082 0.94922,0.15625 1.42969,0.22656 0.17187,0.0273 0.34375,0.0508 0.51562,0.0742 0.5586,0.0742 1.1211,0.14453 1.6875,0.20313 0.043,0.004 0.082,0.008 0.1211,0.0117 0.60547,0.0625 1.21484,0.10937 1.82812,0.15234 0.17188,0.0117 0.34375,0.0234 0.51563,0.0312 0.48047,0.0312 0.96484,0.0547 1.44922,0.0703 0.15234,0.004 0.30468,0.0117 0.45703,0.0156 0.61328,0.0195 1.23047,0.0312 1.85156,0.0312 0.15234,0 0.3125,-0.004 0.46875,-0.004 0.40234,-0.004 0.80859,-0.008 1.21484,-0.0156 0.20313,-0.004 0.41016,-0.0117 0.61329,-0.0195 0.37109,-0.0117 0.74218,-0.0234 1.11328,-0.043 0.20703,-0.008 0.41406,-0.0195 0.62109,-0.0273 0.39062,-0.0234 0.78516,-0.0469 1.17578,-0.0742 0.17969,-0.0117 0.35938,-0.0234 0.53906,-0.0352 0.56641,-0.043 1.13672,-0.0937 1.70703,-0.14844 l 0.004,0.004 c 0.50391,-0.0508 1.00781,-0.10157 1.51563,-0.16016 2.52734,-0.28516 5.05859,-0.67969 7.57421,-1.16016 1.00391,-0.1914 2.00391,-0.39843 3.00391,-0.61718 5.48828,-1.19532 10.83984,-2.76172 15.80859,-4.45313 0.44922,-0.15234 0.89844,-0.30859 1.34375,-0.46484 2.22657,-0.77735 4.3711,-1.57813 6.40625,-2.375 0.40625,-0.16016 0.8086,-0.32031 1.20704,-0.48047 1.66796,-0.66406 3.2539,-1.32422 4.75,-1.96875 0.71875,1.48047 1.66015,2.82812 2.78515,4.00781 -11.27734,4.91406 -27.71875,10.875 -43.9375,12.42969 -0.043,0.004 -0.0859,0.008 -0.1289,0.0117 -2.64063,0.25 -5.23047,0.375 -7.69922,0.375 -0.48828,0 -0.96875,-0.0156 -1.45703,-0.0234 -0.0781,0.0625 -0.16016,0.12109 -0.23828,0.18359 -1.14454,0.92579 -2.2461,1.88282 -3.30079,2.875 -1.05078,0.99219 -2.05468,2.01954 -3,3.07813 -0.94921,1.0625 -1.83593,2.16016 -2.66406,3.29687 -0.67187,0.92188 -1.3164,1.84375 -1.93359,2.76172 -2.15235,3.21094 -3.94531,6.3711 -5.41016,9.47266 -0.83594,1.77344 -1.5625,3.52344 -2.18359,5.25391 -0.77735,2.16406 -1.39063,4.28906 -1.84375,6.375 -0.1836,0.83593 -0.33985,1.66406 -0.47266,2.48437 -0.19922,1.23438 -0.33984,2.44922 -0.42969,3.65234 -0.0586,0.80079 -0.0937,1.58985 -0.10937,2.37891 -0.0391,2.75 0.20312,5.40625 0.71875,7.95703 0.0508,0.26563 0.11719,0.53125 0.18359,0.79297 0.0195,0.0781 0.043,0.15625 0.0625,0.23438 0.0547,0.1914 0.10938,0.3789 0.16797,0.5664 0.0234,0.0781 0.0508,0.15625 0.0742,0.23047 0.0781,0.23438 0.16016,0.46484 0.25,0.69531 0.008,0.0156 0.0156,0.0312 0.0195,0.0508 0.0977,0.24219 0.20313,0.48438 0.3125,0.72266 0.0312,0.0664 0.0625,0.12891 0.0937,0.19922 0.0859,0.17187 0.17188,0.34766 0.26172,0.51562 0.0352,0.0664 0.0703,0.13672 0.10938,0.20313 0.10937,0.20312 0.22265,0.40234 0.34375,0.59766 0.0156,0.0234 0.0273,0.0469 0.043,0.0703 0.13672,0.21875 0.27735,0.43359 0.42188,0.64062 0.0391,0.0586 0.0781,0.10938 0.12109,0.16797 0.10938,0.15235 0.22266,0.3086 0.34375,0.46094 0.0469,0.0586 0.0937,0.11719 0.13672,0.17578 0.13672,0.16797 0.27735,0.33594 0.42188,0.5 0.0234,0.0273 0.0469,0.0547 0.0703,0.082 0.16797,0.1875 0.33984,0.3711 0.51953,0.55078 0.043,0.043 0.0859,0.0859 0.13281,0.12891 0.13672,0.13672 0.27735,0.27344 0.42188,0.40234 0.0547,0.0469 0.10937,0.0977 0.16406,0.14844 0.15625,0.13672 0.31641,0.27344 0.47656,0.40625 0.0352,0.0234 0.0664,0.0508 0.0977,0.0781 0.19922,0.15625 0.39844,0.30859 0.60156,0.45703 0.0469,0.0312 0.0937,0.0625 0.14453,0.0977 0.16016,0.11328 0.32032,0.21875 0.48438,0.32422 0.0625,0.0391 0.125,0.082 0.1875,0.1211 0.17187,0.10546 0.34375,0.21093 0.51953,0.30859 0.043,0.0234 0.0859,0.0508 0.12891,0.0742 0.21875,0.12109 0.4414,0.23828 0.66406,0.34765 0.0508,0.0234 0.10156,0.0469 0.14844,0.0703 0.17968,0.0859 0.35546,0.16797 0.53906,0.24609 0.0703,0.0273 0.13672,0.0586 0.20703,0.0859 0.17969,0.0742 0.36328,0.14453 0.54687,0.21484 0.0547,0.0195 0.10547,0.0391 0.16016,0.0586 0.23438,0.0859 0.47266,0.16406 0.70703,0.23437 0.0508,0.0156 0.10156,0.0273 0.15235,0.043 0.1914,0.0547 0.38281,0.10547 0.57812,0.15625 0.0742,0.0156 0.14844,0.0352 0.22656,0.0508 0.1836,0.043 0.3711,0.082 0.5586,0.11719 0.0625,0.0156 0.125,0.0273 0.1875,0.0352 0.24609,0.0469 0.49218,0.0859 0.74218,0.11719 0.0469,0.004 0.0937,0.008 0.14063,0.0117 0.20312,0.0273 0.40625,0.043 0.61328,0.0625 0.0781,0.004 0.15625,0.008 0.23828,0.0117 0.1836,0.0117 0.375,0.0195 0.5625,0.0234 0.0703,0 0.13672,0.004 0.20703,0.004 0.15235,0 0.30469,-0.004 0.45703,-0.008 0.13282,-0.004 0.26172,-0.004 0.39063,-0.0117 0.14844,-0.008 0.29687,-0.0195 0.44531,-0.0312 0.13281,-0.0117 0.26172,-0.0234 0.39453,-0.0352 0.14844,-0.0156 0.30078,-0.0391 0.44922,-0.0586 0.12891,-0.0195 0.25781,-0.0352 0.38672,-0.0547 0.15234,-0.0273 0.30469,-0.0586 0.45313,-0.0898 0.1289,-0.0234 0.25781,-0.0469 0.38671,-0.0781 0.15235,-0.0352 0.30469,-0.0781 0.45704,-0.11719 0.125,-0.0312 0.25,-0.0625 0.3789,-0.0977 0.15625,-0.0469 0.31641,-0.10156 0.47266,-0.15234 0.12109,-0.0391 0.23828,-0.0742 0.35547,-0.11719 0.17578,-0.0625 0.35547,-0.13281 0.53125,-0.20312 0.0977,-0.0391 0.19531,-0.0703 0.29297,-0.11329 0.26953,-0.11328 0.53515,-0.23437 0.79687,-0.36328 0.008,-0.004 0.0117,-0.004 0.0195,-0.008 l 1.85938,-0.91797 c 0.0781,-0.0352 0.15234,-0.0664 0.23047,-0.0937 0.0234,-0.008 0.0469,-0.0117 0.0742,-0.0195 0.0508,-0.0156 0.10547,-0.0312 0.16016,-0.0391 0.0273,-0.008 0.0547,-0.0117 0.082,-0.0156 0.0508,-0.008 0.10156,-0.0117 0.15625,-0.0156 0.0234,-0.004 0.0508,-0.004 0.0742,-0.004 0.0117,0 0.0234,-0.004 0.0352,-0.004 0.0547,0 0.10937,0.004 0.16015,0.0117 0.0117,0 0.0195,0 0.0312,0 0.0742,0.008 0.14453,0.0195 0.21875,0.0391 0.0195,0.004 0.043,0.0117 0.0625,0.0156 0.0508,0.0156 0.10157,0.0273 0.15235,0.0469 0.0234,0.0117 0.0469,0.0195 0.0703,0.0273 0.0469,0.0195 0.0898,0.043 0.13672,0.0664 0.0195,0.0117 0.043,0.0195 0.0625,0.0312 0.0586,0.0312 0.11328,0.0664 0.16406,0.10547 0.008,0.004 0.0156,0.008 0.0195,0.0117 0.0586,0.043 0.11719,0.0898 0.16797,0.14063 0.0195,0.0156 0.0312,0.0312 0.0508,0.0469 0.0352,0.0352 0.0703,0.0742 0.10547,0.11329 0.0156,0.0156 0.0312,0.0391 0.0469,0.0586 0.0312,0.0391 0.0625,0.082 0.0898,0.125 0.0117,0.0195 0.0273,0.0391 0.0391,0.0586 0.0352,0.0586 0.0664,0.1211 0.0937,0.1836 0.004,0.004 0.008,0.008 0.008,0.0117 0.0312,0.0664 0.0586,0.13671 0.0781,0.21093 0.008,0.0195 0.0117,0.043 0.0195,0.0664 0.0117,0.0547 0.0234,0.10547 0.0312,0.16016 0.004,0.0234 0.008,0.0547 0.0117,0.0781 0.008,0.0547 0.0117,0.10938 0.0117,0.16797 0,0.0234 0,0.0469 0,0.0742 0,0.0781 -0.004,0.16015 -0.0156,0.24219 0,0 0,0.004 0,0.004 l -0.32422,2.22266 c 0,0.004 0,0.0117 0,0.0156 -0.043,0.28516 -0.0742,0.57422 -0.10156,0.85547 -0.008,0.0977 -0.0117,0.19531 -0.0156,0.29297 -0.0117,0.19141 -0.0273,0.38281 -0.0352,0.57031 0,0.11719 0,0.23047 0,0.34375 0,0.17188 0,0.33985 0.004,0.51172 0.004,0.1211 0.0117,0.23828 0.0195,0.35938 0.008,0.16406 0.0156,0.32422 0.0273,0.48437 0.0117,0.1211 0.0273,0.24219 0.0391,0.36328 0.0195,0.15625 0.0352,0.3125 0.0586,0.46875 0.0156,0.1211 0.0391,0.24219 0.0586,0.36328 0.0273,0.14844 0.0508,0.30079 0.082,0.45313 0.0234,0.12109 0.0547,0.23828 0.0781,0.35937 0.0352,0.14844 0.0703,0.29688 0.10937,0.44141 0.0312,0.12109 0.0625,0.23828 0.0977,0.35547 0.043,0.14453 0.0859,0.28906 0.13281,0.42969 0.0352,0.11718 0.0742,0.23047 0.11719,0.34765 0.0508,0.14063 0.10156,0.28125 0.15625,0.42188 0.043,0.11328 0.0859,0.22656 0.13281,0.33594 0.0586,0.14062 0.11719,0.27734 0.17969,0.41796 0.0469,0.10547 0.0977,0.21094 0.14844,0.32032 0.0664,0.13672 0.13671,0.27343 0.20703,0.40625 0.0508,0.10547 0.10547,0.20703 0.16015,0.30859 0.0742,0.13672 0.15235,0.26953 0.23438,0.40234 0.0547,0.0977 0.11328,0.19532 0.17187,0.29297 0.082,0.13282 0.17188,0.26563 0.26172,0.39844 0.0586,0.0898 0.11719,0.18359 0.17969,0.26953 0.0937,0.13672 0.19531,0.26953 0.29297,0.40235 0.0625,0.082 0.12109,0.16406 0.17969,0.24218 0.11328,0.14453 0.23046,0.28516 0.34765,0.42188 0.0547,0.0664 0.10938,0.13281 0.16406,0.19531 0.15235,0.17578 0.3086,0.34766 0.46875,0.51563 0.0234,0.0234 0.0469,0.0508 0.0703,0.0742 0.1914,0.19532 0.38281,0.38282 0.57812,0.56641 0.0391,0.0312 0.0781,0.0625 0.11328,0.0977 0.16016,0.14453 0.32422,0.29297 0.49219,0.42968 0.0664,0.0547 0.13672,0.10938 0.20703,0.16797 0.14063,0.10938 0.27735,0.21875 0.42188,0.32422 0.082,0.0625 0.16797,0.1211 0.2539,0.1836 0.13282,0.0937 0.26563,0.1914 0.40235,0.28125 0.0898,0.0625 0.1875,0.11718 0.28125,0.17578 0.1289,0.0859 0.26172,0.17187 0.39843,0.25 0.10157,0.0586 0.20313,0.11328 0.30079,0.17187 0.13671,0.0742 0.26953,0.14844 0.40625,0.21875 0.10546,0.0547 0.21093,0.10547 0.3164,0.15625 0.13672,0.0664 0.27344,0.13281 0.41406,0.19531 0.10938,0.0508 0.21875,0.0977 0.32813,0.14454 0.14062,0.0586 0.28125,0.11718 0.42187,0.17187 0.11329,0.043 0.22657,0.0859 0.34375,0.125 0.14063,0.0508 0.28125,0.10156 0.42579,0.14453 0.11718,0.0391 0.23437,0.0781 0.35156,0.11328 0.14844,0.043 0.29297,0.082 0.4375,0.1211 0.12109,0.0312 0.24219,0.0625 0.36328,0.0937 0.14844,0.0312 0.29687,0.0625 0.44531,0.0937 0.1211,0.0273 0.2461,0.0508 0.36719,0.0742 0.15234,0.0273 0.30859,0.0508 0.46094,0.0703 0.125,0.0195 0.24609,0.0351 0.37109,0.0508 0.15625,0.0195 0.3125,0.0352 0.47266,0.0469 0.125,0.0117 0.24609,0.0234 0.37109,0.0312 0.16016,0.0117 0.32813,0.0156 0.49219,0.0195 0.12109,0.004 0.24219,0.0117 0.36328,0.0117 0.1875,0 0.37891,-0.008 0.57031,-0.0117 0.0937,-0.004 0.1875,-0.004 0.28516,-0.008 0.28906,-0.0156 0.57812,-0.0391 0.86719,-0.0703 2.23828,-0.24219 4.48828,-0.69922 6.74218,-1.375 1.125,-0.33984 2.25391,-0.73437 3.37891,-1.1875 1.12891,-0.44922 2.25391,-0.96094 3.375,-1.52734 0.375,-0.1875 0.75,-0.38282 1.12109,-0.58594 0.75,-0.40625 1.4961,-0.83594 2.23828,-1.29297 0.375,-0.22656 0.7461,-0.46094 1.11329,-0.70312 1.11718,-0.72657 2.22265,-1.51172 3.32421,-2.35547 1.10547,-0.84375 2.19922,-1.75391 3.28907,-2.72266 3.625,-3.22656 7.16406,-7.14844 10.55859,-11.80859 1.66797,-2.29297 3.10938,-4.77735 4.35938,-7.41407 0.41406,-0.8789 0.80859,-1.77734 1.18359,-2.6875 0.375,-0.90625 0.72656,-1.83203 1.05859,-2.76953 0.8125,-2.28906 1.50391,-4.65625 2.09375,-7.07031 0.13282,-0.55078 0.26172,-1.10547 0.38672,-1.66016 l 0.004,-0.004 c 2.08594,-9.39063 2.66015,-19.40235 2.53125,-28.44531 -0.008,-0.47657 -0.0195,-0.95313 -0.0273,-1.42188 -0.10937,-4.79297 -0.41406,-9.28125 -0.78125,-13.22266 1.65625,-0.22265 3.23047,-0.69531 4.67969,-1.39062 1.20313,12.21875 1.80078,29.65234 -1.72265,45.51562 -0.0117,0.043 -0.0195,0.0859 -0.0312,0.12891 -0.69532,3.10156 -1.52735,6.03516 -2.49219,8.79688 0.0352,0.0937 0.0664,0.1875 0.10156,0.27734 0.35156,0.91406 0.72266,1.82031 1.11328,2.70312 0.58985,1.33204 1.22266,2.625 1.91016,3.87891 0.45703,0.83594 0.9375,1.65234 1.4414,2.45313 0.25,0.39843 0.50782,0.79296 0.77344,1.17968 0.26172,0.39063 0.53125,0.77344 0.80469,1.15235 1.34766,1.84765 2.71875,3.58203 4.10547,5.19922 0.69531,0.8125 1.39453,1.59375 2.09765,2.34765 0.70313,0.75 1.41016,1.47656 2.125,2.17578 3.20313,3.14063 6.48438,5.72266 9.80469,7.77344 0.73828,0.45703 1.47656,0.89063 2.21875,1.29297 0.36719,0.20312 0.73828,0.40234 1.11328,0.58984 4.45313,2.27344 8.94922,3.63282 13.38672,4.15235 0,0 0,0 0.004,0 0.29687,0.0351 0.59375,0.0586 0.89062,0.0781 0.0937,0.004 0.19141,0.004 0.28516,0.008 0.20312,0.008 0.39844,0.0156 0.59766,0.0156 0.0859,0 0.17187,-0.004 0.25781,-0.008 0.19922,-0.004 0.39844,-0.008 0.59765,-0.0195 0.10938,-0.004 0.21875,-0.0195 0.32813,-0.0274 0.17187,-0.0156 0.34375,-0.0273 0.51562,-0.0469 0.11719,-0.0117 0.23438,-0.0312 0.35157,-0.0508 0.16015,-0.0195 0.32031,-0.043 0.47656,-0.0703 0.12109,-0.0195 0.23828,-0.0469 0.35937,-0.0703 0.15235,-0.0312 0.30469,-0.0625 0.45313,-0.0977 0.12109,-0.0273 0.24219,-0.0586 0.36328,-0.0898 0.14453,-0.0391 0.28906,-0.0781 0.42969,-0.12109 0.125,-0.0352 0.24609,-0.0742 0.36328,-0.11328 0.14062,-0.043 0.27734,-0.0899 0.41797,-0.14063 0.11719,-0.043 0.23828,-0.0859 0.35547,-0.13281 0.13672,-0.0508 0.26953,-0.10547 0.40234,-0.16016 0.11719,-0.0508 0.23438,-0.10156 0.35156,-0.15234 0.12891,-0.0586 0.25782,-0.1211 0.38672,-0.1836 0.11328,-0.0547 0.23047,-0.10937 0.34375,-0.17187 0.125,-0.0625 0.25,-0.13281 0.3711,-0.19922 0.11328,-0.0625 0.22656,-0.125 0.33593,-0.19141 0.1211,-0.0703 0.24219,-0.14453 0.35938,-0.21875 0.10937,-0.0703 0.21875,-0.13671 0.32422,-0.20703 0.11718,-0.0781 0.23047,-0.16015 0.34765,-0.24609 0.10157,-0.0703 0.20703,-0.14063 0.3086,-0.21875 0.11328,-0.0859 0.22265,-0.17578 0.33593,-0.26172 0.0977,-0.0781 0.19532,-0.15234 0.29297,-0.23437 0.11328,-0.0937 0.22266,-0.19141 0.33203,-0.28516 0.0898,-0.082 0.17969,-0.16016 0.26954,-0.24219 0.11328,-0.10937 0.22656,-0.21875 0.33593,-0.32812 0.0781,-0.0781 0.16016,-0.15235 0.23828,-0.23438 0.17969,-0.1875 0.35938,-0.3789 0.53125,-0.57812 0.0664,-0.0781 0.12891,-0.15625 0.19532,-0.23438 0.10547,-0.125 0.21093,-0.2539 0.3125,-0.38281 0.0742,-0.0937 0.14453,-0.19141 0.21484,-0.28516 0.0898,-0.12109 0.17969,-0.23828 0.26172,-0.35937 0.0742,-0.10156 0.14062,-0.20703 0.20703,-0.3086 0.082,-0.12109 0.16016,-0.23828 0.23438,-0.35937 0.0703,-0.10938 0.13281,-0.21875 0.19531,-0.32813 0.0742,-0.12109 0.14453,-0.24609 0.21094,-0.36718 0.0625,-0.11328 0.12109,-0.22657 0.17968,-0.33985 0.0664,-0.125 0.12891,-0.2539 0.19141,-0.3789 0.0547,-0.11719 0.10547,-0.23438 0.16016,-0.35157 0.0586,-0.1289 0.11718,-0.25781 0.16796,-0.38671 0.0508,-0.1211 0.0977,-0.24219 0.14454,-0.35938 0.0508,-0.13672 0.10156,-0.26953 0.14843,-0.40234 0.043,-0.1211 0.082,-0.24219 0.125,-0.36719 0.043,-0.13672 0.0859,-0.27344 0.125,-0.41406 0.0352,-0.1211 0.0703,-0.2461 0.10157,-0.3711 0.0391,-0.14062 0.0703,-0.28515 0.10546,-0.42578 0.0273,-0.125 0.0547,-0.25 0.082,-0.375 0.0273,-0.14844 0.0547,-0.29297 0.0781,-0.4414 0.0234,-0.125 0.043,-0.25 0.0625,-0.375 0.0195,-0.15235 0.0391,-0.30469 0.0547,-0.46094 0.0156,-0.1211 0.0312,-0.2461 0.043,-0.3711 0.0117,-0.16015 0.0195,-0.3164 0.0312,-0.48046 0.004,-0.1211 0.0117,-0.23829 0.0156,-0.36329 0.004,-0.16796 0.004,-0.33984 0.004,-0.51171 0,-0.11329 0,-0.22657 -0.004,-0.33985 -0.004,-0.1914 -0.0195,-0.38672 -0.0312,-0.57812 -0.008,-0.0977 -0.008,-0.19141 -0.0156,-0.28907 -0.0273,-0.28906 -0.0586,-0.57812 -0.10157,-0.87109 l -0.30078,-2.05078 c -0.0117,-0.082 -0.0156,-0.16406 -0.0156,-0.24609 0,-0.0234 0,-0.0469 0,-0.0742 0.004,-0.0547 0.008,-0.10938 0.0117,-0.16407 0.004,-0.0273 0.008,-0.0547 0.0117,-0.082 0.008,-0.0508 0.0195,-0.10547 0.0352,-0.15625 0.004,-0.0234 0.008,-0.0469 0.0156,-0.0703 0.0234,-0.0703 0.0469,-0.14062 0.0781,-0.21094 0,0 0.004,-0.004 0.004,-0.008 0.0312,-0.0664 0.0625,-0.125 0.10156,-0.1875 0.008,-0.0195 0.0234,-0.0391 0.0352,-0.0586 0.0273,-0.043 0.0586,-0.0859 0.0898,-0.125 0.0156,-0.0195 0.0312,-0.0391 0.0469,-0.0586 0.0352,-0.0391 0.0703,-0.0781 0.10937,-0.11328 0.0156,-0.0156 0.0273,-0.0312 0.0469,-0.0469 0.0508,-0.0469 0.10937,-0.0977 0.16796,-0.14063 0.004,0 0.0117,-0.004 0.0156,-0.008 0.0547,-0.0391 0.10937,-0.0742 0.16797,-0.10547 0.0195,-0.0117 0.043,-0.0234 0.0625,-0.0352 0.0469,-0.0234 0.0898,-0.043 0.13672,-0.0625 0.0234,-0.008 0.0469,-0.0195 0.0703,-0.0273 0.0508,-0.0195 0.10156,-0.0352 0.15234,-0.0469 0.0195,-0.008 0.0391,-0.0156 0.0625,-0.0195 0.0742,-0.0156 0.14453,-0.0312 0.21875,-0.0391 0.0117,0 0.0195,0 0.0273,0 0.0547,-0.004 0.10937,-0.008 0.16406,-0.008 0.0117,0 0.0234,0 0.0352,0 0.0234,0 0.0508,0.004 0.0742,0.004 0.0547,0.004 0.10547,0.0117 0.15625,0.0156 0.0273,0.008 0.0547,0.0117 0.082,0.0156 0.0547,0.0117 0.10546,0.0234 0.16015,0.043 0.0273,0.004 0.0508,0.0117 0.0742,0.0195 0.0781,0.0234 0.15234,0.0547 0.23047,0.0937 l 2.01953,0.99218 c 0.004,0.004 0.0117,0.004 0.0156,0.008 0.26562,0.1289 0.53125,0.25 0.79687,0.36328 0.0937,0.0391 0.1875,0.0703 0.28125,0.10937 0.17969,0.0703 0.36328,0.14453 0.54297,0.21094 0.10937,0.0352 0.21484,0.0664 0.32422,0.10547 0.16797,0.0547 0.33594,0.10937 0.5039,0.16015 0.11719,0.0312 0.23047,0.0586 0.34766,0.0898 0.16016,0.043 0.32422,0.0898 0.48828,0.125 0.1211,0.0273 0.23828,0.0469 0.35938,0.0703 0.16015,0.0352 0.3164,0.0664 0.47656,0.0937 0.125,0.0195 0.24609,0.0352 0.37109,0.0547 0.15625,0.0195 0.3086,0.043 0.46094,0.0586 0.12891,0.0156 0.25781,0.0234 0.38672,0.0352 0.14844,0.0117 0.30078,0.0273 0.44922,0.0352 0.1289,0.004 0.25781,0.008 0.38672,0.0117 0.15234,0.004 0.30468,0.008 0.45703,0.008 0.0664,0 0.13281,-0.004 0.19922,-0.004 0.1914,-0.004 0.3789,-0.0117 0.57031,-0.0234 0.0781,-0.004 0.15625,-0.008 0.23437,-0.0156 0.19922,-0.0156 0.40235,-0.0352 0.60157,-0.0547 0.0508,-0.008 0.10156,-0.0117 0.15234,-0.0195 0.24609,-0.0273 0.49219,-0.0664 0.73828,-0.10938 0.0586,-0.0117 0.1211,-0.0234 0.1836,-0.0352 0.1875,-0.0391 0.37109,-0.0742 0.55468,-0.11719 0.0781,-0.0156 0.15625,-0.0352 0.23047,-0.0547 0.1875,-0.0469 0.375,-0.0977 0.5625,-0.14844 0.0547,-0.0195 0.10938,-0.0312 0.16406,-0.0469 0.23829,-0.0703 0.46875,-0.14844 0.70313,-0.23047 0.0547,-0.0195 0.10937,-0.043 0.16797,-0.0625 0.17578,-0.0664 0.35547,-0.13672 0.53125,-0.20703 0.0742,-0.0312 0.14844,-0.0625 0.21875,-0.0937 0.17578,-0.0742 0.34375,-0.15234 0.51562,-0.23438 0.0547,-0.0273 0.11328,-0.0508 0.16797,-0.0781 0.21875,-0.10938 0.4375,-0.22266 0.65235,-0.33984 0.0508,-0.0273 0.0976,-0.0586 0.14453,-0.0859 0.16797,-0.0937 0.33593,-0.19141 0.5,-0.29297 0.0664,-0.043 0.13672,-0.0859 0.20312,-0.12891 0.15625,-0.10156 0.3086,-0.20312 0.46094,-0.30859 0.0547,-0.0391 0.10937,-0.0781 0.16406,-0.11719 0.19922,-0.14062 0.39844,-0.28906 0.58985,-0.4414 0.0391,-0.0312 0.0781,-0.0664 0.11718,-0.0977 0.15625,-0.125 0.3086,-0.25391 0.45703,-0.38281 0.0586,-0.0547 0.1211,-0.10938 0.17969,-0.16407 0.13281,-0.12109 0.26953,-0.24609 0.39844,-0.375 0.0508,-0.0508 0.10156,-0.0977 0.15234,-0.14843 0.17578,-0.17578 0.34375,-0.35547 0.51172,-0.53907 0.0274,-0.0312 0.0547,-0.0664 0.0859,-0.0977 0.13672,-0.15625 0.27344,-0.31641 0.40625,-0.48047 0.0469,-0.0625 0.0977,-0.125 0.14844,-0.1875 0.11328,-0.14453 0.22265,-0.29297 0.33203,-0.44531 0.043,-0.0586 0.0859,-0.11328 0.1289,-0.17578 0.14454,-0.20704 0.28516,-0.41407 0.41797,-0.63282 0.0195,-0.0273 0.0352,-0.0547 0.0508,-0.082 0.11719,-0.1914 0.23047,-0.38281 0.33985,-0.57812 0.0391,-0.0703 0.0781,-0.14063 0.11328,-0.21094 0.0898,-0.16797 0.17578,-0.33594 0.26172,-0.50781 0.0312,-0.0664 0.0664,-0.13672 0.0976,-0.20313 0.10938,-0.23828 0.21485,-0.47656 0.3125,-0.71875 0.008,-0.0156 0.0117,-0.0312 0.0195,-0.0469 0.0898,-0.22657 0.17578,-0.46094 0.25781,-0.69532 0.0234,-0.0742 0.0508,-0.15234 0.0742,-0.22656 0.0625,-0.1875 0.11718,-0.375 0.17187,-0.5664 0.0195,-0.0742 0.043,-0.15235 0.0625,-0.23047 0.0703,-0.26172 0.13672,-0.52344 0.19141,-0.79297 0.6914,-3.29297 0.93359,-6.76953 0.68359,-10.39453 -0.0547,-0.80469 -0.13281,-1.6211 -0.23828,-2.4375 -0.10547,-0.82032 -0.23437,-1.64844 -0.38672,-2.48438 -0.15625,-0.83203 -0.33594,-1.67187 -0.53906,-2.51953 -0.20313,-0.84766 -0.4375,-1.69922 -0.69531,-2.5625 -1.92969,-6.44531 -5.33594,-13.23047 -10.42578,-20.22266 -0.83594,-1.14453 -1.73047,-2.25 -2.6875,-3.32031 -0.63672,-0.71484 -1.30079,-1.41406 -1.98829,-2.09375 -0.68359,-0.68359 -1.39453,-1.34765 -2.125,-2 -0.73437,-0.64844 -1.48437,-1.28515 -2.25781,-1.90625 -2.70312,-2.16797 -5.64062,-4.15625 -8.73047,-5.96875 v -0.004 c -13.1914,-7.75391 -29.05859,-12.375 -40.53515,-14.94922 0.16406,-0.91797 0.25781,-1.85938 0.25781,-2.82422 0,-0.69531 -0.0508,-1.375 -0.14063,-2.04688 12.02344,2.63672 28.82422,7.45313 42.85157,15.69922 0.0352,0.0234 0.0742,0.0469 0.10937,0.0703 2.74219,1.61329 5.27735,3.3086 7.61328,5.07813 0.27735,-0.0156 0.5625,-0.0234 0.83985,-0.043 0.17187,-0.008 0.34375,-0.0195 0.51562,-0.0312 0.57813,-0.0391 1.15235,-0.0859 1.72266,-0.14453 0.0391,0 0.0781,-0.004 0.11328,-0.008 0.60937,-0.0625 1.20703,-0.13672 1.80469,-0.21485 0.16406,-0.0234 0.32812,-0.0469 0.48828,-0.0703 0.47656,-0.0703 0.95312,-0.14844 1.42578,-0.22656 0.13672,-0.0273 0.27734,-0.0469 0.41016,-0.0703 0.58593,-0.10938 1.16796,-0.22657 1.74609,-0.35547 0.12109,-0.0273 0.24609,-0.0586 0.36719,-0.0859 0.46875,-0.10938 0.93359,-0.22266 1.39843,-0.34766 0.15625,-0.043 0.31641,-0.082 0.47657,-0.125 0.57031,-0.16015 1.13672,-0.32812 1.69922,-0.50781 10.89062,-3.53125 19.19531,-8.50391 25.10546,-14.37109 3.54688,-3.52344 6.23047,-7.3711 8.09375,-11.42188 0.89454,-1.93359 1.32813,-3.9375 1.35938,-5.90625 0.0117,-0.5625 -0.0117,-1.12109 -0.0664,-1.67578 -0.082,-0.83203 -0.23437,-1.64844 -0.45312,-2.44922"
       fill-opacity="1"
       fill-rule="nonzero"
       id="path9" />
  </g>
  <g
     fill="#fb7ea2"
     fill-opacity="1"
     id="g19"
     transform="translate(-73.850097,-43.230469)">
    <g
       transform="translate(82.937805,294.88539)"
       id="g17">
      <g
         id="g15">
        <path
           d="m 2.429688,0 h 15.660156 c 4.441406,0 7.738281,-1.949219 7.738281,-5.550781 0,-3.507813 -3.117187,-5.25 -7.046875,-5.25 h -0.570312 v -0.300781 h 0.300781 c 3.449219,0 6.117187,-1.949219 6.117187,-4.796876 C 24.628906,-19.230469 21.511719,-21 17.578125,-21 H 2.429688 c 0.332031,1.171875 0.539062,3 0.539062,5.039062 V -5.039062 C 2.96875,-3 2.789062,-1.171875 2.429688,0 Z m 5.21875,-12.601562 v -4.828126 h 8.582031 c 2.160156,0 3.839843,0.808594 3.839843,2.398438 0,1.589844 -1.710937,2.429688 -3.898437,2.429688 z m 0,8.882812 v -5.519531 h 8.972656 c 2.609375,0 4.5,1.019531 4.5,2.816406 0,1.773437 -1.800782,2.703125 -4.441406,2.703125 z m 0,0"
           id="path13" />
      </g>
    </g>
  </g>
  <g
     fill="#fb7ea2"
     fill-opacity="1"
     id="g27"
     transform="translate(-73.850097,-43.230469)">
    <g
       transform="translate(112.66777,294.88539)"
       id="g25">
      <g
         id="g23">
        <path
           d="m 18.238281,0.449219 c 1.863281,0 3.75,-0.5078128 4.5,-0.660157 l 0.273438,-4.617187 C 21.75,-4.320312 19.378906,-3.960938 16.800781,-3.960938 H 7.648438 v -11.519531 c 0,-2.039062 0.242187,-4.347656 0.542968,-5.519531 H 2.429688 C 2.761719,-19.828125 3,-18 3,-15.960938 V -5.039062 C 3,-3 2.789062,-0.75 2.429688,0.449219 3.808594,0.0585938 6.121094,-0.421875 8.878906,-0.421875 c 3.691406,0 5.910156,0.871094 9.359375,0.871094 z m 0,0"
           id="path21" />
      </g>
    </g>
  </g>
  <g
     fill="#fb7ea2"
     fill-opacity="1"
     id="g35"
     transform="translate(-73.850097,-43.230469)">
    <g
       transform="translate(139.06775,294.88539)"
       id="g33">
      <g
         id="g31">
        <path
           d="m 14.339844,0.421875 c 7.5,0 12.988281,-4.113281 12.988281,-10.921875 0,-6.808594 -5.488281,-10.921875 -12.988281,-10.921875 -7.5,0 -12.988282,4.113281 -12.988282,10.921875 0,6.808594 5.488282,10.921875 12.988282,10.921875 z m 0,-3.722656 c -4.710938,0 -8.25,-2.757813 -8.25,-7.199219 0,-4.46875 3.539062,-7.199219 8.25,-7.199219 4.710937,0 8.25,2.730469 8.25,7.199219 0,4.441406 -3.539063,7.199219 -8.25,7.199219 z m 0,0"
           id="path29" />
      </g>
    </g>
  </g>
  <g
     fill="#fb7ea2"
     fill-opacity="1"
     id="g43"
     transform="translate(-73.850097,-43.230469)">
    <g
       transform="translate(170.29772,294.88539)"
       id="g41">
      <g
         id="g39">
        <path
           d="m 13.019531,0.421875 c 6.839844,0 11.191407,-2.433594 11.191407,-6.453125 0,-8.578125 -17.851563,-4.589844 -17.851563,-9.148438 0,-1.800781 3,-2.28125 6.390625,-2.28125 3.539062,0 7.140625,0.871094 9.359375,2.160157 v -4.4375 c -2.371094,-0.992188 -6.121094,-1.683594 -9.539063,-1.683594 -6.089843,0 -11.039062,2.132813 -11.039062,6.183594 0,8.667969 17.820312,4.859375 17.820312,9.238281 0,1.859375 -2.613281,2.488281 -6.421874,2.488281 -4.320313,0 -8.460938,-0.957031 -11.609376,-2.96875 l -0.210937,4.769531 c 3.269531,1.289063 8.28125,2.132813 11.910156,2.132813 z m 0,0"
           id="path37" />
      </g>
    </g>
  </g>
  <g
     fill="#fb7ea2"
     fill-opacity="1"
     id="g51"
     transform="translate(-73.850097,-43.230469)">
    <g
       transform="translate(198.22769,294.88539)"
       id="g49">
      <g
         id="g47">
        <path
           d="m 13.019531,0.421875 c 6.839844,0 11.191407,-2.433594 11.191407,-6.453125 0,-8.578125 -17.851563,-4.589844 -17.851563,-9.148438 0,-1.800781 3,-2.28125 6.390625,-2.28125 3.539062,0 7.140625,0.871094 9.359375,2.160157 v -4.4375 c -2.371094,-0.992188 -6.121094,-1.683594 -9.539063,-1.683594 -6.089843,0 -11.039062,2.132813 -11.039062,6.183594 0,8.667969 17.820312,4.859375 17.820312,9.238281 0,1.859375 -2.613281,2.488281 -6.421874,2.488281 -4.320313,0 -8.460938,-0.957031 -11.609376,-2.96875 l -0.210937,4.769531 c 3.269531,1.289063 8.28125,2.132813 11.910156,2.132813 z m 0,0"
           id="path45" />
      </g>
    </g>
  </g>
  <g
     fill="#fb7ea2"
     fill-opacity="1"
     id="g59"
     transform="translate(-73.850097,-43.230469)">
    <g
       transform="translate(226.15767,294.88539)"
       id="g57">
      <g
         id="g55">
        <path
           d="m 14.339844,0.421875 c 7.5,0 12.988281,-4.113281 12.988281,-10.921875 0,-6.808594 -5.488281,-10.921875 -12.988281,-10.921875 -7.5,0 -12.988282,4.113281 -12.988282,10.921875 0,6.808594 5.488282,10.921875 12.988282,10.921875 z m 0,-3.722656 c -4.710938,0 -8.25,-2.757813 -8.25,-7.199219 0,-4.46875 3.539062,-7.199219 8.25,-7.199219 4.710937,0 8.25,2.730469 8.25,7.199219 0,4.441406 -3.539063,7.199219 -8.25,7.199219 z m 0,0"
           id="path53" />
      </g>
    </g>
  </g>
  <g
     fill="#fb7ea2"
     fill-opacity="1"
     id="g67"
     transform="translate(-73.850097,-43.230469)">
    <g
       transform="translate(257.38764,294.88539)"
       id="g65">
      <g
         id="g63">
        <path
           d="M 2.429688,0 H 8.191406 C 7.890625,-1.078125 7.648438,-3.089844 7.648438,-5.160156 v -9.988282 H 7.890625 L 16.410156,0 h 1.738282 l 8.523437,-15.148438 H 27 v 9.988282 C 27,-3.089844 26.761719,-1.078125 26.460938,0 H 32.21875 C 31.890625,-1.171875 31.679688,-3 31.679688,-5.039062 V -15.960938 C 31.679688,-18 31.859375,-19.828125 32.21875,-21 h -6.117188 l -5.941406,10.648438 c -0.988281,1.800781 -1.738281,3.179687 -2.609375,5.132812 H 17.21875 c -0.898438,-1.980469 -1.648438,-3.421875 -2.609375,-5.132812 L 8.699219,-21 H 2.429688 c 0.359374,1.171875 0.539062,3 0.539062,5.039062 V -5.039062 C 2.96875,-3 2.761719,-1.171875 2.429688,0 Z m 0,0"
           id="path61" />
      </g>
    </g>
  </g>
  <g
     fill="#fb7ea2"
     fill-opacity="1"
     id="g75"
     transform="translate(-73.850097,-43.230469)">
    <g
       transform="translate(129.23858,321.13539)"
       id="g73">
      <g
         id="g71">
        <path
           d="m 2.429688,0 h 15.660156 c 4.441406,0 7.738281,-1.949219 7.738281,-5.550781 0,-3.507813 -3.117187,-5.25 -7.046875,-5.25 h -0.570312 v -0.300781 h 0.300781 c 3.449219,0 6.117187,-1.949219 6.117187,-4.796876 C 24.628906,-19.230469 21.511719,-21 17.578125,-21 H 2.429688 c 0.332031,1.171875 0.539062,3 0.539062,5.039062 V -5.039062 C 2.96875,-3 2.789062,-1.171875 2.429688,0 Z m 5.21875,-12.601562 v -4.828126 h 8.582031 c 2.160156,0 3.839843,0.808594 3.839843,2.398438 0,1.589844 -1.710937,2.429688 -3.898437,2.429688 z m 0,8.882812 v -5.519531 h 8.972656 c 2.609375,0 4.5,1.019531 4.5,2.816406 0,1.773437 -1.800782,2.703125 -4.441406,2.703125 z m 0,0"
           id="path69" />
      </g>
    </g>
  </g>
  <g
     fill="#fb7ea2"
     fill-opacity="1"
     id="g83"
     transform="translate(-73.850097,-43.230469)">
    <g
       transform="translate(158.96855,321.13539)"
       id="g81">
      <g
         id="g79">
        <path
           d="m 14.070312,0.421875 c 7.230469,0 11.308594,-3.632813 11.308594,-9.601563 v -6.78125 C 25.378906,-18 25.589844,-19.828125 25.921875,-21 h -5.761719 c 0.328125,1.171875 0.539063,3.089844 0.539063,5.101562 v 6.027344 c 0,3.8125 -2.699219,6.210938 -6.628907,6.210938 -3.929687,0 -6.601562,-2.398438 -6.601562,-6.210938 v -6.027344 c 0,-2.011718 0.210938,-3.929687 0.511719,-5.101562 H 2.25 c 0.328125,1.171875 0.539062,3 0.539062,5.039062 v 6.78125 c 0,6.121094 4.261719,9.601563 11.28125,9.601563 z m 0,0"
           id="path77" />
      </g>
    </g>
  </g>
  <g
     fill="#fb7ea2"
     fill-opacity="1"
     id="g91"
     transform="translate(-73.850097,-43.230469)">
    <g
       transform="translate(189.68853,321.13539)"
       id="g89">
      <g
         id="g87">
        <path
           d="m 2.429688,0 h 12.121093 c 7.378907,0 12.210938,-3.960938 12.210938,-10.5 0,-6.539062 -4.832031,-10.5 -12.210938,-10.5 H 2.429688 C 2.761719,-19.828125 3,-18 3,-15.960938 V -5.039062 C 3,-3 2.789062,-1.171875 2.429688,0 Z m 5.21875,-4.109375 v -12.8125 h 6.570312 c 4.53125,0 7.742188,2.402344 7.742188,6.421875 0,4.019531 -3.210938,6.390625 -7.742188,6.390625 z m 0,0"
           id="path85" />
      </g>
    </g>
  </g>
  <g
     fill="#fb7ea2"
     fill-opacity="1"
     id="g99"
     transform="translate(-73.850097,-43.230469)">
    <g
       transform="translate(220.3485,321.13539)"
       id="g97">
      <g
         id="g95">
        <path
           d="m 13.019531,0.421875 c 6.839844,0 11.191407,-2.433594 11.191407,-6.453125 0,-8.578125 -17.851563,-4.589844 -17.851563,-9.148438 0,-1.800781 3,-2.28125 6.390625,-2.28125 3.539062,0 7.140625,0.871094 9.359375,2.160157 v -4.4375 c -2.371094,-0.992188 -6.121094,-1.683594 -9.539063,-1.683594 -6.089843,0 -11.039062,2.132813 -11.039062,6.183594 0,8.667969 17.820312,4.859375 17.820312,9.238281 0,1.859375 -2.613281,2.488281 -6.421874,2.488281 -4.320313,0 -8.460938,-0.957031 -11.609376,-2.96875 l -0.210937,4.769531 c 3.269531,1.289063 8.28125,2.132813 11.910156,2.132813 z m 0,0"
           id="path93" />
      </g>
    </g>
  </g>
</svg>
