<svg xmlns="http://www.w3.org/2000/svg" xmlns:xlink="http://www.w3.org/1999/xlink" width="500" zoomAndPan="magnify" viewBox="0 0 375 374.999991" height="500" preserveAspectRatio="xMidYMid meet" version="1.0"><defs><g/><clipPath id="c668bd6b39"><path d="M 144 99.699219 L 290.964844 99.699219 L 290.964844 248 L 144 248 Z M 144 99.699219 " clip-rule="nonzero"/></clipPath><clipPath id="7b11ff95aa"><path d="M 132 100 L 145 100 L 145 131 L 132 131 Z M 132 100 " clip-rule="nonzero"/></clipPath><clipPath id="c37a71bf05"><path d="M 70.359375 108.007812 L 106.667969 67.449219 L 153.988281 109.808594 L 117.679688 150.367188 Z M 70.359375 108.007812 " clip-rule="nonzero"/></clipPath><clipPath id="74dbc25b62"><path d="M 70.359375 108.007812 L 106.667969 67.449219 L 153.988281 109.808594 L 117.679688 150.367188 Z M 70.359375 108.007812 " clip-rule="nonzero"/></clipPath><clipPath id="dd7c408526"><path d="M 81 113 L 126 113 L 126 135 L 81 135 Z M 81 113 " clip-rule="nonzero"/></clipPath><clipPath id="c7f2feb6b1"><path d="M 70.359375 108.007812 L 106.667969 67.449219 L 153.988281 109.808594 L 117.679688 150.367188 Z M 70.359375 108.007812 " clip-rule="nonzero"/></clipPath><clipPath id="9cfd74c1b4"><path d="M 70.359375 108.007812 L 106.667969 67.449219 L 153.988281 109.808594 L 117.679688 150.367188 Z M 70.359375 108.007812 " clip-rule="nonzero"/></clipPath><clipPath id="89fb1d267a"><path d="M 100 72 L 130 72 L 130 131 L 100 131 Z M 100 72 " clip-rule="nonzero"/></clipPath><clipPath id="be3d23e3b2"><path d="M 70.359375 108.007812 L 106.667969 67.449219 L 153.988281 109.808594 L 117.679688 150.367188 Z M 70.359375 108.007812 " clip-rule="nonzero"/></clipPath><clipPath id="ceacbe560d"><path d="M 70.359375 108.007812 L 106.667969 67.449219 L 153.988281 109.808594 L 117.679688 150.367188 Z M 70.359375 108.007812 " clip-rule="nonzero"/></clipPath></defs><g clip-path="url(#c668bd6b39)"><path fill="#006623" d="M 167.960938 99.695312 C 159.359375 106.238281 162.933594 112.582031 160.816406 120.25 C 158.234375 129.503906 150.164062 130.757812 150.230469 120.84375 C 150.296875 116.085938 150.824219 111.921875 154.597656 107.03125 C 145.863281 111.589844 143.015625 142.589844 160.289062 128.839844 L 195.222656 100.816406 L 290.96875 177.484375 L 256.03125 177.484375 L 256.03125 247.277344 L 192.84375 247.277344 L 188.210938 243.839844 C 208.457031 240.335938 205.347656 212.183594 231.8125 207.160156 C 211.300781 217.007812 207.132812 236.902344 223.082031 226.722656 C 233.601562 220.113281 229.300781 206.828125 245.710938 204.183594 C 223.808594 196.648438 211.367188 204.449219 206.339844 215.683594 C 205.148438 204.183594 198.863281 192.421875 192.378906 184.226562 C 187.351562 177.945312 181.527344 172.59375 175.308594 167.503906 C 170.34375 163.40625 165.050781 159.441406 160.417969 154.945312 C 140.4375 135.714844 134.746094 103.199219 167.960938 99.695312 Z M 219.835938 184.753906 C 220.300781 192.554688 218.910156 198.304688 208.855469 203.0625 C 202.765625 191.363281 202.765625 180.855469 221.824219 173.785156 C 220.035156 177.285156 219.375 180.921875 219.835938 184.753906 Z M 219.835938 184.753906 " fill-opacity="1" fill-rule="evenodd"/></g><path fill="#487319" d="M 162.273438 224.804688 C 147.648438 213.4375 137.328125 200.484375 128.59375 179.203125 C 136.664062 213.503906 157.90625 233.199219 176.761719 247.277344 C 128.988281 246.351562 89.355469 201.144531 136.535156 120.25 C 137.328125 162.285156 165.382812 165.851562 184.769531 190.242188 C 208.058594 219.519531 196.015625 250.910156 162.273438 224.804688 Z M 162.273438 224.804688 " fill-opacity="1" fill-rule="evenodd"/><g clip-path="url(#7b11ff95aa)"><g clip-path="url(#c37a71bf05)"><g clip-path="url(#74dbc25b62)"><path fill="#487319" d="M 134.535156 130.921875 C 132.507812 125.585938 132.289062 119.59375 133.917969 114.152344 C 135.550781 108.710938 139.019531 103.851562 143.632812 100.550781 C 145.496094 111.328125 142.097656 123.089844 134.535156 130.921875 " fill-opacity="1" fill-rule="nonzero"/></g></g></g><g clip-path="url(#dd7c408526)"><g clip-path="url(#c7f2feb6b1)"><g clip-path="url(#9cfd74c1b4)"><path fill="#487319" d="M 125.957031 134.949219 C 121.84375 127.167969 115.125 120.777344 107.144531 117.058594 C 99.167969 113.34375 89.972656 112.320312 81.414062 114.203125 C 92.003906 127.375 109.125 135.550781 125.957031 134.949219 " fill-opacity="1" fill-rule="nonzero"/></g></g></g><g clip-path="url(#89fb1d267a)"><g clip-path="url(#be3d23e3b2)"><g clip-path="url(#ceacbe560d)"><path fill="#487319" d="M 129.910156 130.164062 C 119.6875 125.054688 111.199219 116.519531 106.144531 106.277344 C 101.09375 96.035156 99.507812 84.140625 101.707031 72.988281 C 119.113281 86.347656 130.214844 108.320312 129.910156 130.164062 " fill-opacity="1" fill-rule="nonzero"/></g></g></g><g fill="#487319" fill-opacity="1"><g transform="translate(63.029949, 283.599824)"><g><path d="M 17.8125 -9.96875 L 21.203125 -9.96875 L 21.203125 -0.765625 C 19.203125 0.0234375 16.789062 0.421875 13.96875 0.421875 C 10.53125 0.421875 7.578125 -0.488281 5.109375 -2.3125 C 3.898438 -3.21875 2.929688 -4.410156 2.203125 -5.890625 C 1.484375 -7.378906 1.125 -9.019531 1.125 -10.8125 C 1.125 -12.613281 1.398438 -14.226562 1.953125 -15.65625 C 2.515625 -17.09375 3.242188 -18.289062 4.140625 -19.25 C 5.046875 -20.207031 6.09375 -21.023438 7.28125 -21.703125 C 9.5 -22.960938 11.9375 -23.59375 14.59375 -23.59375 C 15.625 -23.59375 16.734375 -23.472656 17.921875 -23.234375 C 19.109375 -23.003906 20.019531 -22.757812 20.65625 -22.5 L 20.296875 -20.15625 C 17.148438 -21.488281 14.535156 -22.15625 12.453125 -22.15625 C 10.097656 -21.550781 8.238281 -20.300781 6.875 -18.40625 C 5.507812 -16.519531 4.828125 -14.210938 4.828125 -11.484375 C 4.828125 -8.078125 5.722656 -5.445312 7.515625 -3.59375 C 9.316406 -1.738281 11.6875 -0.8125 14.625 -0.8125 C 15.789062 -0.8125 16.851562 -0.925781 17.8125 -1.15625 Z M 17.8125 -9.96875 "/></g></g></g><g fill="#487319" fill-opacity="1"><g transform="translate(88.609568, 283.599824)"><g><path d="M 6.578125 -11.0625 L 6.578125 0 L 3.15625 0 L 3.15625 -23.171875 L 10.703125 -23.171875 C 13.066406 -23.171875 15 -22.644531 16.5 -21.59375 C 18.007812 -20.539062 18.765625 -19.15625 18.765625 -17.4375 C 18.765625 -15.726562 18.160156 -14.378906 16.953125 -13.390625 C 15.753906 -12.398438 14.128906 -11.71875 12.078125 -11.34375 L 21.453125 0 L 17.390625 0.484375 L 9.28125 -11.0625 Z M 6.578125 -12.109375 L 8.8125 -12.109375 C 13.019531 -12.109375 15.125 -13.765625 15.125 -17.078125 C 15.125 -17.640625 14.984375 -18.269531 14.703125 -18.96875 C 14.160156 -20.4375 13.015625 -21.40625 11.265625 -21.875 C 9.679688 -21.875 8.117188 -21.675781 6.578125 -21.28125 Z M 6.578125 -12.109375 "/></g></g></g><g fill="#487319" fill-opacity="1"><g transform="translate(112.719525, 283.599824)"><g><path d="M 3.15625 0 L 3.15625 -23.171875 L 17.1875 -23.171875 L 16.828125 -20.828125 L 10.328125 -21.90625 C 9.179688 -21.90625 7.921875 -21.707031 6.546875 -21.3125 L 6.546875 -12.8125 L 14.3125 -12.8125 L 14.3125 -11.484375 L 6.546875 -11.484375 L 6.546875 -1.265625 L 17.390625 -2.34375 L 17.046875 0 Z M 3.15625 0 "/></g></g></g><g fill="#487319" fill-opacity="1"><g transform="translate(134.170082, 283.599824)"><g><path d="M 3.15625 0 L 3.15625 -23.171875 L 17.1875 -23.171875 L 16.828125 -20.828125 L 10.328125 -21.90625 C 9.179688 -21.90625 7.921875 -21.707031 6.546875 -21.3125 L 6.546875 -12.8125 L 14.3125 -12.8125 L 14.3125 -11.484375 L 6.546875 -11.484375 L 6.546875 -1.265625 L 17.390625 -2.34375 L 17.046875 0 Z M 3.15625 0 "/></g></g></g><g fill="#487319" fill-opacity="1"><g transform="translate(155.620639, 283.599824)"><g><path d="M 20.75 0.390625 L 20.15625 0.390625 L 4.828125 -18.796875 L 4.6875 -18.796875 L 4.6875 0 L 3.15625 0 L 3.15625 -23.171875 L 5.734375 -23.171875 L 19.078125 -6.328125 L 19.21875 -6.328125 L 19.21875 -23.171875 L 20.75 -23.171875 Z M 20.75 0.390625 "/></g></g></g><g fill="#487319" fill-opacity="1"><g transform="translate(181.30524, 283.599824)"><g/></g></g><g fill="#487319" fill-opacity="1"><g transform="translate(191.838255, 283.599824)"><g><path d="M 17.8125 -9.96875 L 21.203125 -9.96875 L 21.203125 -0.765625 C 19.203125 0.0234375 16.789062 0.421875 13.96875 0.421875 C 10.53125 0.421875 7.578125 -0.488281 5.109375 -2.3125 C 3.898438 -3.21875 2.929688 -4.410156 2.203125 -5.890625 C 1.484375 -7.378906 1.125 -9.019531 1.125 -10.8125 C 1.125 -12.613281 1.398438 -14.226562 1.953125 -15.65625 C 2.515625 -17.09375 3.242188 -18.289062 4.140625 -19.25 C 5.046875 -20.207031 6.09375 -21.023438 7.28125 -21.703125 C 9.5 -22.960938 11.9375 -23.59375 14.59375 -23.59375 C 15.625 -23.59375 16.734375 -23.472656 17.921875 -23.234375 C 19.109375 -23.003906 20.019531 -22.757812 20.65625 -22.5 L 20.296875 -20.15625 C 17.148438 -21.488281 14.535156 -22.15625 12.453125 -22.15625 C 10.097656 -21.550781 8.238281 -20.300781 6.875 -18.40625 C 5.507812 -16.519531 4.828125 -14.210938 4.828125 -11.484375 C 4.828125 -8.078125 5.722656 -5.445312 7.515625 -3.59375 C 9.316406 -1.738281 11.6875 -0.8125 14.625 -0.8125 C 15.789062 -0.8125 16.851562 -0.925781 17.8125 -1.15625 Z M 17.8125 -9.96875 "/></g></g></g><g fill="#487319" fill-opacity="1"><g transform="translate(217.417868, 283.599824)"><g><path d="M 6.578125 -11.0625 L 6.578125 0 L 3.15625 0 L 3.15625 -23.171875 L 10.703125 -23.171875 C 13.066406 -23.171875 15 -22.644531 16.5 -21.59375 C 18.007812 -20.539062 18.765625 -19.15625 18.765625 -17.4375 C 18.765625 -15.726562 18.160156 -14.378906 16.953125 -13.390625 C 15.753906 -12.398438 14.128906 -11.71875 12.078125 -11.34375 L 21.453125 0 L 17.390625 0.484375 L 9.28125 -11.0625 Z M 6.578125 -12.109375 L 8.8125 -12.109375 C 13.019531 -12.109375 15.125 -13.765625 15.125 -17.078125 C 15.125 -17.640625 14.984375 -18.269531 14.703125 -18.96875 C 14.160156 -20.4375 13.015625 -21.40625 11.265625 -21.875 C 9.679688 -21.875 8.117188 -21.675781 6.578125 -21.28125 Z M 6.578125 -12.109375 "/></g></g></g><g fill="#487319" fill-opacity="1"><g transform="translate(241.527819, 283.599824)"><g><path d="M 13.6875 -23.59375 C 16.71875 -23.59375 19.222656 -22.59375 21.203125 -20.59375 C 23.191406 -18.601562 24.1875 -15.832031 24.1875 -12.28125 C 24.1875 -10 23.789062 -8 23 -6.28125 C 22.207031 -4.5625 21.164062 -3.238281 19.875 -2.3125 C 17.382812 -0.488281 14.632812 0.421875 11.625 0.421875 C 8.613281 0.421875 6.117188 -0.585938 4.140625 -2.609375 C 2.171875 -4.628906 1.1875 -7.410156 1.1875 -10.953125 C 1.1875 -12.796875 1.445312 -14.457031 1.96875 -15.9375 C 2.5 -17.425781 3.1875 -18.632812 4.03125 -19.5625 C 4.882812 -20.5 5.875 -21.28125 7 -21.90625 C 9.050781 -23.03125 11.28125 -23.59375 13.6875 -23.59375 Z M 6.65625 -3.984375 C 7.257812 -2.960938 8.070312 -2.164062 9.09375 -1.59375 C 10.125 -1.019531 11.3125 -0.734375 12.65625 -0.734375 C 14 -0.734375 15.191406 -1.070312 16.234375 -1.75 C 17.285156 -2.425781 18.101562 -3.3125 18.6875 -4.40625 C 19.875 -6.601562 20.46875 -8.960938 20.46875 -11.484375 C 20.46875 -14.585938 19.851562 -17.082031 18.625 -18.96875 C 17.25 -21.09375 14.972656 -22.15625 11.796875 -22.15625 C 9.535156 -21.363281 7.820312 -20 6.65625 -18.0625 C 5.488281 -16.125 4.90625 -13.929688 4.90625 -11.484375 C 4.90625 -8.492188 5.488281 -5.992188 6.65625 -3.984375 Z M 6.65625 -3.984375 "/></g></g></g><g fill="#487319" fill-opacity="1"><g transform="translate(268.682082, 283.599824)"><g><path d="M 10.75 0.5625 L 0.34375 -23.171875 L 4.171875 -23.171875 L 11.859375 -4.203125 L 18.796875 -23.171875 L 20.546875 -23.171875 L 11.3125 0.5625 Z M 10.75 0.5625 "/></g></g></g><g fill="#487319" fill-opacity="1"><g transform="translate(291.357357, 283.599824)"><g><path d="M 3.15625 0 L 3.15625 -23.171875 L 17.1875 -23.171875 L 16.828125 -20.828125 L 10.328125 -21.90625 C 9.179688 -21.90625 7.921875 -21.707031 6.546875 -21.3125 L 6.546875 -12.8125 L 14.3125 -12.8125 L 14.3125 -11.484375 L 6.546875 -11.484375 L 6.546875 -1.265625 L 17.390625 -2.34375 L 17.046875 0 Z M 3.15625 0 "/></g></g></g><g fill="#487319" fill-opacity="1"><g transform="translate(100.399194, 303.349784)"><g><path d="M 1.53125 0 L 2.851562 0 L 2.851562 -8.039062 L 6.328125 -2.789062 L 7.410156 -2.789062 L 10.890625 -8.023438 L 10.890625 0 L 12.210938 0 L 12.210938 -10.5 L 10.980469 -10.5 L 6.886719 -4.273438 L 2.761719 -10.5 L 1.53125 -10.5 Z M 1.53125 0 "/></g></g></g><g fill="#487319" fill-opacity="1"><g transform="translate(126.139174, 303.349784)"><g><path d="M 6.300781 0.195312 C 9.496094 0.195312 11.746094 -2.054688 11.746094 -5.25 C 11.746094 -8.445312 9.496094 -10.695312 6.300781 -10.695312 C 3.105469 -10.695312 0.871094 -8.445312 0.871094 -5.25 C 0.871094 -2.054688 3.105469 0.195312 6.300781 0.195312 Z M 2.21875 -5.25 C 2.21875 -7.695312 3.886719 -9.375 6.300781 -9.375 C 8.714844 -9.375 10.378906 -7.695312 10.378906 -5.25 C 10.378906 -2.804688 8.714844 -1.125 6.300781 -1.125 C 3.886719 -1.125 2.21875 -2.804688 2.21875 -5.25 Z M 2.21875 -5.25 "/></g></g></g><g fill="#487319" fill-opacity="1"><g transform="translate(150.739162, 303.349784)"><g><path d="M 1.53125 0 L 2.851562 0 L 2.851562 -3.765625 L 5.160156 -3.765625 L 7.726562 0 L 9.316406 0 L 6.675781 -3.898438 C 8.203125 -4.273438 9.148438 -5.429688 9.148438 -7.125 C 9.148438 -9.210938 7.710938 -10.5 5.535156 -10.5 L 1.53125 -10.5 Z M 2.851562 -5.023438 L 2.851562 -9.238281 L 5.386719 -9.238281 C 6.914062 -9.238281 7.800781 -8.460938 7.800781 -7.125 C 7.800781 -5.789062 6.914062 -5.023438 5.386719 -5.023438 Z M 2.851562 -5.023438 "/></g></g></g><g fill="#487319" fill-opacity="1"><g transform="translate(172.954144, 303.349784)"><g><path d="M 4.066406 0 L 5.386719 0 L 5.386719 -9.238281 L 8.925781 -9.238281 L 8.925781 -10.5 L 0.511719 -10.5 L 0.511719 -9.238281 L 4.066406 -9.238281 Z M 4.066406 0 "/></g></g></g><g fill="#487319" fill-opacity="1"><g transform="translate(194.404134, 303.349784)"><g><path d="M 6.210938 0.195312 C 9.433594 0.195312 11.609375 -2.25 11.550781 -5.699219 L 5.851562 -5.699219 L 5.851562 -4.441406 L 10.125 -4.441406 C 9.855469 -2.460938 8.355469 -1.125 6.238281 -1.125 C 3.886719 -1.125 2.21875 -2.820312 2.21875 -5.25 C 2.21875 -7.679688 3.871094 -9.375 6.226562 -9.375 C 7.84375 -9.375 9.136719 -8.578125 9.796875 -7.230469 L 11.234375 -7.230469 C 10.558594 -9.300781 8.578125 -10.695312 6.179688 -10.695312 C 3.105469 -10.695312 0.871094 -8.398438 0.871094 -5.25 C 0.871094 -2.085938 3.121094 0.195312 6.210938 0.195312 Z M 6.210938 0.195312 "/></g></g></g><g fill="#487319" fill-opacity="1"><g transform="translate(218.77912, 303.349784)"><g><path d="M 0.253906 0 L 1.664062 0 L 2.625 -2.386719 L 7.738281 -2.386719 L 8.730469 0 L 10.125 0 L 5.804688 -10.5 L 4.574219 -10.5 Z M 3.136719 -3.613281 L 5.191406 -8.65625 L 7.246094 -3.613281 Z M 3.136719 -3.613281 "/></g></g></g><g fill="#487319" fill-opacity="1"><g transform="translate(241.159103, 303.349784)"><g><path d="M 6.210938 0.195312 C 9.433594 0.195312 11.609375 -2.25 11.550781 -5.699219 L 5.851562 -5.699219 L 5.851562 -4.441406 L 10.125 -4.441406 C 9.855469 -2.460938 8.355469 -1.125 6.238281 -1.125 C 3.886719 -1.125 2.21875 -2.820312 2.21875 -5.25 C 2.21875 -7.679688 3.871094 -9.375 6.226562 -9.375 C 7.84375 -9.375 9.136719 -8.578125 9.796875 -7.230469 L 11.234375 -7.230469 C 10.558594 -9.300781 8.578125 -10.695312 6.179688 -10.695312 C 3.105469 -10.695312 0.871094 -8.398438 0.871094 -5.25 C 0.871094 -2.085938 3.121094 0.195312 6.210938 0.195312 Z M 6.210938 0.195312 "/></g></g></g><g fill="#487319" fill-opacity="1"><g transform="translate(265.534088, 303.349784)"><g><path d="M 1.53125 0 L 8.070312 0 L 8.070312 -1.230469 L 2.851562 -1.230469 L 2.851562 -4.738281 L 7.53125 -4.738281 L 7.53125 -5.953125 L 2.851562 -5.953125 L 2.851562 -9.269531 L 7.90625 -9.269531 L 7.90625 -10.5 L 1.53125 -10.5 Z M 1.53125 0 "/></g></g></g></svg>