<?xml version="1.0" encoding="UTF-8" standalone="no"?>
<svg
   width="326.12405"
   zoomAndPan="magnify"
   viewBox="0 0 244.59304 230.55681"
   height="307.40909"
   preserveAspectRatio="xMidYMid"
   version="1.0"
   id="svg216"
   sodipodi:docname="GreenGroveMortgage.svg"
   inkscape:version="1.2.2 (732a01da63, 2022-12-09)"
   xmlns:inkscape="http://www.inkscape.org/namespaces/inkscape"
   xmlns:sodipodi="http://sodipodi.sourceforge.net/DTD/sodipodi-0.dtd"
   xmlns="http://www.w3.org/2000/svg"
   xmlns:svg="http://www.w3.org/2000/svg">
  <sodipodi:namedview
     id="namedview218"
     pagecolor="#ffffff"
     bordercolor="#000000"
     borderopacity="0.25"
     inkscape:showpageshadow="2"
     inkscape:pageopacity="0.0"
     inkscape:pagecheckerboard="0"
     inkscape:deskcolor="#d1d1d1"
     showgrid="false"
     inkscape:zoom="1.674"
     inkscape:cx="80.943847"
     inkscape:cy="152.32975"
     inkscape:window-width="1920"
     inkscape:window-height="1017"
     inkscape:window-x="1912"
     inkscape:window-y="-8"
     inkscape:window-maximized="1"
     inkscape:current-layer="svg216" />
  <defs
     id="defs34">
    <g
       id="g2" />
    <clipPath
       id="c668bd6b39">
      <path
         d="M 144,99.699219 H 290.96484 V 248 H 144 Z m 0,0"
         clip-rule="nonzero"
         id="path4" />
    </clipPath>
    <clipPath
       id="7b11ff95aa">
      <path
         d="m 132,100 h 13 v 31 h -13 z m 0,0"
         clip-rule="nonzero"
         id="path7" />
    </clipPath>
    <clipPath
       id="c37a71bf05">
      <path
         d="m 70.359375,108.00781 36.308595,-40.558591 47.32031,42.359371 -36.30859,40.5586 z m 0,0"
         clip-rule="nonzero"
         id="path10" />
    </clipPath>
    <clipPath
       id="74dbc25b62">
      <path
         d="m 70.359375,108.00781 36.308595,-40.558591 47.32031,42.359371 -36.30859,40.5586 z m 0,0"
         clip-rule="nonzero"
         id="path13" />
    </clipPath>
    <clipPath
       id="dd7c408526">
      <path
         d="m 81,113 h 45 v 22 H 81 Z m 0,0"
         clip-rule="nonzero"
         id="path16" />
    </clipPath>
    <clipPath
       id="c7f2feb6b1">
      <path
         d="m 70.359375,108.00781 36.308595,-40.558591 47.32031,42.359371 -36.30859,40.5586 z m 0,0"
         clip-rule="nonzero"
         id="path19" />
    </clipPath>
    <clipPath
       id="9cfd74c1b4">
      <path
         d="m 70.359375,108.00781 36.308595,-40.558591 47.32031,42.359371 -36.30859,40.5586 z m 0,0"
         clip-rule="nonzero"
         id="path22" />
    </clipPath>
    <clipPath
       id="89fb1d267a">
      <path
         d="m 100,72 h 30 v 59 h -30 z m 0,0"
         clip-rule="nonzero"
         id="path25" />
    </clipPath>
    <clipPath
       id="be3d23e3b2">
      <path
         d="m 70.359375,108.00781 36.308595,-40.558591 47.32031,42.359371 -36.30859,40.5586 z m 0,0"
         clip-rule="nonzero"
         id="path28" />
    </clipPath>
    <clipPath
       id="ceacbe560d">
      <path
         d="m 70.359375,108.00781 36.308595,-40.558591 47.32031,42.359371 -36.30859,40.5586 z m 0,0"
         clip-rule="nonzero"
         id="path31" />
    </clipPath>
  </defs>
  <g
     clip-path="url(#c668bd6b39)"
     id="g38"
     transform="translate(-64.154949,-72.988281)">
    <path
       fill="#006623"
       d="m 167.96094,99.695312 c -8.60157,6.542968 -5.02735,12.886718 -7.14453,20.554688 -2.58204,9.25391 -10.65235,10.50781 -10.58594,0.59375 0.0664,-4.75781 0.59375,-8.92187 4.36719,-13.8125 -8.73438,4.55859 -11.58204,35.55859 5.6914,21.80859 l 34.9336,-28.02343 95.74609,76.66796 h -34.9375 v 69.79297 h -63.1875 l -4.63281,-3.4375 c 20.24609,-3.5039 17.13672,-31.65625 43.60156,-36.67968 -20.51172,9.84765 -24.67969,29.74218 -8.73047,19.5625 10.51953,-6.60938 6.21875,-19.89454 22.62891,-22.53907 -21.90235,-7.53515 -34.34375,0.26563 -39.3711,11.5 -1.1914,-11.5 -7.47656,-23.26172 -13.96093,-31.45703 -5.02735,-6.28125 -10.85157,-11.63281 -17.07032,-16.72265 -4.96484,-4.09766 -10.25781,-8.0625 -14.89062,-12.5586 -19.98047,-19.23047 -25.67188,-51.74609 7.54297,-55.249998 z m 51.875,85.058598 c 0.46484,7.80078 -0.92578,13.55078 -10.98047,18.30859 -6.08985,-11.69922 -6.08985,-22.20703 12.96875,-29.27734 -1.78906,3.5 -2.44922,7.13671 -1.98828,10.96875 z m 0,0"
       fill-opacity="1"
       fill-rule="evenodd"
       id="path36" />
  </g>
  <path
     fill="#487319"
     d="m 98.118491,151.81641 c -14.625,-11.36719 -24.94532,-24.32032 -33.67969,-45.60157 8.07031,34.30079 29.3125,53.9961 48.167969,68.07422 -47.773439,-0.92578 -87.40625,-46.13281 -40.226559,-127.027341 0.79296,42.03516 28.847649,45.60156 48.234369,69.992191 23.28906,29.27734 11.24609,60.66797 -22.496089,34.5625 z m 0,0"
     fill-opacity="1"
     fill-rule="evenodd"
     id="path40" />
  <g
     clip-path="url(#7b11ff95aa)"
     id="g48"
     transform="translate(-64.154949,-72.988281)">
    <g
       clip-path="url(#c37a71bf05)"
       id="g46">
      <g
         clip-path="url(#74dbc25b62)"
         id="g44">
        <path
           fill="#487319"
           d="m 134.53516,130.92187 c -2.02735,-5.33593 -2.2461,-11.32812 -0.61719,-16.76953 1.63281,-5.4414 5.10156,-10.30078 9.71484,-13.60156 1.86328,10.77735 -1.53515,22.53906 -9.09765,30.37109"
           fill-opacity="1"
           fill-rule="nonzero"
           id="path42" />
      </g>
    </g>
  </g>
  <g
     clip-path="url(#dd7c408526)"
     id="g56"
     transform="translate(-64.154949,-72.988281)">
    <g
       clip-path="url(#c7f2feb6b1)"
       id="g54">
      <g
         clip-path="url(#9cfd74c1b4)"
         id="g52">
        <path
           fill="#487319"
           d="m 125.95703,134.94922 c -4.11328,-7.78125 -10.83203,-14.17188 -18.8125,-17.89063 -7.976561,-3.71484 -17.171874,-4.73828 -25.730468,-2.85546 10.589844,13.17187 27.710938,21.34765 44.542968,20.74609"
           fill-opacity="1"
           fill-rule="nonzero"
           id="path50" />
      </g>
    </g>
  </g>
  <g
     clip-path="url(#89fb1d267a)"
     id="g64"
     transform="translate(-64.154949,-72.988281)">
    <g
       clip-path="url(#be3d23e3b2)"
       id="g62">
      <g
         clip-path="url(#ceacbe560d)"
         id="g60">
        <path
           fill="#487319"
           d="m 129.91016,130.16406 c -10.22266,-5.10937 -18.71094,-13.64453 -23.76563,-23.88672 -5.05078,-10.242184 -6.636718,-22.136715 -4.4375,-33.289059 17.40625,13.359375 28.50781,35.332029 28.20313,57.175779"
           fill-opacity="1"
           fill-rule="nonzero"
           id="path58" />
      </g>
    </g>
  </g>
  <g
     fill="#487319"
     fill-opacity="1"
     id="g72"
     transform="translate(-64.154949,-72.988281)">
    <g
       transform="translate(63.029949,283.59982)"
       id="g70">
      <g
         id="g68">
        <path
           d="m 17.8125,-9.96875 h 3.390625 v 9.203125 c -2,0.7890625 -4.414063,1.1875 -7.234375,1.1875 -3.4375,0 -6.390625,-0.910156 -8.859375,-2.734375 C 3.898438,-3.21875 2.929688,-4.410156 2.203125,-5.890625 1.484375,-7.378906 1.125,-9.019531 1.125,-10.8125 c 0,-1.800781 0.273438,-3.414062 0.828125,-4.84375 0.5625,-1.4375 1.289063,-2.632812 2.1875,-3.59375 0.90625,-0.957031 1.953125,-1.773438 3.140625,-2.453125 2.21875,-1.257813 4.65625,-1.890625 7.3125,-1.890625 1.03125,0 2.140625,0.121094 3.328125,0.359375 1.1875,0.230469 2.097656,0.476563 2.734375,0.734375 l -0.359375,2.34375 c -3.148437,-1.332031 -5.761719,-2 -7.84375,-2 -2.355469,0.605469 -4.214844,1.855469 -5.578125,3.75 -1.367188,1.886719 -2.046875,4.195312 -2.046875,6.921875 0,3.40625 0.894531,6.039063 2.6875,7.890625 1.800781,1.855469 4.171875,2.78125 7.109375,2.78125 1.164062,0 2.226562,-0.113281 3.1875,-0.34375 z m 0,0"
           id="path66" />
      </g>
    </g>
  </g>
  <g
     fill="#487319"
     fill-opacity="1"
     id="g80"
     transform="translate(-64.154949,-72.988281)">
    <g
       transform="translate(88.609568,283.59982)"
       id="g78">
      <g
         id="g76">
        <path
           d="M 6.578125,-11.0625 V 0 H 3.15625 v -23.171875 h 7.546875 c 2.363281,0 4.296875,0.527344 5.796875,1.578125 1.507812,1.054688 2.265625,2.4375 2.265625,4.15625 0,1.710938 -0.605469,3.058594 -1.8125,4.046875 -1.199219,0.992187 -2.824219,1.671875 -4.875,2.046875 L 21.453125,0 17.390625,0.484375 9.28125,-11.0625 Z m 0,-1.046875 H 8.8125 c 4.207031,0 6.3125,-1.65625 6.3125,-4.96875 0,-0.5625 -0.140625,-1.191406 -0.421875,-1.890625 -0.542969,-1.46875 -1.6875,-2.4375 -3.4375,-2.90625 -1.585937,0 -3.148437,0.199219 -4.6875,0.59375 z m 0,0"
           id="path74" />
      </g>
    </g>
  </g>
  <g
     fill="#487319"
     fill-opacity="1"
     id="g88"
     transform="translate(-64.154949,-72.988281)">
    <g
       transform="translate(112.71953,283.59982)"
       id="g86">
      <g
         id="g84">
        <path
           d="M 3.15625,0 V -23.171875 H 17.1875 l -0.359375,2.34375 -6.5,-1.078125 c -1.148437,0 -2.40625,0.199219 -3.78125,0.59375 v 8.5 H 14.3125 v 1.328125 H 6.546875 v 10.21875 L 17.390625,-2.34375 17.046875,0 Z m 0,0"
           id="path82" />
      </g>
    </g>
  </g>
  <g
     fill="#487319"
     fill-opacity="1"
     id="g96"
     transform="translate(-64.154949,-72.988281)">
    <g
       transform="translate(134.17008,283.59982)"
       id="g94">
      <g
         id="g92">
        <path
           d="M 3.15625,0 V -23.171875 H 17.1875 l -0.359375,2.34375 -6.5,-1.078125 c -1.148437,0 -2.40625,0.199219 -3.78125,0.59375 v 8.5 H 14.3125 v 1.328125 H 6.546875 v 10.21875 L 17.390625,-2.34375 17.046875,0 Z m 0,0"
           id="path90" />
      </g>
    </g>
  </g>
  <g
     fill="#487319"
     fill-opacity="1"
     id="g104"
     transform="translate(-64.154949,-72.988281)">
    <g
       transform="translate(155.62064,283.59982)"
       id="g102">
      <g
         id="g100">
        <path
           d="M 20.75,0.390625 H 20.15625 L 4.828125,-18.796875 H 4.6875 V 0 H 3.15625 v -23.171875 h 2.578125 l 13.34375,16.84375 h 0.140625 v -16.84375 H 20.75 Z m 0,0"
           id="path98" />
      </g>
    </g>
  </g>
  <g
     fill="#487319"
     fill-opacity="1"
     id="g110"
     transform="translate(-64.154949,-72.988281)">
    <g
       transform="translate(181.30524,283.59982)"
       id="g108">
      <g
         id="g106" />
    </g>
  </g>
  <g
     fill="#487319"
     fill-opacity="1"
     id="g118"
     transform="translate(-64.154949,-72.988281)">
    <g
       transform="translate(191.83825,283.59982)"
       id="g116">
      <g
         id="g114">
        <path
           d="m 17.8125,-9.96875 h 3.390625 v 9.203125 c -2,0.7890625 -4.414063,1.1875 -7.234375,1.1875 -3.4375,0 -6.390625,-0.910156 -8.859375,-2.734375 C 3.898438,-3.21875 2.929688,-4.410156 2.203125,-5.890625 1.484375,-7.378906 1.125,-9.019531 1.125,-10.8125 c 0,-1.800781 0.273438,-3.414062 0.828125,-4.84375 0.5625,-1.4375 1.289063,-2.632812 2.1875,-3.59375 0.90625,-0.957031 1.953125,-1.773438 3.140625,-2.453125 2.21875,-1.257813 4.65625,-1.890625 7.3125,-1.890625 1.03125,0 2.140625,0.121094 3.328125,0.359375 1.1875,0.230469 2.097656,0.476563 2.734375,0.734375 l -0.359375,2.34375 c -3.148437,-1.332031 -5.761719,-2 -7.84375,-2 -2.355469,0.605469 -4.214844,1.855469 -5.578125,3.75 -1.367188,1.886719 -2.046875,4.195312 -2.046875,6.921875 0,3.40625 0.894531,6.039063 2.6875,7.890625 1.800781,1.855469 4.171875,2.78125 7.109375,2.78125 1.164062,0 2.226562,-0.113281 3.1875,-0.34375 z m 0,0"
           id="path112" />
      </g>
    </g>
  </g>
  <g
     fill="#487319"
     fill-opacity="1"
     id="g126"
     transform="translate(-64.154949,-72.988281)">
    <g
       transform="translate(217.41787,283.59982)"
       id="g124">
      <g
         id="g122">
        <path
           d="M 6.578125,-11.0625 V 0 H 3.15625 v -23.171875 h 7.546875 c 2.363281,0 4.296875,0.527344 5.796875,1.578125 1.507812,1.054688 2.265625,2.4375 2.265625,4.15625 0,1.710938 -0.605469,3.058594 -1.8125,4.046875 -1.199219,0.992187 -2.824219,1.671875 -4.875,2.046875 L 21.453125,0 17.390625,0.484375 9.28125,-11.0625 Z m 0,-1.046875 H 8.8125 c 4.207031,0 6.3125,-1.65625 6.3125,-4.96875 0,-0.5625 -0.140625,-1.191406 -0.421875,-1.890625 -0.542969,-1.46875 -1.6875,-2.4375 -3.4375,-2.90625 -1.585937,0 -3.148437,0.199219 -4.6875,0.59375 z m 0,0"
           id="path120" />
      </g>
    </g>
  </g>
  <g
     fill="#487319"
     fill-opacity="1"
     id="g134"
     transform="translate(-64.154949,-72.988281)">
    <g
       transform="translate(241.52782,283.59982)"
       id="g132">
      <g
         id="g130">
        <path
           d="m 13.6875,-23.59375 c 3.03125,0 5.535156,1 7.515625,3 1.988281,1.992188 2.984375,4.761719 2.984375,8.3125 0,2.28125 -0.398438,4.28125 -1.1875,6 -0.792969,1.71875 -1.835938,3.042969 -3.125,3.96875 -2.492188,1.824219 -5.242188,2.734375 -8.25,2.734375 -3.011719,0 -5.507812,-1.007813 -7.484375,-3.03125 -1.96875,-2.019531 -2.953125,-4.800781 -2.953125,-8.34375 0,-1.84375 0.257812,-3.503906 0.78125,-4.984375 C 2.5,-17.425781 3.1875,-18.632812 4.03125,-19.5625 4.882812,-20.5 5.875,-21.28125 7,-21.90625 c 2.050781,-1.125 4.28125,-1.6875 6.6875,-1.6875 z M 6.65625,-3.984375 c 0.601562,1.023437 1.414062,1.820313 2.4375,2.390625 1.03125,0.574219 2.21875,0.859375 3.5625,0.859375 1.34375,0 2.535156,-0.335937 3.578125,-1.015625 1.050781,-0.675781 1.867187,-1.5625 2.453125,-2.65625 1.1875,-2.195312 1.78125,-4.554688 1.78125,-7.078125 0,-3.101563 -0.617188,-5.597656 -1.84375,-7.484375 -1.375,-2.125 -3.652344,-3.1875 -6.828125,-3.1875 C 9.535156,-21.363281 7.820312,-20 6.65625,-18.0625 c -1.167969,1.9375 -1.75,4.132812 -1.75,6.578125 0,2.992187 0.582031,5.492187 1.75,7.5 z m 0,0"
           id="path128" />
      </g>
    </g>
  </g>
  <g
     fill="#487319"
     fill-opacity="1"
     id="g142"
     transform="translate(-64.154949,-72.988281)">
    <g
       transform="translate(268.68208,283.59982)"
       id="g140">
      <g
         id="g138">
        <path
           d="M 10.75,0.5625 0.34375,-23.171875 h 3.828125 l 7.6875,18.96875 6.9375,-18.96875 h 1.75 L 11.3125,0.5625 Z m 0,0"
           id="path136" />
      </g>
    </g>
  </g>
  <g
     fill="#487319"
     fill-opacity="1"
     id="g150"
     transform="translate(-64.154949,-72.988281)">
    <g
       transform="translate(291.35736,283.59982)"
       id="g148">
      <g
         id="g146">
        <path
           d="M 3.15625,0 V -23.171875 H 17.1875 l -0.359375,2.34375 -6.5,-1.078125 c -1.148437,0 -2.40625,0.199219 -3.78125,0.59375 v 8.5 H 14.3125 v 1.328125 H 6.546875 v 10.21875 L 17.390625,-2.34375 17.046875,0 Z m 0,0"
           id="path144" />
      </g>
    </g>
  </g>
  <g
     fill="#487319"
     fill-opacity="1"
     id="g158"
     transform="translate(-64.154949,-72.988281)">
    <g
       transform="translate(100.39919,303.34978)"
       id="g156">
      <g
         id="g154">
        <path
           d="m 1.53125,0 h 1.320312 v -8.039062 l 3.476563,5.25 h 1.082031 l 3.480469,-5.234376 V 0 h 1.320313 V -10.5 H 10.980469 L 6.886719,-4.273438 2.761719,-10.5 H 1.53125 Z m 0,0"
           id="path152" />
      </g>
    </g>
  </g>
  <g
     fill="#487319"
     fill-opacity="1"
     id="g166"
     transform="translate(-64.154949,-72.988281)">
    <g
       transform="translate(126.13917,303.34978)"
       id="g164">
      <g
         id="g162">
        <path
           d="m 6.300781,0.195312 c 3.195313,0 5.445313,-2.25 5.445313,-5.445312 0,-3.195312 -2.25,-5.445312 -5.445313,-5.445312 -3.195312,0 -5.429687,2.25 -5.429687,5.445312 0,3.195312 2.234375,5.445312 5.429687,5.445312 z M 2.21875,-5.25 c 0,-2.445312 1.667969,-4.125 4.082031,-4.125 2.414063,0 4.078125,1.679688 4.078125,4.125 0,2.445312 -1.664062,4.125 -4.078125,4.125 -2.414062,0 -4.082031,-1.679688 -4.082031,-4.125 z m 0,0"
           id="path160" />
      </g>
    </g>
  </g>
  <g
     fill="#487319"
     fill-opacity="1"
     id="g174"
     transform="translate(-64.154949,-72.988281)">
    <g
       transform="translate(150.73916,303.34978)"
       id="g172">
      <g
         id="g170">
        <path
           d="M 1.53125,0 H 2.851562 V -3.765625 H 5.160156 L 7.726562,0 H 9.316406 L 6.675781,-3.898438 c 1.527344,-0.375 2.472657,-1.53125 2.472657,-3.226562 0,-2.085938 -1.4375,-3.375 -3.613282,-3.375 H 1.53125 Z m 1.320312,-5.023438 v -4.214843 h 2.535157 c 1.527343,0 2.414062,0.777343 2.414062,2.113281 0,1.335938 -0.886719,2.101562 -2.414062,2.101562 z m 0,0"
           id="path168" />
      </g>
    </g>
  </g>
  <g
     fill="#487319"
     fill-opacity="1"
     id="g182"
     transform="translate(-64.154949,-72.988281)">
    <g
       transform="translate(172.95414,303.34978)"
       id="g180">
      <g
         id="g178">
        <path
           d="M 4.066406,0 H 5.386719 V -9.238281 H 8.925781 V -10.5 H 0.511719 v 1.261719 h 3.554687 z m 0,0"
           id="path176" />
      </g>
    </g>
  </g>
  <g
     fill="#487319"
     fill-opacity="1"
     id="g190"
     transform="translate(-64.154949,-72.988281)">
    <g
       transform="translate(194.40413,303.34978)"
       id="g188">
      <g
         id="g186">
        <path
           d="m 6.210938,0.195312 c 3.222656,0 5.398437,-2.445312 5.339843,-5.894531 H 5.851562 v 1.257813 H 10.125 C 9.855469,-2.460938 8.355469,-1.125 6.238281,-1.125 3.886719,-1.125 2.21875,-2.820312 2.21875,-5.25 c 0,-2.429688 1.652344,-4.125 4.007812,-4.125 1.617188,0 2.910157,0.796875 3.570313,2.144531 h 1.4375 c -0.675781,-2.070312 -2.65625,-3.464843 -5.054687,-3.464843 -3.074219,0 -5.308594,2.296874 -5.308594,5.445312 0,3.164062 2.25,5.445312 5.339844,5.445312 z m 0,0"
           id="path184" />
      </g>
    </g>
  </g>
  <g
     fill="#487319"
     fill-opacity="1"
     id="g198"
     transform="translate(-64.154949,-72.988281)">
    <g
       transform="translate(218.77912,303.34978)"
       id="g196">
      <g
         id="g194">
        <path
           d="M 0.253906,0 H 1.664062 L 2.625,-2.386719 H 7.738281 L 8.730469,0 H 10.125 L 5.804688,-10.5 H 4.574219 Z m 2.882813,-3.613281 2.054687,-5.042969 2.054688,5.042969 z m 0,0"
           id="path192" />
      </g>
    </g>
  </g>
  <g
     fill="#487319"
     fill-opacity="1"
     id="g206"
     transform="translate(-64.154949,-72.988281)">
    <g
       transform="translate(241.1591,303.34978)"
       id="g204">
      <g
         id="g202">
        <path
           d="m 6.210938,0.195312 c 3.222656,0 5.398437,-2.445312 5.339843,-5.894531 H 5.851562 v 1.257813 H 10.125 C 9.855469,-2.460938 8.355469,-1.125 6.238281,-1.125 3.886719,-1.125 2.21875,-2.820312 2.21875,-5.25 c 0,-2.429688 1.652344,-4.125 4.007812,-4.125 1.617188,0 2.910157,0.796875 3.570313,2.144531 h 1.4375 c -0.675781,-2.070312 -2.65625,-3.464843 -5.054687,-3.464843 -3.074219,0 -5.308594,2.296874 -5.308594,5.445312 0,3.164062 2.25,5.445312 5.339844,5.445312 z m 0,0"
           id="path200" />
      </g>
    </g>
  </g>
  <g
     fill="#487319"
     fill-opacity="1"
     id="g214"
     transform="translate(-64.154949,-72.988281)">
    <g
       transform="translate(265.53409,303.34978)"
       id="g212">
      <g
         id="g210">
        <path
           d="M 1.53125,0 H 8.070312 V -1.230469 H 2.851562 V -4.738281 H 7.53125 V -5.953125 H 2.851562 V -9.269531 H 7.90625 V -10.5 h -6.375 z m 0,0"
           id="path208" />
      </g>
    </g>
  </g>
</svg>
