<?xml version="1.0" encoding="UTF-8" standalone="no"?>
<svg
   width="264.5874"
   zoomAndPan="magnify"
   viewBox="0 0 198.44055 291.05364"
   height="388.07153"
   preserveAspectRatio="xMidYMid"
   version="1.0"
   id="svg108"
   sodipodi:docname="MovieGarden.svg"
   inkscape:version="1.2.2 (732a01da63, 2022-12-09)"
   xmlns:inkscape="http://www.inkscape.org/namespaces/inkscape"
   xmlns:sodipodi="http://sodipodi.sourceforge.net/DTD/sodipodi-0.dtd"
   xmlns="http://www.w3.org/2000/svg"
   xmlns:svg="http://www.w3.org/2000/svg">
  <sodipodi:namedview
     id="namedview110"
     pagecolor="#ffffff"
     bordercolor="#000000"
     borderopacity="0.25"
     inkscape:showpageshadow="2"
     inkscape:pageopacity="0.0"
     inkscape:pagecheckerboard="0"
     inkscape:deskcolor="#d1d1d1"
     showgrid="false"
     inkscape:zoom="1.674"
     inkscape:cx="67.204301"
     inkscape:cy="197.72999"
     inkscape:window-width="1920"
     inkscape:window-height="1017"
     inkscape:window-x="1912"
     inkscape:window-y="-8"
     inkscape:window-maximized="1"
     inkscape:current-layer="svg108" />
  <defs
     id="defs10">
    <g
       id="g2" />
    <clipPath
       id="e8467ed566">
      <path
         d="M 113,103 H 268.42578 V 244.17578 H 113 Z m 0,0"
         clip-rule="nonzero"
         id="path4" />
    </clipPath>
    <clipPath
       id="d5313e8125">
      <path
         d="M 74.488281,38.941406 H 187 V 118 H 74.488281 Z m 0,0"
         clip-rule="nonzero"
         id="path7" />
    </clipPath>
  </defs>
  <g
     clip-path="url(#e8467ed566)"
     id="g14"
     transform="translate(-74.492236,-38.957031)">
    <path
       fill="#054d3b"
       d="m 192.37109,233.28516 c 13.35938,-0.3125 26.26563,-4.03516 37.0586,-10.47266 10.61718,-6.36328 19.11718,-15.44141 23.90625,-26.53516 4.64843,-10.8164 5.75781,-23.6875 1.80468,-38.01953 -4.54687,-16.38281 -15.7539,-29.07812 -29.07812,-35.96484 -5.33984,-2.74609 -10.96094,-4.58984 -16.61719,-5.32031 -5.58594,-0.73047 -11.17187,-0.45313 -16.48047,1.04297 -10.02734,2.78125 -19.15234,9.80859 -25.46875,22.05078 -3.60937,7.02734 -5.24218,14.71484 -4.96093,22.33203 0.0703,2.01562 0.27734,4 0.625,5.98047 0.17187,1.11328 0.41406,2.26171 0.73046,3.33984 v 0.0352 c 2.28907,8.66015 7.94532,16.10546 15.78516,20.625 -7.00781,-7.09375 -11.44922,-16.3125 -12.62891,-26.1211 2.46485,-3.6875 5.27344,-6.64453 8.29297,-9.00781 7.14844,-5.67188 15.19532,-7.86328 22.10157,-8.83594 23.66015,-3.30469 32.47656,13.28516 45.90625,28.9375 1.14453,1.35547 1.14453,3.33985 -0.0391,4.66016 -0.0664,0.0703 -0.17187,0.17578 -0.24218,0.28125 -0.69141,0.79687 -1.62891,1.17969 -2.66797,1.17969 -1.07813,0 -1.98047,-0.44922 -2.67188,-1.25 l -4.7539,-5.67188 c -0.10547,2.19141 -0.51954,4.41797 -1.17969,6.57422 -3.05469,9.60156 -11.6211,18.47266 -26.75391,22.29687 -8.39453,2.15625 -17.10547,1.83985 -25.01562,-0.80078 -7.73828,-2.57422 -14.67578,-7.375 -19.8125,-14.22656 l -0.0352,-0.0703 -0.20703,-0.34766 c -5.13281,-8.34765 -7.91016,-17.70703 -8.25781,-27.19922 -0.37891,-9.42578 1.66797,-18.99218 6.14062,-27.6875 7.84375,-15.19921 19.4336,-24 32.23828,-27.58203 6.72657,-1.84375 13.77344,-2.26172 20.7461,-1.32031 6.9414,0.90234 13.77734,3.12891 20.1914,6.43359 15.82032,8.20704 29.17969,23.26563 34.5586,42.71094 4.68359,16.9375 3.33203,32.24219 -2.25391,45.25 -5.72656,13.25 -15.82422,24.03516 -28.34766,31.54688 -12.35156,7.41015 -27.13281,11.65234 -42.39843,12 -42.29688,0.97265 -83.55078,-26.84766 -78.3125,-73.49219 2.39453,-21.25391 11.90234,-44.10547 17.14062,-67.0625 3.57422,22.54297 -7.45703,45.80859 -7.63281,69.14844 -0.3125,38.60546 32.33594,61.39062 68.59375,60.55859 z m 0,0"
       fill-opacity="1"
       fill-rule="nonzero"
       id="path12" />
  </g>
  <g
     clip-path="url(#d5313e8125)"
     id="g18"
     transform="translate(-74.492236,-38.957031)">
    <path
       fill="#799e29"
       d="m 178.53125,71.890625 c -20.96094,4.558594 -37.50781,20.628906 -42.75,41.496095 -2.35938,-13.773439 2.39453,-27.82422 12.59766,-37.320314 10.23437,-9.5 24.5664,-13.148437 38.09375,-9.738281 0.80078,13.320313 -3.95313,26.398437 -13.1836,36.031255 -9.22656,9.63671 -22.03125,14.95703 -35.35156,14.71484 5.89844,-20.523439 20.85156,-37.183595 40.59375,-45.187501 z M 85.578125,48.449219 c 24.425785,12.484375 39.691405,37.773437 39.343755,65.285161 7.42578,-16.277349 6.14453,-35.199224 -3.4336,-50.257818 C 111.94531,48.378906 95.433594,39.160156 77.597656,38.957031 72.21875,55.160156 73.886719,72.902344 82.140625,87.824219 90.433594,102.74609 104.52344,113.5625 121.10547,117.5625 120.48438,90.292969 107.40234,64.800781 85.578125,48.449219 Z m 0,0"
       fill-opacity="1"
       fill-rule="evenodd"
       id="path16" />
  </g>
  <g
     fill="#054d3b"
     fill-opacity="1"
     id="g26"
     transform="translate(-74.492236,-38.957031)">
    <g
       transform="translate(99.139548,303.91029)"
       id="g24">
      <g
         id="g22">
        <path
           d="M 31.078125,-40.625 H 40.4375 c 0.875,0 1.3125,0.445312 1.3125,1.328125 v 37.96875 C 41.75,-0.441406 41.3125,0 40.4375,0 H 35.25 c -0.886719,0 -1.328125,-0.441406 -1.328125,-1.328125 v -29.9375 h -0.25 l -6.4375,21.15625 c -0.261719,0.84375 -0.792969,1.265625 -1.59375,1.265625 H 20.34375 c -0.804688,0 -1.328125,-0.421875 -1.578125,-1.265625 L 12.1875,-31.328125 h -0.25 v 30 c 0,0.511719 -0.08594,0.859375 -0.25,1.046875 C 11.519531,-0.09375 11.160156,0 10.609375,0 H 5.4375 C 4.550781,0 4.109375,-0.441406 4.109375,-1.328125 v -37.96875 c 0,-0.882813 0.441406,-1.328125 1.328125,-1.328125 h 9.40625 c 0.59375,0 0.992188,0.296875 1.203125,0.890625 l 6.6875,22.296875 H 23.125 l 6.75,-22.296875 C 30,-40.328125 30.398438,-40.625 31.078125,-40.625 Z m 0,0"
           id="path20" />
      </g>
    </g>
  </g>
  <g
     fill="#054d3b"
     fill-opacity="1"
     id="g34"
     transform="translate(-74.492236,-38.957031)">
    <g
       transform="translate(148.98254,303.91029)"
       id="g32">
      <g
         id="g30">
        <path
           d="m 15.15625,-6.953125 h 4.484375 c 1.351563,0 2.3125,-0.28125 2.875,-0.84375 0.570313,-0.570313 0.859375,-1.53125 0.859375,-2.875 V -29.9375 c 0,-1.351562 -0.289062,-2.3125 -0.859375,-2.875 -0.5625,-0.570312 -1.523437,-0.859375 -2.875,-0.859375 H 15.15625 c -1.34375,0 -2.292969,0.289063 -2.84375,0.859375 -0.542969,0.5625 -0.8125,1.523438 -0.8125,2.875 v 19.265625 c 0,1.34375 0.269531,2.304687 0.8125,2.875 0.550781,0.5625 1.5,0.84375 2.84375,0.84375 z M 20.96875,0 H 13.890625 C 10.566406,0 8,-0.882812 6.1875,-2.65625 4.375,-4.425781 3.46875,-6.972656 3.46875,-10.296875 v -20.03125 c 0,-3.320313 0.90625,-5.867187 2.71875,-7.640625 C 8,-39.738281 10.566406,-40.625 13.890625,-40.625 h 7.078125 c 3.332031,0 5.898438,0.886719 7.703125,2.65625 1.8125,1.773438 2.71875,4.320312 2.71875,7.640625 v 20.03125 c 0,3.324219 -0.90625,5.871094 -2.71875,7.640625 C 26.867188,-0.882812 24.300781,0 20.96875,0 Z m 0,0"
           id="path28" />
      </g>
    </g>
  </g>
  <g
     fill="#054d3b"
     fill-opacity="1"
     id="g42"
     transform="translate(-74.492236,-38.957031)">
    <g
       transform="translate(187.83361,303.91029)"
       id="g40">
      <g
         id="g38">
        <path
           d="M 20.65625,0 H 12.375 C 11.5,0 10.972656,-0.441406 10.796875,-1.328125 l -9.78125,-37.84375 C 0.710938,-40.140625 1.132812,-40.625 2.28125,-40.625 h 5.9375 c 0.832031,0 1.335938,0.445312 1.515625,1.328125 l 6.625,31.078125 h 0.25 L 23.25,-39.296875 c 0.164062,-0.882813 0.671875,-1.328125 1.515625,-1.328125 h 5.9375 c 1.050781,0 1.472656,0.484375 1.265625,1.453125 l -9.796875,37.84375 C 21.960938,-0.441406 21.457031,0 20.65625,0 Z m 0,0"
           id="path36" />
      </g>
    </g>
  </g>
  <g
     fill="#054d3b"
     fill-opacity="1"
     id="g50"
     transform="translate(-74.492236,-38.957031)">
    <g
       transform="translate(224.72635,303.91029)"
       id="g48">
      <g
         id="g46">
        <path
           d="m 12.4375,-39.296875 v 37.96875 C 12.4375,-0.441406 12,0 11.125,0 H 5.75 C 4.863281,0 4.421875,-0.441406 4.421875,-1.328125 v -37.96875 c 0,-0.882813 0.441406,-1.328125 1.328125,-1.328125 h 5.375 c 0.875,0 1.3125,0.445312 1.3125,1.328125 z m 0,0"
           id="path44" />
      </g>
    </g>
  </g>
  <g
     fill="#054d3b"
     fill-opacity="1"
     id="g58"
     transform="translate(-74.492236,-38.957031)">
    <g
       transform="translate(245.57341,303.91029)"
       id="g56">
      <g
         id="g54">
        <path
           d="M 26.09375,0 H 5.4375 C 4.550781,0 4.109375,-0.441406 4.109375,-1.328125 v -37.96875 c 0,-0.882813 0.441406,-1.328125 1.328125,-1.328125 h 20.65625 c 0.84375,0 1.265625,0.445312 1.265625,1.328125 V -35 c 0,0.886719 -0.421875,1.328125 -1.265625,1.328125 H 12.890625 c -0.511719,0 -0.765625,0.234375 -0.765625,0.703125 v 8.203125 c 0,0.46875 0.253906,0.703125 0.765625,0.703125 H 23.6875 c 0.882812,0 1.328125,0.445312 1.328125,1.328125 v 4.28125 c 0,0.886719 -0.445313,1.328125 -1.328125,1.328125 H 12.890625 c -0.511719,0 -0.765625,0.234375 -0.765625,0.703125 v 8.78125 c 0,0.460937 0.253906,0.6875 0.765625,0.6875 H 26.09375 c 0.84375,0 1.265625,0.445313 1.265625,1.328125 v 4.296875 C 27.359375,-0.441406 26.9375,0 26.09375,0 Z m 0,0"
           id="path52" />
      </g>
    </g>
  </g>
  <g
     fill="#799e29"
     fill-opacity="1"
     id="g66"
     transform="translate(-74.492236,-38.957031)">
    <g
       transform="translate(116.40442,329.77631)"
       id="g64">
      <g
         id="g62">
        <path
           d="m 8.796875,0.234375 c -1.46875,0 -2.765625,-0.296875 -3.890625,-0.890625 -1.125,-0.59375 -2,-1.421875 -2.625,-2.484375 -0.625,-1.0625 -0.9375,-2.289063 -0.9375,-3.6875 V -13.25 c 0,-1.394531 0.3125,-2.625 0.9375,-3.6875 0.625,-1.070312 1.5,-1.898438 2.625,-2.484375 1.125,-0.582031 2.421875,-0.875 3.890625,-0.875 1.457031,0 2.742187,0.289063 3.859375,0.859375 1.125,0.574219 1.992188,1.355469 2.609375,2.34375 0.625,0.980469 0.9375,2.074219 0.9375,3.28125 v 0.04687 c 0,0.324219 -0.164063,0.484375 -0.484375,0.484375 h -3.078125 c -0.148437,0 -0.265625,-0.01953 -0.359375,-0.0625 -0.08594,-0.05078 -0.125,-0.101562 -0.125,-0.15625 v -0.203125 c 0,-0.882813 -0.308594,-1.625 -0.921875,-2.21875 -0.605469,-0.601563 -1.417969,-0.90625 -2.4375,-0.90625 -1.03125,0 -1.859375,0.324219 -2.484375,0.96875 -0.617188,0.636719 -0.921875,1.46875 -0.921875,2.5 v 6.65625 c 0,1.03125 0.332031,1.871094 1,2.515625 0.664063,0.636719 1.519531,0.953125 2.5625,0.953125 0.988281,0 1.78125,-0.257813 2.375,-0.78125 0.59375,-0.53125 0.890625,-1.265625 0.890625,-2.203125 V -7.48438 c 0,-0.113281 -0.05859,-0.171875 -0.171875,-0.171875 H 9 c -0.324219,0 -0.484375,-0.160156 -0.484375,-0.484375 V -10.5 c 0,-0.320312 0.160156,-0.484375 0.484375,-0.484375 h 6.71875 c 0.320312,0 0.484375,0.164063 0.484375,0.484375 v 3.640625 c 0,1.460937 -0.308594,2.726563 -0.921875,3.796875 -0.617188,1.0625 -1.480469,1.882812 -2.59375,2.453125 -1.117188,0.5625 -2.414062,0.84375 -3.890625,0.84375 z m 0,0"
           id="path60" />
      </g>
    </g>
  </g>
  <g
     fill="#799e29"
     fill-opacity="1"
     id="g74"
     transform="translate(-74.492236,-38.957031)">
    <g
       transform="translate(140.72514,329.77631)"
       id="g72">
      <g
         id="g70">
        <path
           d="m 14.65625,0 c -0.273438,0 -0.453125,-0.132812 -0.546875,-0.40625 l -0.8125,-2.65625 C 13.285156,-3.164062 13.226562,-3.21875 13.125,-3.21875 H 6.109375 c -0.09375,0 -0.152344,0.054688 -0.171875,0.15625 L 5.125,-0.40625 C 5.03125,-0.132812 4.851562,0 4.59375,0 H 1.265625 C 1.085938,0 0.960938,-0.0507812 0.890625,-0.15625 0.816406,-0.257812 0.804688,-0.390625 0.859375,-0.546875 l 6.109375,-19.125 c 0.09375,-0.269531 0.273438,-0.40625 0.546875,-0.40625 h 4.21875 c 0.257813,0 0.4375,0.136719 0.53125,0.40625 l 6.109375,19.125 c 0.01953,0.042969 0.03125,0.101563 0.03125,0.171875 0,0.117188 -0.04297,0.210938 -0.125,0.28125 C 18.207031,-0.03125 18.109375,0 17.984375,0 Z M 6.9375,-6.53125 c -0.023438,0.125 0.023438,0.1875 0.140625,0.1875 h 5.078125 c 0.113281,0 0.160156,-0.0625 0.140625,-0.1875 l -2.578125,-8.75 c -0.023438,-0.07031 -0.058594,-0.109375 -0.109375,-0.109375 -0.042969,0 -0.085937,0.03906 -0.125,0.109375 z m 0,0"
           id="path68" />
      </g>
    </g>
  </g>
  <g
     fill="#799e29"
     fill-opacity="1"
     id="g82"
     transform="translate(-74.492236,-38.957031)">
    <g
       transform="translate(166.8811,329.77631)"
       id="g80">
      <g
         id="g78">
        <path
           d="m 12.875,0 c -0.25,0 -0.445312,-0.125 -0.578125,-0.375 L 8.78125,-8.171875 C 8.738281,-8.265625 8.671875,-8.3125 8.578125,-8.3125 H 5.96875 c -0.117188,0 -0.171875,0.058594 -0.171875,0.171875 v 7.65625 C 5.796875,-0.160156 5.628906,0 5.296875,0 h -3.0625 C 1.910156,0 1.75,-0.160156 1.75,-0.484375 v -19.125 c 0,-0.320313 0.160156,-0.484375 0.484375,-0.484375 h 8.0625 c 1.21875,0 2.289063,0.257812 3.21875,0.765625 0.925781,0.5 1.640625,1.210937 2.140625,2.125 0.507812,0.917969 0.765625,1.96875 0.765625,3.15625 0,1.304687 -0.324219,2.421875 -0.96875,3.359375 -0.648437,0.929688 -1.542969,1.585938 -2.6875,1.96875 -0.0625,0.023438 -0.105469,0.058594 -0.125,0.109375 -0.02344,0.042969 -0.01172,0.085937 0.03125,0.125 l 3.78125,7.90625 c 0.0625,0.085937 0.09375,0.171875 0.09375,0.265625 0,0.09375 -0.04297,0.171875 -0.125,0.234375 C 16.347656,-0.0234375 16.242188,0 16.109375,0 Z M 5.96875,-16.59375 c -0.117188,0 -0.171875,0.05859 -0.171875,0.171875 v 4.8125 c 0,0.117187 0.054687,0.171875 0.171875,0.171875 H 9.6875 c 0.800781,0 1.457031,-0.234375 1.96875,-0.703125 0.507812,-0.46875 0.765625,-1.082031 0.765625,-1.84375 0,-0.769531 -0.257813,-1.394531 -0.765625,-1.875 -0.511719,-0.488281 -1.167969,-0.734375 -1.96875,-0.734375 z m 0,0"
           id="path76" />
      </g>
    </g>
  </g>
  <g
     fill="#799e29"
     fill-opacity="1"
     id="g90"
     transform="translate(-74.492236,-38.957031)">
    <g
       transform="translate(191.40255,329.77631)"
       id="g88">
      <g
         id="g86">
        <path
           d="M 2.234375,0 C 1.910156,0 1.75,-0.160156 1.75,-0.484375 v -19.09375 c 0,-0.332031 0.160156,-0.5 0.484375,-0.5 h 7.03125 c 1.425781,0 2.679687,0.257813 3.765625,0.765625 1.082031,0.511719 1.914062,1.226562 2.5,2.140625 0.59375,0.917969 0.890625,1.980469 0.890625,3.1875 v 7.90625 c 0,1.210937 -0.296875,2.273437 -0.890625,3.1875 -0.585938,0.917969 -1.417969,1.632813 -2.5,2.140625 C 11.945312,-0.25 10.691406,0 9.265625,0 Z m 3.5625,-3.640625 c 0,0.117187 0.054687,0.171875 0.171875,0.171875 h 3.4375 c 0.875,0 1.582031,-0.296875 2.125,-0.890625 0.550781,-0.59375 0.835938,-1.382813 0.859375,-2.375 v -6.59375 c 0,-1 -0.277344,-1.789063 -0.828125,-2.375 -0.542969,-0.59375 -1.273438,-0.890625 -2.1875,-0.890625 H 5.96875 c -0.117188,0 -0.171875,0.05859 -0.171875,0.171875 z m 0,0"
           id="path84" />
      </g>
    </g>
  </g>
  <g
     fill="#799e29"
     fill-opacity="1"
     id="g98"
     transform="translate(-74.492236,-38.957031)">
    <g
       transform="translate(216.03871,329.77631)"
       id="g96">
      <g
         id="g94">
        <path
           d="m 15.6875,-17.09375 c 0,0.335938 -0.164062,0.5 -0.484375,0.5 H 5.96875 c -0.117188,0 -0.171875,0.05859 -0.171875,0.171875 v 4.375 c 0,0.117187 0.054687,0.171875 0.171875,0.171875 h 5.984375 c 0.320313,0 0.484375,0.167969 0.484375,0.5 v 2.484375 c 0,0.324219 -0.164062,0.484375 -0.484375,0.484375 H 5.96875 c -0.117188,0 -0.171875,0.058594 -0.171875,0.171875 v 4.59375 c 0,0.117187 0.054687,0.171875 0.171875,0.171875 h 9.234375 c 0.320313,0 0.484375,0.164062 0.484375,0.484375 v 2.5 C 15.6875,-0.160156 15.523438,0 15.203125,0 H 2.234375 C 1.910156,0 1.75,-0.160156 1.75,-0.484375 v -19.09375 c 0,-0.332031 0.160156,-0.5 0.484375,-0.5 h 12.96875 c 0.320313,0 0.484375,0.167969 0.484375,0.5 z m 0,0"
           id="path92" />
      </g>
    </g>
  </g>
  <g
     fill="#799e29"
     fill-opacity="1"
     id="g106"
     transform="translate(-74.492236,-38.957031)">
    <g
       transform="translate(239.69989,329.77631)"
       id="g104">
      <g
         id="g102">
        <path
           d="M 2.234375,0 C 1.910156,0 1.75,-0.160156 1.75,-0.484375 v -19.09375 c 0,-0.332031 0.160156,-0.5 0.484375,-0.5 H 5.1875 c 0.25,0 0.441406,0.109375 0.578125,0.328125 L 12.9375,-7.828125 c 0.03125,0.074219 0.06641,0.105469 0.109375,0.09375 0.05078,-0.019531 0.07813,-0.070313 0.07813,-0.15625 v -11.6875 c 0,-0.332031 0.164062,-0.5 0.5,-0.5 h 3 c 0.320312,0 0.484375,0.167969 0.484375,0.5 v 19.09375 C 17.109375,-0.160156 16.945312,0 16.625,0 H 13.703125 C 13.472656,0 13.28125,-0.113281 13.125,-0.34375 L 5.9375,-12.390625 c -0.042969,-0.07031 -0.089844,-0.09766 -0.140625,-0.07813 -0.042969,0.02344 -0.0625,0.07031 -0.0625,0.140625 l 0.03125,11.84375 C 5.765625,-0.160156 5.601562,0 5.28125,0 Z m 0,0"
           id="path100" />
      </g>
    </g>
  </g>
</svg>
