<svg xmlns="http://www.w3.org/2000/svg" xmlns:xlink="http://www.w3.org/1999/xlink" width="500" zoomAndPan="magnify" viewBox="0 0 375 374.999991" height="500" preserveAspectRatio="xMidYMid meet" version="1.0"><defs><g/><clipPath id="e8467ed566"><path d="M 113 103 L 268.425781 103 L 268.425781 244.175781 L 113 244.175781 Z M 113 103 " clip-rule="nonzero"/></clipPath><clipPath id="d5313e8125"><path d="M 74.488281 38.941406 L 187 38.941406 L 187 118 L 74.488281 118 Z M 74.488281 38.941406 " clip-rule="nonzero"/></clipPath></defs><g clip-path="url(#e8467ed566)"><path fill="#054d3b" d="M 192.371094 233.285156 C 205.730469 232.972656 218.636719 229.25 229.429688 222.8125 C 240.046875 216.449219 248.546875 207.371094 253.335938 196.277344 C 257.984375 185.460938 259.09375 172.589844 255.140625 158.257812 C 250.59375 141.875 239.386719 129.179688 226.0625 122.292969 C 220.722656 119.546875 215.101562 117.703125 209.445312 116.972656 C 203.859375 116.242188 198.273438 116.519531 192.964844 118.015625 C 182.9375 120.796875 173.8125 127.824219 167.496094 140.066406 C 163.886719 147.09375 162.253906 154.78125 162.535156 162.398438 C 162.605469 164.414062 162.8125 166.398438 163.160156 168.378906 C 163.332031 169.492188 163.574219 170.640625 163.890625 171.71875 L 163.890625 171.753906 C 166.179688 180.414062 171.835938 187.859375 179.675781 192.378906 C 172.667969 185.285156 168.226562 176.066406 167.046875 166.257812 C 169.511719 162.570312 172.320312 159.613281 175.339844 157.25 C 182.488281 151.578125 190.535156 149.386719 197.441406 148.414062 C 221.101562 145.109375 229.917969 161.699219 243.347656 177.351562 C 244.492188 178.707031 244.492188 180.691406 243.308594 182.011719 C 243.242188 182.082031 243.136719 182.1875 243.066406 182.292969 C 242.375 183.089844 241.4375 183.472656 240.398438 183.472656 C 239.320312 183.472656 238.417969 183.023438 237.726562 182.222656 L 232.972656 176.550781 C 232.867188 178.742188 232.453125 180.96875 231.792969 183.125 C 228.738281 192.726562 220.171875 201.597656 205.039062 205.421875 C 196.644531 207.578125 187.933594 207.261719 180.023438 204.621094 C 172.285156 202.046875 165.347656 197.246094 160.210938 190.394531 L 160.175781 190.324219 L 159.96875 189.976562 C 154.835938 181.628906 152.058594 172.269531 151.710938 162.777344 C 151.332031 153.351562 153.378906 143.785156 157.851562 135.089844 C 165.695312 119.890625 177.285156 111.089844 190.089844 107.507812 C 196.816406 105.664062 203.863281 105.246094 210.835938 106.1875 C 217.777344 107.089844 224.613281 109.316406 231.027344 112.621094 C 246.847656 120.828125 260.207031 135.886719 265.585938 155.332031 C 270.269531 172.269531 268.917969 187.574219 263.332031 200.582031 C 257.605469 213.832031 247.507812 224.617188 234.984375 232.128906 C 222.632812 239.539062 207.851562 243.78125 192.585938 244.128906 C 150.289062 245.101562 109.035156 217.28125 114.273438 170.636719 C 116.667969 149.382812 126.175781 126.53125 131.414062 103.574219 C 134.988281 126.117188 123.957031 149.382812 123.78125 172.722656 C 123.46875 211.328125 156.117188 234.113281 192.375 233.28125 Z M 192.371094 233.285156 " fill-opacity="1" fill-rule="nonzero"/></g><g clip-path="url(#d5313e8125)"><path fill="#799e29" d="M 178.53125 71.890625 C 157.570312 76.449219 141.023438 92.519531 135.78125 113.386719 C 133.421875 99.613281 138.175781 85.5625 148.378906 76.066406 C 158.613281 66.566406 172.945312 62.917969 186.472656 66.328125 C 187.273438 79.648438 182.519531 92.726562 173.289062 102.359375 C 164.0625 111.996094 151.257812 117.316406 137.9375 117.074219 C 143.835938 96.550781 158.789062 79.890625 178.53125 71.886719 Z M 85.578125 48.449219 C 110.003906 60.933594 125.269531 86.222656 124.921875 113.734375 C 132.347656 97.457031 131.066406 78.535156 121.488281 63.476562 C 111.945312 48.378906 95.433594 39.160156 77.597656 38.957031 C 72.21875 55.160156 73.886719 72.902344 82.140625 87.824219 C 90.433594 102.746094 104.523438 113.5625 121.105469 117.5625 C 120.484375 90.292969 107.402344 64.800781 85.578125 48.449219 Z M 85.578125 48.449219 " fill-opacity="1" fill-rule="evenodd"/></g><g fill="#054d3b" fill-opacity="1"><g transform="translate(99.139548, 303.910294)"><g><path d="M 31.078125 -40.625 L 40.4375 -40.625 C 41.3125 -40.625 41.75 -40.179688 41.75 -39.296875 L 41.75 -1.328125 C 41.75 -0.441406 41.3125 0 40.4375 0 L 35.25 0 C 34.363281 0 33.921875 -0.441406 33.921875 -1.328125 L 33.921875 -31.265625 L 33.671875 -31.265625 L 27.234375 -10.109375 C 26.972656 -9.265625 26.441406 -8.84375 25.640625 -8.84375 L 20.34375 -8.84375 C 19.539062 -8.84375 19.015625 -9.265625 18.765625 -10.109375 L 12.1875 -31.328125 L 11.9375 -31.328125 L 11.9375 -1.328125 C 11.9375 -0.816406 11.851562 -0.46875 11.6875 -0.28125 C 11.519531 -0.09375 11.160156 0 10.609375 0 L 5.4375 0 C 4.550781 0 4.109375 -0.441406 4.109375 -1.328125 L 4.109375 -39.296875 C 4.109375 -40.179688 4.550781 -40.625 5.4375 -40.625 L 14.84375 -40.625 C 15.4375 -40.625 15.835938 -40.328125 16.046875 -39.734375 L 22.734375 -17.4375 L 23.125 -17.4375 L 29.875 -39.734375 C 30 -40.328125 30.398438 -40.625 31.078125 -40.625 Z M 31.078125 -40.625 "/></g></g></g><g fill="#054d3b" fill-opacity="1"><g transform="translate(148.982545, 303.910294)"><g><path d="M 15.15625 -6.953125 L 19.640625 -6.953125 C 20.992188 -6.953125 21.953125 -7.234375 22.515625 -7.796875 C 23.085938 -8.367188 23.375 -9.328125 23.375 -10.671875 L 23.375 -29.9375 C 23.375 -31.289062 23.085938 -32.25 22.515625 -32.8125 C 21.953125 -33.382812 20.992188 -33.671875 19.640625 -33.671875 L 15.15625 -33.671875 C 13.8125 -33.671875 12.863281 -33.382812 12.3125 -32.8125 C 11.769531 -32.25 11.5 -31.289062 11.5 -29.9375 L 11.5 -10.671875 C 11.5 -9.328125 11.769531 -8.367188 12.3125 -7.796875 C 12.863281 -7.234375 13.8125 -6.953125 15.15625 -6.953125 Z M 20.96875 0 L 13.890625 0 C 10.566406 0 8 -0.882812 6.1875 -2.65625 C 4.375 -4.425781 3.46875 -6.972656 3.46875 -10.296875 L 3.46875 -30.328125 C 3.46875 -33.648438 4.375 -36.195312 6.1875 -37.96875 C 8 -39.738281 10.566406 -40.625 13.890625 -40.625 L 20.96875 -40.625 C 24.300781 -40.625 26.867188 -39.738281 28.671875 -37.96875 C 30.484375 -36.195312 31.390625 -33.648438 31.390625 -30.328125 L 31.390625 -10.296875 C 31.390625 -6.972656 30.484375 -4.425781 28.671875 -2.65625 C 26.867188 -0.882812 24.300781 0 20.96875 0 Z M 20.96875 0 "/></g></g></g><g fill="#054d3b" fill-opacity="1"><g transform="translate(187.833609, 303.910294)"><g><path d="M 20.65625 0 L 12.375 0 C 11.5 0 10.972656 -0.441406 10.796875 -1.328125 L 1.015625 -39.171875 C 0.710938 -40.140625 1.132812 -40.625 2.28125 -40.625 L 8.21875 -40.625 C 9.050781 -40.625 9.554688 -40.179688 9.734375 -39.296875 L 16.359375 -8.21875 L 16.609375 -8.21875 L 23.25 -39.296875 C 23.414062 -40.179688 23.921875 -40.625 24.765625 -40.625 L 30.703125 -40.625 C 31.753906 -40.625 32.175781 -40.140625 31.96875 -39.171875 L 22.171875 -1.328125 C 21.960938 -0.441406 21.457031 0 20.65625 0 Z M 20.65625 0 "/></g></g></g><g fill="#054d3b" fill-opacity="1"><g transform="translate(224.726347, 303.910294)"><g><path d="M 12.4375 -39.296875 L 12.4375 -1.328125 C 12.4375 -0.441406 12 0 11.125 0 L 5.75 0 C 4.863281 0 4.421875 -0.441406 4.421875 -1.328125 L 4.421875 -39.296875 C 4.421875 -40.179688 4.863281 -40.625 5.75 -40.625 L 11.125 -40.625 C 12 -40.625 12.4375 -40.179688 12.4375 -39.296875 Z M 12.4375 -39.296875 "/></g></g></g><g fill="#054d3b" fill-opacity="1"><g transform="translate(245.573408, 303.910294)"><g><path d="M 26.09375 0 L 5.4375 0 C 4.550781 0 4.109375 -0.441406 4.109375 -1.328125 L 4.109375 -39.296875 C 4.109375 -40.179688 4.550781 -40.625 5.4375 -40.625 L 26.09375 -40.625 C 26.9375 -40.625 27.359375 -40.179688 27.359375 -39.296875 L 27.359375 -35 C 27.359375 -34.113281 26.9375 -33.671875 26.09375 -33.671875 L 12.890625 -33.671875 C 12.378906 -33.671875 12.125 -33.4375 12.125 -32.96875 L 12.125 -24.765625 C 12.125 -24.296875 12.378906 -24.0625 12.890625 -24.0625 L 23.6875 -24.0625 C 24.570312 -24.0625 25.015625 -23.617188 25.015625 -22.734375 L 25.015625 -18.453125 C 25.015625 -17.566406 24.570312 -17.125 23.6875 -17.125 L 12.890625 -17.125 C 12.378906 -17.125 12.125 -16.890625 12.125 -16.421875 L 12.125 -7.640625 C 12.125 -7.179688 12.378906 -6.953125 12.890625 -6.953125 L 26.09375 -6.953125 C 26.9375 -6.953125 27.359375 -6.507812 27.359375 -5.625 L 27.359375 -1.328125 C 27.359375 -0.441406 26.9375 0 26.09375 0 Z M 26.09375 0 "/></g></g></g><g fill="#799e29" fill-opacity="1"><g transform="translate(116.404419, 329.776307)"><g><path d="M 8.796875 0.234375 C 7.328125 0.234375 6.03125 -0.0625 4.90625 -0.65625 C 3.78125 -1.25 2.90625 -2.078125 2.28125 -3.140625 C 1.65625 -4.203125 1.34375 -5.429688 1.34375 -6.828125 L 1.34375 -13.25 C 1.34375 -14.644531 1.65625 -15.875 2.28125 -16.9375 C 2.90625 -18.007812 3.78125 -18.835938 4.90625 -19.421875 C 6.03125 -20.003906 7.328125 -20.296875 8.796875 -20.296875 C 10.253906 -20.296875 11.539062 -20.007812 12.65625 -19.4375 C 13.78125 -18.863281 14.648438 -18.082031 15.265625 -17.09375 C 15.890625 -16.113281 16.203125 -15.019531 16.203125 -13.8125 L 16.203125 -13.765625 C 16.203125 -13.441406 16.039062 -13.28125 15.71875 -13.28125 L 12.640625 -13.28125 C 12.492188 -13.28125 12.375 -13.300781 12.28125 -13.34375 C 12.195312 -13.394531 12.15625 -13.445312 12.15625 -13.5 L 12.15625 -13.703125 C 12.15625 -14.585938 11.847656 -15.328125 11.234375 -15.921875 C 10.628906 -16.523438 9.816406 -16.828125 8.796875 -16.828125 C 7.765625 -16.828125 6.9375 -16.503906 6.3125 -15.859375 C 5.695312 -15.222656 5.390625 -14.390625 5.390625 -13.359375 L 5.390625 -6.703125 C 5.390625 -5.671875 5.722656 -4.832031 6.390625 -4.1875 C 7.054688 -3.550781 7.910156 -3.234375 8.953125 -3.234375 C 9.941406 -3.234375 10.734375 -3.492188 11.328125 -4.015625 C 11.921875 -4.546875 12.21875 -5.28125 12.21875 -6.21875 L 12.21875 -7.484375 C 12.21875 -7.597656 12.160156 -7.65625 12.046875 -7.65625 L 9 -7.65625 C 8.675781 -7.65625 8.515625 -7.816406 8.515625 -8.140625 L 8.515625 -10.5 C 8.515625 -10.820312 8.675781 -10.984375 9 -10.984375 L 15.71875 -10.984375 C 16.039062 -10.984375 16.203125 -10.820312 16.203125 -10.5 L 16.203125 -6.859375 C 16.203125 -5.398438 15.894531 -4.132812 15.28125 -3.0625 C 14.664062 -2 13.800781 -1.179688 12.6875 -0.609375 C 11.570312 -0.046875 10.273438 0.234375 8.796875 0.234375 Z M 8.796875 0.234375 "/></g></g></g><g fill="#799e29" fill-opacity="1"><g transform="translate(140.72514, 329.776307)"><g><path d="M 14.65625 0 C 14.382812 0 14.203125 -0.132812 14.109375 -0.40625 L 13.296875 -3.0625 C 13.285156 -3.164062 13.226562 -3.21875 13.125 -3.21875 L 6.109375 -3.21875 C 6.015625 -3.21875 5.957031 -3.164062 5.9375 -3.0625 L 5.125 -0.40625 C 5.03125 -0.132812 4.851562 0 4.59375 0 L 1.265625 0 C 1.085938 0 0.960938 -0.0507812 0.890625 -0.15625 C 0.816406 -0.257812 0.804688 -0.390625 0.859375 -0.546875 L 6.96875 -19.671875 C 7.0625 -19.941406 7.242188 -20.078125 7.515625 -20.078125 L 11.734375 -20.078125 C 11.992188 -20.078125 12.171875 -19.941406 12.265625 -19.671875 L 18.375 -0.546875 C 18.394531 -0.503906 18.40625 -0.445312 18.40625 -0.375 C 18.40625 -0.257812 18.363281 -0.164062 18.28125 -0.09375 C 18.207031 -0.03125 18.109375 0 17.984375 0 Z M 6.9375 -6.53125 C 6.914062 -6.40625 6.960938 -6.34375 7.078125 -6.34375 L 12.15625 -6.34375 C 12.269531 -6.34375 12.316406 -6.40625 12.296875 -6.53125 L 9.71875 -15.28125 C 9.695312 -15.351562 9.660156 -15.390625 9.609375 -15.390625 C 9.566406 -15.390625 9.523438 -15.351562 9.484375 -15.28125 Z M 6.9375 -6.53125 "/></g></g></g><g fill="#799e29" fill-opacity="1"><g transform="translate(166.881104, 329.776307)"><g><path d="M 12.875 0 C 12.625 0 12.429688 -0.125 12.296875 -0.375 L 8.78125 -8.171875 C 8.738281 -8.265625 8.671875 -8.3125 8.578125 -8.3125 L 5.96875 -8.3125 C 5.851562 -8.3125 5.796875 -8.253906 5.796875 -8.140625 L 5.796875 -0.484375 C 5.796875 -0.160156 5.628906 0 5.296875 0 L 2.234375 0 C 1.910156 0 1.75 -0.160156 1.75 -0.484375 L 1.75 -19.609375 C 1.75 -19.929688 1.910156 -20.09375 2.234375 -20.09375 L 10.296875 -20.09375 C 11.515625 -20.09375 12.585938 -19.835938 13.515625 -19.328125 C 14.441406 -18.828125 15.15625 -18.117188 15.65625 -17.203125 C 16.164062 -16.285156 16.421875 -15.234375 16.421875 -14.046875 C 16.421875 -12.742188 16.097656 -11.625 15.453125 -10.6875 C 14.804688 -9.757812 13.910156 -9.101562 12.765625 -8.71875 C 12.703125 -8.695312 12.660156 -8.660156 12.640625 -8.609375 C 12.617188 -8.566406 12.628906 -8.523438 12.671875 -8.484375 L 16.453125 -0.578125 C 16.515625 -0.492188 16.546875 -0.40625 16.546875 -0.3125 C 16.546875 -0.21875 16.503906 -0.140625 16.421875 -0.078125 C 16.347656 -0.0234375 16.242188 0 16.109375 0 Z M 5.96875 -16.59375 C 5.851562 -16.59375 5.796875 -16.535156 5.796875 -16.421875 L 5.796875 -11.609375 C 5.796875 -11.492188 5.851562 -11.4375 5.96875 -11.4375 L 9.6875 -11.4375 C 10.488281 -11.4375 11.144531 -11.671875 11.65625 -12.140625 C 12.164062 -12.609375 12.421875 -13.222656 12.421875 -13.984375 C 12.421875 -14.753906 12.164062 -15.378906 11.65625 -15.859375 C 11.144531 -16.347656 10.488281 -16.59375 9.6875 -16.59375 Z M 5.96875 -16.59375 "/></g></g></g><g fill="#799e29" fill-opacity="1"><g transform="translate(191.402555, 329.776307)"><g><path d="M 2.234375 0 C 1.910156 0 1.75 -0.160156 1.75 -0.484375 L 1.75 -19.578125 C 1.75 -19.910156 1.910156 -20.078125 2.234375 -20.078125 L 9.265625 -20.078125 C 10.691406 -20.078125 11.945312 -19.820312 13.03125 -19.3125 C 14.113281 -18.800781 14.945312 -18.085938 15.53125 -17.171875 C 16.125 -16.253906 16.421875 -15.191406 16.421875 -13.984375 L 16.421875 -6.078125 C 16.421875 -4.867188 16.125 -3.804688 15.53125 -2.890625 C 14.945312 -1.972656 14.113281 -1.257812 13.03125 -0.75 C 11.945312 -0.25 10.691406 0 9.265625 0 Z M 5.796875 -3.640625 C 5.796875 -3.523438 5.851562 -3.46875 5.96875 -3.46875 L 9.40625 -3.46875 C 10.28125 -3.46875 10.988281 -3.765625 11.53125 -4.359375 C 12.082031 -4.953125 12.367188 -5.742188 12.390625 -6.734375 L 12.390625 -13.328125 C 12.390625 -14.328125 12.113281 -15.117188 11.5625 -15.703125 C 11.019531 -16.296875 10.289062 -16.59375 9.375 -16.59375 L 5.96875 -16.59375 C 5.851562 -16.59375 5.796875 -16.535156 5.796875 -16.421875 Z M 5.796875 -3.640625 "/></g></g></g><g fill="#799e29" fill-opacity="1"><g transform="translate(216.038714, 329.776307)"><g><path d="M 15.6875 -17.09375 C 15.6875 -16.757812 15.523438 -16.59375 15.203125 -16.59375 L 5.96875 -16.59375 C 5.851562 -16.59375 5.796875 -16.535156 5.796875 -16.421875 L 5.796875 -12.046875 C 5.796875 -11.929688 5.851562 -11.875 5.96875 -11.875 L 11.953125 -11.875 C 12.273438 -11.875 12.4375 -11.707031 12.4375 -11.375 L 12.4375 -8.890625 C 12.4375 -8.566406 12.273438 -8.40625 11.953125 -8.40625 L 5.96875 -8.40625 C 5.851562 -8.40625 5.796875 -8.347656 5.796875 -8.234375 L 5.796875 -3.640625 C 5.796875 -3.523438 5.851562 -3.46875 5.96875 -3.46875 L 15.203125 -3.46875 C 15.523438 -3.46875 15.6875 -3.304688 15.6875 -2.984375 L 15.6875 -0.484375 C 15.6875 -0.160156 15.523438 0 15.203125 0 L 2.234375 0 C 1.910156 0 1.75 -0.160156 1.75 -0.484375 L 1.75 -19.578125 C 1.75 -19.910156 1.910156 -20.078125 2.234375 -20.078125 L 15.203125 -20.078125 C 15.523438 -20.078125 15.6875 -19.910156 15.6875 -19.578125 Z M 15.6875 -17.09375 "/></g></g></g><g fill="#799e29" fill-opacity="1"><g transform="translate(239.699893, 329.776307)"><g><path d="M 2.234375 0 C 1.910156 0 1.75 -0.160156 1.75 -0.484375 L 1.75 -19.578125 C 1.75 -19.910156 1.910156 -20.078125 2.234375 -20.078125 L 5.1875 -20.078125 C 5.4375 -20.078125 5.628906 -19.96875 5.765625 -19.75 L 12.9375 -7.828125 C 12.96875 -7.753906 13.003906 -7.722656 13.046875 -7.734375 C 13.097656 -7.753906 13.125 -7.804688 13.125 -7.890625 L 13.125 -19.578125 C 13.125 -19.910156 13.289062 -20.078125 13.625 -20.078125 L 16.625 -20.078125 C 16.945312 -20.078125 17.109375 -19.910156 17.109375 -19.578125 L 17.109375 -0.484375 C 17.109375 -0.160156 16.945312 0 16.625 0 L 13.703125 0 C 13.472656 0 13.28125 -0.113281 13.125 -0.34375 L 5.9375 -12.390625 C 5.894531 -12.460938 5.847656 -12.488281 5.796875 -12.46875 C 5.753906 -12.445312 5.734375 -12.398438 5.734375 -12.328125 L 5.765625 -0.484375 C 5.765625 -0.160156 5.601562 0 5.28125 0 Z M 2.234375 0 "/></g></g></g></svg>