<?xml version="1.0" encoding="UTF-8" standalone="no"?>
<svg
   width="398.23181"
   zoomAndPan="magnify"
   viewBox="0 0 298.67386 166.69713"
   height="222.26285"
   preserveAspectRatio="xMidYMid"
   version="1.0"
   id="svg79"
   sodipodi:docname="MyGym.svg"
   inkscape:version="1.2.2 (732a01da63, 2022-12-09)"
   xmlns:inkscape="http://www.inkscape.org/namespaces/inkscape"
   xmlns:sodipodi="http://sodipodi.sourceforge.net/DTD/sodipodi-0.dtd"
   xmlns="http://www.w3.org/2000/svg"
   xmlns:svg="http://www.w3.org/2000/svg">
  <sodipodi:namedview
     id="namedview81"
     pagecolor="#ffffff"
     bordercolor="#000000"
     borderopacity="0.25"
     inkscape:showpageshadow="2"
     inkscape:pageopacity="0.0"
     inkscape:pagecheckerboard="0"
     inkscape:deskcolor="#d1d1d1"
     showgrid="false"
     inkscape:zoom="1.674"
     inkscape:cx="115.5914"
     inkscape:cy="101.55317"
     inkscape:window-width="1920"
     inkscape:window-height="1017"
     inkscape:window-x="1912"
     inkscape:window-y="-8"
     inkscape:window-maximized="1"
     inkscape:current-layer="svg79" />
  <defs
     id="defs7">
    <g
       id="g2" />
    <clipPath
       id="a3cb644ab0">
      <path
         d="m 137,167 h 105 v 55.58984 H 137 Z m 0,0"
         clip-rule="nonzero"
         id="path4" />
    </clipPath>
  </defs>
  <path
     fill="#e6557e"
     d="m 207.32521,51.900319 c 14.45312,-32.59375 -20.57813,-75.191405 -57.92188,-36.53515 -38.42968,-39.781255 -74.406241,6.48828 -56.519531,39.35156 38.148441,-5.26172 76.296881,-4.29688 114.441411,-2.81641 z m 0,0"
     fill-opacity="1"
     fill-rule="nonzero"
     id="path9" />
  <g
     clip-path="url(#a3cb644ab0)"
     id="g13"
     transform="translate(-38.237291,-111.24421)">
    <path
       fill="#ff8243"
       d="m 137.12891,175.16797 c 17.50781,23.44922 50.52343,47.39844 50.52343,47.39844 3.76563,-2.6875 38.49219,-27.92579 54.19532,-52.67969 -35.1875,-4.05078 -69.66016,-2.30078 -104.71875,5.28125 z m 0,0"
       fill-opacity="1"
       fill-rule="nonzero"
       id="path11" />
  </g>
  <path
     fill="#472046"
     d="m 245.23537,108.59563 -7.57032,-2.62109 c -2.58984,-0.89844 -3.96093,-3.72656 -3.0625,-6.308591 l 25.3711,-72.73438 c 0.89843,-2.58594 3.73437,-3.95312 6.32422,-3.05469 l 7.5664,2.6211 c 2.59375,0.89843 3.96485,3.72265 3.0625,6.30859 l -25.36328,72.734381 c -0.90625,2.58593 -3.73437,3.95312 -6.32812,3.05468 z m 0,0"
     fill-opacity="1"
     fill-rule="nonzero"
     id="path15" />
  <path
     fill="#472046"
     d="m 263.66505,103.59954 -4.13672,-1.43359 c -2.3789,-0.82813 -3.64062,-3.421881 -2.8125,-5.796881 l 18.55079,-53.18359 c 0.82812,-2.3711 3.42968,-3.62891 5.8125,-2.80469 l 4.13281,1.4375 c 2.3789,0.82812 3.64062,3.41797 2.8125,5.79687 l -18.54688,53.179691 c -0.83203,2.37891 -3.43359,3.63281 -5.8125,2.80469 z m 0,0"
     fill-opacity="1"
     fill-rule="nonzero"
     id="path17" />
  <path
     fill="#472046"
     d="m 277.98146,94.466729 c -2.37891,-0.82813 -3.64063,-3.41797 -2.8125,-5.79688 l 9.77734,-28.02734 c 0.82813,-2.3711 3.42578,-3.62891 5.8125,-2.80469 2.37891,0.82813 3.64063,3.41797 2.8125,5.79688 l -9.77734,28.02734 c -0.82813,2.375 -3.43359,3.62891 -5.8125,2.80469 z m 0,0"
     fill-opacity="1"
     fill-rule="nonzero"
     id="path19" />
  <path
     fill="#472046"
     d="m 292.39552,85.849539 -4.60156,-1.59766 4.30078,-12.32422 4.60156,1.59766 c 1.53907,0.53125 2.34766,2.20703 1.8125,3.73828 l -2.35937,6.77735 c -0.53516,1.53125 -2.21485,2.33984 -3.75391,1.80859 z m 0,0"
     fill-opacity="1"
     fill-rule="nonzero"
     id="path21" />
  <path
     fill="#472046"
     d="m 53.442397,108.75579 7.566406,-2.62109 c 2.589846,-0.89844 3.960936,-3.72266 3.062496,-6.308601 l -25.37109,-72.73437 c -0.902344,-2.58594 -3.734375,-3.95313 -6.328125,-3.05469 l -7.566406,2.62109 c -2.589844,0.89844 -3.964844,3.72657 -3.0625,6.3086 L 47.110365,105.7011 c 0.90625,2.58985 3.738282,3.95703 6.332032,3.05469 z m 0,0"
     fill-opacity="1"
     fill-rule="nonzero"
     id="path23" />
  <path
     fill="#472046"
     d="m 35.008803,103.76751 4.136718,-1.4375 c 2.378907,-0.82422 3.640626,-3.417971 2.8125,-5.796881 L 23.40724,43.353449 c -0.828125,-2.375 -3.429687,-3.63282 -5.8125,-2.80469 l -4.132812,1.43359 c -2.378907,0.82813 -3.6406252,3.42188 -2.8125,5.79688 l 18.550781,53.183591 c 0.828125,2.37109 3.429688,3.62891 5.808594,2.80469 z m 0,0"
     fill-opacity="1"
     fill-rule="nonzero"
     id="path25" />
  <path
     fill="#472046"
     d="m 20.692397,94.630789 c 2.378906,-0.82422 3.640624,-3.41797 2.8125,-5.79688 l -9.773438,-28.02343 c -0.832031,-2.375 -3.429688,-3.63282 -5.8125002,-2.8086 -2.378906,0.82813 -3.640625,3.42188 -2.8125,5.79688 l 9.7734382,28.02734 c 0.828124,2.37891 3.433593,3.63281 5.8125,2.80469 z m 0,0"
     fill-opacity="1"
     fill-rule="nonzero"
     id="path27" />
  <path
     fill="#472046"
     d="m 6.2783338,86.013599 4.6015632,-1.59765 -4.3007822,-12.32422 -4.601562,1.59765 c -1.53906302,0.53516 -2.34765602,2.20703 -1.81250002,3.74219 l 2.35937502,6.77344 c 0.539062,1.52734 2.214843,2.34375 3.753906,1.80859 z m 0,0"
     fill-opacity="1"
     fill-rule="nonzero"
     id="path29" />
  <path
     fill="#472046"
     d="m 247.11427,68.876879 c -66.51953,-19.9375 -128.91797,-19.92578 -195.414061,0 -1.480469,-4.30859 -2.222656,-6.46484 -3.703125,-10.77734 68.796876,-20.85938 134.007816,-20.86328 202.816406,0 -1.48047,4.3125 -2.21875,6.46484 -3.69922,10.77734 z m 0,0"
     fill-opacity="1"
     fill-rule="nonzero"
     id="path31" />
  <g
     fill="#472046"
     fill-opacity="1"
     id="g39"
     transform="translate(-38.237291,-111.24421)">
    <g
       transform="translate(104.51368,272.09988)"
       id="g37">
      <g
         id="g35">
        <path
           d="m 25.578125,-31.984375 c 0.144531,-0.25 0.382813,-0.351563 0.71875,-0.3125 l 5.78125,0.640625 c 0.164063,0.02344 0.300781,0.09375 0.40625,0.21875 0.101563,0.117188 0.144531,0.257812 0.125,0.421875 L 28.890625,2.59375 C 28.867188,2.757812 28.796875,2.894531 28.671875,3 c -0.125,0.101562 -0.273437,0.144531 -0.4375,0.125 L 22.40625,2.484375 C 22.238281,2.460938 22.101562,2.382812 22,2.25 21.894531,2.125 21.851562,1.976562 21.875,1.8125 L 24.3125,-20.25 c 0.01953,-0.132812 0,-0.210938 -0.0625,-0.234375 -0.0625,-0.01953 -0.132812,0.01172 -0.203125,0.09375 l -5.421875,7.0625 c -0.167969,0.242187 -0.414062,0.34375 -0.734375,0.3125 l -1.140625,-0.125 c -0.335938,-0.03906 -0.554688,-0.195313 -0.65625,-0.46875 l -3.734375,-8.0625 c -0.0625,-0.101563 -0.132813,-0.148437 -0.203125,-0.140625 -0.0625,0 -0.105469,0.07031 -0.125,0.203125 l -2.4375,22.0625 C 9.570312,0.617188 9.5,0.753906 9.375,0.859375 9.25,0.960938 9.109375,1.003906 8.953125,0.984375 L 3.140625,0.34375 C 2.972656,0.320312 2.832031,0.25 2.71875,0.125 2.613281,0 2.570312,-0.144531 2.59375,-0.3125 L 6.3125,-33.921875 c 0.019531,-0.164063 0.09375,-0.296875 0.21875,-0.390625 0.132812,-0.101562 0.285156,-0.144531 0.453125,-0.125 L 12.75,-33.796875 c 0.320312,0.03125 0.535156,0.1875 0.640625,0.46875 L 18.28125,-22.875 c 0.07031,0.199219 0.171875,0.210938 0.296875,0.03125 z m 0,0"
           id="path33" />
      </g>
    </g>
  </g>
  <g
     fill="#472046"
     fill-opacity="1"
     id="g47"
     transform="translate(-38.237291,-111.24421)">
    <g
       transform="translate(138.48534,275.73101)"
       id="g45">
      <g
         id="g43">
        <path
           d="m 10.6875,0.578125 c -0.167969,-0.011719 -0.308594,-0.085937 -0.421875,-0.21875 -0.105469,-0.125 -0.15625,-0.2734375 -0.15625,-0.4375 l 0.75,-12.78125 -0.03125,-0.296875 -7.4375,-21 c -0.03125,-0.07031 -0.046875,-0.171875 -0.046875,-0.296875 0.019531,-0.269531 0.195312,-0.394531 0.53125,-0.375 l 6.296875,0.359375 c 0.363281,0.02344 0.582031,0.203125 0.65625,0.546875 L 14.75,-21.03125 c 0.03125,0.09375 0.07813,0.148438 0.140625,0.15625 0.07031,0 0.125,-0.04687 0.15625,-0.140625 l 5.375,-12.359375 c 0.113281,-0.320312 0.359375,-0.472656 0.734375,-0.453125 l 6.28125,0.359375 c 0.226562,0.02344 0.367188,0.101562 0.421875,0.234375 0.0625,0.136719 0.05469,0.304687 -0.01563,0.5 l -9.875,20 -0.0625,0.296875 -0.75,12.78125 c 0,0.164062 -0.07031,0.300781 -0.203125,0.40625 -0.125,0.113281 -0.273437,0.164062 -0.4375,0.15625 z m 0,0"
           id="path41" />
      </g>
    </g>
  </g>
  <g
     fill="#472046"
     fill-opacity="1"
     id="g53"
     transform="translate(-38.237291,-111.24421)">
    <g
       transform="translate(168.00404,277.25973)"
       id="g51">
      <g
         id="g49" />
    </g>
  </g>
  <g
     fill="#472046"
     fill-opacity="1"
     id="g61"
     transform="translate(-38.237291,-111.24421)">
    <g
       transform="translate(180.25829,277.65945)"
       id="g59">
      <g
         id="g57">
        <path
           d="M 13.5,0.28125 C 11.226562,0.300781 9.222656,-0.128906 7.484375,-1.015625 5.753906,-1.898438 4.398438,-3.160156 3.421875,-4.796875 2.453125,-6.441406 1.957031,-8.347656 1.9375,-10.515625 L 1.8125,-24.5625 c -0.023438,-2.164062 0.4375,-4.070312 1.375,-5.71875 0.9375,-1.644531 2.265625,-2.925781 3.984375,-3.84375 1.71875,-0.914062 3.710937,-1.382812 5.984375,-1.40625 2.226562,-0.01953 4.222656,0.402344 5.984375,1.265625 1.757813,0.867187 3.125,2.085937 4.09375,3.65625 0.96875,1.574219 1.457031,3.359375 1.46875,5.359375 l 0.01563,1.09375 c 0,0.167969 -0.0625,0.3125 -0.1875,0.4375 -0.117188,0.125 -0.257812,0.1875 -0.421875,0.1875 l -5.84375,0.04687 c -0.167969,0.01172 -0.308594,-0.03906 -0.421875,-0.15625 -0.117188,-0.125 -0.171875,-0.269531 -0.171875,-0.4375 L 17.65625,-25.125 c -0.01172,-1.257812 -0.421875,-2.300781 -1.234375,-3.125 -0.804687,-0.832031 -1.871094,-1.238281 -3.203125,-1.21875 -1.335938,0.01172 -2.40625,0.453125 -3.21875,1.328125 -0.8125,0.867187 -1.210938,1.996094 -1.1875,3.390625 l 0.140625,14.3125 c 0.00781,1.398438 0.441406,2.527344 1.296875,3.390625 0.851562,0.855469 1.96875,1.273437 3.34375,1.25 1.289062,-0.00781 2.328125,-0.398437 3.109375,-1.171875 0.78125,-0.769531 1.164063,-1.820312 1.15625,-3.15625 l -0.03125,-3.09375 c 0,-0.164062 -0.08594,-0.25 -0.25,-0.25 l -3.90625,0.03125 c -0.167969,0.01172 -0.3125,-0.03906 -0.4375,-0.15625 -0.117187,-0.125 -0.171875,-0.269531 -0.171875,-0.4375 l -0.03125,-4.546875 C 13.01953,-18.742188 13.07031,-18.882812 13.1875,-19 c 0.113281,-0.113281 0.253906,-0.175781 0.421875,-0.1875 l 10.546875,-0.09375 c 0.164062,0 0.304688,0.05859 0.421875,0.171875 0.125,0.105469 0.191406,0.242187 0.203125,0.40625 l 0.0625,7.953125 c 0.03906,3.335938 -0.976562,5.996094 -3.046875,7.984375 C 19.734375,-0.773438 16.96875,0.238281 13.5,0.28125 Z m 0,0"
           id="path55" />
      </g>
    </g>
  </g>
  <g
     fill="#472046"
     fill-opacity="1"
     id="g69"
     transform="translate(-38.237291,-111.24421)">
    <g
       transform="translate(209.79786,277.31414)"
       id="g67">
      <g
         id="g65">
        <path
           d="m 10.6875,-0.671875 c -0.167969,0.011719 -0.320312,-0.035156 -0.453125,-0.140625 -0.125,-0.113281 -0.1875,-0.253906 -0.1875,-0.421875 l -0.75,-12.78125 -0.0625,-0.296875 -9.8125,-20 c -0.050781,-0.07031 -0.078125,-0.171875 -0.078125,-0.296875 -0.019531,-0.269531 0.136719,-0.414063 0.46875,-0.4375 l 6.296875,-0.359375 c 0.363281,-0.01953 0.601563,0.132812 0.71875,0.453125 l 5.390625,12.359375 c 0.03125,0.09375 0.07813,0.140625 0.140625,0.140625 0.07031,-0.0078 0.125,-0.0625 0.15625,-0.15625 L 16.421875,-35.5 c 0.07031,-0.34375 0.296875,-0.523438 0.671875,-0.546875 L 23.375,-36.40625 c 0.226562,-0.01953 0.378906,0.03906 0.453125,0.171875 0.08203,0.136719 0.09766,0.304687 0.04687,0.5 l -7.5,21 -0.03125,0.296875 0.75,12.78125 c 0,0.167969 -0.05859,0.320312 -0.171875,0.453125 -0.105469,0.125 -0.242187,0.195313 -0.40625,0.203125 z m 0,0"
           id="path63" />
      </g>
    </g>
  </g>
  <g
     fill="#472046"
     fill-opacity="1"
     id="g77"
     transform="translate(-38.237291,-111.24421)">
    <g
       transform="translate(239.66528,275.56636)"
       id="g75">
      <g
         id="g73">
        <path
           d="m 17.984375,-36.796875 c 0.08203,-0.269531 0.289063,-0.425781 0.625,-0.46875 l 5.78125,-0.640625 c 0.164063,-0.01953 0.3125,0.02344 0.4375,0.125 0.125,0.09375 0.195313,0.226562 0.21875,0.390625 l 3.71875,33.609375 c 0.01953,0.167969 -0.02344,0.3125 -0.125,0.4375 -0.105469,0.125 -0.242187,0.199219 -0.40625,0.21875 L 22.40625,-2.484375 C 22.238281,-2.460938 22.09375,-2.5 21.96875,-2.59375 21.84375,-2.695312 21.769531,-2.832031 21.75,-3 l -2.4375,-22.0625 c -0.02344,-0.132812 -0.0625,-0.207031 -0.125,-0.21875 -0.0625,-0.0078 -0.121094,0.03906 -0.171875,0.140625 l -3.765625,8.0625 c -0.105469,0.28125 -0.320312,0.4375 -0.640625,0.46875 l -1.140625,0.125 c -0.335938,0.04297 -0.585938,-0.0625 -0.75,-0.3125 l -5.390625,-7.0625 c -0.085937,-0.08203 -0.164063,-0.109375 -0.234375,-0.07813 -0.0625,0.02344 -0.085938,0.101562 -0.0625,0.234375 l 2.4375,22.0625 c 0.019531,0.167969 -0.023438,0.3125 -0.125,0.4375 -0.105469,0.125 -0.234375,0.199219 -0.390625,0.21875 l -5.8125,0.640625 C 2.972656,-0.320312 2.820312,-0.363281 2.6875,-0.46875 2.5625,-0.570312 2.488281,-0.707031 2.46875,-0.875 L -1.25,-34.484375 c -0.019531,-0.164063 0.027344,-0.304687 0.140625,-0.421875 0.105469,-0.125 0.242187,-0.195312 0.40625,-0.21875 L 5.0625,-35.765625 c 0.320312,-0.03125 0.566406,0.07422 0.734375,0.3125 l 7.046875,9.140625 c 0.113281,0.179688 0.210938,0.167969 0.296875,-0.03125 z m 0,0"
           id="path71" />
      </g>
    </g>
  </g>
</svg>
