<svg xmlns="http://www.w3.org/2000/svg" xmlns:xlink="http://www.w3.org/1999/xlink" width="500" zoomAndPan="magnify" viewBox="0 0 375 374.999991" height="500" preserveAspectRatio="xMidYMid meet" version="1.0"><defs><g/><clipPath id="a3cb644ab0"><path d="M 137 167 L 242 167 L 242 222.589844 L 137 222.589844 Z M 137 167 " clip-rule="nonzero"/></clipPath></defs><path fill="#e6557e" d="M 245.5625 163.144531 C 260.015625 130.550781 224.984375 87.953125 187.640625 126.609375 C 149.210938 86.828125 113.234375 133.097656 131.121094 165.960938 C 169.269531 160.699219 207.417969 161.664062 245.5625 163.144531 Z M 245.5625 163.144531 " fill-opacity="1" fill-rule="nonzero"/><g clip-path="url(#a3cb644ab0)"><path fill="#ff8243" d="M 137.128906 175.167969 C 154.636719 198.617188 187.652344 222.566406 187.652344 222.566406 C 191.417969 219.878906 226.144531 194.640625 241.847656 169.886719 C 206.660156 165.835938 172.1875 167.585938 137.128906 175.167969 Z M 137.128906 175.167969 " fill-opacity="1" fill-rule="nonzero"/></g><path fill="#472046" d="M 283.472656 219.839844 L 275.902344 217.21875 C 273.3125 216.320312 271.941406 213.492188 272.839844 210.910156 L 298.210938 138.175781 C 299.109375 135.589844 301.945312 134.222656 304.535156 135.121094 L 312.101562 137.742188 C 314.695312 138.640625 316.066406 141.464844 315.164062 144.050781 L 289.800781 216.785156 C 288.894531 219.371094 286.066406 220.738281 283.472656 219.839844 Z M 283.472656 219.839844 " fill-opacity="1" fill-rule="nonzero"/><path fill="#472046" d="M 301.902344 214.84375 L 297.765625 213.410156 C 295.386719 212.582031 294.125 209.988281 294.953125 207.613281 L 313.503906 154.429688 C 314.332031 152.058594 316.933594 150.800781 319.316406 151.625 L 323.449219 153.0625 C 325.828125 153.890625 327.089844 156.480469 326.261719 158.859375 L 307.714844 212.039062 C 306.882812 214.417969 304.28125 215.671875 301.902344 214.84375 Z M 301.902344 214.84375 " fill-opacity="1" fill-rule="nonzero"/><path fill="#472046" d="M 316.21875 205.710938 C 313.839844 204.882812 312.578125 202.292969 313.40625 199.914062 L 323.183594 171.886719 C 324.011719 169.515625 326.609375 168.257812 328.996094 169.082031 C 331.375 169.910156 332.636719 172.5 331.808594 174.878906 L 322.03125 202.90625 C 321.203125 205.28125 318.597656 206.535156 316.21875 205.710938 Z M 316.21875 205.710938 " fill-opacity="1" fill-rule="nonzero"/><path fill="#472046" d="M 330.632812 197.09375 L 326.03125 195.496094 L 330.332031 183.171875 L 334.933594 184.769531 C 336.472656 185.300781 337.28125 186.976562 336.746094 188.507812 L 334.386719 195.285156 C 333.851562 196.816406 332.171875 197.625 330.632812 197.09375 Z M 330.632812 197.09375 " fill-opacity="1" fill-rule="nonzero"/><path fill="#472046" d="M 91.679688 220 L 99.246094 217.378906 C 101.835938 216.480469 103.207031 213.65625 102.308594 211.070312 L 76.9375 138.335938 C 76.035156 135.75 73.203125 134.382812 70.609375 135.28125 L 63.042969 137.902344 C 60.453125 138.800781 59.078125 141.628906 59.980469 144.210938 L 85.347656 216.945312 C 86.253906 219.535156 89.085938 220.902344 91.679688 220 Z M 91.679688 220 " fill-opacity="1" fill-rule="nonzero"/><path fill="#472046" d="M 73.246094 215.011719 L 77.382812 213.574219 C 79.761719 212.75 81.023438 210.15625 80.195312 207.777344 L 61.644531 154.597656 C 60.816406 152.222656 58.214844 150.964844 55.832031 151.792969 L 51.699219 153.226562 C 49.320312 154.054688 48.058594 156.648438 48.886719 159.023438 L 67.4375 212.207031 C 68.265625 214.578125 70.867188 215.835938 73.246094 215.011719 Z M 73.246094 215.011719 " fill-opacity="1" fill-rule="nonzero"/><path fill="#472046" d="M 58.929688 205.875 C 61.308594 205.050781 62.570312 202.457031 61.742188 200.078125 L 51.96875 172.054688 C 51.136719 169.679688 48.539062 168.421875 46.15625 169.246094 C 43.777344 170.074219 42.515625 172.667969 43.34375 175.042969 L 53.117188 203.070312 C 53.945312 205.449219 56.550781 206.703125 58.929688 205.875 Z M 58.929688 205.875 " fill-opacity="1" fill-rule="nonzero"/><path fill="#472046" d="M 44.515625 197.257812 L 49.117188 195.660156 L 44.816406 183.335938 L 40.214844 184.933594 C 38.675781 185.46875 37.867188 187.140625 38.402344 188.675781 L 40.761719 195.449219 C 41.300781 196.976562 42.976562 197.792969 44.515625 197.257812 Z M 44.515625 197.257812 " fill-opacity="1" fill-rule="nonzero"/><path fill="#472046" d="M 285.351562 180.121094 C 218.832031 160.183594 156.433594 160.195312 89.9375 180.121094 C 88.457031 175.8125 87.714844 173.65625 86.234375 169.34375 C 155.03125 148.484375 220.242188 148.480469 289.050781 169.34375 C 287.570312 173.65625 286.832031 175.808594 285.351562 180.121094 Z M 285.351562 180.121094 " fill-opacity="1" fill-rule="nonzero"/><g fill="#472046" fill-opacity="1"><g transform="translate(104.513684, 272.099879)"><g><path d="M 25.578125 -31.984375 C 25.722656 -32.234375 25.960938 -32.335938 26.296875 -32.296875 L 32.078125 -31.65625 C 32.242188 -31.632812 32.378906 -31.5625 32.484375 -31.4375 C 32.585938 -31.320312 32.628906 -31.179688 32.609375 -31.015625 L 28.890625 2.59375 C 28.867188 2.757812 28.796875 2.894531 28.671875 3 C 28.546875 3.101562 28.398438 3.144531 28.234375 3.125 L 22.40625 2.484375 C 22.238281 2.460938 22.101562 2.382812 22 2.25 C 21.894531 2.125 21.851562 1.976562 21.875 1.8125 L 24.3125 -20.25 C 24.332031 -20.382812 24.3125 -20.460938 24.25 -20.484375 C 24.1875 -20.503906 24.117188 -20.472656 24.046875 -20.390625 L 18.625 -13.328125 C 18.457031 -13.085938 18.210938 -12.984375 17.890625 -13.015625 L 16.75 -13.140625 C 16.414062 -13.179688 16.195312 -13.335938 16.09375 -13.609375 L 12.359375 -21.671875 C 12.296875 -21.773438 12.226562 -21.820312 12.15625 -21.8125 C 12.09375 -21.8125 12.050781 -21.742188 12.03125 -21.609375 L 9.59375 0.453125 C 9.570312 0.617188 9.5 0.753906 9.375 0.859375 C 9.25 0.960938 9.109375 1.003906 8.953125 0.984375 L 3.140625 0.34375 C 2.972656 0.320312 2.832031 0.25 2.71875 0.125 C 2.613281 0 2.570312 -0.144531 2.59375 -0.3125 L 6.3125 -33.921875 C 6.332031 -34.085938 6.40625 -34.21875 6.53125 -34.3125 C 6.664062 -34.414062 6.816406 -34.457031 6.984375 -34.4375 L 12.75 -33.796875 C 13.070312 -33.765625 13.285156 -33.609375 13.390625 -33.328125 L 18.28125 -22.875 C 18.351562 -22.675781 18.453125 -22.664062 18.578125 -22.84375 Z M 25.578125 -31.984375 "/></g></g></g><g fill="#472046" fill-opacity="1"><g transform="translate(138.485339, 275.731012)"><g><path d="M 10.6875 0.578125 C 10.519531 0.566406 10.378906 0.492188 10.265625 0.359375 C 10.160156 0.234375 10.109375 0.0859375 10.109375 -0.078125 L 10.859375 -12.859375 L 10.828125 -13.15625 L 3.390625 -34.15625 C 3.359375 -34.226562 3.34375 -34.328125 3.34375 -34.453125 C 3.363281 -34.722656 3.539062 -34.847656 3.875 -34.828125 L 10.171875 -34.46875 C 10.535156 -34.445312 10.753906 -34.265625 10.828125 -33.921875 L 14.75 -21.03125 C 14.78125 -20.9375 14.828125 -20.882812 14.890625 -20.875 C 14.960938 -20.875 15.015625 -20.921875 15.046875 -21.015625 L 20.421875 -33.375 C 20.535156 -33.695312 20.78125 -33.847656 21.15625 -33.828125 L 27.4375 -33.46875 C 27.664062 -33.445312 27.804688 -33.367188 27.859375 -33.234375 C 27.921875 -33.097656 27.914062 -32.929688 27.84375 -32.734375 L 17.96875 -12.734375 L 17.90625 -12.4375 L 17.15625 0.34375 C 17.15625 0.507812 17.085938 0.644531 16.953125 0.75 C 16.828125 0.863281 16.679688 0.914062 16.515625 0.90625 Z M 10.6875 0.578125 "/></g></g></g><g fill="#472046" fill-opacity="1"><g transform="translate(168.004037, 277.259733)"><g/></g></g><g fill="#472046" fill-opacity="1"><g transform="translate(180.258288, 277.659455)"><g><path d="M 13.5 0.28125 C 11.226562 0.300781 9.222656 -0.128906 7.484375 -1.015625 C 5.753906 -1.898438 4.398438 -3.160156 3.421875 -4.796875 C 2.453125 -6.441406 1.957031 -8.347656 1.9375 -10.515625 L 1.8125 -24.5625 C 1.789062 -26.726562 2.25 -28.632812 3.1875 -30.28125 C 4.125 -31.925781 5.453125 -33.207031 7.171875 -34.125 C 8.890625 -35.039062 10.882812 -35.507812 13.15625 -35.53125 C 15.382812 -35.550781 17.378906 -35.128906 19.140625 -34.265625 C 20.898438 -33.398438 22.265625 -32.179688 23.234375 -30.609375 C 24.203125 -29.035156 24.691406 -27.25 24.703125 -25.25 L 24.71875 -24.15625 C 24.71875 -23.988281 24.65625 -23.84375 24.53125 -23.71875 C 24.414062 -23.59375 24.273438 -23.53125 24.109375 -23.53125 L 18.265625 -23.484375 C 18.097656 -23.472656 17.957031 -23.523438 17.84375 -23.640625 C 17.726562 -23.765625 17.671875 -23.910156 17.671875 -24.078125 L 17.65625 -25.125 C 17.644531 -26.382812 17.234375 -27.425781 16.421875 -28.25 C 15.617188 -29.082031 14.550781 -29.488281 13.21875 -29.46875 C 11.882812 -29.457031 10.8125 -29.015625 10 -28.140625 C 9.1875 -27.273438 8.789062 -26.144531 8.8125 -24.75 L 8.953125 -10.4375 C 8.960938 -9.039062 9.394531 -7.910156 10.25 -7.046875 C 11.101562 -6.191406 12.21875 -5.773438 13.59375 -5.796875 C 14.882812 -5.804688 15.921875 -6.195312 16.703125 -6.96875 C 17.484375 -7.738281 17.867188 -8.789062 17.859375 -10.125 L 17.828125 -13.21875 C 17.828125 -13.382812 17.742188 -13.46875 17.578125 -13.46875 L 13.671875 -13.4375 C 13.503906 -13.425781 13.359375 -13.476562 13.234375 -13.59375 C 13.117188 -13.71875 13.0625 -13.863281 13.0625 -14.03125 L 13.03125 -18.578125 C 13.019531 -18.742188 13.070312 -18.882812 13.1875 -19 C 13.300781 -19.113281 13.441406 -19.175781 13.609375 -19.1875 L 24.15625 -19.28125 C 24.320312 -19.28125 24.460938 -19.222656 24.578125 -19.109375 C 24.703125 -19.003906 24.769531 -18.867188 24.78125 -18.703125 L 24.84375 -10.75 C 24.882812 -7.414062 23.867188 -4.753906 21.796875 -2.765625 C 19.734375 -0.773438 16.96875 0.238281 13.5 0.28125 Z M 13.5 0.28125 "/></g></g></g><g fill="#472046" fill-opacity="1"><g transform="translate(209.797859, 277.314141)"><g><path d="M 10.6875 -0.671875 C 10.519531 -0.660156 10.367188 -0.707031 10.234375 -0.8125 C 10.109375 -0.925781 10.046875 -1.066406 10.046875 -1.234375 L 9.296875 -14.015625 L 9.234375 -14.3125 L -0.578125 -34.3125 C -0.628906 -34.382812 -0.65625 -34.484375 -0.65625 -34.609375 C -0.675781 -34.878906 -0.519531 -35.023438 -0.1875 -35.046875 L 6.109375 -35.40625 C 6.472656 -35.425781 6.710938 -35.273438 6.828125 -34.953125 L 12.21875 -22.59375 C 12.25 -22.5 12.296875 -22.453125 12.359375 -22.453125 C 12.429688 -22.460938 12.484375 -22.515625 12.515625 -22.609375 L 16.421875 -35.5 C 16.492188 -35.84375 16.71875 -36.023438 17.09375 -36.046875 L 23.375 -36.40625 C 23.601562 -36.425781 23.753906 -36.367188 23.828125 -36.234375 C 23.910156 -36.097656 23.925781 -35.929688 23.875 -35.734375 L 16.375 -14.734375 L 16.34375 -14.4375 L 17.09375 -1.65625 C 17.09375 -1.488281 17.035156 -1.335938 16.921875 -1.203125 C 16.816406 -1.078125 16.679688 -1.007812 16.515625 -1 Z M 10.6875 -0.671875 "/></g></g></g><g fill="#472046" fill-opacity="1"><g transform="translate(239.66528, 275.566357)"><g><path d="M 17.984375 -36.796875 C 18.066406 -37.066406 18.273438 -37.222656 18.609375 -37.265625 L 24.390625 -37.90625 C 24.554688 -37.925781 24.703125 -37.882812 24.828125 -37.78125 C 24.953125 -37.6875 25.023438 -37.554688 25.046875 -37.390625 L 28.765625 -3.78125 C 28.785156 -3.613281 28.742188 -3.46875 28.640625 -3.34375 C 28.535156 -3.21875 28.398438 -3.144531 28.234375 -3.125 L 22.40625 -2.484375 C 22.238281 -2.460938 22.09375 -2.5 21.96875 -2.59375 C 21.84375 -2.695312 21.769531 -2.832031 21.75 -3 L 19.3125 -25.0625 C 19.289062 -25.195312 19.25 -25.269531 19.1875 -25.28125 C 19.125 -25.289062 19.066406 -25.242188 19.015625 -25.140625 L 15.25 -17.078125 C 15.144531 -16.796875 14.929688 -16.640625 14.609375 -16.609375 L 13.46875 -16.484375 C 13.132812 -16.441406 12.882812 -16.546875 12.71875 -16.796875 L 7.328125 -23.859375 C 7.242188 -23.941406 7.164062 -23.96875 7.09375 -23.9375 C 7.03125 -23.914062 7.007812 -23.835938 7.03125 -23.703125 L 9.46875 -1.640625 C 9.488281 -1.472656 9.445312 -1.328125 9.34375 -1.203125 C 9.238281 -1.078125 9.109375 -1.003906 8.953125 -0.984375 L 3.140625 -0.34375 C 2.972656 -0.320312 2.820312 -0.363281 2.6875 -0.46875 C 2.5625 -0.570312 2.488281 -0.707031 2.46875 -0.875 L -1.25 -34.484375 C -1.269531 -34.648438 -1.222656 -34.789062 -1.109375 -34.90625 C -1.003906 -35.03125 -0.867188 -35.101562 -0.703125 -35.125 L 5.0625 -35.765625 C 5.382812 -35.796875 5.628906 -35.691406 5.796875 -35.453125 L 12.84375 -26.3125 C 12.957031 -26.132812 13.054688 -26.144531 13.140625 -26.34375 Z M 17.984375 -36.796875 "/></g></g></g></svg>