<svg xmlns="http://www.w3.org/2000/svg" xmlns:xlink="http://www.w3.org/1999/xlink" width="500" zoomAndPan="magnify" viewBox="0 0 375 374.999991" height="500" preserveAspectRatio="xMidYMid meet" version="1.0"><defs><g/><clipPath id="b210bb878d"><path d="M 51.917969 44.074219 L 323.417969 44.074219 L 323.417969 271.324219 L 51.917969 271.324219 Z M 51.917969 44.074219 " clip-rule="nonzero"/></clipPath></defs><g clip-path="url(#b210bb878d)"><path fill="#45a7f7" d="M 312.636719 80.90625 C 311.449219 78.09375 310.171875 75.332031 308.804688 72.625 C 308.804688 72.621094 308.800781 72.617188 308.800781 72.613281 C 308.148438 71.144531 307.464844 69.859375 306.761719 68.726562 C 306.757812 68.722656 306.757812 68.71875 306.753906 68.714844 C 306.734375 68.679688 306.71875 68.644531 306.699219 68.609375 C 306.6875 68.601562 306.679688 68.589844 306.671875 68.582031 C 306.671875 68.578125 306.667969 68.578125 306.667969 68.578125 C 301.359375 60.140625 295.070312 60.652344 293.546875 60.921875 C 293.546875 60.921875 293.546875 60.921875 293.542969 60.921875 C 285.699219 60.777344 282.179688 74.210938 282.179688 74.210938 C 276.257812 102.457031 259.121094 106.679688 258.851562 106.746094 C 271.601562 95.894531 270.242188 68.789062 254.78125 68.789062 C 241.980469 68.789062 241.261719 84.761719 241.394531 90.265625 C 241.125 93.644531 240.578125 98.238281 239.460938 102.5 C 233.320312 122.820312 216.359375 130.460938 202.230469 133.207031 C 196.285156 134.085938 185.859375 134.847656 175.15625 131.972656 C 135.210938 116.53125 112.625 151.753906 112.625 151.753906 C 90.886719 184.980469 69.640625 176.53125 58.082031 167.46875 C 58.074219 167.464844 58.066406 167.457031 58.058594 167.453125 C 57.902344 167.332031 57.75 167.210938 57.597656 167.085938 C 56.5625 166.253906 55.613281 165.421875 54.75 164.621094 C 54.761719 164.667969 54.769531 164.710938 54.78125 164.757812 C 53.867188 163.921875 52.890625 162.945312 51.917969 161.84375 C 53.714844 170.648438 56.386719 179.253906 59.921875 187.605469 C 66.828125 203.925781 76.714844 218.582031 89.308594 231.167969 C 101.902344 243.753906 116.570312 253.636719 132.898438 260.539062 C 149.808594 267.6875 167.769531 271.3125 186.28125 271.3125 C 204.792969 271.3125 222.75 267.6875 239.660156 260.539062 C 255.988281 253.636719 270.65625 243.753906 283.25 231.167969 C 295.84375 218.582031 305.730469 203.925781 312.636719 187.605469 C 319.789062 170.707031 323.414062 152.757812 323.414062 134.257812 C 323.414062 115.753906 319.789062 97.804688 312.636719 80.90625 Z M 280.359375 103.382812 C 285.054688 103.382812 288.859375 107.1875 288.859375 111.878906 C 288.859375 116.570312 285.054688 120.375 280.359375 120.375 C 275.664062 120.375 271.859375 116.570312 271.859375 111.878906 C 271.859375 107.1875 275.664062 103.382812 280.359375 103.382812 Z M 301.671875 199.886719 C 292.492188 209.929688 275.597656 224.542969 258.292969 219.792969 C 258.292969 219.792969 288.5 200.453125 274.210938 191.054688 C 259.921875 181.652344 253.230469 221.78125 198.605469 213.289062 C 198.605469 213.289062 164.421875 204.066406 148.507812 214.914062 C 135.816406 223.5625 118.527344 233.125 97.828125 233.167969 C 86.148438 222.722656 76.324219 210.25 68.914062 196.304688 C 76.648438 199.691406 88.125 201.6875 102.929688 195.933594 C 132.230469 184.546875 124.8125 156.167969 179.4375 174.785156 C 204.125 183.199219 223.199219 174.441406 236.6875 162.316406 C 237.679688 161.421875 238.640625 160.511719 239.574219 159.589844 C 241.066406 158.109375 242.484375 156.601562 243.820312 155.078125 C 252.207031 144.835938 260.28125 127.90625 260.28125 127.90625 L 260.3125 127.921875 C 261.378906 124.59375 264.5 122.183594 268.183594 122.183594 C 271.300781 122.183594 274.015625 123.910156 275.421875 126.460938 C 275.679688 126.929688 275.894531 127.429688 276.058594 127.949219 C 276.265625 128.609375 276.394531 129.308594 276.429688 130.03125 C 276.429688 130.035156 276.429688 130.039062 276.429688 130.042969 C 276.789062 133.410156 276.320312 139.0625 272.113281 146.914062 C 266.816406 158.132812 258.113281 168.457031 258.113281 168.457031 C 258.113281 168.457031 277.105469 165.566406 287.050781 146.585938 C 295.003906 131.410156 308.851562 121.203125 318.707031 124.375 C 318.953125 127.636719 319.074219 130.933594 319.074219 134.257812 C 319.074219 158.113281 312.742188 180.519531 301.671875 199.886719 Z M 292.117188 180.570312 C 292.117188 185.261719 288.308594 189.066406 283.613281 189.066406 C 278.921875 189.066406 275.113281 185.261719 275.113281 180.570312 C 275.113281 175.878906 278.921875 172.074219 283.613281 172.074219 C 288.308594 172.074219 292.117188 175.878906 292.117188 180.570312 Z M 247.984375 52.589844 C 247.984375 47.898438 251.789062 44.09375 256.484375 44.09375 C 261.179688 44.09375 264.984375 47.898438 264.984375 52.589844 C 264.984375 57.28125 261.179688 61.085938 256.484375 61.085938 C 251.789062 61.085938 247.984375 57.28125 247.984375 52.589844 Z M 247.984375 52.589844 " fill-opacity="1" fill-rule="nonzero"/></g><g fill="#45a7f7" fill-opacity="1"><g transform="translate(82.111874, 314.924744)"><g><path d="M 19.148438 -6.800781 L 19.148438 -9.398438 C 19.148438 -10.25 19 -11.050781 18.699219 -11.796875 C 18.398438 -12.546875 17.949219 -13.25 17.398438 -13.898438 L 7.800781 -24.597656 L 7.800781 -27.199219 L 12.347656 -27.199219 L 12.347656 -22.699219 L 19.148438 -22.699219 L 19.148438 -27.199219 C 19.148438 -28.148438 19 -28.996094 18.648438 -29.847656 C 18.296875 -30.695312 17.796875 -31.398438 17.199219 -32.046875 C 16.546875 -32.648438 15.847656 -33.148438 15 -33.496094 C 14.148438 -33.847656 13.296875 -33.996094 12.347656 -33.996094 L 7.800781 -33.996094 C 6.847656 -33.996094 6 -33.847656 5.148438 -33.496094 C 4.300781 -33.148438 3.601562 -32.648438 3 -32.046875 C 2.351562 -31.398438 1.898438 -30.695312 1.550781 -29.847656 C 1.199219 -28.996094 1 -28.148438 1 -27.199219 L 1 -24.597656 C 1 -23.746094 1.148438 -22.949219 1.449219 -22.199219 C 1.75 -21.398438 2.199219 -20.699219 2.75 -20.046875 L 12.347656 -9.398438 L 12.347656 -6.800781 L 7.800781 -6.800781 L 7.800781 -11.398438 L 1 -11.398438 L 1 -6.800781 C 1 -5.847656 1.199219 -5 1.550781 -4.148438 C 1.898438 -3.300781 2.351562 -2.601562 3 -2 C 3.601562 -1.351562 4.300781 -0.898438 5.148438 -0.550781 C 6 -0.199219 6.847656 0 7.800781 0 L 12.347656 0 C 13.296875 0 14.148438 -0.199219 15 -0.550781 C 15.847656 -0.898438 16.546875 -1.351562 17.199219 -2 C 17.796875 -2.601562 18.296875 -3.300781 18.648438 -4.148438 C 19 -5 19.148438 -5.847656 19.148438 -6.800781 Z M 19.148438 -6.800781 "/></g></g></g><g fill="#45a7f7" fill-opacity="1"><g transform="translate(102.25875, 314.924744)"><g><path d="M 19.347656 -18.648438 C 19.847656 -19.398438 20.097656 -20.347656 20.097656 -21.398438 L 20.097656 -33.996094 L 13.296875 -33.996094 L 13.296875 -20.398438 L 8.800781 -20.398438 L 8.800781 -33.996094 L 2 -33.996094 L 2 0 L 8.800781 0 L 8.800781 -13.597656 L 13.296875 -13.597656 L 13.296875 0 L 20.097656 0 L 20.097656 -12.546875 C 20.097656 -13.597656 19.796875 -14.546875 19.25 -15.296875 C 18.699219 -16.046875 17.898438 -16.648438 16.949219 -17 C 18 -17.296875 18.796875 -17.847656 19.347656 -18.648438 Z M 19.347656 -18.648438 "/></g></g></g><g fill="#45a7f7" fill-opacity="1"><g transform="translate(124.355332, 314.924744)"><g><path d="M 8.800781 -33.996094 L 2 -33.996094 L 2 0 L 8.800781 0 Z M 8.800781 -33.996094 "/></g></g></g><g fill="#45a7f7" fill-opacity="1"><g transform="translate(135.153656, 314.924744)"><g><path d="M 20.097656 -20.398438 L 20.097656 -27.199219 C 20.097656 -28.148438 19.949219 -28.996094 19.597656 -29.847656 C 19.25 -30.695312 18.75 -31.398438 18.148438 -32.046875 C 17.5 -32.648438 16.796875 -33.148438 15.949219 -33.496094 C 15.097656 -33.847656 14.25 -33.996094 13.296875 -33.996094 L 4.050781 -33.996094 C 2.898438 -33.996094 2 -33.097656 2 -31.945312 L 2 0 L 8.800781 0 L 8.800781 -13.597656 L 13.296875 -13.597656 C 14.25 -13.597656 15.097656 -13.796875 15.949219 -14.148438 C 16.796875 -14.5 17.5 -14.949219 18.148438 -15.597656 C 18.75 -16.199219 19.25 -16.898438 19.597656 -17.75 C 19.949219 -18.597656 20.097656 -19.449219 20.097656 -20.398438 Z M 8.800781 -20.398438 L 8.800781 -27.199219 L 13.296875 -27.199219 L 13.296875 -20.398438 Z M 8.800781 -20.398438 "/></g></g></g><g fill="#45a7f7" fill-opacity="1"><g transform="translate(156.750315, 314.924744)"><g/></g></g><g fill="#45a7f7" fill-opacity="1"><g transform="translate(168.74846, 314.924744)"><g><path d="M 19.148438 -6.800781 L 19.148438 -9.398438 C 19.148438 -10.25 19 -11.050781 18.699219 -11.796875 C 18.398438 -12.546875 17.949219 -13.25 17.398438 -13.898438 L 7.800781 -24.597656 L 7.800781 -27.199219 L 12.347656 -27.199219 L 12.347656 -22.699219 L 19.148438 -22.699219 L 19.148438 -27.199219 C 19.148438 -28.148438 19 -28.996094 18.648438 -29.847656 C 18.296875 -30.695312 17.796875 -31.398438 17.199219 -32.046875 C 16.546875 -32.648438 15.847656 -33.148438 15 -33.496094 C 14.148438 -33.847656 13.296875 -33.996094 12.347656 -33.996094 L 7.800781 -33.996094 C 6.847656 -33.996094 6 -33.847656 5.148438 -33.496094 C 4.300781 -33.148438 3.601562 -32.648438 3 -32.046875 C 2.351562 -31.398438 1.898438 -30.695312 1.550781 -29.847656 C 1.199219 -28.996094 1 -28.148438 1 -27.199219 L 1 -24.597656 C 1 -23.746094 1.148438 -22.949219 1.449219 -22.199219 C 1.75 -21.398438 2.199219 -20.699219 2.75 -20.046875 L 12.347656 -9.398438 L 12.347656 -6.800781 L 7.800781 -6.800781 L 7.800781 -11.398438 L 1 -11.398438 L 1 -6.800781 C 1 -5.847656 1.199219 -5 1.550781 -4.148438 C 1.898438 -3.300781 2.351562 -2.601562 3 -2 C 3.601562 -1.351562 4.300781 -0.898438 5.148438 -0.550781 C 6 -0.199219 6.847656 0 7.800781 0 L 12.347656 0 C 13.296875 0 14.148438 -0.199219 15 -0.550781 C 15.847656 -0.898438 16.546875 -1.351562 17.199219 -2 C 17.796875 -2.601562 18.296875 -3.300781 18.648438 -4.148438 C 19 -5 19.148438 -5.847656 19.148438 -6.800781 Z M 19.148438 -6.800781 "/></g></g></g><g fill="#45a7f7" fill-opacity="1"><g transform="translate(188.895336, 314.924744)"><g><path d="M 20.097656 -20.398438 L 20.097656 -27.199219 C 20.097656 -28.148438 19.949219 -28.996094 19.597656 -29.847656 C 19.25 -30.695312 18.75 -31.398438 18.148438 -32.046875 C 17.5 -32.648438 16.796875 -33.148438 15.949219 -33.496094 C 15.097656 -33.847656 14.25 -33.996094 13.296875 -33.996094 L 4.050781 -33.996094 C 2.898438 -33.996094 2 -33.097656 2 -31.945312 L 2 0 L 8.800781 0 L 8.800781 -13.597656 L 13.296875 -13.597656 C 14.25 -13.597656 15.097656 -13.796875 15.949219 -14.148438 C 16.796875 -14.5 17.5 -14.949219 18.148438 -15.597656 C 18.75 -16.199219 19.25 -16.898438 19.597656 -17.75 C 19.949219 -18.597656 20.097656 -19.449219 20.097656 -20.398438 Z M 8.800781 -20.398438 L 8.800781 -27.199219 L 13.296875 -27.199219 L 13.296875 -20.398438 Z M 8.800781 -20.398438 "/></g></g></g><g fill="#45a7f7" fill-opacity="1"><g transform="translate(210.491995, 314.924744)"><g><path d="M 16.546875 -6.800781 L 8.800781 -6.800781 L 8.800781 -33.996094 L 2 -33.996094 L 2 -2.050781 C 2 -0.898438 2.898438 0 4.050781 0 L 16.546875 0 Z M 16.546875 -6.800781 "/></g></g></g><g fill="#45a7f7" fill-opacity="1"><g transform="translate(228.539201, 314.924744)"><g><path d="M 20.097656 -27.246094 C 20.097656 -28.195312 19.949219 -29.046875 19.597656 -29.847656 C 19.25 -30.695312 18.75 -31.398438 18.148438 -31.996094 C 17.5 -32.648438 16.796875 -33.097656 15.949219 -33.445312 C 15.097656 -33.796875 14.25 -33.996094 13.296875 -33.996094 L 8.800781 -33.996094 C 7.847656 -33.996094 7 -33.796875 6.148438 -33.445312 C 5.300781 -33.097656 4.597656 -32.648438 4 -31.996094 C 3.351562 -31.398438 2.898438 -30.695312 2.550781 -29.847656 C 2.199219 -29.046875 2 -28.195312 2 -27.246094 L 2 0 L 8.800781 0 L 8.800781 -13.597656 L 13.296875 -13.597656 L 13.296875 0 L 20.097656 0 Z M 8.800781 -20.398438 L 8.800781 -27.246094 L 13.296875 -27.246094 L 13.296875 -20.398438 Z M 8.800781 -20.398438 "/></g></g></g><g fill="#45a7f7" fill-opacity="1"><g transform="translate(250.635784, 314.924744)"><g><path d="M 19.148438 -6.800781 L 19.148438 -9.398438 C 19.148438 -10.25 19 -11.050781 18.699219 -11.796875 C 18.398438 -12.546875 17.949219 -13.25 17.398438 -13.898438 L 7.800781 -24.597656 L 7.800781 -27.199219 L 12.347656 -27.199219 L 12.347656 -22.699219 L 19.148438 -22.699219 L 19.148438 -27.199219 C 19.148438 -28.148438 19 -28.996094 18.648438 -29.847656 C 18.296875 -30.695312 17.796875 -31.398438 17.199219 -32.046875 C 16.546875 -32.648438 15.847656 -33.148438 15 -33.496094 C 14.148438 -33.847656 13.296875 -33.996094 12.347656 -33.996094 L 7.800781 -33.996094 C 6.847656 -33.996094 6 -33.847656 5.148438 -33.496094 C 4.300781 -33.148438 3.601562 -32.648438 3 -32.046875 C 2.351562 -31.398438 1.898438 -30.695312 1.550781 -29.847656 C 1.199219 -28.996094 1 -28.148438 1 -27.199219 L 1 -24.597656 C 1 -23.746094 1.148438 -22.949219 1.449219 -22.199219 C 1.75 -21.398438 2.199219 -20.699219 2.75 -20.046875 L 12.347656 -9.398438 L 12.347656 -6.800781 L 7.800781 -6.800781 L 7.800781 -11.398438 L 1 -11.398438 L 1 -6.800781 C 1 -5.847656 1.199219 -5 1.550781 -4.148438 C 1.898438 -3.300781 2.351562 -2.601562 3 -2 C 3.601562 -1.351562 4.300781 -0.898438 5.148438 -0.550781 C 6 -0.199219 6.847656 0 7.800781 0 L 12.347656 0 C 13.296875 0 14.148438 -0.199219 15 -0.550781 C 15.847656 -0.898438 16.546875 -1.351562 17.199219 -2 C 17.796875 -2.601562 18.296875 -3.300781 18.648438 -4.148438 C 19 -5 19.148438 -5.847656 19.148438 -6.800781 Z M 19.148438 -6.800781 "/></g></g></g><g fill="#45a7f7" fill-opacity="1"><g transform="translate(270.78266, 314.924744)"><g><path d="M 20.097656 -33.996094 L 13.296875 -33.996094 L 13.296875 -20.398438 L 8.800781 -20.398438 L 8.800781 -33.996094 L 2 -33.996094 L 2 0 L 8.800781 0 L 8.800781 -13.597656 L 13.296875 -13.597656 L 13.296875 0 L 20.097656 0 Z M 20.097656 -33.996094 "/></g></g></g></svg>