<?xml version="1.0" encoding="UTF-8" standalone="no"?>
<svg
   width="361.99478"
   zoomAndPan="magnify"
   viewBox="0 0 271.49609 270.83099"
   height="361.108"
   preserveAspectRatio="xMidYMid"
   version="1.0"
   id="svg99"
   sodipodi:docname="SkipSplash.svg"
   inkscape:version="1.2.2 (732a01da63, 2022-12-09)"
   xmlns:inkscape="http://www.inkscape.org/namespaces/inkscape"
   xmlns:sodipodi="http://sodipodi.sourceforge.net/DTD/sodipodi-0.dtd"
   xmlns="http://www.w3.org/2000/svg"
   xmlns:svg="http://www.w3.org/2000/svg">
  <sodipodi:namedview
     id="namedview101"
     pagecolor="#ffffff"
     bordercolor="#000000"
     borderopacity="0.25"
     inkscape:showpageshadow="2"
     inkscape:pageopacity="0.0"
     inkscape:pagecheckerboard="0"
     inkscape:deskcolor="#d1d1d1"
     showgrid="false"
     inkscape:zoom="1.674"
     inkscape:cx="97.072879"
     inkscape:cy="191.1589"
     inkscape:window-width="1920"
     inkscape:window-height="1017"
     inkscape:window-x="1912"
     inkscape:window-y="-8"
     inkscape:window-maximized="1"
     inkscape:current-layer="svg99" />
  <defs
     id="defs7">
    <g
       id="g2" />
    <clipPath
       id="b210bb878d">
      <path
         d="M 51.917969,44.074219 H 323.41797 V 271.32422 H 51.917969 Z m 0,0"
         clip-rule="nonzero"
         id="path4" />
    </clipPath>
  </defs>
  <g
     clip-path="url(#b210bb878d)"
     id="g11"
     transform="translate(-51.917969,-44.09375)">
    <path
       fill="#45a7f7"
       d="m 312.63672,80.90625 c -1.1875,-2.8125 -2.46485,-5.574219 -3.83203,-8.28125 0,-0.0039 -0.004,-0.0078 -0.004,-0.01172 -0.65234,-1.46875 -1.33594,-2.753906 -2.03906,-3.886719 -0.004,-0.0039 -0.004,-0.0078 -0.008,-0.01172 -0.0195,-0.03516 -0.0352,-0.07031 -0.0547,-0.105469 -0.0117,-0.0078 -0.0195,-0.01953 -0.0274,-0.02734 0,-0.0039 -0.004,-0.0039 -0.004,-0.0039 -5.3086,-8.4375 -11.59766,-7.925781 -13.1211,-7.65625 0,0 0,0 -0.004,0 -7.84375,-0.144531 -11.36328,13.289063 -11.36328,13.289063 -5.92188,28.246095 -23.0586,32.468755 -23.32813,32.535155 12.75,-10.851562 11.39063,-37.957031 -4.07031,-37.957031 -12.80078,0 -13.51953,15.972657 -13.38672,21.476563 -0.26953,3.378906 -0.81641,7.972656 -1.93359,12.234378 -6.14063,20.32031 -23.10157,27.96094 -37.23047,30.70703 -5.94531,0.87891 -16.3711,1.64063 -27.07422,-1.23437 -39.94531,-15.44141 -62.53125,19.78125 -62.53125,19.78125 -21.738281,33.22656 -42.984375,24.77734 -54.542969,15.71484 -0.0078,-0.004 -0.01563,-0.0117 -0.02344,-0.0156 -0.15625,-0.12109 -0.308594,-0.24218 -0.460938,-0.36718 -1.035156,-0.83203 -1.984375,-1.66407 -2.847656,-2.46485 0.01172,0.0469 0.01953,0.0898 0.03125,0.13672 -0.914062,-0.83594 -1.890625,-1.8125 -2.863281,-2.91406 1.796875,8.80469 4.46875,17.41016 8.003906,25.76172 6.90625,16.32031 16.792969,30.97656 29.386719,43.5625 12.593749,12.58594 27.261719,22.46875 43.589849,29.37109 16.91015,7.14844 34.87109,10.77344 53.38281,10.77344 18.51172,0 36.46875,-3.625 53.37891,-10.77344 16.32812,-6.90234 30.99609,-16.78515 43.58984,-29.37109 12.59375,-12.58594 22.48047,-27.24219 29.38672,-43.5625 7.15234,-16.89844 10.77734,-34.84766 10.77734,-53.34766 0,-18.5039 -3.625,-36.453125 -10.77734,-53.351563 z m -32.27735,22.47656 c 4.69532,0 8.5,3.80469 8.5,8.4961 0,4.6914 -3.80468,8.49609 -8.5,8.49609 -4.69531,0 -8.5,-3.80469 -8.5,-8.49609 0,-4.69141 3.80469,-8.4961 8.5,-8.4961 z m 21.3125,96.50391 c -9.17968,10.04297 -26.07421,24.65625 -43.3789,19.90625 0,0 30.20703,-19.33985 15.91797,-28.73828 -14.28907,-9.40235 -20.98047,30.72656 -75.60547,22.23437 0,0 -34.1836,-9.22265 -50.09766,1.625 -12.6914,8.64844 -29.98047,18.21094 -50.679685,18.25391 C 86.148438,222.72266 76.324219,210.25 68.914062,196.30469 c 7.734376,3.38672 19.210938,5.38281 34.015628,-0.3711 29.30078,-11.38672 21.88281,-39.76562 76.50781,-21.14843 24.6875,8.41406 43.76172,-0.34375 57.25,-12.46875 0.99219,-0.89454 1.95312,-1.80469 2.88672,-2.72657 1.49219,-1.48047 2.91015,-2.98828 4.24609,-4.51172 8.38672,-10.24218 16.46094,-27.17187 16.46094,-27.17187 l 0.0312,0.0156 c 1.06641,-3.32813 4.1875,-5.73829 7.87109,-5.73829 3.11719,0 5.83203,1.72657 7.23828,4.27735 0.25782,0.46875 0.47266,0.96875 0.63672,1.48828 0.20703,0.66015 0.33594,1.35937 0.3711,2.08203 0,0.004 0,0.008 0,0.0117 0.35937,3.36719 -0.10938,9.01953 -4.31641,16.87109 -5.29687,11.21875 -14,21.54297 -14,21.54297 0,0 18.99219,-2.89062 28.9375,-21.87109 7.95313,-15.17578 21.80078,-25.38281 31.65625,-22.21094 0.24609,3.26172 0.36719,6.55859 0.36719,9.88281 0,23.85547 -6.33203,46.26172 -17.40235,65.62891 z m -9.55468,-19.31641 c 0,4.69141 -3.8086,8.4961 -8.50391,8.4961 -4.69141,0 -8.5,-3.80469 -8.5,-8.4961 0,-4.6914 3.80859,-8.49609 8.5,-8.49609 4.69531,0 8.50391,3.80469 8.50391,8.49609 z M 247.98437,52.589844 c 0,-4.691406 3.80469,-8.496094 8.5,-8.496094 4.69532,0 8.5,3.804688 8.5,8.496094 0,4.691406 -3.80468,8.496094 -8.5,8.496094 -4.69531,0 -8.5,-3.804688 -8.5,-8.496094 z m 0,0"
       fill-opacity="1"
       fill-rule="nonzero"
       id="path9" />
  </g>
  <g
     fill="#45a7f7"
     fill-opacity="1"
     id="g19"
     transform="translate(-51.917969,-44.09375)">
    <g
       transform="translate(82.111874,314.92474)"
       id="g17">
      <g
         id="g15">
        <path
           d="m 19.148438,-6.800781 v -2.597657 c 0,-0.851562 -0.148438,-1.652343 -0.449219,-2.398437 -0.300781,-0.75 -0.75,-1.453125 -1.300781,-2.101563 L 7.800781,-24.597656 v -2.601563 h 4.546875 v 4.5 h 6.800782 v -4.5 c 0,-0.949219 -0.148438,-1.796875 -0.5,-2.648437 -0.351563,-0.847656 -0.851563,-1.550782 -1.449219,-2.199219 -0.652344,-0.601563 -1.351563,-1.101563 -2.199219,-1.449219 -0.851562,-0.351562 -1.703125,-0.5 -2.652344,-0.5 H 7.800781 c -0.953125,0 -1.800781,0.148438 -2.652343,0.5 C 4.300781,-33.148438 3.601562,-32.648438 3,-32.046875 2.351562,-31.398438 1.898438,-30.695312 1.550781,-29.847656 1.199219,-28.996094 1,-28.148438 1,-27.199219 v 2.601563 c 0,0.851562 0.148438,1.648437 0.449219,2.398437 0.300781,0.800781 0.75,1.5 1.300781,2.152344 l 9.597656,10.648437 v 2.597657 H 7.800781 v -4.597657 H 1 v 4.597657 C 1,-5.847656 1.199219,-5 1.550781,-4.148438 1.898438,-3.300781 2.351562,-2.601562 3,-2 3.601562,-1.351562 4.300781,-0.898438 5.148438,-0.550781 6,-0.199219 6.847656,0 7.800781,0 h 4.546875 C 13.296875,0 14.148438,-0.199219 15,-0.550781 15.847656,-0.898438 16.546875,-1.351562 17.199219,-2 c 0.597656,-0.601562 1.097656,-1.300781 1.449219,-2.148438 0.351562,-0.851562 0.5,-1.699218 0.5,-2.652343 z m 0,0"
           id="path13" />
      </g>
    </g>
  </g>
  <g
     fill="#45a7f7"
     fill-opacity="1"
     id="g27"
     transform="translate(-51.917969,-44.09375)">
    <g
       transform="translate(102.25875,314.92474)"
       id="g25">
      <g
         id="g23">
        <path
           d="m 19.347656,-18.648438 c 0.5,-0.75 0.75,-1.699218 0.75,-2.75 v -12.597656 h -6.800781 v 13.597656 H 8.800781 V -33.996094 H 2 V 0 h 6.800781 v -13.597656 h 4.496094 V 0 h 6.800781 v -12.546875 c 0,-1.050781 -0.300781,-2 -0.847656,-2.75 -0.550781,-0.75 -1.351562,-1.351563 -2.300781,-1.703125 1.050781,-0.296875 1.847656,-0.847656 2.398437,-1.648438 z m 0,0"
           id="path21" />
      </g>
    </g>
  </g>
  <g
     fill="#45a7f7"
     fill-opacity="1"
     id="g35"
     transform="translate(-51.917969,-44.09375)">
    <g
       transform="translate(124.35533,314.92474)"
       id="g33">
      <g
         id="g31">
        <path
           d="M 8.800781,-33.996094 H 2 V 0 h 6.800781 z m 0,0"
           id="path29" />
      </g>
    </g>
  </g>
  <g
     fill="#45a7f7"
     fill-opacity="1"
     id="g43"
     transform="translate(-51.917969,-44.09375)">
    <g
       transform="translate(135.15366,314.92474)"
       id="g41">
      <g
         id="g39">
        <path
           d="m 20.097656,-20.398438 v -6.800781 c 0,-0.949219 -0.148437,-1.796875 -0.5,-2.648437 C 19.25,-30.695312 18.75,-31.398438 18.148438,-32.046875 17.5,-32.648438 16.796875,-33.148438 15.949219,-33.496094 c -0.851563,-0.351562 -1.699219,-0.5 -2.652344,-0.5 H 4.050781 C 2.898438,-33.996094 2,-33.097656 2,-31.945312 V 0 h 6.800781 v -13.597656 h 4.496094 c 0.953125,0 1.800781,-0.199219 2.652344,-0.550782 C 16.796875,-14.5 17.5,-14.949219 18.148438,-15.597656 18.75,-16.199219 19.25,-16.898438 19.597656,-17.75 c 0.351563,-0.847656 0.5,-1.699219 0.5,-2.648438 z m -11.296875,0 v -6.800781 h 4.496094 v 6.800781 z m 0,0"
           id="path37" />
      </g>
    </g>
  </g>
  <g
     fill="#45a7f7"
     fill-opacity="1"
     id="g49"
     transform="translate(-51.917969,-44.09375)">
    <g
       transform="translate(156.75031,314.92474)"
       id="g47">
      <g
         id="g45" />
    </g>
  </g>
  <g
     fill="#45a7f7"
     fill-opacity="1"
     id="g57"
     transform="translate(-51.917969,-44.09375)">
    <g
       transform="translate(168.74846,314.92474)"
       id="g55">
      <g
         id="g53">
        <path
           d="m 19.148438,-6.800781 v -2.597657 c 0,-0.851562 -0.148438,-1.652343 -0.449219,-2.398437 -0.300781,-0.75 -0.75,-1.453125 -1.300781,-2.101563 L 7.800781,-24.597656 v -2.601563 h 4.546875 v 4.5 h 6.800782 v -4.5 c 0,-0.949219 -0.148438,-1.796875 -0.5,-2.648437 -0.351563,-0.847656 -0.851563,-1.550782 -1.449219,-2.199219 -0.652344,-0.601563 -1.351563,-1.101563 -2.199219,-1.449219 -0.851562,-0.351562 -1.703125,-0.5 -2.652344,-0.5 H 7.800781 c -0.953125,0 -1.800781,0.148438 -2.652343,0.5 C 4.300781,-33.148438 3.601562,-32.648438 3,-32.046875 2.351562,-31.398438 1.898438,-30.695312 1.550781,-29.847656 1.199219,-28.996094 1,-28.148438 1,-27.199219 v 2.601563 c 0,0.851562 0.148438,1.648437 0.449219,2.398437 0.300781,0.800781 0.75,1.5 1.300781,2.152344 l 9.597656,10.648437 v 2.597657 H 7.800781 v -4.597657 H 1 v 4.597657 C 1,-5.847656 1.199219,-5 1.550781,-4.148438 1.898438,-3.300781 2.351562,-2.601562 3,-2 3.601562,-1.351562 4.300781,-0.898438 5.148438,-0.550781 6,-0.199219 6.847656,0 7.800781,0 h 4.546875 C 13.296875,0 14.148438,-0.199219 15,-0.550781 15.847656,-0.898438 16.546875,-1.351562 17.199219,-2 c 0.597656,-0.601562 1.097656,-1.300781 1.449219,-2.148438 0.351562,-0.851562 0.5,-1.699218 0.5,-2.652343 z m 0,0"
           id="path51" />
      </g>
    </g>
  </g>
  <g
     fill="#45a7f7"
     fill-opacity="1"
     id="g65"
     transform="translate(-51.917969,-44.09375)">
    <g
       transform="translate(188.89534,314.92474)"
       id="g63">
      <g
         id="g61">
        <path
           d="m 20.097656,-20.398438 v -6.800781 c 0,-0.949219 -0.148437,-1.796875 -0.5,-2.648437 C 19.25,-30.695312 18.75,-31.398438 18.148438,-32.046875 17.5,-32.648438 16.796875,-33.148438 15.949219,-33.496094 c -0.851563,-0.351562 -1.699219,-0.5 -2.652344,-0.5 H 4.050781 C 2.898438,-33.996094 2,-33.097656 2,-31.945312 V 0 h 6.800781 v -13.597656 h 4.496094 c 0.953125,0 1.800781,-0.199219 2.652344,-0.550782 C 16.796875,-14.5 17.5,-14.949219 18.148438,-15.597656 18.75,-16.199219 19.25,-16.898438 19.597656,-17.75 c 0.351563,-0.847656 0.5,-1.699219 0.5,-2.648438 z m -11.296875,0 v -6.800781 h 4.496094 v 6.800781 z m 0,0"
           id="path59" />
      </g>
    </g>
  </g>
  <g
     fill="#45a7f7"
     fill-opacity="1"
     id="g73"
     transform="translate(-51.917969,-44.09375)">
    <g
       transform="translate(210.49199,314.92474)"
       id="g71">
      <g
         id="g69">
        <path
           d="M 16.546875,-6.800781 H 8.800781 V -33.996094 H 2 V -2.050781 C 2,-0.898438 2.898438,0 4.050781,0 h 12.496094 z m 0,0"
           id="path67" />
      </g>
    </g>
  </g>
  <g
     fill="#45a7f7"
     fill-opacity="1"
     id="g81"
     transform="translate(-51.917969,-44.09375)">
    <g
       transform="translate(228.5392,314.92474)"
       id="g79">
      <g
         id="g77">
        <path
           d="m 20.097656,-27.246094 c 0,-0.949218 -0.148437,-1.800781 -0.5,-2.601562 C 19.25,-30.695312 18.75,-31.398438 18.148438,-31.996094 17.5,-32.648438 16.796875,-33.097656 15.949219,-33.445312 15.097656,-33.796875 14.25,-33.996094 13.296875,-33.996094 H 8.800781 c -0.953125,0 -1.800781,0.199219 -2.652343,0.550782 C 5.300781,-33.097656 4.597656,-32.648438 4,-31.996094 3.351562,-31.398438 2.898438,-30.695312 2.550781,-29.847656 2.199219,-29.046875 2,-28.195312 2,-27.246094 V 0 h 6.800781 v -13.597656 h 4.496094 V 0 h 6.800781 z m -11.296875,6.847656 v -6.847656 h 4.496094 v 6.847656 z m 0,0"
           id="path75" />
      </g>
    </g>
  </g>
  <g
     fill="#45a7f7"
     fill-opacity="1"
     id="g89"
     transform="translate(-51.917969,-44.09375)">
    <g
       transform="translate(250.63578,314.92474)"
       id="g87">
      <g
         id="g85">
        <path
           d="m 19.148438,-6.800781 v -2.597657 c 0,-0.851562 -0.148438,-1.652343 -0.449219,-2.398437 -0.300781,-0.75 -0.75,-1.453125 -1.300781,-2.101563 L 7.800781,-24.597656 v -2.601563 h 4.546875 v 4.5 h 6.800782 v -4.5 c 0,-0.949219 -0.148438,-1.796875 -0.5,-2.648437 -0.351563,-0.847656 -0.851563,-1.550782 -1.449219,-2.199219 -0.652344,-0.601563 -1.351563,-1.101563 -2.199219,-1.449219 -0.851562,-0.351562 -1.703125,-0.5 -2.652344,-0.5 H 7.800781 c -0.953125,0 -1.800781,0.148438 -2.652343,0.5 C 4.300781,-33.148438 3.601562,-32.648438 3,-32.046875 2.351562,-31.398438 1.898438,-30.695312 1.550781,-29.847656 1.199219,-28.996094 1,-28.148438 1,-27.199219 v 2.601563 c 0,0.851562 0.148438,1.648437 0.449219,2.398437 0.300781,0.800781 0.75,1.5 1.300781,2.152344 l 9.597656,10.648437 v 2.597657 H 7.800781 v -4.597657 H 1 v 4.597657 C 1,-5.847656 1.199219,-5 1.550781,-4.148438 1.898438,-3.300781 2.351562,-2.601562 3,-2 3.601562,-1.351562 4.300781,-0.898438 5.148438,-0.550781 6,-0.199219 6.847656,0 7.800781,0 h 4.546875 C 13.296875,0 14.148438,-0.199219 15,-0.550781 15.847656,-0.898438 16.546875,-1.351562 17.199219,-2 c 0.597656,-0.601562 1.097656,-1.300781 1.449219,-2.148438 0.351562,-0.851562 0.5,-1.699218 0.5,-2.652343 z m 0,0"
           id="path83" />
      </g>
    </g>
  </g>
  <g
     fill="#45a7f7"
     fill-opacity="1"
     id="g97"
     transform="translate(-51.917969,-44.09375)">
    <g
       transform="translate(270.78266,314.92474)"
       id="g95">
      <g
         id="g93">
        <path
           d="m 20.097656,-33.996094 h -6.800781 v 13.597656 H 8.800781 V -33.996094 H 2 V 0 h 6.800781 v -13.597656 h 4.496094 V 0 h 6.800781 z m 0,0"
           id="path91" />
      </g>
    </g>
  </g>
</svg>
