<?xml version="1.0" encoding="UTF-8" standalone="no"?>
<!-- Created with Inkscape (http://www.inkscape.org/) -->

<svg
   width="25.791992mm"
   height="27.902802mm"
   viewBox="0 0 25.791992 27.902802"
   version="1.1"
   id="svg5"
   xml:space="preserve"
   xmlns="http://www.w3.org/2000/svg"
   xmlns:svg="http://www.w3.org/2000/svg"><defs
     id="defs2" /><g
     id="layer1"
     transform="translate(805.60323,-245.20767)"><path
       id="path14956"
       style="font-size:35.7222px;font-family:'a Aksentuasi';-inkscape-font-specification:'High Tower Text';fill:#deeefb;fill-opacity:1;stroke-width:2.93356;paint-order:stroke markers fill"
       d="m -790.77736,245.20766 c -4.05391,0 -7.51137,1.31524 -10.37216,3.94554 -2.96925,2.72521 -4.45367,6.14168 -4.45367,10.24983 0,4.02679 1.43713,7.32838 4.31147,9.90444 2.83368,2.53539 6.37905,3.803 10.63633,3.803 2.57607,0 4.85383,-0.30508 6.83333,-0.9152 1.81681,-0.56945 2.86094,-1.21358 3.13211,-1.93217 0.40675,-1.11177 0.69817,-2.56922 0.87443,-4.37247 0.0407,-0.46098 -0.21012,-0.7524 -0.75245,-0.87442 -0.75926,-0.1627 -1.24752,0.0475 -1.46446,0.63047 -0.7457,2.00661 -1.70823,3.4504 -2.88779,4.33168 -1.2338,0.92196 -2.92172,1.38326 -5.06393,1.38326 -3.29464,0 -5.99938,-1.1324 -8.11447,-3.39663 -2.16932,-2.30489 -3.25408,-5.32838 -3.25408,-9.07045 0,-3.76918 1.03047,-6.73837 3.09132,-8.90769 1.89815,-1.99306 4.3521,-2.98956 7.36203,-2.98956 2.39981,0 4.19631,0.44729 5.38944,1.34213 1.17073,0.86819 2.55975,2.83229 2.82227,4.61678 0.23572,1.60232 0.15647,1.88466 0.0334,3.33214 -0.2564,3.01721 -2.15812,9.37971 -4.4568,7.25017 -0.92739,-1.11556 -1.63147,-2.14529 -2.31693,-3.70437 2.15047,-0.59809 3.22585,-1.82789 3.22585,-3.68938 0,-1.08867 -0.43678,-1.91181 -1.31041,-2.46958 -0.77953,-0.50402 -1.84139,-0.75627 -3.18543,-0.75627 -0.65186,0 -1.3575,0.0102 -2.11688,0.0303 -0.75938,0.0202 -1.23308,0.0303 -1.42124,0.0303 -0.5645,0 -0.98471,-0.0203 -1.26023,-0.0606 -0.0874,-0.0134 -0.16796,-0.0202 -0.24188,-0.0202 -0.24865,0 -0.3729,0.12427 -0.3729,0.37291 0,0.16129 0.18488,0.27912 0.55448,0.35305 0.74595,0.14784 1.11873,0.54095 1.11873,1.17937 v 9.657 c 0,0.65186 -0.32912,1.01113 -0.98769,1.07831 -0.28897,0.0269 -0.43355,0.12778 -0.43355,0.30251 0,0.25535 0.14458,0.37286 0.43355,0.3527 1.43812,-0.10755 2.76544,-0.13426 3.98178,-0.0805 0.27553,0.0134 0.44347,-10e-5 0.50396,-0.0405 0.0605,-0.0403 0.0906,-0.14427 0.0906,-0.31227 0,-0.20161 -0.18488,-0.33263 -0.55448,-0.39313 -0.5309,-0.0806 -0.87356,-0.17139 -1.02812,-0.27219 -0.15456,-0.10752 -0.23176,-0.31949 -0.23176,-0.63534 v -4.23341 c 0.0538,0 0.49394,-0.0203 1.32052,-0.0606 2.14373,4.13292 4.65964,6.20515 6.32171,4.45646 1.10257,-1.16002 3.89578,-7.24964 4.02635,-11.22148 0.05,-1.52183 -0.5122,-3.22891 -1.25701,-4.39162 -0.55225,-0.85783 -1.15596,-1.45066 -1.96354,-2.03962 -1.90274,-1.38766 -3.6875,-1.7627 -6.56185,-1.7627 z m -0.60608,8.41699 c 1.12228,0 1.93863,0.21163 2.44937,0.63499 0.51073,0.42338 0.76639,1.13241 0.76639,2.12699 0,1.00803 -0.32948,1.75057 -0.98805,2.2277 -0.71234,0.51746 -1.88151,0.80291 -3.5078,0.85666 v -4.74782 c 0,-0.45697 0.0874,-0.75257 0.26209,-0.88697 0.17473,-0.14113 0.51399,-0.21155 1.018,-0.21155 z" /></g></svg>
